<?xml version="1.0" encoding="UTF-8" standalone="no"?>
<svg
   xmlns:dc="http://purl.org/dc/elements/1.1/"
   xmlns:cc="http://creativecommons.org/ns#"
   xmlns:rdf="http://www.w3.org/1999/02/22-rdf-syntax-ns#"
   xmlns:svg="http://www.w3.org/2000/svg"
   xmlns="http://www.w3.org/2000/svg"
   xmlns:sodipodi="http://sodipodi.sourceforge.net/DTD/sodipodi-0.dtd"
   xmlns:inkscape="http://www.inkscape.org/namespaces/inkscape"
   width="74.952217"
   height="100"
   viewBox="0 0 19.831107 26.458333"
   version="1.1"
   id="svg8"
   inkscape:version="1.0.2 (e86c8708, 2021-01-15)"
   sodipodi:docname="A♣︎.svg">
  <defs
     id="defs2" />
  <sodipodi:namedview
     id="base"
     pagecolor="#343434"
     bordercolor="#000000"
     borderopacity="1"
     inkscape:pageopacity="0.50196078"
     inkscape:pageshadow="2"
     inkscape:zoom="5.0625"
     inkscape:cx="28.250191"
     inkscape:cy="50.336353"
     inkscape:document-units="px"
     inkscape:current-layer="layer1"
     inkscape:document-rotation="0"
     showgrid="true"
     units="px"
     inkscape:showpageshadow="false"
     objecttolerance="20.1"
     fit-margin-top="0"
     fit-margin-left="0"
     fit-margin-right="0"
     fit-margin-bottom="0"
     inkscape:window-width="1326"
     inkscape:window-height="985"
     inkscape:window-x="-6"
     inkscape:window-y="23"
     inkscape:window-maximized="0">
    <inkscape:grid
       type="xygrid"
       id="grid10"
       spacingx="0.26458333"
       spacingy="0.26458333"
       color="#4c4c4c"
       opacity="0.14901961"
       empspacing="4"
       empcolor="#000000"
       empopacity="0.19607843"
       visible="true"
       enabled="true"
       snapvisiblegridlinesonly="true"
       dotted="false"
       originx="0"
       originy="0" />
  </sodipodi:namedview>
  <metadata
     id="metadata5">
    <rdf:RDF>
      <cc:Work
         rdf:about="">
        <dc:format>image/svg+xml</dc:format>
        <dc:type
           rdf:resource="http://purl.org/dc/dcmitype/StillImage" />
        <dc:title></dc:title>
      </cc:Work>
    </rdf:RDF>
  </metadata>
  <g
     inkscape:label="Layer 1"
     inkscape:groupmode="layer"
     id="layer1">
    <path
       style="font-size:5.29167px;line-height:1.15;font-family:'Kurinto Sans';-inkscape-font-specification:'Kurinto Sans';stroke-width:0.264583"
       d="m 1.1804256,26.458332 q -0.72511751,0 -0.96120212,-0.219224 Q 0,26.003047 0,25.277906 V 1.1804001 Q 0,0.45527872 0.21922348,0.23606177 0.45530483,0 1.1804256,0 H 18.650697 q 0.725118,0 0.94434,0.23606177 0.236089,0.21922348 0.236089,0.94433833 V 25.277906 q 0,0.725121 -0.236089,0.961203 -0.219225,0.219224 -0.94434,0.219224 z"
       id="path4084" />
    <path
       style="font-size:5.29166999999999987px;line-height:1.15;font-family:'Kurinto Sans';-inkscape-font-specification:'Kurinto Sans';stroke-width:0.264583;fill:#ffffff"
       d="M 1.3827848,25.969305 H 18.448339 q 0.590213,0 0.741981,-0.151738 0.151764,-0.151739 0.151764,-0.741986 V 1.3827919 q 0,-0.62392876 -0.151764,-0.75884352 Q 19.038554,0.4890466 18.448339,0.4890466 H 1.3827848 q -0.60707763,0 -0.75884426,0.13490178 -0.1349083,0.1349017 -0.1349083,0.75884352 V 25.07558 q 0,0.590187 0.1349083,0.741985 0.1517661,0.151739 0.75884426,0.15174 z"
       id="path4090" />
    <path
       style="font-size:5.29167px;line-height:1.15;font-family:'Kurinto Sans';-inkscape-font-specification:'Kurinto Sans';stroke-width:0.264583"
       d="M 3.9459905,22.664121 V 3.8110627 H 15.901997 V 22.664121 Z"
       id="path4092" />
    <path
       style="font-size:5.29166999999999987px;line-height:1.15;font-family:'Kurinto Sans';-inkscape-font-specification:'Kurinto Sans';stroke-width:0.264583;fill:#ffffff"
       d="M 4.435024,22.175094 H 15.412963 V 4.2832253 H 4.4350227 Z"
       id="path4094" />
    <path
       style="font-size:5.29166999999999987px;line-height:1.15;font-family:'Kurinto Sans';-inkscape-font-specification:'Kurinto Sans';stroke-width:0.264583;fill:#000000"
       d="M 14.063908,8.6676564 12.714852,6.4923052 14.063908,4.316954 15.379237,6.4923052 Z"
       id="path4096" />
    <path
       style="font-size:5.29166999999999987px;line-height:1.15;font-family:'Kurinto Sans';-inkscape-font-specification:'Kurinto Sans';stroke-width:0.264583;fill:#000000"
       d="M 11.298344,8.6676564 9.9492875,6.4923052 11.298344,4.316954 12.647399,6.4923052 Z"
       id="path4098" />
    <path
       style="font-size:5.29166999999999987px;line-height:1.15;font-family:'Kurinto Sans';-inkscape-font-specification:'Kurinto Sans';stroke-width:0.264583;fill:#000000"
       d="M 8.5327795,8.6676564 7.1837233,6.4923052 8.5327795,4.316954 9.8818344,6.4923052 Z"
       id="path4100" />
    <path
       style="font-size:5.29166999999999987px;line-height:1.15;font-family:'Kurinto Sans';-inkscape-font-specification:'Kurinto Sans';stroke-width:0.264583;fill:#000000"
       d="M 5.7672151,8.6676564 4.4687488,6.4923052 5.7672151,4.316954 7.1162708,6.4923052 Z"
       id="path4102" />
    <path
       style="font-size:5.29166999999999987px;line-height:1.15;font-family:'Kurinto Sans';-inkscape-font-specification:'Kurinto Sans';stroke-width:0.264583;fill:#000000"
       d="M 5.7672151,13.170131 4.4687488,10.977916 5.7672151,8.8025646 7.1162708,10.977916 Z"
       id="path4104" />
    <path
       style="font-size:5.29166999999999987px;line-height:1.15;font-family:'Kurinto Sans';-inkscape-font-specification:'Kurinto Sans';stroke-width:0.264583;fill:#000000"
       d="M 8.5327795,13.170131 7.1837233,10.977916 8.5327795,8.8025646 9.8818344,10.977916 Z"
       id="path4106" />
    <path
       style="font-size:5.29166999999999987px;line-height:1.15;font-family:'Kurinto Sans';-inkscape-font-specification:'Kurinto Sans';stroke-width:0.264583;fill:#000000"
       d="M 11.298344,13.170131 9.9492875,10.977916 11.298344,8.8025646 12.647399,10.977916 Z"
       id="path4108" />
    <path
       style="font-size:5.29166999999999987px;line-height:1.15;font-family:'Kurinto Sans';-inkscape-font-specification:'Kurinto Sans';stroke-width:0.264583;fill:#000000"
       d="m 14.063908,13.170131 -1.349056,-2.192215 1.349056,-2.1753514 1.315329,2.1753514 z"
       id="path4110" />
    <path
       style="font-size:5.29166999999999987px;line-height:1.15;font-family:'Kurinto Sans';-inkscape-font-specification:'Kurinto Sans';stroke-width:0.264583;fill:#000000"
       d="M 11.298344,17.655742 9.9492875,15.480391 11.298344,13.30504 12.647399,15.480391 Z"
       id="path4112" />
    <path
       style="font-size:5.29166999999999987px;line-height:1.15;font-family:'Kurinto Sans';-inkscape-font-specification:'Kurinto Sans';stroke-width:0.264583;fill:#000000"
       d="M 8.5327795,17.655742 7.1837233,15.480391 8.5327795,13.30504 9.8818344,15.480391 Z"
       id="path4114" />
    <path
       style="font-size:5.29166999999999987px;line-height:1.15;font-family:'Kurinto Sans';-inkscape-font-specification:'Kurinto Sans';stroke-width:0.264583;fill:#000000"
       d="m 14.063908,17.655742 -1.349056,-2.175351 1.349056,-2.175351 1.315329,2.175351 z"
       id="path4116" />
    <path
       style="font-size:5.29166999999999987px;line-height:1.15;font-family:'Kurinto Sans';-inkscape-font-specification:'Kurinto Sans';stroke-width:0.264583;fill:#000000"
       d="M 5.7672151,17.655742 4.4687488,15.480391 5.7672151,13.30504 7.1162708,15.480391 Z"
       id="path4118" />
    <path
       style="font-size:5.29166999999999987px;line-height:1.15;font-family:'Kurinto Sans';-inkscape-font-specification:'Kurinto Sans';stroke-width:0.264583;fill:#000000"
       d="m 14.063908,22.141352 -1.349056,-2.175351 1.349056,-2.175351 1.315329,2.175351 z"
       id="path4120" />
    <path
       style="font-size:5.29166999999999987px;line-height:1.15;font-family:'Kurinto Sans';-inkscape-font-specification:'Kurinto Sans';stroke-width:0.264583;fill:#000000"
       d="M 11.298344,22.141352 9.9492875,19.966001 11.298344,17.79065 12.647399,19.966001 Z"
       id="path4122" />
    <path
       style="font-size:5.29166999999999987px;line-height:1.15;font-family:'Kurinto Sans';-inkscape-font-specification:'Kurinto Sans';stroke-width:0.264583;fill:#000000"
       d="M 8.5327795,22.141352 7.1837233,19.966001 8.5327795,17.79065 9.8818344,19.966001 Z"
       id="path4124" />
    <path
       style="font-size:5.29166999999999987px;line-height:1.15;font-family:'Kurinto Sans';-inkscape-font-specification:'Kurinto Sans';stroke-width:0.264583;fill:#000000"
       d="M 5.7672151,22.141352 4.4687488,19.966001 5.7672151,17.79065 7.1162708,19.966001 Z"
       id="path4126" />
  </g>
</svg>
