<?xml version="1.0" encoding="UTF-8" standalone="no"?>
<svg
   xmlns:dc="http://purl.org/dc/elements/1.1/"
   xmlns:cc="http://creativecommons.org/ns#"
   xmlns:rdf="http://www.w3.org/1999/02/22-rdf-syntax-ns#"
   xmlns:svg="http://www.w3.org/2000/svg"
   xmlns="http://www.w3.org/2000/svg"
   xmlns:sodipodi="http://sodipodi.sourceforge.net/DTD/sodipodi-0.dtd"
   xmlns:inkscape="http://www.inkscape.org/namespaces/inkscape"
   width="74.952217"
   height="100"
   viewBox="0 0 19.831107 26.458333"
   version="1.1"
   id="svg8"
   inkscape:version="1.0.2 (e86c8708, 2021-01-15)"
   sodipodi:docname="back(black).svg">
  <defs
     id="defs2" />
  <sodipodi:namedview
     id="base"
     pagecolor="#343434"
     bordercolor="#000000"
     borderopacity="1"
     inkscape:pageopacity="0.50196078"
     inkscape:pageshadow="2"
     inkscape:zoom="5.0625"
     inkscape:cx="28.250191"
     inkscape:cy="50.336353"
     inkscape:document-units="px"
     inkscape:current-layer="layer1"
     inkscape:document-rotation="0"
     showgrid="true"
     units="px"
     inkscape:showpageshadow="false"
     objecttolerance="20.1"
     fit-margin-top="0"
     fit-margin-left="0"
     fit-margin-right="0"
     fit-margin-bottom="0"
     inkscape:window-width="1451"
     inkscape:window-height="959"
     inkscape:window-x="304"
     inkscape:window-y="91"
     inkscape:window-maximized="0">
    <inkscape:grid
       type="xygrid"
       id="grid10"
       spacingx="0.26458333"
       spacingy="0.26458333"
       color="#4c4c4c"
       opacity="0.14901961"
       empspacing="4"
       empcolor="#000000"
       empopacity="0.19607843"
       visible="true"
       enabled="true"
       snapvisiblegridlinesonly="true"
       dotted="false"
       originx="0"
       originy="0" />
  </sodipodi:namedview>
  <metadata
     id="metadata5">
    <rdf:RDF>
      <cc:Work
         rdf:about="">
        <dc:format>image/svg+xml</dc:format>
        <dc:type
           rdf:resource="http://purl.org/dc/dcmitype/StillImage" />
        <dc:title></dc:title>
      </cc:Work>
    </rdf:RDF>
  </metadata>
  <g
     inkscape:label="Layer 1"
     inkscape:groupmode="layer"
     id="layer1">
    <path
       id="path4084"
       style="font-size:5.29167px;line-height:1.15;font-family:'Kurinto Sans';-inkscape-font-specification:'Kurinto Sans';stroke-width:0.999999"
       d="M 4.4609375 0 C 2.6338615 -1.4802974e-16 1.4229757 0.2977768 0.828125 0.89257812 C 0.27575087 1.4449358 0 2.63386 0 4.4609375 L 0 95.539062 C 7.4014868e-17 97.366189 0.27575087 98.577076 0.828125 99.171875 C 1.4229839 99.72425 2.6338697 100 4.4609375 100 L 70.490234 100 C 72.317296 100 73.508169 99.72425 74.060547 99.171875 C 74.655417 98.577023 74.953125 97.366139 74.953125 95.539062 L 74.953125 4.4609375 C 74.953125 2.6338764 74.655417 1.4449523 74.060547 0.89257812 C 73.508176 0.2977768 72.317303 1.6509053e-17 70.490234 0 L 4.4609375 0 z M 5.2265625 1.8476562 L 69.726562 1.8476562 C 71.213718 1.8476562 72.148847 2.0175119 72.53125 2.3574219 C 72.913647 2.6973646 73.103516 3.6544585 73.103516 5.2265625 L 73.103516 94.773438 C 73.103516 96.260674 72.913647 97.195791 72.53125 97.578125 C 72.148842 97.960457 71.213713 98.152344 69.726562 98.152344 L 5.2265625 98.152344 C 3.6969167 98.152341 2.7398247 97.960459 2.3574219 97.578125 C 2.0174954 97.195642 1.8476562 96.260523 1.8476562 94.773438 L 1.8476562 5.2265625 C 1.8476562 3.6544256 2.0174954 2.6973317 2.3574219 2.3574219 C 2.739826 2.0175119 3.6969181 1.8476562 5.2265625 1.8476562 z "
       transform="scale(0.26458333)" />
  </g>
</svg>
