<svg xmlns="http://www.w3.org/2000/svg" width="74.952217" height="100" viewBox="0 0 19.831107 26.458333">
    <path d="m 1.1804255,26.458329 q -0.72511746,0 -0.96120202,-0.219223 Q 0,26.003044 0,25.277904 V 1.1804 Q 0,0.45527868 0.21922348,0.23606172 0.45531131,0 1.1804255,0 H 18.650695 q 0.725118,0 0.944339,0.23606172 0.236088,0.21922349 0.236088,0.94433828 v 24.097504 q 0,0.725113 -0.236088,0.961202 -0.219223,0.219223 -0.944339,0.219223 z"/>
    <path style="fill:#ffffff" d="M 1.3827846,25.969302 H 18.448338 q 0.590213,0 0.74198,-0.151739 0.151766,-0.151741 0.151766,-0.741979 V 1.3827983 q 0,-0.62392872 -0.151766,-0.75885003 -0.151766,-0.13490174 -0.74198,-0.13490174 H 1.3827839 q -0.60707738,0 -0.75884346,0.13490174 Q 0.48903217,0.75885001 0.48903217,1.3827983 V 25.075584 q 0,0.590186 0.13490827,0.741979 0.15176608,0.151739 0.75884416,0.151739 z"/>
    <path d="m 2.7655665,3.8447909 q -0.7588435,0 -0.7588435,-1.247877 0,-1.2141483 0.7588435,-1.2141483 0.7588442,0 0.7588442,1.2141483 0,1.247877 -0.7588442,1.247877 z"/>
    <path d="M 1.2816056,3.7604692 V 2.2427822 H 0.8768874 v -0.337287 q 0.3709895,0 0.4721691,-0.4890269 h 0.387854 v 2.3439878 z"/>
    <path style="fill:#ffffff" d="m 2.7655665,3.4569239 q 0.2866744,0 0.2866744,-0.860023 0,-0.7925723 -0.2866744,-0.7925723 -0.26981,0 -0.26981,0.7925723 0,0.860023 0.26981,0.860023 z"/>
    <path d="M 13.541148,6.6609283 Q 13.794094,6.2899648 13.794094,5.5648239 V 5.3287622 h -0.03374 q -0.252945,0.7251213 -0.876885,0.7251213 -0.236088,0 -0.522763,-0.2360617 -0.269809,-0.2529653 -0.269809,-0.708257 0,-0.4721888 0.79257,-1.4839583 0.387854,-0.4721886 0.623935,-0.80943 0.252945,-0.3541252 0.354125,-0.5396069 0.168631,0.4216088 0.961202,1.3827852 0.79257,0.9780605 0.79257,1.4502296 0,0.4552852 -0.26981,0.708257 -0.252945,0.2360616 -0.522762,0.2360616 -0.590213,0 -0.860023,-0.7251212 h -0.03374 v 0.2360616 q 0,0.6239288 0.236088,1.0961044 z"/>
    <path d="M 5.63231,6.6609283 Q 5.8852557,6.2899648 5.8852557,5.5648239 V 5.3287622 h -0.033742 q -0.2529456,0.7251213 -0.876886,0.7251213 -0.2360879,0 -0.5227623,-0.2360617 -0.2698099,-0.2529653 -0.2698099,-0.708257 0,-0.4721888 0.7925702,-1.4839583 0.3878538,-0.4721886 0.6239352,-0.80943 0.2529457,-0.3541252 0.3541252,-0.5396069 0.1686304,0.4216088 0.9612019,1.3827852 0.7925703,0.9780605 0.7925703,1.4502296 0,0.4552852 -0.26981,0.708257 -0.2529457,0.2360616 -0.5227622,0.2360616 -0.590213,0 -0.860023,-0.7251212 h -0.033742 v 0.2360616 q 0,0.6239288 0.2360878,1.0961044 z"/>
    <path d="M 2.0404491,6.6609283 2.1416287,6.1549978 V 6.020096 H 2.107887 q -0.1011796,0.337287 -0.4047183,0.337287 -0.4215826,0 -0.4215826,-0.4552851 0,-0.337287 0.3878538,-0.7251148 0.2698101,-0.2698035 0.5058979,-0.6913927 0.084315,0.1854817 0.2360879,0.3541253 0.151766,0.1686435 0.320403,0.3372869 0.3541253,0.3541252 0.3541253,0.7251148 0,0.4552852 -0.4215827,0.4552852 -0.3035387,0 -0.4047183,-0.337287 H 2.225911 v 0.1349018 l 0.1011797,0.5059304 z"/>
    <path d="M 9.5782974,9.7468952 Q 9.8143787,9.3590282 9.8143787,8.6339266 V 8.3978648 H 9.780637 q -0.2360878,0.7251148 -0.8600231,0.7251148 -0.2866744,0 -0.53962,-0.2360617 -0.2529457,-0.2529653 -0.2529457,-0.6913927 0,-0.4552852 0.7925702,-1.450236 0.3709897,-0.489027 0.6070775,-0.8431588 0.2529456,-0.3709635 0.3541251,-0.5396069 0.067451,0.2023852 0.320403,0.5565105 0.26981,0.337287 0.657665,0.8262943 0.79257,0.9949314 0.79257,1.4502361 0,0.4384469 -0.26981,0.6913926 -0.252946,0.2360617 -0.522762,0.2360617 -0.590214,0 -0.8768863,-0.7251148 h -0.033742 v 0.2360618 q 0,0.7251148 0.2529463,1.1129686 z"/>
    <path d="m 13.541148,12.613639 q 0.252946,-0.387867 0.252946,-1.112976 v -0.236061 h -0.03374 q -0.252945,0.725115 -0.876885,0.725115 -0.236088,0 -0.522763,-0.236063 -0.269809,-0.252964 -0.269809,-0.691392 0,-0.252965 0.16863,-0.60709 0.185495,-0.370963 0.590213,-0.8431589 0.421583,-0.489027 0.657665,-0.8262943 0.252945,-0.3541253 0.354124,-0.5565106 0.06745,0.2023853 0.320403,0.5565106 0.269811,0.3372869 0.6408,0.8262943 0.792571,0.9949319 0.792571,1.4502359 0,0.438447 -0.269811,0.691392 -0.252945,0.236063 -0.522762,0.236063 -0.590213,0 -0.860023,-0.725115 h -0.03374 v 0.236061 q 0,0.623929 0.236087,1.112976 z"/>
    <path d="m 5.63231,12.613639 q 0.2529457,-0.387867 0.2529457,-1.112976 v -0.236061 h -0.033742 q -0.2529456,0.725115 -0.876886,0.725115 -0.2360879,0 -0.5227623,-0.236063 -0.2698099,-0.252964 -0.2698099,-0.691392 0,-0.489027 0.7588434,-1.4502359 0.3878539,-0.489027 0.6407996,-0.8262944 0.26981,-0.3541251 0.3709895,-0.5565104 0.067451,0.2023853 0.3204031,0.5565104 0.26981,0.337287 0.6407995,0.8262944 0.7925702,0.9949309 0.7925702,1.4502359 0,0.438447 -0.2698099,0.691392 -0.2529457,0.236063 -0.5227622,0.236063 -0.590213,0 -0.860023,-0.725115 h -0.033742 v 0.236061 q 0,0.623929 0.2360878,1.112976 z"/>
    <path d="M 5.9527131,18.245946 5.4974083,17.487103 Q 5.1601409,16.930592 4.8397437,16.62708 4.536205,16.306697 4.4350254,16.138053 4.1820798,15.750185 4.1820798,15.412931 q 0,-0.455285 0.26981,-0.691385 0.2866744,-0.252966 0.5227622,-0.252966 0.6239352,0 0.876886,0.725121 H 5.88528 V 14.95764 q 0,-0.725115 -0.2529457,-1.112969 h 0.623935 Q 6.0201815,14.333698 6.0201815,14.95764 v 0.236061 h 0.033742 q 0.26981,-0.725121 0.8600231,-0.725121 0.2698099,0 0.5227621,0.252966 0.2698101,0.236061 0.2698101,0.691385 0,0.438447 -0.7925704,1.416514 -0.3709895,0.438448 -0.6239352,0.80943 -0.2360877,0.354126 -0.3372674,0.607091 z"/>
    <path d="m 13.861551,18.245946 -0.455304,-0.758843 q -0.337261,-0.556511 -0.657665,-0.860023 -0.303538,-0.320383 -0.404718,-0.489027 -0.252945,-0.387868 -0.252945,-0.725122 0,-0.455285 0.269809,-0.691385 0.286675,-0.252966 0.522762,-0.252966 0.623936,0 0.876886,0.725121 h 0.03374 V 14.95764 q 0,-0.725115 -0.252947,-1.112969 h 0.623936 Q 13.92902,14.333698 13.92902,14.95764 v 0.236061 h 0.03374 q 0.26981,-0.725121 0.860022,-0.725121 0.269811,0 0.522763,0.252966 0.26981,0.236061 0.26981,0.691385 0,0.438447 -0.792571,1.416514 -0.370989,0.438448 -0.623935,0.80943 -0.236087,0.354126 -0.337261,0.607091 z"/>
    <path d="M 9.8818374,21.112689 9.443397,20.353846 Q 9.1904514,19.898561 8.8869126,19.645589 8.6002383,19.375786 8.4316079,19.139724 8.1280692,18.650697 8.1280692,18.279701 q 0,-0.455285 0.2529456,-0.691386 0.2529457,-0.252966 0.53962,-0.252966 0.6239352,0 0.8600231,0.725122 h 0.033742 v -0.236062 q 0,-0.725115 -0.2360813,-1.112969 h 0.6239354 q -0.2529459,0.387867 -0.2529459,1.112969 v 0.236062 h 0.033742 q 0.2866749,-0.725122 0.8768869,-0.725122 0.269809,0 0.522762,0.252966 0.26981,0.236062 0.26981,0.691386 0,0.438447 -0.79257,1.416508 -0.84316,0.961202 -0.9780658,1.416513 z"/>
    <path d="m 17.65577,21.972712 q -0.202359,-0.455284 -0.522762,-0.725121 -0.370989,-0.320383 -0.370989,-0.691392 0,-0.455286 0.404718,-0.455286 0.320403,0 0.421583,0.354126 h 0.03374 v -0.151806 l -0.101179,-0.505864 h 0.26981 l -0.10118,0.505864 v 0.151806 h 0.03374 q 0.101179,-0.354126 0.421576,-0.354126 0.404718,0 0.404718,0.455286 0,0.438447 -0.337267,0.691392 -0.219224,0.134902 -0.354126,0.354126 -0.134908,0.202385 -0.202359,0.370963 z"/>
    <path d="m 13.895278,24.181785 -0.455305,-0.758843 q -0.337268,-0.55651 -0.657665,-0.860023 -0.303539,-0.320383 -0.404718,-0.489027 -0.252945,-0.387866 -0.252945,-0.725121 0,-0.489027 0.269809,-0.70825 0.286675,-0.219224 0.522762,-0.219224 0.623935,0 0.876887,0.725114 h 0.03374 v -0.252965 q 0,-0.725114 -0.252945,-1.09611 h 0.623934 q -0.236087,0.472188 -0.236087,1.09611 v 0.252965 h 0.03374 q 0.26981,-0.725114 0.860023,-0.725114 0.26981,0 0.522762,0.219224 0.26981,0.219223 0.26981,0.70825 0,0.455285 -0.79257,1.416508 -0.37099,0.438446 -0.623935,0.809435 -0.236088,0.354126 -0.337267,0.607091 z"/>
    <path d="M 5.9864391,24.181785 5.5311344,23.422942 Q 5.1938735,22.866432 4.8734698,22.562919 4.5699311,22.242536 4.4687515,22.073892 4.2158058,21.686026 4.2158058,21.348771 q 0,-0.489027 0.2698101,-0.70825 0.2866743,-0.219224 0.5227621,-0.219224 0.6239353,0 0.8768861,0.725114 h 0.033742 v -0.252965 q 0,-0.725114 -0.2529457,-1.09611 h 0.6239353 q -0.2360879,0.472188 -0.2360879,1.09611 v 0.252965 h 0.033742 q 0.26981,-0.725114 0.8600231,-0.725114 0.2698099,0 0.5227621,0.219224 0.26981,0.219223 0.26981,0.70825 0,0.455285 -0.7925702,1.416508 -0.3709895,0.438446 -0.6239352,0.809435 -0.2360879,0.354126 -0.3372674,0.607091 z"/>
    <path d="m 17.065559,25.075538 q -0.758845,0 -0.758845,-1.214149 0,-1.231013 0.758845,-1.231013 0.758843,0 0.758843,1.231013 0,1.214149 -0.758843,1.214149 z"/>
    <path d="m 18.111077,25.0416 v -2.343982 h 0.43844 v 1.517688 H 18.9711 v 0.337287 q -0.421583,0 -0.489034,0.489027 z"/>
    <path style="fill:#ffffff" d="m 17.065559,24.670636 q 0.286673,0 0.286673,-0.80943 0,-0.860023 -0.286673,-0.860023 -0.269811,0 -0.269811,0.860023 0,0.80943 0.269811,0.80943 z"/>
</svg>