<svg xmlns="http://www.w3.org/2000/svg" width="74.952217" height="100" viewBox="0 0 19.831107 26.458333">
    <path d="m 1.1804253,26.458332 q -0.72511732,0 -0.96120187,-0.219224 Q 0,26.003047 0,25.277907 V 1.1803999 Q 0,0.45528514 0.21922343,0.23606171 0.45531124,0 1.1804253,0 H 18.650693 q 0.725117,0 0.944339,0.23606171 0.236089,0.21922343 0.236089,0.94433819 V 25.277907 q 0,0.725114 -0.236089,0.961202 -0.219224,0.219224 -0.944339,0.219224 z"/>
    <path style="fill:#ffffff" d="M 1.3827844,25.969305 H 18.448335 q 0.590213,0 0.741981,-0.151738 0.151764,-0.151739 0.151764,-0.741979 V 1.3827981 q 0,-0.62392862 -0.151764,-0.75884335 Q 19.03855,0.48905301 18.448335,0.48905301 H 1.3827838 q -0.60707748,0 -0.75884341,0.13490174 Q 0.48903213,0.75885642 0.48903213,1.3827981 V 25.075586 q 0,0.590188 0.13490826,0.74198 0.15176606,0.151738 0.75884401,0.151739 z"/>
    <path d="m 1.214154,3.7604817 q 0,-0.5058651 0.6239351,-0.9612025 0.6239352,-0.489027 0.6239352,-0.6576638 0,-0.3709635 -0.3541253,-0.3709635 -0.3709896,0 -0.3709896,0.5396067 H 1.2816045 V 2.2090985 q 0,-0.8600229 0.8262961,-0.8600229 0.8431599,0 0.8431599,0.7588434 0,0.2866415 -0.1517659,0.4552854 Q 2.6643864,2.7318476 2.1753594,3.0353932 L 1.8380919,3.3557763 H 2.951063 v 0.404705 z"/>
    <path d="M 9.6120234,6.6609536 Q 9.8481126,6.2899902 9.8481126,5.5648428 V 5.328781 h -0.033743 q -0.2360892,0.7251147 -0.860023,0.7251147 -0.2866774,0 -0.5396185,-0.2360617 -0.2529475,-0.2529652 -0.2529475,-0.7082569 0,-0.4721888 0.7925699,-1.4839581 0.3709889,-0.4721888 0.6070781,-0.8094364 0.2529475,-0.3541253 0.354124,-0.5396067 0.067453,0.1854814 0.3204004,0.5396067 0.269813,0.3372872 0.657665,0.8094364 0.79257,1.011789 0.79257,1.4839581 0,0.4552854 -0.269812,0.7082569 -0.252948,0.2360617 -0.52276,0.2360617 -0.590213,0 -0.876886,-0.7251147 h -0.033743 v 0.2360618 q 0,0.7251212 0.2529471,1.0961108 z"/>
    <path d="M 2.0404502,6.6609536 2.1416299,6.1550885 V 6.0201868 H 2.107887 Q 2.0067073,6.357474 1.7031689,6.357474 q -0.4215823,0 -0.4215823,-0.4552854 0,-0.3372872 0.3878538,-0.7251213 0.2698099,-0.2698033 0.5058978,-0.691386 0.084315,0.1854821 0.2360878,0.3541253 0.151766,0.1686432 0.3204033,0.3372871 0.3541253,0.3541253 0.3541253,0.7251213 0,0.4552854 -0.4215823,0.4552854 -0.303539,0 -0.4047181,-0.3372872 H 2.2259114 V 6.1551149 L 2.327091,6.6609794 Z"/>
    <path d="m 17.655767,21.972729 q -0.20236,-0.455287 -0.52276,-0.725114 -0.370989,-0.320381 -0.370989,-0.691393 0,-0.455287 0.404718,-0.455287 0.320401,0 0.421584,0.354124 h 0.03374 V 20.30332 l -0.101176,-0.505928 h 0.269812 L 17.68952,20.30332 v 0.151739 h 0.03374 q 0.101183,-0.354124 0.421584,-0.354124 0.404719,0 0.404719,0.455287 0,0.438449 -0.337259,0.691393 -0.219225,0.1349 -0.354124,0.354124 -0.134906,0.202385 -0.20236,0.370963 z"/>
    <path d="M 9.9155611,24.181809 9.4771204,23.422965 Q 9.1229964,23.035099 8.8700423,22.731573 8.6339532,22.411192 8.4653236,22.175064 8.1617878,21.753454 8.1617878,21.34877 q 0,-0.489024 0.2529476,-0.708257 0.2529476,-0.219225 0.5396184,-0.219225 0.623943,0 0.8600231,0.725115 h 0.033743 v -0.252967 q 0,-0.725121 -0.2360892,-1.096111 h 0.6239363 q -0.2529474,0.370963 -0.2529474,1.096111 v 0.252967 h 0.033743 q 0.286678,-0.725115 0.876886,-0.725115 0.269812,0 0.52276,0.219225 0.269812,0.219224 0.269812,0.708257 0,0.556509 -0.79257,1.450235 -0.809435,0.893744 -0.9780677,1.382778 z"/>
    <path d="m 17.72322,25.109282 q -0.826297,0 -0.826297,-0.758843 0,-0.455287 0.79257,-0.961202 l 0.303535,-0.28671 h -1.096107 v -0.404706 h 1.720046 q 0,0.438449 -0.623943,0.927474 -0.607078,0.455288 -0.607078,0.691393 0,0.387866 0.337259,0.387866 0.387854,0 0.387854,-0.556509 h 0.438442 v 0.101157 q 0,0.860022 -0.826296,0.860022 z"/>
</svg>