<svg xmlns="http://www.w3.org/2000/svg" width="74.952217" height="100" viewBox="0 0 19.831107 26.458333">
    <path d="m 1.1804256,26.458331 q -0.72511754,0 -0.96120207,-0.219224 Q 0,26.003047 0,25.277906 V 1.1804001 Q 0,0.45528522 0.21922353,0.23606175 0.45531132,0 1.1804256,0 H 18.650697 q 0.725118,0 0.944339,0.23606175 0.236083,0.21922347 0.236083,0.94433835 V 25.277906 q 0,0.725121 -0.236083,0.961203 -0.219224,0.219224 -0.944339,0.219224 z"/>
    <path style="fill:#ffffff" d="M 1.3827847,25.969305 H 18.448339 q 0.590213,0 0.741981,-0.151739 0.151765,-0.151738 0.151765,-0.741979 V 1.3827919 q 0,-0.62392858 -0.151765,-0.75884355 Q 19.038548,0.48904656 18.448339,0.48904656 H 1.3827847 q -0.60707735,0 -0.75884418,0.13490179 Q 0.48903873,0.75885008 0.48903873,1.3827919 V 25.075586 q 0,0.590187 0.13490179,0.741979 0.15177264,0.151738 0.75884418,0.15174 z"/>
    <path d="m 2.1416283,3.8447913 q -0.8937493,0 -0.8937493,-0.8768875 h 0.4890335 q 0,0.4890269 0.3709895,0.4890269 0.4215829,0 0.4215829,-0.3709634 0,-0.3541253 -0.5564846,-0.3541253 V 2.3945549 H 2.07418 q 0.3878538,0 0.3878538,-0.2866414 0,-0.3035456 -0.3204033,-0.3035456 -0.3709895,0 -0.3709895,0.404705 H 1.315336 q 0.067451,-0.8262944 0.8262964,-0.8262944 0.2866741,0 0.522762,0.185482 0.2360879,0.1686439 0.2360879,0.4721888 0,0.3035455 -0.3035391,0.4890269 0.421583,0.1011601 0.421583,0.5565107 0,0.7588435 -0.8768862,0.7588435 z"/>
    <path d="M 9.6120243,6.6609483 Q 9.8481135,6.2899196 9.8481135,5.5648375 V 5.3287758 h -0.033743 q -0.2360891,0.7251148 -0.8600229,0.7251148 -0.2866774,0 -0.5396184,-0.2360618 -0.2529476,-0.2529651 -0.2529476,-0.7082504 0,-0.4721888 0.7925705,-1.483965 0.3709889,-0.4721888 0.6070781,-0.80943 0.2529475,-0.3541253 0.3541239,-0.5396073 0.067453,0.185482 0.3204009,0.5396073 0.269812,0.3372871 0.657665,0.80943 0.79257,1.0117958 0.79257,1.483965 0,0.4552853 -0.269812,0.7082504 -0.252948,0.2360618 -0.52276,0.2360618 -0.590213,0 -0.876887,-0.7251148 h -0.033743 v 0.2360617 q 0,0.7251148 0.2529481,1.0961108 z"/>
    <path d="M 2.0404493,6.6609483 2.141629,6.155018 V 6.0201163 H 2.107886 q -0.1011797,0.3372871 -0.404718,0.3372871 -0.421583,0 -0.421583,-0.4552853 0,-0.3372871 0.3878538,-0.7251214 0.26981,-0.2698034 0.5058978,-0.6913927 0.084315,0.185482 0.2360879,0.3541253 0.1517659,0.1686432 0.3204032,0.3372871 0.3541253,0.3541252 0.3541253,0.7251213 0,0.4552854 -0.4215829,0.4552854 -0.3035391,0 -0.4047181,-0.3372871 H 2.2259092 V 6.1550376 L 2.3270888,6.660968 Z"/>
    <path d="M 9.6120243,15.379217 Q 9.8481135,14.99135 9.8481135,14.266248 v -0.236063 h -0.033743 q -0.2360878,0.725123 -0.8600229,0.725123 -0.2866774,0 -0.5396184,-0.236063 -0.2529476,-0.252967 -0.2529476,-0.70825 0,-0.438449 0.7925705,-1.450237 0.7588433,-0.961203 0.961202,-1.382785 0.1686299,0.42161 0.9780659,1.382785 0.79257,0.978068 0.79257,1.450237 0,0.455287 -0.269813,0.70825 -0.252947,0.236063 -0.52276,0.236063 -0.590213,0 -0.876886,-0.725121 h -0.033743 v 0.236063 q 0,0.725115 0.2529471,1.112969 z"/>
    <path d="m 17.655769,21.972728 q -0.20236,-0.455285 -0.522762,-0.725115 -0.37099,-0.320383 -0.37099,-0.691392 0,-0.455288 0.404719,-0.455288 0.320401,0 0.421583,0.354124 h 0.03374 v -0.151738 l -0.101176,-0.505928 h 0.269812 l -0.101176,0.505928 v 0.151738 h 0.03374 q 0.101183,-0.354124 0.421583,-0.354124 0.404719,0 0.404719,0.455288 0,0.438448 -0.337265,0.691392 -0.219225,0.134899 -0.354124,0.354124 -0.134907,0.202385 -0.20236,0.370962 z"/>
    <path d="M 9.915562,24.181807 9.4771214,23.422964 Q 9.1229961,23.035097 8.870044,22.731571 8.6339561,22.411188 8.4653253,22.175061 8.161787,21.753452 8.161787,21.348766 q 0,-0.489023 0.2529475,-0.708257 0.2529475,-0.219224 0.5396184,-0.219224 0.6239364,0 0.8600229,0.725122 h 0.033743 V 20.89344 q 0,-0.725115 -0.2360891,-1.096104 H 10.235966 Q 9.9830184,20.168298 9.9830184,20.89344 v 0.252967 h 0.033743 q 0.286678,-0.725122 0.876887,-0.725122 0.269812,0 0.52276,0.219224 0.269812,0.219224 0.269812,0.708257 0,0.55651 -0.79257,1.45023 -0.809434,0.893752 -0.9780647,1.382785 z"/>
    <path d="m 17.689495,25.07556 q -0.236089,0 -0.505895,-0.168643 -0.252947,-0.168643 -0.252947,-0.489024 0,-0.337285 0.303535,-0.48903 -0.404718,-0.101157 -0.404718,-0.539605 0,-0.758844 0.860023,-0.758844 0.893749,0 0.893749,0.860023 H 18.11107 q 0,-0.489024 -0.387853,-0.489024 -0.421584,0 -0.421584,0.387867 0,0.337285 0.556483,0.337285 v 0.354124 H 17.75694 q -0.370989,0 -0.370989,0.269806 0,0.320381 0.303536,0.320381 0.387854,0 0.387854,-0.42161 h 0.438441 q -0.101174,0.8263 -0.826291,0.8263 z"/>
</svg>