<svg xmlns="http://www.w3.org/2000/svg" width="74.952217" height="100" viewBox="0 0 19.831107 26.458333">
    <path d="m 1.1804235,26.458333 q -0.72511727,0 -0.961202,-0.219224 Q 0,26.003048 0,25.277907 V 1.1804064 Q 0,0.45528515 0.2192215,0.2360617 0.45530604,0 1.1804235,0 H 18.650692 q 0.725117,0 0.944338,0.2360617 0.236088,0.21922345 0.236088,0.9443447 V 25.277907 q 0,0.725114 -0.236088,0.961202 -0.219223,0.219224 -0.944338,0.219224 z"/>
    <path style="fill:#ffffff" d="M 1.3827819,25.969306 H 18.448333 q 0.590213,0 0.741981,-0.151805 0.151766,-0.15174 0.151766,-0.741979 V 1.3827329 q 0,-0.62392866 -0.151766,-0.75884344 Q 19.038547,0.48898774 18.448333,0.48898774 H 1.3827818 q -0.60707471,0 -0.75884365,0.13490172 Q 0.48903251,0.75879118 0.48903251,1.3827329 V 25.075522 q 0,0.590186 0.13490564,0.741979 0.15176868,0.151805 0.75884375,0.151805 z"/>
    <path d="M 2.0067203,3.7604752 V 3.2208683 H 1.0455184 V 2.7993249 L 2.0404467,1.4165399 H 2.4620266 V 2.8330471 H 2.765564 V 3.220914 H 2.4620266 v 0.5396069 z"/>
    <path style="fill:#ffffff" d="M 1.3827819,2.8330014 H 2.0067203 V 2.0067072 Z"/>
    <path d="M 13.57487,6.6609471 Q 13.827816,6.2899837 13.827816,5.5648429 V 5.3287812 h -0.03374 q -0.252945,0.7251147 -0.876886,0.7251147 -0.236087,0 -0.522762,-0.2360617 -0.26981,-0.2529652 -0.26981,-0.7082569 0,-0.4721887 0.79257,-1.4839581 0.387854,-0.4721887 0.623936,-0.8094364 0.252945,-0.3541252 0.354125,-0.5396069 0.16863,0.4216086 0.961202,1.382785 0.79257,0.9780604 0.79257,1.4502294 0,0.4552852 -0.26981,0.7082569 -0.252946,0.2360617 -0.522762,0.2360617 -0.590213,0 -0.860023,-0.7251147 h -0.03374 v 0.2360617 q 0,0.6239286 0.236087,1.0961042 z"/>
    <path d="M 5.6660328,6.6609471 Q 5.9189804,6.2899837 5.9189804,5.5648429 V 5.3287812 h -0.033729 q -0.2529483,0.7251147 -0.8768861,0.7251147 -0.2360845,0 -0.5227588,-0.2360617 -0.269811,-0.2529652 -0.269811,-0.7082569 0,-0.4721887 0.7925701,-1.4839581 Q 5.3962188,3.1534305 5.632304,2.8161828 5.8852522,2.4620576 5.9864311,2.2765759 q 0.1686317,0.4216086 0.961202,1.382785 0.7925702,0.9780604 0.7925702,1.4502294 0,0.4552852 -0.26981,0.7082569 -0.2529456,0.2360617 -0.5227621,0.2360617 -0.5902117,0 -0.860023,-0.7251147 h -0.033729 v 0.2360617 q 0,0.6239286 0.2360845,1.0961042 z"/>
    <path d="M 2.0404463,6.6609471 2.1416252,6.1550167 V 6.020115 h -0.033729 q -0.1011789,0.3372869 -0.4047169,0.3372869 -0.42158,0 -0.42158,-0.4552852 0,-0.3372869 0.3878533,-0.7251147 0.2698112,-0.2698034 0.5058958,-0.6913925 0.084316,0.1854817 0.2360845,0.3541252 0.1517687,0.1686435 0.3204004,0.3372869 0.3541271,0.3541252 0.3541271,0.7251147 0,0.4552852 -0.4215799,0.4552852 -0.3035374,0 -0.4047163,-0.337287 h -0.033729 v 0.1349018 l 0.1011789,0.5059304 z"/>
    <path d="m 17.655763,21.972723 q -0.202359,-0.455285 -0.522762,-0.725114 -0.37099,-0.320384 -0.37099,-0.691393 0,-0.455285 0.404719,-0.455285 0.320403,0 0.421582,0.354125 h 0.03374 v -0.15174 l -0.10118,-0.50593 h 0.26981 l -0.101179,0.50593 v 0.15174 h 0.03374 q 0.101179,-0.354125 0.421582,-0.354125 0.404718,0 0.404718,0.455285 0,0.438447 -0.337261,0.691393 -0.219223,0.134901 -0.354125,0.354125 -0.134908,0.202385 -0.202359,0.370963 z"/>
    <path d="m 13.895271,24.181803 -0.455305,-0.758844 q -0.404718,-0.489027 -0.691391,-0.826294 -0.26981,-0.354125 -0.37099,-0.522769 -0.252945,-0.387867 -0.252945,-0.725114 0,-0.489027 0.26981,-0.708257 0.286674,-0.219224 0.522762,-0.219224 0.623935,0 0.876886,0.725115 h 0.03374 v -0.252965 q 0,-0.725122 -0.252946,-1.096111 h 0.623935 q -0.236088,0.472189 -0.236088,1.096111 v 0.252965 h 0.03374 q 0.26981,-0.725115 0.860022,-0.725115 0.26981,0 0.522762,0.219224 0.26981,0.219223 0.26981,0.708257 0,0.455285 -0.79257,1.416507 -0.370989,0.438447 -0.623935,0.809436 -0.236081,0.354125 -0.337261,0.607091 z"/>
    <path d="M 5.9864334,24.181803 5.5311272,23.422959 Q 5.1264103,22.933932 4.8397363,22.596665 4.569925,22.24254 4.4687461,22.073896 4.2157986,21.686029 4.2157986,21.348782 q 0,-0.489027 0.2698112,-0.708257 0.2866743,-0.219224 0.5227589,-0.219224 0.6239384,0 0.876886,0.725115 h 0.033729 v -0.252965 q 0,-0.725122 -0.2529475,-1.096111 h 0.6239377 q -0.2360845,0.472189 -0.2360845,1.096111 v 0.252965 h 0.033729 q 0.2698112,-0.725115 0.8600232,-0.725115 0.2698099,0 0.5227621,0.219224 0.26981,0.219223 0.26981,0.708257 0,0.455285 -0.7925702,1.416507 -0.3709901,0.438447 -0.623939,0.809436 Q 6.08762,23.92885 5.9864404,24.181816 Z"/>
    <path d="m 17.385952,25.041825 v -1.416507 h -0.320403 v -0.370963 h 0.320403 v -0.556511 h 0.43844 v 0.556511 h 0.978066 v 0.404705 l -1.011792,1.382779 z"/>
    <path style="fill:#ffffff" d="m 17.824392,24.451639 0.623935,-0.826295 h -0.623935 z"/>
</svg>