<svg xmlns="http://www.w3.org/2000/svg" width="74.952217" height="100" viewBox="0 0 19.831107 26.458333">
    <path d="m 1.1804253,26.458333 q -0.72511731,0 -0.96120184,-0.219224 Q 0,26.003048 0,25.277907 V 1.1804064 Q 0,0.45528515 0.21922346,0.2360617 0.45530473,0 1.1804253,0 H 18.650693 q 0.725117,0 0.944339,0.2360617 0.236081,0.21922345 0.236081,0.9443447 V 25.277907 q 0,0.725114 -0.236081,0.961202 -0.219224,0.219224 -0.944339,0.219224 z"/>
    <path style="fill:#ffffff" d="M 1.3827844,25.969306 H 18.448335 q 0.590213,0 0.74198,-0.151805 0.151767,-0.15174 0.151767,-0.741979 V 1.3827329 q 0,-0.62392866 -0.151767,-0.75884344 -0.151766,-0.13490172 -0.74198,-0.13490172 H 1.3827844 q -0.60707731,0 -0.75884403,0.13490172 Q 0.48903212,0.75879118 0.48903212,1.3827329 V 25.075522 q 0,0.590186 0.13490825,0.741979 0.15176607,0.151805 0.75884403,0.151805 z"/>
    <path d="m 2.0404489,3.844797 q -0.8600229,0 -0.8600229,-0.7251213 h 0.4890334 q 0,0.337287 0.3709895,0.337287 0.3878539,0 0.3878539,-0.4552852 0,-0.4384469 -0.3878539,-0.4384469 -0.2023591,0 -0.3709895,0.2023852 H 1.2478768 L 1.5008224,1.4502881 h 1.298466 V 1.8718968 H 1.8380865 L 1.736907,2.3946655 q 0.2360878,-0.1854818 0.4384404,-0.1854818 0.7251173,0 0.7251173,0.7925656 0,0.8431651 -0.8600223,0.8431651 z"/>
    <path d="M 13.541146,6.6609471 Q 13.794092,6.2899837 13.794092,5.5648429 V 5.3287812 h -0.03374 q -0.252945,0.7251147 -0.876886,0.7251147 -0.236088,0 -0.522762,-0.2360617 -0.26981,-0.2529652 -0.26981,-0.7082569 0,-0.4721887 0.79257,-1.4839581 0.387854,-0.4721887 0.623942,-0.8094364 0.252946,-0.3541252 0.354125,-0.5396069 0.168631,0.4216086 0.961202,1.382785 0.79257,0.9780604 0.79257,1.4502294 0,0.4552852 -0.26981,0.7082569 -0.252945,0.2360617 -0.522762,0.2360617 -0.590213,0 -0.860023,-0.7251147 h -0.03374 v 0.2360617 q 0,0.6239286 0.236082,1.0961042 z"/>
    <path d="M 5.6323087,6.6609471 Q 5.8852569,6.2899837 5.8852569,5.5648429 V 5.3287812 H 5.8515279 Q 5.5985803,6.0538959 4.974642,6.0538959 q -0.2360878,0 -0.5227621,-0.2360617 -0.26981,-0.2529652 -0.26981,-0.7082569 0,-0.4721887 0.7925701,-1.4839581 0.3878539,-0.4721887 0.6239378,-0.8094364 0.2529476,-0.3541252 0.3541271,-0.5396069 0.1686317,0.4216086 0.9612019,1.382785 0.7925701,0.9780604 0.7925701,1.4502294 0,0.4552852 -0.26981,0.7082569 -0.2529456,0.2360617 -0.5227556,0.2360617 -0.5902116,0 -0.8600227,-0.7251147 h -0.033729 v 0.2360617 q 0,0.6239286 0.2360845,1.0961042 z"/>
    <path d="M 2.0404489,6.6609471 2.1416285,6.1550167 V 6.020115 H 2.1078865 Q 2.006707,6.3574019 1.7031683,6.3574019 q -0.4215826,0 -0.4215826,-0.4552852 0,-0.3372869 0.3878539,-0.7251147 0.26981,-0.2698034 0.5058978,-0.6913925 0.084315,0.1854817 0.2360878,0.3541252 0.151766,0.1686435 0.320403,0.3372869 0.3541252,0.3541252 0.3541252,0.7251147 0,0.4552852 -0.4215826,0.4552852 -0.3035387,0 -0.4047182,-0.337287 H 2.225911 v 0.1349018 l 0.1011796,0.5059304 z"/>
    <path d="m 9.6120224,15.37922 q 0.2360878,-0.387866 0.2360878,-1.112975 v -0.236061 h -0.033742 q -0.2360878,0.725114 -0.860023,0.725114 -0.2866743,0 -0.5396199,-0.236061 Q 8.16178,14.266271 8.16178,13.81098 q 0,-0.438447 0.7925701,-1.450236 0.7588434,-0.961203 0.9612018,-1.382779 0.1686301,0.421609 0.9780651,1.382779 0.79257,0.978067 0.79257,1.450236 0,0.455285 -0.26981,0.708257 -0.252946,0.236061 -0.522762,0.236061 -0.590213,0 -0.876886,-0.725114 H 9.982987 v 0.236061 q 0,0.725122 0.252946,1.112975 z"/>
    <path d="m 17.655765,21.972723 q -0.202359,-0.455285 -0.522762,-0.725114 -0.37099,-0.320384 -0.37099,-0.691393 0,-0.455285 0.404719,-0.455285 0.320403,0 0.421582,0.354125 h 0.03374 v -0.15174 l -0.10118,-0.50593 h 0.26981 l -0.101179,0.50593 v 0.15174 h 0.03374 q 0.101179,-0.354125 0.421582,-0.354125 0.404718,0 0.404718,0.455285 0,0.438447 -0.337267,0.691393 -0.219224,0.134901 -0.354125,0.354125 -0.134908,0.202385 -0.202359,0.370963 z"/>
    <path d="m 13.895273,24.181803 -0.455305,-0.758844 q -0.404718,-0.489027 -0.69139,-0.826294 -0.26981,-0.354125 -0.37099,-0.522769 -0.252946,-0.387867 -0.252946,-0.725114 0,-0.489027 0.26981,-0.708257 0.286675,-0.219224 0.522756,-0.219224 0.623942,0 0.876886,0.725115 h 0.03374 v -0.252965 q 0,-0.725122 -0.252946,-1.096111 h 0.623935 q -0.236081,0.472189 -0.236081,1.096111 v 0.252965 h 0.03374 q 0.26981,-0.725115 0.860023,-0.725115 0.26981,0 0.522762,0.219224 0.26981,0.219223 0.26981,0.708257 0,0.455285 -0.79257,1.416507 -0.37099,0.438447 -0.623936,0.809436 -0.236081,0.354125 -0.337267,0.607091 z"/>
    <path d="M 5.9864357,24.181803 5.5311297,23.422959 Q 5.1264115,22.933932 4.8397385,22.596665 4.5699285,22.24254 4.4687489,22.073896 4.2158033,21.686029 4.2158033,21.348782 q 0,-0.489027 0.26981,-0.708257 0.2866743,-0.219224 0.5227621,-0.219224 0.6239384,0 0.8768859,0.725115 H 5.91899 v -0.252965 q 0,-0.725122 -0.2529483,-1.096111 h 0.6239384 q -0.2360845,0.472189 -0.2360845,1.096111 v 0.252965 h 0.033729 q 0.2698113,-0.725115 0.8600226,-0.725115 0.2698099,0 0.5227621,0.219224 0.2698099,0.219223 0.2698099,0.708257 0,0.455285 -0.7925701,1.416507 -0.3709895,0.438447 -0.6239377,0.809436 -0.2360846,0.354125 -0.3372641,0.607091 z"/>
    <path d="m 17.031827,25.008103 v -0.421608 h 0.961202 l 0.118044,-0.505865 q -0.151766,0.168643 -0.455305,0.168643 -0.725117,0 -0.725117,-0.792572 0,-0.826294 0.860023,-0.826294 0.860023,0 0.860023,0.725114 h -0.472169 q 0,-0.354125 -0.387854,-0.354125 -0.37099,0 -0.37099,0.455285 0,0.438447 0.37099,0.438447 0.252946,0 0.387854,-0.202385 h 0.404718 l -0.236081,1.315334 z"/>
</svg>