<svg xmlns="http://www.w3.org/2000/svg" width="74.952217" height="100" viewBox="0 0 19.831107 26.458333">
    <path d="m 1.1804253,26.458333 q -0.72511731,0 -0.96120184,-0.219224 Q 0,26.003048 0,25.277907 V 1.1804064 Q 0,0.45528515 0.21922346,0.2360617 0.45531126,0 1.1804253,0 H 18.650693 q 0.725117,0 0.944339,0.2360617 0.236088,0.21922345 0.236088,0.9443447 V 25.277907 q 0,0.725114 -0.236088,0.961202 -0.219224,0.219224 -0.944339,0.219224 z"/>
    <path style="fill:#ffffff" d="M 1.3827844,25.969306 H 18.448336 q 0.590213,0 0.74198,-0.151805 0.151766,-0.15174 0.151766,-0.741979 V 1.3827329 q 0,-0.62392866 -0.151766,-0.75884344 Q 19.03855,0.48898774 18.448336,0.48898774 H 1.3827838 q -0.60707736,0 -0.75884343,0.13490172 Q 0.48903212,0.75879118 0.48903212,1.3827329 V 25.075522 q 0,0.590186 0.13490825,0.741979 0.15176607,0.151805 0.75884403,0.151805 z"/>
    <path d="m 2.074175,3.844797 q -0.8937497,0 -0.8937497,-1.2141547 0,-1.2478768 0.9274758,-1.2478768 0.6576645,0 0.758844,0.6576638 H 2.4283047 q -0.067451,-0.2698034 -0.320403,-0.2698034 -0.4384404,0 -0.4384404,0.5733486 V 2.462038 q 0.2023592,-0.2529652 0.5058978,-0.2529652 0.320403,0 0.5227621,0.2360617 0.2023591,0.2192234 0.2023591,0.5227686 0,0.8768873 -0.8262962,0.8768873 z"/>
    <path d="M 13.541146,6.6609471 Q 13.794091,6.2899837 13.794091,5.5648429 V 5.3287812 h -0.03374 q -0.252946,0.7251147 -0.876886,0.7251147 -0.236088,0 -0.522763,-0.2360617 -0.26981,-0.2529652 -0.26981,-0.7082569 0,-0.4721887 0.792571,-1.4839581 0.387853,-0.4721887 0.623935,-0.8094364 0.252945,-0.3541252 0.354125,-0.5396069 0.16863,0.4216086 0.961202,1.382785 0.79257,0.9780604 0.79257,1.4502294 0,0.4552852 -0.26981,0.7082569 -0.252946,0.2360617 -0.522762,0.2360617 -0.590213,0 -0.860023,-0.7251147 h -0.03374 v 0.2360617 q 0,0.6239286 0.236088,1.0961042 z"/>
    <path d="M 5.6323087,6.6609471 Q 5.8852544,6.2899837 5.8852544,5.5648429 V 5.3287812 h -0.033742 q -0.2529456,0.7251147 -0.876886,0.7251147 -0.2360878,0 -0.5227621,-0.2360617 -0.26981,-0.2529652 -0.26981,-0.7082569 0,-0.4721887 0.7925702,-1.4839581 Q 5.3624785,3.1534305 5.5985598,2.8161828 5.8515054,2.4620576 5.952685,2.2765759 6.1213154,2.6981845 6.9138868,3.6593609 7.706457,4.6374213 7.706457,5.1095903 q 0,0.4552852 -0.26981,0.7082569 -0.2529456,0.2360617 -0.5227621,0.2360617 -0.590213,0 -0.860023,-0.7251147 h -0.033742 v 0.2360617 q 0,0.6239286 0.2360878,1.0961042 z"/>
    <path style="fill:#ffffff" d="m 2.074175,3.4569431 q 0.3541252,0 0.3541252,-0.4552852 0,-0.4384469 -0.3541252,-0.4384469 -0.3709895,0 -0.3709895,0.4384469 0,0.4552852 0.3709895,0.4552852 z"/>
    <path d="M 2.0404332,6.6609471 2.1416128,6.1550167 V 6.020115 h -0.033742 q -0.1011796,0.3372869 -0.4047183,0.3372869 -0.4215825,0 -0.4215825,-0.4552852 0,-0.3372869 0.3878538,-0.7251147 0.26981,-0.2698034 0.5058978,-0.6913925 0.084315,0.1854817 0.2360878,0.3541252 0.1517661,0.1686435 0.320403,0.3372869 0.3541252,0.3541252 0.3541252,0.7251147 0,0.4552852 -0.4215826,0.4552852 -0.3035386,0 -0.4047182,-0.337287 h -0.033742 v 0.1349018 l 0.1011795,0.5059304 z"/>
    <path d="m 5.6322937,15.37922 q 0.2529456,-0.387866 0.2529456,-1.112975 v -0.236061 h -0.033742 q -0.2529456,0.725114 -0.876886,0.725114 -0.2360878,0 -0.5227621,-0.236061 -0.26981,-0.252966 -0.26981,-0.708257 0,-0.472189 0.7588434,-1.450236 0.3878539,-0.472189 0.6407995,-0.80943 0.26981,-0.354125 0.3709895,-0.573349 0.067451,0.252966 0.320403,0.590187 0.26981,0.320384 0.6407995,0.792566 0.7925702,1.011795 0.7925702,1.450236 0,0.455285 -0.26981,0.708257 -0.2529456,0.236061 -0.5227621,0.236061 -0.590213,0 -0.860023,-0.725114 h -0.033742 v 0.236061 q 0,0.623929 0.2360878,1.112975 z"/>
    <path d="m 13.541131,15.37922 q 0.252945,-0.387866 0.252945,-1.112975 v -0.236061 h -0.03374 q -0.252946,0.725114 -0.876886,0.725114 -0.236088,0 -0.522763,-0.236061 -0.26981,-0.252966 -0.26981,-0.708257 0,-0.236062 0.168631,-0.590187 0.185495,-0.370963 0.590213,-0.860023 0.421582,-0.472189 0.657664,-0.80943 0.252946,-0.354125 0.354126,-0.573349 0.06745,0.252966 0.320403,0.590187 0.26981,0.320384 0.640799,0.792566 0.79257,1.011795 0.79257,1.450236 0,0.455285 -0.26981,0.708257 -0.252945,0.236061 -0.522762,0.236061 -0.590213,0 -0.860023,-0.725114 h -0.03374 v 0.236061 q 0,0.623929 0.236088,1.112975 z"/>
    <path d="M 5.9864202,24.181803 5.5311155,23.422959 Q 5.1263973,22.933932 4.8397249,22.596665 4.5699149,22.24254 4.4687354,22.073896 4.2157897,21.686029 4.2157897,21.348782 q 0,-0.489027 0.26981,-0.708257 0.2866743,-0.219224 0.5227621,-0.219224 0.6239352,0 0.876886,0.725115 h 0.033742 v -0.252965 q 0,-0.725122 -0.2529457,-1.096111 h 0.6239352 q -0.2360878,0.472189 -0.2360878,1.096111 v 0.252965 h 0.033742 q 0.26981,-0.725115 0.860023,-0.725115 0.26981,0 0.5227621,0.219224 0.26981,0.219223 0.26981,0.708257 0,0.455285 -0.7925702,1.416507 -0.3709895,0.438447 -0.6239351,0.809436 -0.2360878,0.354125 -0.3372674,0.607091 z"/>
    <path d="m 17.65575,21.972723 q -0.202359,-0.455285 -0.522762,-0.725114 -0.37099,-0.320384 -0.37099,-0.691393 0,-0.455285 0.404719,-0.455285 0.320403,0 0.421582,0.354125 h 0.03374 v -0.15174 l -0.10118,-0.50593 h 0.26981 l -0.101179,0.50593 v 0.15174 h 0.03374 q 0.10118,-0.354125 0.421577,-0.354125 0.404718,0 0.404718,0.455285 0,0.438447 -0.337268,0.691393 -0.219223,0.134901 -0.354125,0.354125 -0.134908,0.202385 -0.202359,0.370963 z"/>
    <path d="m 13.895273,24.181803 -0.455305,-0.758844 q -0.404718,-0.489027 -0.691391,-0.826294 -0.26981,-0.354125 -0.37099,-0.522769 -0.252945,-0.387867 -0.252945,-0.725114 0,-0.489027 0.26981,-0.708257 0.286674,-0.219224 0.522762,-0.219224 0.623935,0 0.876886,0.725115 h 0.03374 v -0.252965 q 0,-0.725122 -0.252946,-1.096111 h 0.623935 q -0.236088,0.472189 -0.236088,1.096111 v 0.252965 h 0.03374 q 0.26981,-0.725115 0.860023,-0.725115 0.26981,0 0.522762,0.219224 0.26981,0.219223 0.26981,0.708257 0,0.455285 -0.79257,1.416507 -0.37099,0.438447 -0.623935,0.809436 -0.236088,0.354125 -0.337268,0.607091 z"/>
    <path d="m 17.723218,25.075554 q -0.657665,0 -0.758844,-0.657664 h 0.455305 q 0.101179,0.286707 0.303538,0.286707 0.455305,0 0.455305,-0.590187 v -0.10116 q -0.219224,0.236062 -0.522762,0.236062 -0.303539,0 -0.522762,-0.219223 -0.202359,-0.236062 -0.202359,-0.539607 0,-0.860023 0.826296,-0.860023 0.893749,0 0.893749,1.197284 0,1.247876 -0.927475,1.247876 z"/>
    <path style="fill:#ffffff" d="m 17.75696,23.895128 q 0.387853,0 0.387853,-0.438447 0,-0.455285 -0.387853,-0.455285 -0.337261,0 -0.337261,0.455285 0,0.438447 0.337261,0.438447 z"/>
</svg>