<svg xmlns="http://www.w3.org/2000/svg" width="74.952217" height="100" viewBox="0 0 19.831107 26.458333">
    <path d="m 1.1804256,26.458333 q -0.72511749,0 -0.96120209,-0.219224 Q 0,26.003047 0,25.277906 V 1.1804001 Q 0,0.45528526 0.21922351,0.23606175 0.45530484,0 1.1804256,0 H 18.650698 q 0.725117,0 0.944339,0.23606175 0.236081,0.21922351 0.236081,0.94433835 V 25.277906 q 0,0.725122 -0.236081,0.961203 -0.219224,0.219224 -0.944339,0.219224 z"/>
    <path style="fill:#ffffff" d="M 1.3827848,25.969306 H 18.44834 q 0.590213,0 0.74198,-0.15174 0.151766,-0.15174 0.151766,-0.74198 V 1.3827919 q 0,-0.62392874 -0.151766,-0.75884355 Q 19.038554,0.4890466 18.44834,0.4890466 H 1.3827848 q -0.60707752,0 -0.75884428,0.13490175 Q 0.48903224,0.75885011 0.48903224,1.3827919 V 25.075586 q 0,0.590187 0.13490828,0.74198 0.15176611,0.15174 0.75884428,0.15174 z"/>
    <path d="M 1.73691,3.7604761 Q 1.8380896,2.6643717 2.5294803,1.8717994 H 1.4165095 V 1.4165141 H 3.0185132 V 1.8381229 Q 2.2596697,2.4957869 2.2596697,3.7605284 Z"/>
    <path d="m 13.541148,6.6609487 q 0.252946,-0.3709635 0.252946,-1.096111 V 5.3287759 h -0.03374 q -0.252945,0.7251149 -0.876886,0.7251149 -0.236088,0 -0.522762,-0.2360617 -0.26981,-0.2529653 -0.26981,-0.7082506 0,-0.4721887 0.79257,-1.4839649 0.387854,-0.4721888 0.623942,-0.8094302 0.252946,-0.3541252 0.354125,-0.539607 0.168631,0.4216088 0.961202,1.3827789 0.792571,0.9780671 0.792571,1.4502363 0,0.4552853 -0.26981,0.7082505 -0.252946,0.2360618 -0.522763,0.2360618 -0.590213,0 -0.860023,-0.7251149 h -0.03374 v 0.2360617 q 0,0.6239288 0.236082,1.0961111 z"/>
    <path d="M 5.6323087,6.6609487 Q 5.885257,6.2899852 5.885257,5.5648377 V 5.3287759 H 5.851528 q -0.2529476,0.7251149 -0.8768861,0.7251149 -0.2360879,0 -0.5227623,-0.2360617 -0.26981,-0.2529653 -0.26981,-0.7082506 0,-0.4721887 0.7925703,-1.4839649 0.387854,-0.4721888 0.6239379,-0.8094302 0.2529477,-0.3541252 0.3541273,-0.539607 0.1686317,0.4216088 0.9612021,1.3827789 0.7925703,0.9780671 0.7925703,1.4502363 0,0.4552853 -0.2698101,0.7082505 -0.2529456,0.2360618 -0.5227622,0.2360618 -0.5902118,0 -0.860023,-0.7251149 h -0.033729 v 0.2360617 q 0,0.6239288 0.2360846,1.0961111 z"/>
    <path d="M 2.0404481,6.6609487 2.1416277,6.1550182 V 6.0201164 h -0.033742 q -0.1011796,0.3372871 -0.4047183,0.3372871 -0.4215827,0 -0.4215827,-0.4552853 0,-0.337287 0.387854,-0.7251214 0.26981,-0.2698035 0.5058979,-0.6913927 0.084315,0.1854817 0.2360879,0.3541252 0.1517661,0.1686436 0.3204031,0.3372871 0.3541252,0.3541252 0.3541252,0.7251214 0,0.4552852 -0.4215827,0.4552852 -0.3035387,0 -0.4047183,-0.337287 h -0.033742 v 0.1349018 l 0.1011796,0.5059305 z"/>
    <path d="M 9.5782967,11.129695 Q 9.8143846,10.741828 9.8143846,10.01672 V 9.7806578 H 9.7806428 Q 9.544555,10.505773 8.9206197,10.505773 q -0.2866744,0 -0.5396201,-0.236062 -0.2529457,-0.252965 -0.2529457,-0.6913927 0,-0.4552853 0.7925703,-1.4502363 0.7588443,-0.9780606 0.9612021,-1.3827789 0.067451,0.2023853 0.3204027,0.5565105 0.26981,0.337287 0.657665,0.8262945 0.79257,0.9949314 0.79257,1.4502363 0,0.4384466 -0.26981,0.6913926 -0.252945,0.236062 -0.522762,0.236062 -0.590213,0 -0.8768861,-0.7251151 h -0.033742 v 0.2360621 q 0,0.725121 0.2529461,1.112975 z"/>
    <path d="M 5.6323087,15.379218 Q 5.885257,14.991351 5.885257,14.266249 V 14.030187 H 5.851528 q -0.2529476,0.725122 -0.8768861,0.725122 -0.2360879,0 -0.5227623,-0.236062 -0.26981,-0.252965 -0.26981,-0.708251 0,-0.472189 0.7588436,-1.450236 0.387854,-0.472189 0.6408016,-0.809437 0.2698113,-0.354125 0.3709903,-0.573348 0.067453,0.252965 0.3204004,0.590187 0.2698114,0.320383 0.6408017,0.792572 0.7925703,1.011789 0.7925703,1.450236 0,0.455285 -0.2698101,0.708251 -0.2529456,0.236061 -0.5227622,0.236061 -0.5902118,0 -0.8600231,-0.725121 h -0.033729 v 0.236062 q 0,0.623929 0.2360846,1.112969 z"/>
    <path d="m 13.541148,15.379218 q 0.252946,-0.387867 0.252946,-1.112969 v -0.236062 h -0.03374 q -0.252945,0.725122 -0.876886,0.725122 -0.236088,0 -0.522762,-0.236062 -0.26981,-0.252965 -0.26981,-0.708251 0,-0.236062 0.16863,-0.590187 0.185495,-0.370963 0.590213,-0.860023 0.421583,-0.472189 0.657665,-0.809437 0.252946,-0.354125 0.354125,-0.573348 0.06745,0.252965 0.320403,0.590187 0.26981,0.320383 0.6408,0.792572 0.79257,1.011789 0.79257,1.450236 0,0.455286 -0.26981,0.708251 -0.252945,0.236062 -0.522755,0.236062 -0.590214,0 -0.860024,-0.725122 h -0.03374 v 0.236062 q 0,0.623929 0.236081,1.112969 z"/>
    <path d="M 5.9864359,24.181808 5.5311299,23.422965 Q 5.1264116,22.933938 4.8397385,22.59667 4.5699284,22.242545 4.4687489,22.073902 4.2158032,21.686035 4.2158032,21.348787 q 0,-0.489027 0.26981,-0.708257 0.2866744,-0.219224 0.5227623,-0.219224 0.6239385,0 0.876886,0.725122 h 0.033729 v -0.252966 q 0,-0.725115 -0.2529483,-1.096104 h 0.6239386 q -0.2360846,0.472189 -0.2360846,1.096104 v 0.252966 h 0.033729 q 0.2698114,-0.725122 0.8600233,-0.725122 0.26981,0 0.5227622,0.219224 0.2698101,0.219223 0.2698101,0.708257 0,0.455285 -0.7925703,1.416507 -0.3709897,0.438447 -0.6239386,0.80943 -0.2360846,0.354126 -0.3372642,0.607091 z"/>
    <path d="m 17.655768,21.972729 q -0.202359,-0.455286 -0.522762,-0.725115 -0.37099,-0.320384 -0.37099,-0.691393 0,-0.455285 0.404718,-0.455285 0.320404,0 0.421583,0.354125 h 0.03374 v -0.15174 l -0.10118,-0.505865 h 0.26981 l -0.101179,0.505865 v 0.15174 h 0.03374 q 0.101179,-0.354125 0.421582,-0.354125 0.404719,0 0.404719,0.455285 0,0.438447 -0.337268,0.691393 -0.219223,0.134901 -0.354125,0.354125 -0.134908,0.202385 -0.202359,0.370963 z"/>
    <path d="m 13.895276,24.181802 -0.455305,-0.758844 q -0.404719,-0.489027 -0.691391,-0.826294 -0.26981,-0.354125 -0.37099,-0.522769 -0.252945,-0.387867 -0.252945,-0.725115 0,-0.489027 0.26981,-0.708257 0.286674,-0.219223 0.522762,-0.219223 0.623942,0 0.876886,0.725121 h 0.03374 v -0.252965 q 0,-0.725115 -0.252946,-1.096105 h 0.623936 q -0.236082,0.472189 -0.236082,1.096105 v 0.252965 h 0.03374 q 0.26981,-0.725121 0.860023,-0.725121 0.26981,0 0.522762,0.219223 0.26981,0.219224 0.26981,0.708257 0,0.455286 -0.79257,1.416508 -0.37099,0.438447 -0.623935,0.80943 -0.236082,0.354125 -0.337268,0.60709 z"/>
    <path d="m 16.829472,25.041825 v -0.421609 q 0.758844,-0.60709 0.758844,-1.922405 h 0.522762 q -0.118044,1.096111 -0.809433,1.888683 h 1.112971 v 0.455285 z"/>
</svg>