<svg xmlns="http://www.w3.org/2000/svg" width="74.952217" height="100" viewBox="0 0 19.831107 26.458333">
    <path d="m 1.1804256,26.458333 q -0.72511749,0 -0.96120209,-0.219224 Q 0,26.003047 0,25.277906 V 1.1804001 Q 0,0.45527874 0.21922351,0.23606175 0.45531137,0 1.1804256,0 H 18.650698 q 0.725117,0 0.944339,0.23606175 0.236087,0.21922351 0.236087,0.94433835 V 25.277906 q 0,0.725115 -0.236087,0.961203 -0.219224,0.219224 -0.944339,0.219224 z"/>
    <path style="fill:#ffffff" d="M 1.3827848,25.969306 H 18.44834 q 0.590213,0 0.741981,-0.15174 0.151766,-0.15174 0.151766,-0.74198 V 1.3827985 q 0,-0.62392881 -0.151766,-0.75884362 Q 19.038555,0.48905312 18.44834,0.48905312 H 1.3827841 q -0.60707747,0 -0.75884358,0.13490176 Q 0.48903224,0.75885663 0.48903224,1.3827985 V 25.075586 q 0,0.590187 0.13490828,0.74198 0.15176611,0.15174 0.75884428,0.15174 z"/>
    <path d="m 2.1416283,3.8447848 q -0.8937499,0 -0.8937499,-0.7251214 0,-0.489027 0.4553049,-0.590187 -0.3541253,-0.10116 -0.3541253,-0.489027 0,-0.3035453 0.26981,-0.4721888 0.2866744,-0.1854817 0.5227623,-0.1854817 0.8094334,0 0.8094334,0.6239288 0,0.337287 -0.3541253,0.5227687 0.4553048,0.10116 0.4553048,0.590187 0,0.7251214 -0.9106149,0.7251214 z"/>
    <path style="fill:#ffffff" d="m 2.1416283,2.3945486 q 0.3541253,0 0.3541253,-0.3203835 0,-0.3035453 -0.3541253,-0.3035453 -0.3372674,0 -0.3372674,0.3035453 0,0.3203835 0.3372674,0.3203835 z"/>
    <path d="M 13.541149,6.6609357 Q 13.794095,6.2899722 13.794095,5.5648312 V 5.3287694 h -0.03374 q -0.252946,0.7251214 -0.876886,0.7251214 -0.236088,0 -0.522763,-0.2360617 -0.26981,-0.2529653 -0.26981,-0.7082571 0,-0.4721888 0.792571,-1.4839584 0.387854,-0.4721888 0.623935,-0.8094302 0.252946,-0.3541252 0.354125,-0.539607 0.168631,0.4216088 0.961202,1.3827854 0.792571,0.9780606 0.792571,1.4502298 0,0.4552853 -0.26981,0.708257 -0.252946,0.2360618 -0.522763,0.2360618 -0.590213,0 -0.860023,-0.7251214 h -0.03374 v 0.2360617 q 0,0.6239288 0.236087,1.0961045 z"/>
    <path d="M 5.6323101,6.6609357 Q 5.8852558,6.2899722 5.8852558,5.5648312 V 5.3287694 H 5.851514 q -0.2529456,0.7251214 -0.8768862,0.7251214 -0.2360878,0 -0.5227622,-0.2360617 -0.26981,-0.2529653 -0.26981,-0.7082571 0,-0.4721888 0.7925703,-1.4839584 0.3878539,-0.4721888 0.6239353,-0.8094302 0.2529457,-0.3541252 0.3541252,-0.539607 0.1686305,0.4216088 0.9612021,1.3827854 0.7925703,0.9780606 0.7925703,1.4502298 0,0.4552853 -0.26981,0.708257 -0.2529457,0.2360618 -0.5227622,0.2360618 -0.5902132,0 -0.8600232,-0.7251214 h -0.033742 v 0.2360617 q 0,0.6239288 0.2360878,1.0961045 z"/>
    <path style="fill:#ffffff" d="m 2.1416283,3.4569309 q 0.4215827,0 0.4215827,-0.3709635 0,-0.387867 -0.4215827,-0.387867 -0.4047183,0 -0.4047183,0.387867 0,0.3709635 0.4047183,0.3709635 z"/>
    <path d="M 2.0404488,6.6609357 2.1416283,6.1550704 V 6.0201686 H 2.1078866 Q 2.006707,6.3574557 1.7031683,6.3574557 q -0.4215827,0 -0.4215827,-0.4552853 0,-0.337287 0.387854,-0.7251149 0.26981,-0.2698035 0.5058979,-0.6913927 0.084315,0.1854818 0.2360878,0.3541253 0.1517661,0.1686435 0.3204031,0.337287 0.3541253,0.3541253 0.3541253,0.7251149 0,0.4552852 -0.4215827,0.4552852 -0.3035387,0 -0.4047183,-0.337287 H 2.2259109 V 6.15509 l 0.1011796,0.5058652 z"/>
    <path d="M 9.578298,11.129682 Q 9.8143794,10.741815 9.8143794,10.016713 V 9.7806513 h -0.033742 q -0.2360878,0.7251217 -0.8600231,0.7251217 -0.2866744,0 -0.5396201,-0.236062 -0.2529457,-0.252965 -0.2529457,-0.6913862 0,-0.4552853 0.7925703,-1.4502363 0.7588436,-0.9780671 0.9612021,-1.3827854 0.067451,0.2023853 0.3204031,0.5565105 0.26981,0.337287 0.657665,0.826301 0.79257,0.9949249 0.79257,1.4502363 0,0.4384471 -0.26981,0.6913861 -0.252946,0.236062 -0.522762,0.236062 -0.590213,0 -0.8768865,-0.7251216 h -0.033742 v 0.2360616 q 0,0.725115 0.2529465,1.112969 z"/>
    <path d="M 5.6323101,15.379211 Q 5.8852558,14.991344 5.8852558,14.266236 V 14.030174 H 5.851514 q -0.2529456,0.725115 -0.8768862,0.725115 -0.2360878,0 -0.5227622,-0.236062 -0.26981,-0.252965 -0.26981,-0.708257 0,-0.472189 0.7588435,-1.450236 0.387854,-0.472189 0.6407997,-0.80943 0.26981,-0.354126 0.3709896,-0.573349 0.067451,0.252965 0.3204031,0.590187 0.26981,0.320383 0.6407996,0.792566 0.7925704,1.011796 0.7925704,1.450236 0,0.455285 -0.2698101,0.708257 -0.2529457,0.236062 -0.5227622,0.236062 -0.5902131,0 -0.8600232,-0.725115 H 6.020124 v 0.236062 q 0,0.623928 0.2360878,1.112975 z"/>
    <path d="m 13.541149,15.379211 q 0.252946,-0.387867 0.252946,-1.112975 v -0.236062 h -0.03374 q -0.252946,0.725115 -0.876886,0.725115 -0.236088,0 -0.522763,-0.236062 -0.26981,-0.252965 -0.26981,-0.708257 0,-0.236062 0.168631,-0.590187 0.185495,-0.370963 0.590213,-0.860023 0.421583,-0.472189 0.657665,-0.80943 0.252945,-0.354125 0.354125,-0.573349 0.06745,0.252965 0.320403,0.590187 0.26981,0.320384 0.6408,0.792566 0.79257,1.011796 0.79257,1.450236 0,0.455285 -0.26981,0.708257 -0.252946,0.236062 -0.522762,0.236062 -0.590213,0 -0.860023,-0.725115 h -0.03374 v 0.236062 q 0,0.623929 0.236088,1.112975 z"/>
    <path d="M 9.8818355,19.729914 9.443395,18.97107 Q 9.0892697,18.583203 8.8363175,18.296542 8.6002296,17.992996 8.4315992,17.756935 8.1280604,17.267908 8.1280604,16.896911 q 0,-0.455285 0.2529457,-0.691392 0.2529457,-0.252966 0.5396201,-0.252966 0.6239353,0 0.8600232,0.725115 h 0.033742 v -0.236061 q 0,-0.725122 -0.2360813,-1.096111 h 0.6239349 q -0.2529453,0.370963 -0.2529453,1.096111 v 0.236061 h 0.033742 q 0.2866753,-0.725115 0.8768863,-0.725115 0.26981,0 0.522763,0.252966 0.26981,0.236061 0.26981,0.691392 0,0.438447 -0.792571,1.416508 -0.843159,0.961203 -0.9780653,1.416508 z"/>
    <path d="m 17.655769,21.972722 q -0.202359,-0.455285 -0.522762,-0.725121 -0.37099,-0.320384 -0.37099,-0.691393 0,-0.455285 0.404719,-0.455285 0.320403,0 0.421582,0.354125 h 0.03374 v -0.151805 l -0.101179,-0.505931 h 0.26981 l -0.10118,0.505931 v 0.151805 h 0.03374 q 0.101179,-0.354125 0.421576,-0.354125 0.404718,0 0.404718,0.455285 0,0.438447 -0.337267,0.691393 -0.219224,0.134901 -0.354125,0.354125 -0.134909,0.202385 -0.20236,0.370963 z"/>
    <path d="M 5.9864367,24.181795 5.5311318,23.422952 Q 5.1264135,22.933925 4.8397411,22.596657 4.5699311,22.242532 4.4687515,22.073889 4.2158058,21.686022 4.2158058,21.348767 q 0,-0.489027 0.26981,-0.70825 0.2866744,-0.219224 0.5227623,-0.219224 0.6239353,0 0.8768862,0.725115 h 0.033742 v -0.252965 q 0,-0.725115 -0.2529457,-1.096111 h 0.6239353 q -0.2360878,0.472189 -0.2360878,1.096111 v 0.252965 h 0.033742 q 0.2698101,-0.725115 0.8600232,-0.725115 0.26981,0 0.5227622,0.219224 0.2698101,0.219223 0.2698101,0.70825 0,0.455285 -0.7925703,1.416508 -0.3709897,0.438447 -0.6239353,0.809436 -0.2360879,0.354126 -0.3372675,0.607091 z"/>
    <path d="m 13.895276,24.181795 -0.455305,-0.758843 q -0.404718,-0.489027 -0.691391,-0.826295 -0.26981,-0.354125 -0.37099,-0.522768 -0.252945,-0.387867 -0.252945,-0.725122 0,-0.489027 0.26981,-0.70825 0.286674,-0.219224 0.522762,-0.219224 0.623935,0 0.876886,0.725115 h 0.03374 v -0.252965 q 0,-0.725115 -0.252946,-1.096111 h 0.623936 q -0.236088,0.472189 -0.236088,1.096111 v 0.252965 h 0.03374 q 0.26981,-0.725115 0.860024,-0.725115 0.26981,0 0.522762,0.219224 0.26981,0.219223 0.26981,0.70825 0,0.455285 -0.79257,1.416508 -0.37099,0.438447 -0.623936,0.809436 -0.236088,0.354126 -0.337267,0.607091 z"/>
    <path d="m 17.689495,25.075547 q -0.79257,0 -0.79257,-0.623928 0,-0.370964 0.337268,-0.522769 -0.438441,-0.10116 -0.438441,-0.573349 0,-0.725115 0.893749,-0.725115 0.89375,0 0.89375,0.725115 0,0.472189 -0.438441,0.573349 0.337268,0.118063 0.337268,0.489027 0,0.320383 -0.269811,0.489027 -0.252945,0.168643 -0.522762,0.168643 z"/>
    <path style="fill:#ffffff" d="m 17.689495,23.760219 q 0.421583,0 0.421583,-0.370963 0,-0.387867 -0.421583,-0.387867 -0.421582,0 -0.421582,0.387867 0,0.370963 0.421582,0.370963 z"/>
    <path style="fill:#ffffff" d="m 17.689495,24.704558 q 0.354126,0 0.354126,-0.320384 0,-0.303545 -0.354126,-0.303545 -0.33726,0 -0.33726,0.303545 0,0.320384 0.33726,0.320384 z"/>
</svg>