<svg xmlns="http://www.w3.org/2000/svg" width="74.952217" height="100" viewBox="0 0 19.831107 26.458333">
    <path d="m 1.1804253,26.458333 q -0.7251173,0 -0.9612018,-0.219224 Q 0,26.003048 0,25.277907 V 1.1804064 Q 0,0.45528515 0.2192235,0.2360617 0.4553047,0 1.1804253,0 H 18.650693 q 0.725118,0 0.944339,0.2360617 0.236085,0.21922345 0.236085,0.9443447 V 25.277907 q 0,0.725114 -0.236085,0.961202 -0.219221,0.219224 -0.944339,0.219224 z"/>
    <path style="fill:#ffffff" d="M 1.3827844,25.969306 H 18.448335 q 0.590213,0 0.741981,-0.151805 0.151766,-0.15174 0.151766,-0.741979 V 1.3827329 q 0,-0.62392866 -0.151766,-0.75884344 Q 19.03855,0.48898774 18.448335,0.48898774 H 1.3827844 q -0.6070773,0 -0.7588434,0.13490172 Q 0.4890328,0.75879118 0.4890328,1.3827329 V 25.075522 q 0,0.590186 0.1349082,0.741979 0.1517661,0.151805 0.7588434,0.151805 z"/>
    <path d="m 2.0067196,3.844797 q -0.6576645,0 -0.7588441,-0.6576704 H 1.7031803 Q 1.8043598,3.45693 2.0067189,3.45693 q 0.4553048,0 0.4553048,-0.5901868 v -0.10116 q -0.2360813,0.2360617 -0.5227622,0.2360617 -0.3035386,0 -0.5227621,-0.2192235 Q 1.2141403,2.563198 1.2141403,2.2428145 q 0,-0.8600229 0.8262962,-0.8600229 0.9106127,0 0.9106127,1.2141546 0,1.2478769 -0.9443388,1.2478769 z"/>
    <path style="fill:#ffffff" d="m 2.0404613,2.664371 q 0.3878539,0 0.3878539,-0.4552852 0,-0.4047051 -0.3878539,-0.4047051 -0.3372673,0 -0.3372673,0.4047051 0,0.4552852 0.3372673,0.4552852 z"/>
    <path d="M 13.541159,6.6609471 Q 13.794104,6.2899837 13.794104,5.5648429 V 5.3287812 h -0.03374 q -0.252945,0.7251147 -0.876886,0.7251147 -0.236081,0 -0.522762,-0.2360617 -0.26981,-0.2529652 -0.26981,-0.7082569 0,-0.4721887 0.792571,-1.4839581 0.387854,-0.4721887 0.623935,-0.8094364 0.252945,-0.3541252 0.354125,-0.5396069 0.168631,0.4216086 0.961203,1.382785 0.79257,0.9780604 0.79257,1.4502294 0,0.4552852 -0.26981,0.7082569 -0.252946,0.2360617 -0.522762,0.2360617 -0.590213,0 -0.860023,-0.7251147 h -0.03374 v 0.2360617 q 0,0.6239286 0.236088,1.0961042 z"/>
    <path d="M 5.6323211,6.6609471 Q 5.8852668,6.2899837 5.8852668,5.5648429 V 5.3287812 h -0.033742 q -0.2529456,0.7251147 -0.876886,0.7251147 -0.2360812,0 -0.5227621,-0.2360617 Q 4.1820669,5.564869 4.1820669,5.1095773 q 0,-0.4721887 0.7925702,-1.4839581 0.3878538,-0.4721887 0.6239351,-0.8094364 0.2529456,-0.3541252 0.3541252,-0.5396069 0.1686304,0.4216086 0.9612018,1.382785 0.7925702,0.9780604 0.7925702,1.4502294 0,0.4552852 -0.26981,0.7082569 -0.2529456,0.2360617 -0.5227556,0.2360617 -0.590213,0 -0.8600229,-0.7251147 h -0.033742 v 0.2360617 q 0,0.6239286 0.2360813,1.0961042 z"/>
    <path d="M 2.0404613,6.6609471 2.1416409,6.1550167 V 6.020115 h -0.033742 q -0.1011795,0.3372869 -0.4047182,0.3372869 -0.421576,0 -0.421576,-0.4552852 0,-0.3372869 0.3878538,-0.7251147 0.26981,-0.2698034 0.5058978,-0.6913925 0.084315,0.1854817 0.2360878,0.3541252 0.1517661,0.1686435 0.320403,0.3372869 0.3541252,0.3541252 0.3541252,0.7251147 0,0.4552852 -0.4215826,0.4552852 -0.3035386,0 -0.4047182,-0.337287 H 2.2259295 V 6.1550363 L 2.327109,6.6609667 Z"/>
    <path d="m 13.541159,12.613657 q 0.252945,-0.387867 0.252945,-1.112975 V 11.26462 h -0.03374 q -0.252945,0.725115 -0.876886,0.725115 -0.236081,0 -0.522762,-0.236062 -0.26981,-0.252965 -0.26981,-0.691392 0,-0.252966 0.168631,-0.607091 0.185495,-0.370963 0.590213,-0.8431584 0.421583,-0.4890269 0.657664,-0.8262943 0.252946,-0.3541252 0.354126,-0.5565104 0.06745,0.2023852 0.320403,0.5565104 0.26981,0.3372869 0.640799,0.8262943 0.79257,0.9949314 0.79257,1.4502354 0,0.438447 -0.26981,0.691393 -0.252945,0.236062 -0.522762,0.236062 -0.590213,0 -0.860023,-0.725115 h -0.03374 v 0.236062 q 0,0.623928 0.236088,1.112975 z"/>
    <path d="M 5.6323211,12.613657 Q 5.8852668,12.22579 5.8852668,11.500682 V 11.26462 h -0.033742 q -0.2529456,0.725115 -0.876886,0.725115 -0.2360812,0 -0.5227621,-0.236062 -0.26981,-0.252965 -0.26981,-0.691392 0,-0.489027 0.7588441,-1.4502364 Q 5.3287649,9.1230177 5.5817105,8.7857504 5.8515204,8.4316252 5.9527,8.22924 q 0.067451,0.2023852 0.320403,0.5565104 0.26981,0.3372869 0.6407995,0.8262942 0.7925701,0.9949314 0.7925701,1.4502364 0,0.438446 -0.2698099,0.691392 -0.2529457,0.236062 -0.5227556,0.236062 -0.590213,0 -0.860023,-0.725115 h -0.033742 v 0.236062 q 0,0.623928 0.2360813,1.112975 z"/>
    <path d="m 9.6120348,15.37922 q 0.2360878,-0.387866 0.2360878,-1.112975 v -0.236061 h -0.033742 q -0.2360878,0.725114 -0.860023,0.725114 -0.2866743,0 -0.5396199,-0.236061 -0.2529456,-0.252966 -0.2529456,-0.708257 0,-0.438447 0.7925701,-1.450236 0.7588434,-0.961203 0.9612019,-1.382779 0.1686309,0.421609 0.9780659,1.382779 0.79257,0.978067 0.79257,1.450236 0,0.455285 -0.26981,0.708257 -0.252946,0.236061 -0.522756,0.236061 -0.590213,0 -0.876886,-0.725114 h -0.033742 v 0.236061 q 0,0.725122 0.2529458,1.112975 z"/>
    <path d="M 5.9527222,18.245964 5.4974175,17.48712 Q 5.1601566,16.93061 4.8397523,16.627097 4.5362137,16.306714 4.4350341,16.13807 4.1820885,15.750203 4.1820885,15.412949 q 0,-0.455285 0.26981,-0.691386 0.2866743,-0.252965 0.5227621,-0.252965 0.6239351,0 0.876886,0.725121 h 0.033742 v -0.236062 q 0,-0.725114 -0.2529456,-1.112968 h 0.6239348 q -0.2360813,0.489027 -0.2360813,1.112968 v 0.236062 h 0.033742 q 0.26981,-0.725121 0.8600229,-0.725121 0.26981,0 0.5227556,0.252965 0.26981,0.236062 0.26981,0.691386 0,0.438447 -0.7925701,1.416507 -0.3709895,0.438447 -0.6239417,0.809437 -0.2360813,0.354125 -0.3372608,0.60709 z"/>
    <path d="M 13.861559,18.245964 13.406254,17.48712 q -0.33726,-0.55651 -0.657664,-0.860023 -0.303539,-0.320383 -0.404718,-0.489027 -0.252946,-0.387867 -0.252946,-0.725121 0,-0.455285 0.26981,-0.691386 0.286674,-0.252965 0.522762,-0.252965 0.623935,0 0.876886,0.725121 h 0.03374 v -0.236062 q 0,-0.725114 -0.252945,-1.112968 h 0.623941 q -0.236087,0.489027 -0.236087,1.112968 v 0.236062 h 0.03374 q 0.26981,-0.725121 0.860023,-0.725121 0.26981,0 0.522762,0.252965 0.26981,0.236062 0.26981,0.691386 0,0.438447 -0.79257,1.416507 -0.37099,0.438447 -0.623942,0.809437 -0.236081,0.354125 -0.337261,0.60709 z"/>
    <path d="m 17.655778,21.972723 q -0.202359,-0.455285 -0.522762,-0.725114 -0.370989,-0.320384 -0.370989,-0.691393 0,-0.455285 0.404718,-0.455285 0.320403,0 0.421582,0.354125 h 0.03374 v -0.15174 l -0.101179,-0.50593 h 0.26981 l -0.10118,0.50593 v 0.15174 h 0.03374 q 0.101179,-0.354125 0.421582,-0.354125 0.404719,0 0.404719,0.455285 0,0.438447 -0.337268,0.691393 -0.219223,0.134901 -0.354125,0.354125 -0.134908,0.202385 -0.202359,0.370963 z"/>
    <path d="M 5.9864483,24.181803 5.5311435,23.422959 Q 5.1938827,22.866449 4.8734791,22.562936 4.5699404,22.242553 4.4687608,22.073909 4.2158152,21.686042 4.2158152,21.348795 q 0,-0.489027 0.26981,-0.708257 0.2866743,-0.219224 0.5227556,-0.219224 0.6239351,0 0.876886,0.725115 h 0.033742 v -0.252965 q 0,-0.725121 -0.2529456,-1.096111 H 6.289998 q -0.2360812,0.472189 -0.2360812,1.096111 v 0.252965 h 0.033742 q 0.26981,-0.725115 0.8600223,-0.725115 0.26981,0 0.5227621,0.219224 0.26981,0.219223 0.26981,0.708257 0,0.455285 -0.7925701,1.416507 -0.3709896,0.438447 -0.6239352,0.809436 -0.2360878,0.354125 -0.3372673,0.607091 z"/>
    <path d="m 13.895286,24.181803 -0.455305,-0.758844 q -0.337261,-0.55651 -0.657664,-0.860023 -0.303539,-0.320383 -0.404719,-0.489027 -0.252945,-0.387867 -0.252945,-0.725114 0,-0.489027 0.26981,-0.708257 0.286674,-0.219224 0.522762,-0.219224 0.623935,0 0.876886,0.725115 h 0.03374 v -0.252965 q 0,-0.725121 -0.252946,-1.096111 h 0.623935 q -0.236081,0.472189 -0.236081,1.096111 v 0.252965 h 0.03374 q 0.26981,-0.725115 0.860023,-0.725115 0.26981,0 0.522755,0.219224 0.26981,0.219223 0.26981,0.708257 0,0.455285 -0.79257,1.416507 -0.370989,0.438447 -0.623935,0.809436 -0.236088,0.354125 -0.337267,0.607091 z"/>
    <path d="m 17.790683,25.075554 q -0.893749,0 -0.893749,-1.214148 0,-1.231012 0.927476,-1.231012 0.657664,0 0.758843,0.657663 h -0.43844 q -0.06745,-0.286641 -0.320403,-0.286641 -0.43844,0 -0.43844,0.590187 v 0.10116 q 0.236081,-0.236062 0.505897,-0.236062 0.320403,0 0.522763,0.219223 0.202359,0.219224 0.202359,0.539607 0,0.860023 -0.826297,0.860023 z"/>
    <path style="fill:#ffffff" d="m 17.790683,24.670849 q 0.354125,0 0.354125,-0.421609 0,-0.455285 -0.354125,-0.455285 -0.370989,0 -0.370989,0.455285 0,0.421609 0.370989,0.421609 z"/>
</svg>