<svg xmlns="http://www.w3.org/2000/svg" width="74.952217" height="100" viewBox="0 0 19.831107 26.458333">
    <path d="m 1.1804253,26.45833 q -0.72511691,0 -0.96120197,-0.219224 Q 0,26.00302 0,25.277903 V 1.1804194 Q 0,0.4553025 0.21922333,0.23608114 0.455311,0 1.1804253,0 H 18.650684 q 0.725118,0 0.944338,0.23608114 0.236086,0.21922331 0.236086,0.94433826 V 25.277906 q 0,0.725119 -0.236086,0.961203 -0.219222,0.219224 -0.944338,0.219224 z"/>
    <path style="fill:#ffffff" d="M 1.3827843,25.969298 H 18.448327 q 0.59021,0 0.741979,-0.15175 0.15175,-0.15175 0.15175,-0.741978 V 1.3827777 q 0,-0.62393473 -0.15175,-0.75884292 -0.15175,-0.13490812 -0.741979,-0.13490812 H 1.382783 q -0.60707702,0 -0.758843,0.13490812 Q 0.48903188,0.75883634 0.48903188,1.3827777 V 25.075552 q 0,0.59021 0.13490812,0.741978 0.15176625,0.15175 0.7588443,0.15175 z"/>
    <path d="m 1.011793,3.7604867 0.893749,-2.411435 h 0.5564843 l 0.893749,2.411435 H 2.7992905 L 2.6306583,3.2208645 H 1.7369097 L 1.5345509,3.7604841 Z"/>
    <path style="fill:#ffffff" d="M 1.8718155,2.8330114 H 2.4957503 L 2.1753525,1.9392631 Z"/>
    <path d="M 2.0404456,6.6609541 2.1416253,6.1550567 V 6.0201473 H 2.1078816 Q 2.0067034,6.357408 1.7031633,6.357408 q -0.4215823,0 -0.4215823,-0.4553043 0,-0.3372673 0.3878537,-0.725117 0.2698105,-0.2698097 0.5058986,-0.6913901 0.084312,0.1854947 0.2360875,0.3541247 0.1517672,0.1686306 0.3204028,0.3372609 0.354125,0.3541248 0.354125,0.7251169 0,0.4553045 -0.4215824,0.4553045 -0.3035384,0 -0.4047179,-0.3372606 h -0.033744 v 0.1349093 l 0.1011782,0.5058975 z"/>
    <path d="m 9.4771111,16.542778 q 0.3372608,-0.657664 0.3372608,-1.652591 v -0.387853 h -0.067451 q -0.033741,0.286674 -0.43844,0.691391 -0.3878536,0.387854 -0.8768856,0.387854 -0.43844,0 -0.8262955,-0.354126 -0.3878541,-0.370989 -0.3878541,-1.028654 0,-0.860022 1.2141488,-2.276529 1.2816022,-1.517687 1.4839606,-2.0404455 0.1349089,0.2698105 0.5058979,0.7925695 0.387853,0.522756 0.978064,1.247876 1.214149,1.48396 1.214149,2.276529 0,0.657664 -0.387853,1.028654 -0.37099,0.354126 -0.826296,0.354126 -0.472169,0 -0.860023,-0.387854 -0.370989,-0.404718 -0.455304,-0.691391 h -0.06745 v 0.387853 q 0,0.994927 0.354125,1.652591 z"/>
    <path d="m 17.655755,21.972725 q -0.20236,-0.455306 -0.522761,-0.72512 -0.370991,-0.320402 -0.370991,-0.691391 0,-0.455303 0.404719,-0.455303 0.320401,0 0.421583,0.354127 h 0.0337 v -0.15175 L 17.52082,19.797384 h 0.269805 l -0.101172,0.505899 v 0.15175 h 0.0337 q 0.101188,-0.354127 0.421594,-0.354127 0.404712,0 0.404712,0.455303 0,0.438443 -0.337257,0.691391 -0.219222,0.134953 -0.354125,0.354128 -0.134891,0.202358 -0.202361,0.370991 z"/>
    <path d="m 17.385944,25.109277 -0.910611,-2.411435 h 0.556484 l 0.168627,0.556483 h 0.910612 l 0.20236,-0.556483 h 0.522762 l -0.910612,2.411435 z"/>
    <path style="fill:#ffffff" d="m 17.655753,24.519064 0.303539,-0.89375 h -0.607078 z"/>
</svg>
