<svg xmlns="http://www.w3.org/2000/svg" width="74.952217" height="100" viewBox="0 0 19.831107 26.458333">
    <path d="m 1.1804235,26.458333 q -0.72511733,0 -0.961202,-0.219224 Q 0,26.003048 0,25.277907 V 1.1803999 Q 0,0.45528515 0.2192215,0.2360617 0.45530604,0 1.1804235,0 H 18.650691 q 0.725117,0 0.944339,0.2360617 0.236088,0.21922345 0.236088,0.9443382 V 25.277907 q 0,0.725114 -0.236088,0.961202 -0.219224,0.219224 -0.944339,0.219224 z"/>
    <path style="fill:#ffffff" d="M 1.3827819,25.969306 H 18.448333 q 0.590213,0 0.741981,-0.15174 0.151766,-0.15174 0.151766,-0.741979 V 1.3827981 q 0,-0.6239286 -0.151766,-0.75884337 Q 19.038547,0.489053 18.448333,0.489053 H 1.3827818 q -0.60707471,0 -0.75884365,0.13490173 Q 0.48903251,0.75885645 0.48903251,1.3827981 V 25.075587 q 0,0.590187 0.13490564,0.741979 0.15176868,0.15174 0.75884375,0.15174 z"/>
    <path d="m 2.0404464,3.844797 q -0.5396219,0 -0.8600228,-0.3541252 -0.30353735,-0.3709634 -0.30353735,-0.8937517 0,-0.5565104 0.30353735,-0.9106094 0.3204004,-0.3709634 0.8600228,-0.3709634 0.9106124,0 1.045518,0.8600229 H 2.5632055 Q 2.5294769,1.770665 2.0404467,1.770665 q -0.6576645,0 -0.6576645,0.8262943 0,0.7925721 0.6576645,0.7925721 0.5227588,0 0.5564856,-0.5227687 H 3.1196911 Q 3.0185122,3.8448231 2.0404468,3.8448231 Z"/>
    <path d="M 3.9459872,22.664122 V 3.8110683 H 15.901991 V 22.664116 Z"/>
    <path style="fill:#ffffff" d="M 15.412958,12.44502 V 4.2832373 h -1.972993 l 0.06745,0.2866417 q 0.320403,0.2023852 0.320403,0.5396069 0,0.3878669 -0.26981,0.8094364 -0.252946,0.4047052 -0.809433,0.4047052 -0.489034,0 -0.489034,-0.3878669 0,-0.2698035 0.219224,-0.3035452 0.202359,-0.067483 0.202359,-0.2023852 L 12.343864,5.2949285 12.12464,5.4635719 v 0.2360617 l 0.06745,0.3203835 0.151766,0.2023852 0.06745,0.2023852 -0.03374,0.4216087 q 0,0.1686434 0.337268,0.4047051 0.354125,0.2529652 0.354125,0.4890269 0,0.3878669 -0.657665,0.3878669 0.37099,0.3035452 0.6408,0.7419856 0.286674,0.4216087 0.320403,0.7082504 h 0.10118 q 0.354125,0 0.455304,0.2023852 l 0.826297,2.0067207 q 0.10118,0.202385 0.657665,0.657663 z"/>
    <path style="fill:#ffffff" d="M 4.4350197,11.230872 Q 4.5024725,10.876747 5.2613159,10.117903 5.9864332,9.392782 6.3236973,8.8868842 6.6103716,8.4315991 7.9088376,8.1617695 7.7402072,8.043706 7.7402072,7.8413861 L 8.0268815,7.5040992 Q 8.9543573,6.559761 8.9543573,6.0538632 8.667683,5.6997381 8.2966928,5.5985781 8.8531771,5.2950329 9.0218101,4.7385551 l 0.3372674,0.033938 q 0.7757065,0 1.7369085,-0.4890269 H 4.4350197 Z"/>
    <path style="fill:#ffffff" d="m 12.7823,6.0538698 q 0.286675,0 0.489034,-0.3035452 0.202359,-0.3203835 0.202359,-0.6070904 0,-0.1686435 -0.303539,-0.3709634 0,-0.387867 -0.26981,-0.4216087 -0.252945,-0.033938 -0.640799,-0.033938 -0.404718,0 -0.607078,0.1686434 0.20236,0.15174 0.421583,0.2866417 0.236081,0.1349017 0.505898,0.2023852 0.489033,0.1686435 0.489033,0.4552852 0,0.2023852 -0.252945,0.3035452 -0.236082,0.1686434 -0.236082,0.2023852 0,0.1180635 0.202359,0.1180635 z"/>
    <path d="M 1.8718144,6.6609601 1.9729933,6.155095 V 6.0201933 H 1.9392643 Q 1.8380854,6.3574802 1.534548,6.3574802 q -0.4215799,0 -0.4215799,-0.4552851 0,-0.3709635 0.3878532,-0.7251213 Q 1.669453,5.0084304 1.7874956,4.8397869 1.9055382,4.6711434 2.0067171,4.4856617 q 0.1686317,0.4216087 0.5564856,0.691386 0.1686317,0.1854817 0.2529482,0.3541252 0.084316,0.1686435 0.084316,0.3709634 0,0.4552852 -0.4047169,0.4552852 -0.3204004,0 -0.42158,-0.337287 H 2.040441 v 0.1349018 l 0.1011789,0.5058651 z"/>
    <path style="fill:#000000" d="M 5.8178015,7.9425591 Q 5.9864319,7.7064974 5.9864319,7.1837157 V 7.048814 q -0.2192235,0.4552852 -0.6239352,0.4552852 -0.5902116,0 -0.5902116,-0.6913926 0,-0.4890269 0.9612018,-1.4839581 l 0.320403,-0.5227686 0.3372609,0.5227686 q 0.9443388,1.0286534 0.9443388,1.4839581 0,0.6913926 -0.590213,0.6913926 -0.4215825,0 -0.6239416,-0.4216087 v 0.10116 q 0,0.5227686 0.1686304,0.7588434 z"/>
    <path style="fill:#ffffff" d="m 10.859896,7.9425591 q 0.337267,0 0.472169,-0.4047051 l -0.404718,0.033937 -0.387854,-0.067418 -0.03374,-0.067483 0.03374,-0.1180635 0.489033,0.033938 0.404719,-0.067483 0.219223,-0.8262942 h -0.03374 q -0.151766,0 -0.151766,-0.1349017 v -0.033938 l -0.03374,0.10116 v 0.067418 l -0.03374,0.033938 q -0.10118,0 -0.10118,-0.2023852 0,-0.2023853 0.354125,-0.2023853 h 0.06745 l 0.03374,-0.1518052 -0.252946,-0.033938 -0.303538,0.033938 q 0,0.6576704 0.134908,1.180426 l -0.37099,0.067483 -0.286674,-0.033938 0.06745,-0.2023852 0.151766,0.033938 h 0.16863 L 10.994772,6.4251008 V 5.8011721 l 0.404718,-0.1011599 0.354125,0.033938 0.03374,-0.2698034 q -0.522756,-0.1686435 -0.758844,-0.1686435 -0.556484,0 -1.2478765,0.3709634 v 0.2023852 l 0.067451,0.9780669 -0.033742,0.6576638 Q 10.2022,7.943029 10.859863,7.943029 Z"/>
    <path style="fill:#000000" d="M 9.9492839,6.1213337 9.8143757,5.9864319 Q 10.134779,5.7672085 10.37086,5.7672085 l 0.303539,0.033938 -0.06745,0.2192235 -0.236088,-0.033938 q -0.202359,0 -0.4215826,0.1349018 z"/>
    <path style="fill:#ffffff" d="m 8.8194497,8.0774674 q 0.5396199,0 0.6070773,-0.387867 Q 9.510842,7.2848953 9.510842,6.8464418 L 9.4433914,5.9021037 9.2916253,6.0201672 Q 9.1904457,6.9813631 8.0943382,7.8751148 8.2966974,8.0775 8.8194556,8.0775 Z"/>
    <path style="fill:#000000" d="m 10.134779,6.5597806 q -0.1854951,0 -0.1854951,-0.10116 L 9.9155422,6.3237189 q 0.1686308,-0.1686435 0.4890338,-0.1686435 0.33726,0 0.33726,0.2023852 0,0.2023852 -0.101179,0.2023852 l -0.03374,-0.033937 v -0.067418 l -0.03374,-0.10116 v 0.033937 q 0,0.1349018 -0.134908,0.1349018 -0.134908,0 -0.134908,-0.1349018 l 0.03374,-0.067483 -0.06745,0.067483 q 0,0.1686435 -0.134908,0.1686435 z"/>
    <path style="fill:#ffffff" d="m 12.259541,7.8413796 q 0.387854,0 0.387854,-0.1686435 L 12.579944,7.4703509 Q 12.343857,7.2511274 12.158362,7.1499675 12.057182,7.0488075 12.057182,6.880164 V 6.3911371 l -0.03374,-0.067483 q -0.10118,0.7588434 -0.404719,1.3490564 0.26981,0.1686435 0.6408,0.1686435 z"/>
    <path style="fill:#000000" d="m 10.741854,7.7738961 -0.06745,-0.067483 0.06745,-0.033938 h 0.320403 l 0.06745,0.033938 -0.06745,0.067483 z"/>
    <path style="fill:#ffffff" d="m 10.472044,8.8025494 q 0.590213,0 1.315329,-0.7251147 L 11.46697,7.942533 q -0.236088,0.3541252 -0.607077,0.3541252 -0.590213,0 -1.0792447,-0.3878669 -0.1011796,0.4552851 -0.8600223,0.4552851 0.8262962,0.4384469 1.551413,0.4384469 z"/>
    <path style="fill:#ffffff" d="m 11.332067,12.259506 q 0.134908,0 0.252946,-0.202386 0,-0.961202 0.219223,-1.770632 0.219224,-0.8263008 0.84316,-1.5851442 l -0.26981,-0.337287 -0.354125,0.5565104 q -0.758844,0.9949312 -0.893749,3.1702818 0.06745,0.168644 0.202359,0.168644 z"/>
    <path style="fill:#ffffff" d="m 8.9206305,12.158346 q 0.1349083,0 0.2023591,-0.168644 L 9.0218101,11.062228 Q 8.9880683,10.53946 8.6845493,9.8986667 8.3978749,9.2578346 7.8076633,8.4315664 L 7.4029451,8.5664682 q 1.0961074,1.3153276 1.1972863,2.5969328 l 0.067451,0.826295 q 0,0.168643 0.2529456,0.168643 z"/>
    <path style="fill:#ffffff" d="m 9.9155585,12.293247 h 0.3541255 q 0.657664,-2.5800685 1.315329,-3.6255862 -0.455305,0.3878669 -1.21415,0.3878669 -0.691391,0 -1.2816027,-0.3541252 0.5227556,1.2816055 0.8262962,3.5918645 z"/>
    <path style="fill:#ffffff" d="m 13.406238,10.370849 q 0.202359,0 0.202359,-0.219224 0,-0.2023848 -0.202359,-0.2023848 -0.202359,0 -0.202359,0.2023848 0,0.219224 0.202359,0.219224 z"/>
    <path style="fill:#ffffff" d="m 13.068977,10.876714 q 0.202359,0 0.202359,-0.202385 0,-0.202385 -0.202359,-0.202385 -0.219223,0 -0.219223,0.202385 0,0.202385 0.219223,0.202385 z"/>
    <path style="fill:#ffffff" d="m 12.714852,11.365741 q 0.202359,0 0.202359,-0.202385 0,-0.219224 -0.202359,-0.219224 -0.202359,0 -0.202359,0.219224 0,0.202385 0.202359,0.202385 z"/>
    <path style="fill:#ffffff" d="m 7.6727576,13.170102 q 0.3878539,-0.65767 0.6913906,-0.775708 L 8.39789,11.821046 Q 8.1955308,11.635564 8.1955308,11.399437 7.6053179,11.854722 7.2174653,11.854722 l 0.1180439,0.168644 0.067451,0.269803 -0.067451,0.252965 q 0.2360813,0.10116 0.3372608,0.623929 z"/>
    <path style="fill:#ffffff" d="m 12.377588,11.821046 q 0.202359,0 0.202359,-0.219224 0,-0.202385 -0.202359,-0.202385 -0.219223,0 -0.219223,0.202385 0,0.219224 0.219223,0.219224 z"/>
    <path style="fill:#ffffff" d="m 12.057185,12.360653 q 0.202359,0 0.202359,-0.202386 0,-0.202385 -0.202359,-0.202385 -0.202359,0 -0.202359,0.202385 0,0.202386 0.202359,0.202386 z"/>
    <path style="fill:#ffffff" d="m 11.719918,12.950839 q 0.202359,0 0.202359,-0.202385 0,-0.202385 -0.202359,-0.202385 -0.219224,0 -0.219224,0.202385 0,0.202385 0.219224,0.202385 z"/>
    <path style="fill:#ffffff" d="m 11.652467,15.058739 q 0.691391,-0.438447 0.961202,-0.438447 l -0.10118,-0.185481 -0.03374,-0.269804 0.03374,-0.236062 q -0.252946,-0.118063 -0.354125,-0.623928 -0.303539,0.657664 -0.691391,0.758843 l -0.03374,0.590187 q 0.219223,0.134902 0.219223,0.404705 z"/>
    <path style="fill:#ffffff" d="m 8.1280598,13.928906 q 0.2023591,0 0.2023591,-0.219223 0,-0.202385 -0.2023591,-0.202385 -0.2192235,0 -0.2192235,0.202385 0,0.219223 0.2192235,0.219223 z"/>
    <path style="fill:#ffffff" d="M 4.4350203,22.175004 H 6.3911508 L 6.3236999,21.905201 Q 6.0201612,21.685977 6.0201612,21.34869 q 0,-0.387867 0.2529457,-0.792572 0.2698099,-0.421609 0.8094332,-0.421609 0.4890334,0 0.4890334,0.387867 0,0.202386 -0.2023591,0.303546 -0.2192235,0.03394 -0.2192235,0.202385 l 0.3541252,0.15174 0.2023591,-0.185482 V 20.724762 L 7.6390244,20.454958 7.5041161,20.235735 7.4366653,20.033349 7.470407,19.611741 q 0,-0.202385 -0.3541252,-0.404705 -0.3372673,-0.236062 -0.3372673,-0.489027 0,-0.370964 0.6576645,-0.370964 Q 7.0488251,18.026662 6.7621514,17.588202 6.4923415,17.132917 6.4586128,16.896816 H 6.3574332 q -0.3372608,0 -0.4384404,-0.219224 L 5.4636881,15.648939 5.0926986,14.687737 Q 4.9746547,14.468513 4.4350341,14.030073 Z"/>
    <path style="fill:#ffffff" d="m 7.7739326,14.502255 q 0.2192235,0 0.2192235,-0.202385 0,-0.202386 -0.2192235,-0.202386 -0.2023591,0 -0.2023591,0.202386 0,0.202385 0.2023591,0.202385 z"/>
    <path style="fill:#ffffff" d="m 8.262966,17.790574 q 0.4553048,-0.387867 1.2141495,-0.387867 0.6913915,0 1.2647395,0.354125 -0.43844,-1.14669 -0.8262965,-3.591858 H 9.5782976 Q 9.2241725,15.44658 8.9037695,16.357189 8.6002308,17.267805 8.26297,17.790561 Z"/>
    <path style="fill:#ffffff" d="M 7.4703959,18.094119 Q 7.942565,17.335276 8.1786495,16.846242 8.4315952,16.340312 8.5327747,15.78386 8.6339543,15.22735 8.7182695,14.367353 8.6676895,14.19871 8.499046,14.19871 q -0.1686304,0 -0.2360878,0.202385 0,2.27653 -1.0792444,3.35577 z"/>
    <path style="fill:#ffffff" d="m 12.023458,18.026701 0.421582,-0.134902 q -1.079244,-0.860023 -1.281603,-3.423227 0,-0.168644 -0.236081,-0.168644 -0.219223,0 -0.219223,0.168644 l 0.151766,0.910609 q 0.06745,0.505931 0.354125,1.332192 0.286674,0.809437 0.809433,1.315335 z"/>
    <path style="fill:#ffffff" d="m 7.4703946,15.058817 q 0.2023591,0 0.2023591,-0.202385 0,-0.202385 -0.2023591,-0.202385 -0.2023591,0 -0.2023591,0.202385 0,0.202385 0.2023591,0.202385 z"/>
    <path style="fill:#ffffff" d="m 7.1162694,15.514103 q 0.2192235,0 0.2192235,-0.219224 0,-0.202385 -0.2192235,-0.202385 -0.2023591,0 -0.2023591,0.202385 0,0.219224 0.2023591,0.219224 z"/>
    <path style="fill:#ffffff" d="m 8.7519988,22.175063 h 6.6609592 v -6.947635 q 0,0.252965 -0.202359,0.421609 l -1.079244,1.146697 q -0.404718,0.539607 -0.674528,0.843159 -0.252945,0.286642 -0.590213,0.404705 -0.320403,0.118063 -0.944339,0.269803 0.168631,0.10116 0.168631,0.303546 l -0.26981,0.354125 q -0.927475,0.927474 -0.927475,1.450236 0.303538,0.303545 0.640799,0.438447 -0.505898,0.387867 -0.725117,0.860023 l -0.337267,-0.03394 q -0.7588438,0 -1.7200463,0.489027 z"/>
    <path style="fill:#ffffff" d="m 6.7790034,15.986291 q 0.2023591,0 0.2023591,-0.202385 0,-0.202385 -0.2023591,-0.202385 -0.2023591,0 -0.2023591,0.202385 0,0.202385 0.2023591,0.202385 z"/>
    <path style="fill:#ffffff" d="m 6.4248781,16.50906 q 0.2192235,0 0.2192235,-0.202385 0,-0.202386 -0.2192235,-0.202386 -0.2023591,0 -0.2023591,0.202386 0,0.202385 0.2023591,0.202385 z"/>
    <path style="fill:#ffffff" d="m 10.050465,18.549502 q 0.151766,-0.455285 0.876886,-0.455285 -0.84316,-0.438447 -1.5682768,-0.438447 -0.5733486,0 -1.298466,0.725115 l 0.3035387,0.134902 q 0.2023591,-0.354126 0.6239352,-0.354126 0.5902129,0 1.0623809,0.387867 z"/>
    <path style="fill:#ffffff" d="m 10.40459,20.556223 0.134908,-0.10116 q 0.10118,-0.978067 1.21415,-1.871812 -0.219223,-0.202386 -0.725117,-0.202386 -0.556484,0 -0.623935,0.387867 -0.06745,0.370964 -0.06745,0.843159 z"/>
    <path style="fill:#ffffff" d="m 8.8194497,21.180151 q 0.5396199,0 1.2310133,-0.387867 V 20.589899 L 9.9830119,19.611832 10.016754,18.971 q -0.3372677,-0.455285 -1.028655,-0.455285 -0.320403,0 -0.4890334,0.421609 l 0.4215826,-0.05091 0.3709895,0.08432 0.033742,0.10116 -0.033742,0.06742 -0.4721691,-0.03394 -0.4215826,0.06748 -0.2023591,0.826294 h 0.033742 q 0.1349082,0 0.1349082,0.134902 v 0.03394 l 0.033742,-0.10116 v -0.06748 l 0.033742,-0.03394 q 0.1011796,0 0.1011796,0.202385 0,0.219223 -0.3372609,0.219223 h -0.067451 l -0.033742,0.134902 0.26981,0.03394 0.26981,-0.03394 q 0,-0.320383 -0.033742,-0.60709 -0.033742,-0.30354 -0.1011796,-0.573343 l 0.4215825,-0.06748 0.2360878,0.03394 -0.067451,0.202385 -0.1349083,-0.03394 H 8.785766 l 0.067451,0.522768 v 0.657664 l -0.3878539,0.10116 -0.3709895,-0.03394 -0.033742,0.269803 q 0.4384404,0.185482 0.7588434,0.185482 z"/>
    <path style="fill:#000000" d="m 13.794092,21.65234 -0.320403,-0.505931 q -0.725117,-0.792572 -0.826296,-1.045517 -0.134909,-0.168644 -0.134909,-0.438447 0,-0.691393 0.590213,-0.691393 0.404719,0 0.623936,0.404705 v -0.10116 q 0,-0.590186 -0.185495,-0.758843 h 0.489033 q -0.16863,0.168643 -0.16863,0.758843 v 0.134902 q 0.26981,-0.438447 0.623935,-0.438447 0.573349,0 0.573349,0.691393 0,0.370963 -0.573349,1.062375 -0.286674,0.354125 -0.455305,0.573349 -0.16863,0.219223 -0.236081,0.354125 z"/>
    <path style="fill:#ffffff" d="M 7.8076581,20.13464 Q 7.9088376,19.342068 8.2292406,18.785584 8.0268815,18.61694 7.5715761,18.61694 q -0.3878538,0 -0.3878538,0.168644 l 0.1180439,0.219223 0.3372608,0.303545 q 0.1349082,0.10116 0.1349082,0.269804 v 0.489027 z"/>
    <path style="fill:#000000" d="m 8.7857236,18.785584 -0.067451,-0.06748 0.067451,-0.03394 h 0.3035387 l 0.067451,0.03394 -0.067451,0.06748 z"/>
    <path d="m 17.824395,21.972723 q -0.202359,-0.455285 -0.522762,-0.725114 -0.37099,-0.286707 -0.37099,-0.691393 0,-0.455285 0.421583,-0.455285 0.303538,0 0.404718,0.354125 h 0.03374 v -0.15174 l -0.10118,-0.50593 h 0.26981 l -0.101179,0.50593 v 0.15174 h 0.03374 q 0.10118,-0.354125 0.421583,-0.354125 0.404718,0 0.404718,0.455285 0,0.337287 -0.337261,0.691393 -0.202359,0.134901 -0.354125,0.354125 -0.134908,0.202385 -0.202359,0.370963 z"/>
    <path style="fill:#000000" d="m 9.4433881,20.30327 q -0.3541252,0 -0.3541252,-0.202385 0,-0.202385 0.1011796,-0.202385 l 0.033742,0.03394 v 0.06748 l 0.033742,0.10116 v -0.03394 q 0,-0.134901 0.151766,-0.134901 0.1349083,0 0.1349083,0.134901 l -0.033742,0.06748 0.067451,-0.06748 q 0,-0.168643 0.1349082,-0.168643 l 0.2023591,0.236062 q -0.2360878,0.168643 -0.472169,0.168643 z"/>
    <path style="fill:#000000" d="m 9.4771298,20.691137 -0.320403,-0.03394 0.067451,-0.202385 0.2529456,0.03394 q 0.26981,0 0.4047182,-0.134902 l 0.1349084,0.134902 q -0.3035388,0.202385 -0.5396202,0.202385 z"/>
    <path style="fill:#ffffff" d="m 7.5715892,22.141373 q 0.4215825,0 0.6239416,-0.168643 Q 7.7402261,21.618605 7.3017812,21.449961 6.779019,21.281318 6.779019,21.028352 q 0,-0.168643 0.2360878,-0.337287 0.2529457,-0.134901 0.2529457,-0.168643 0,-0.10116 -0.2192235,-0.10116 -0.2360813,0 -0.4721691,0.303545 -0.2192234,0.303545 -0.2192234,0.590187 0,0.168644 0.320403,0.370964 0,0.354125 0.2529456,0.404705 0.2529456,0.05091 0.6407995,0.05091 z"/>
    <path d="m 17.790684,25.143018 q -0.893749,0 -1.028655,-0.860023 h 0.505898 q 0.08432,0.421609 0.522762,0.421609 0.657664,0 0.657664,-0.843165 0,-0.792566 -0.657664,-0.792566 -0.489034,0 -0.556484,0.522769 h -0.505898 q 0.101179,-0.961203 1.062381,-0.961203 0.556485,0 0.860023,0.370964 0.320403,0.354125 0.320403,0.860023 0,0.55651 -0.320403,0.92748 -0.303539,0.354125 -0.860023,0.354125 z"/>
</svg>