<svg xmlns="http://www.w3.org/2000/svg" width="74.952217" height="100" viewBox="0 0 19.831107 26.458333">
    <path d="m 1.180424,26.458323 q -0.7251165,0 -0.96120079,-0.219223 Q 0,26.003037 0,25.277898 V 1.1804254 Q 0,0.45530881 0.21922321,0.23608754 0.45531077,0 1.180424,0 h 17.470249 q 0.725117,0 0.944338,0.23608754 0.236087,0.21922323 0.236087,0.94433786 V 25.277905 q 0,0.725113 -0.236087,0.961201 -0.219223,0.219223 -0.944338,0.219223 z"/>
    <path style="fill:#ffffff" d="M 1.3827829,25.969296 H 18.448316 q 0.590212,0 0.74198,-0.151739 0.151765,-0.151741 0.151765,-0.741979 V 1.3827836 q 0,-0.62394103 -0.151765,-0.75884325 -0.151767,-0.13490811 -0.74198,-0.13490811 H 1.3827823 q -0.6070767,0 -0.75884261,0.13490811 Q 0.4890316,0.75884844 0.4890316,1.3827836 V 25.075546 q 0,0.590185 0.13490809,0.741978 0.15176591,0.151739 0.75884261,0.151739 z"/>
    <path d="m 1.9729953,3.8448111 q -0.7588426,0 -0.7588426,-0.725114 V 2.900474 h 0.4553042 v 0.1011598 q 0,0.4216082 0.3035384,0.4216082 0.286674,0 0.286674,-0.4216082 V 1.4165096 h 0.5058972 v 1.618866 q 0,0.8094289 -0.7925693,0.8094289 z"/>
    <path d="M 3.9459866,22.664116 V 3.8110889 H 15.901978 V 22.664116 Z"/>
    <path style="fill:#ffffff" d="M 15.412944,9.5276982 V 4.283251 h -0.961201 q 0.43844,0.6576631 0.43844,1.4165057 0,0.6239279 -0.236088,1.0792452 v 0.4721882 q 0.370989,0.1854815 0.370989,0.2866413 0,0.2023198 -0.16863,0.3035449 l 0.134908,0.2866414 q 0,0.202385 -0.202359,0.3035448 0.168631,0.1011599 0.168631,0.2698032 0,0.2529649 -0.505898,0.4216082 z"/>
    <path style="fill:#ffffff" d="M 12.748562,8.4653173 Q 12.950921,7.6727461 13.406226,7.5715667 L 13.827808,7.3523434 V 6.7789954 Q 13.574863,6.492354 13.574863,5.6997501 q 0,-0.6576631 0.421582,-1.4165056 h -1.146704 l -0.69139,1.2141533 v 0.3035449 l 0.219223,0.3541247 0.337266,0.7588426 -0.303537,0.2360615 0.03374,0.202385 -0.06745,0.2192232 0.03374,0.1011598 -0.03374,0.1349016 0.134909,0.3541249 -0.03374,0.1349014 -0.03374,0.067483 z"/>
    <path style="fill:#ffffff" d="M 8.3978633,5.1769952 Q 9.055527,4.8397086 10.13477,4.8397086 q 1.231012,0 1.787496,0.3372866 L 12.445022,4.283251 H 7.4366618 Z"/>
    <path style="fill:#ffffff" d="M 4.4350169,9.4602409 Q 5.6323027,8.5327681 7.2174405,8.3304092 V 8.1955077 q 0,-0.2866414 0.1854946,-0.4384465 Q 7.605294,7.6053214 7.7401956,7.6053214 v 0.033937 h 0.067451 L 7.9088258,7.6731964 7.993141,7.5382948 7.9088258,7.1841701 q 0,-0.2360615 0.286674,-0.5565099 0.2360875,-0.370963 0.2360875,-0.6407661 0,-0.2866415 -0.1011794,-0.3878665 L 6.9476302,4.283251 H 4.4350169 Z"/>
    <path d="M 1.8718145,6.6609581 1.972994,6.1550283 V 6.0201267 H 1.939252 q -0.1011794,0.3372866 -0.4047177,0.3372866 -0.4215821,0 -0.4215821,-0.4552847 0,-0.370963 0.3878534,-0.7251205 Q 1.669436,5.0083649 1.7874798,4.8397216 1.9055236,4.6710783 2.006703,4.4855968 q 0.1686302,0.421543 0.5564837,0.6913853 0.1686302,0.1854815 0.2529453,0.3541247 0.084315,0.1686433 0.084315,0.3709631 0,0.4552846 -0.4047178,0.4552846 -0.3204026,0 -0.4215756,-0.3372865 H 2.0404116 V 6.1549696 L 2.141591,6.6608994 Z"/>
    <path style="fill:#ffffff" d="m 14.299975,6.7790215 h 0.06745 q 0.219223,-0.4216082 0.219223,-1.0792452 0,-0.6913918 -0.286673,-1.1298317 z"/>
    <path style="fill:#ffffff" d="m 14.131344,6.7790215 h 0.03374 V 4.5699446 q -0.26981,0.4384464 -0.26981,1.1298317 0,0.2360615 0.06745,0.5059298 0.06745,0.252965 0.16863,0.5733481 z"/>
    <path style="fill:#000000" d="M 5.7672075,7.9425558 Q 5.952702,7.7064943 5.952702,7.1837132 V 7.0488116 q -0.2192232,0.4552846 -0.6239344,0.4552846 -0.5902124,0 -0.5902124,-0.6913917 0,-0.4890264 0.9612008,-1.4839565 L 6.0201587,4.8059799 6.3574191,5.328748 q 0.9443379,1.0286523 0.9443379,1.4839565 0,0.6913917 -0.5902124,0.6913917 -0.4215821,0 -0.6239344,-0.4216081 v 0.1011598 q 0,0.5227681 0.1686302,0.7588426 z"/>
    <path style="fill:#ffffff" d="M 7.9425571,8.4653238 8.2966818,8.2966805 8.5327694,8.1280372 q 0.1011794,0.2698032 0.286674,0.2698032 0.1349081,0 0.6576638,-0.522768 0,0.033938 0.1349081,0.202385 0.1349081,0.1517397 0.3372605,0.1517397 0.2866742,0 0.5396192,-0.3541247 0.252946,-0.3709631 0.252946,-0.6239281 0,-0.2360613 -0.236088,-0.2360613 L 10.337123,7.1499846 10.01672,7.015083 q 0.354125,-0.9949237 0.354125,-1.3827771 l -0.06745,-0.4552847 h -0.16863 q -0.657664,0 -1.4165066,0.2866414 l 0.1011795,0.4721881 q 0,0.2866414 -0.286674,0.6576698 Q 8.2629532,6.9813869 8.2629532,7.1837067 L 8.330404,7.5040897 8.3978548,7.6389913 7.993137,8.0099543 7.8750932,7.9760168 H 7.7739269 l -0.033742,-0.033938 q -0.1686302,0 -0.1686302,0.252965 0,0.2698031 0.3709891,0.2698031 z"/>
    <path style="fill:#ffffff" d="m 10.893613,8.4992613 q 0.101179,0 0.404718,-0.067483 0.320402,-0.067418 0.590212,-0.1517398 0.269809,-0.084322 0.269809,-0.1180634 0,-0.3878664 -0.168629,-0.4552846 V 7.5380468 l 0.101179,-0.2192232 -0.657664,0.3203831 -0.06745,-0.067483 Q 11.618733,7.1501155 12.057178,7.116439 L 12.023436,7.0152788 12.090887,6.9478606 12.31011,6.7792173 11.821077,5.9360531 V 5.463865 Q 11.58499,5.3964468 11.298316,5.3289634 11.028506,5.2614799 10.674381,5.2109 l 0.03374,0.4216083 -0.202358,1.0286522 q 0.590212,0.084322 0.590212,0.5901862 0,0.4890264 -0.522761,1.0117879 0.202359,0.2360615 0.320402,0.2360615 z"/>
    <path style="fill:#000000" d="m 11.753635,6.5937227 q -0.387853,0 -1.01179,-0.3372865 l 0.320402,-0.2360615 q 0.43844,-0.2866414 0.725117,-0.2866414 l -0.03374,0.252965 h -0.101179 l 0.03374,0.1686433 -0.06745,0.2360614 h 0.134908 z"/>
    <path style="fill:#ffffff" d="M 11.39951,6.2901779 V 6.0541164 L 11.163423,6.189018 Z"/>
    <path style="fill:#ffffff" d="m 14.097618,7.2513793 0.26981,-0.033938 V 7.0487985 h -0.26981 z"/>
    <path style="fill:#ffffff" d="m 14.063876,7.9090424 q 0.168631,0 0.26981,-0.1686433 l 0.151766,0.033937 q 0.26981,0 0.26981,-0.2360613 l -0.387854,-0.067483 q -0.16863,0 -0.354125,0.084322 -0.185494,0.084322 -0.438439,0.2529649 z"/>
    <path style="fill:#ffffff" d="m 13.962696,8.9208304 0.03374,-0.1180634 h 0.489032 q 0.202359,0 0.202359,-0.1011599 0,-0.1686432 -0.168629,-0.1686432 l -0.252946,0.033938 -0.370989,-0.033938 -0.03374,-0.1686433 Q 13.6423,7.9427124 13.541121,7.8415525 q -0.33726,0 -0.505897,0.7251205 z"/>
    <path style="fill:#ffffff" d="m 14.165055,8.2969025 q 0.556485,0 0.556485,-0.1686433 l -0.10118,-0.1854816 -0.06745,0.033937 -0.101179,-0.033937 -0.286675,0.1349016 -0.06745,0.1517398 z"/>
    <path style="fill:#ffffff" d="m 9.7806305,9.3930055 q 1.4839595,0 2.3102545,-0.7251139 l -0.101179,-0.067484 q -0.623935,0.252965 -1.214149,0.252965 -0.16863,0 -0.505898,-0.3541248 L 9.9492568,8.5666664 9.6119964,8.4992483 9.4770882,8.4317648 Q 9.1566856,8.7353097 8.8194245,8.7353097 L 8.5664791,8.7013722 8.431571,8.6674347 q -0.2698096,0.1349016 -0.4890329,0.1349016 -0.2023588,0 -0.4721686,-0.1686433 L 7.2174242,8.667631 q 1.4502331,0.7251139 2.563203,0.7251139 z"/>
    <path style="fill:#ffffff" d="M 4.4350038,10.084397 H 5.2612992 L 6.8801644,8.8533862 6.778985,8.7690645 Q 5.1601203,9.2918326 4.4350038,9.9157605 Z"/>
    <path style="fill:#ffffff" d="M 14.485455,10.084397 H 15.41293 V 9.9157539 Q 14.95764,9.6794315 14.249385,9.4096283 13.541131,9.1229217 12.546204,8.8025386 Z"/>
    <path style="fill:#ffffff" d="m 12.816001,10.084397 h 1.349068 L 12.377572,8.9208369 12.090898,9.1568984 Z"/>
    <path style="fill:#ffffff" d="M 5.5985629,10.084397 H 6.7115322 L 7.4366487,9.1906466 7.0487953,8.9882616 Z"/>
    <path style="fill:#ffffff" d="M 6.9476172,10.084397 H 7.7739256 L 8.1280503,9.4604693 7.6052888,9.2580843 Z"/>
    <path style="fill:#ffffff" d="m 11.753621,10.084397 h 0.826296 L 11.922253,9.2581039 11.43322,9.4941654 Z"/>
    <path style="fill:#ffffff" d="M 8.0268598,10.084397 H 8.7519763 L 8.8531557,9.6796926 8.3303942,9.5279528 Z"/>
    <path style="fill:#ffffff" d="m 10.809284,10.084397 h 0.69139 L 11.230864,9.5784674 10.67438,9.6796273 Z"/>
    <path style="fill:#ffffff" d="M 8.9543346,10.084397 H 9.6794641 V 9.7471107 H 9.3590615 L 9.0555231,9.7131732 Z"/>
    <path style="fill:#ffffff" d="M 9.8818093,10.084397 H 10.606926 L 10.505747,9.7134343 9.881812,9.7473718 Z"/>
    <path style="fill:#ffffff" d="m 4.7385408,10.876969 h 0.1686303 l 0.2192232,-0.202385 0.2023589,-0.10116 q 0.1686302,0 0.1686302,0.168642 0,0.134903 -0.1011794,0.134903 h 0.1686303 l 0.2023588,-0.202385 0.2192232,-0.10116 q 0.1686302,0 0.1686302,0.168642 0,0.134903 -0.1011794,0.134903 h 0.1686303 l 0.2023588,-0.202385 0.2192233,-0.10116 q 0.1686302,0 0.1686302,0.168642 0,0.134903 -0.1011795,0.134903 h 0.1686303 l 0.2023588,-0.202385 0.2192233,-0.10116 q 0.1686302,0 0.1686302,0.168642 0,0.134903 -0.1011794,0.134903 h 0.1686303 l 0.2023588,-0.202385 0.2023589,-0.10116 q 0.1854945,0 0.1854945,0.168642 0,0.134903 -0.1011794,0.134903 h 0.1686303 l 0.2023588,-0.202385 0.2023589,-0.10116 q 0.1854946,0 0.1854946,0.168642 0,0.134903 -0.1180438,0.134903 h 0.1854945 l 0.2023589,-0.202385 0.202359,-0.10116 q 0.1854945,0 0.1854945,0.168642 0,0.134903 -0.1180438,0.134903 H 9.510813 l 0.2023589,-0.202385 0.2023589,-0.10116 q 0.1686302,0 0.1686302,0.168642 0,0.134903 -0.1011795,0.134903 h 0.1854945 l 0.202359,-0.202385 0.202359,-0.10116 q 0.16863,0 0.16863,0.168642 0,0.134903 -0.101179,0.134903 h 0.168629 l 0.219225,-0.202385 0.202358,-0.10116 q 0.16863,0 0.16863,0.168642 0,0.134903 -0.101179,0.134903 h 0.16863 l 0.219224,-0.202385 0.202358,-0.10116 q 0.16863,0 0.16863,0.168642 0,0.134903 -0.101179,0.134903 h 0.16863 l 0.219223,-0.202385 0.202359,-0.10116 q 0.168631,0 0.168631,0.168642 0,0.134903 -0.101179,0.134903 h 0.168629 l 0.202359,-0.202385 0.219223,-0.10116 q 0.168631,0 0.168631,0.168642 0,0.134903 -0.10118,0.134903 h 0.16863 l 0.202359,-0.202385 0.219223,-0.10116 q 0.168631,0 0.168631,0.168642 0,0.134903 -0.10118,0.134903 h 0.168631 l 0.202359,-0.202385 0.219223,-0.10116 q 0.16863,0 0.16863,0.168642 0,0.134903 -0.10118,0.134903 h 0.168631 l 0.202359,-0.202385 0.219223,-0.10116 q 0.16863,0 0.16863,0.168642 0,0.134903 -0.101179,0.134903 h 0.16863 V 10.438522 H 4.4350169 v 0.269803 l 0.236081,-0.134901 q 0.1686303,0 0.1686303,0.168642 0,0.134903 -0.1011795,0.134903 z"/>
    <path style="fill:#ffffff" d="M 4.4350025,11.433478 H 15.412929 v -0.489026 h -0.16863 l 0.101179,0.15174 q 0,0.168643 -0.16863,0.168643 l -0.219223,-0.134902 -0.202359,-0.185481 h -0.16863 l 0.101179,0.15174 q 0,0.168643 -0.16863,0.168643 l -0.219223,-0.134902 -0.202359,-0.185481 h -0.16863 l 0.101179,0.15174 q 0,0.168643 -0.16863,0.168643 L 13.642298,11.129933 13.439939,10.944452 H 13.27131 l 0.101179,0.15174 q 0,0.168643 -0.16863,0.168643 l -0.219223,-0.134902 -0.202359,-0.185481 h -0.16863 l 0.101179,0.15174 q 0,0.168643 -0.16863,0.168643 l -0.202359,-0.134902 -0.219223,-0.185481 h -0.168631 l 0.10118,0.15174 q 0,0.168643 -0.16863,0.168643 l -0.202359,-0.134902 -0.219223,-0.185481 h -0.168624 l 0.101179,0.15174 q 0,0.168643 -0.16863,0.168643 l -0.202358,-0.134902 -0.219225,-0.185481 h -0.168629 l 0.101179,0.15174 q 0,0.168643 -0.16863,0.168643 L 10.370854,11.129933 10.168495,10.944452 H 9.9830005 l 0.1011795,0.15174 q 0,0.168643 -0.1686303,0.168643 L 9.7131908,11.129933 9.5108319,10.944452 H 9.3253374 l 0.1180438,0.15174 q 0,0.168643 -0.1854947,0.168643 L 9.0555277,11.129933 8.8531688,10.944452 H 8.6676742 l 0.1180439,0.15174 q 0,0.168643 -0.1854946,0.168643 L 8.3978646,11.129933 8.1955057,10.944452 H 8.0268755 l 0.1011794,0.15174 q 0,0.168643 -0.1854945,0.168643 L 7.7402014,11.129933 7.5378425,10.944452 H 7.3692123 l 0.1011795,0.15174 q 0,0.168643 -0.1686303,0.168643 L 7.0825383,11.129933 6.8801794,10.944452 H 6.7115492 l 0.1011795,0.15174 q 0,0.168643 -0.1686303,0.168643 L 6.4248752,11.129933 6.2225163,10.944452 H 6.0538796 l 0.1011793,0.15174 q 0,0.168643 -0.1686302,0.168643 L 5.7672056,11.129933 5.5648466,10.944452 H 5.3962164 l 0.1011794,0.15174 q 0,0.168643 -0.1686302,0.168643 L 5.1264067,11.129933 4.9071835,10.944452 H 4.7385533 l 0.1011794,0.15174 q 0,0.168643 -0.1686302,0.168643 L 4.4350214,11.129933 Z"/>
    <path style="fill:#ffffff" d="m 9.9155341,12.546446 q 0.2529449,-0.55651 0.9780639,-0.758843 H 8.9206215 q 0.6913899,0.168643 0.9949269,0.758843 z"/>
    <path style="fill:#ffffff" d="m 14.232507,14.688072 h 1.180437 v -2.90071 h -1.214149 q 0.489033,0.134901 0.809432,0.539606 0.33726,0.387866 0.33726,0.910614 0,0.505931 -0.320402,0.893745 -0.303538,0.371028 -0.792569,0.55651 z"/>
    <path style="fill:#ffffff" d="m 12.546204,12.546204 q 0.236088,-0.556509 0.961201,-0.758842 h -1.972992 q 0.657665,0.168643 1.011791,0.758842 z"/>
    <path style="fill:#ffffff" d="M 7.3017563,12.546204 Q 7.6052947,11.989695 8.2629578,11.787362 H 6.2899664 q 0.6576638,0.134901 1.0117899,0.758842 z"/>
    <path style="fill:#ffffff" d="m 4.4350169,14.68783 h 1.1972858 q -0.43844,-0.185482 -0.7925693,-0.556509 -0.337267,-0.387867 -0.337267,-0.893745 0,-0.522767 0.3204026,-0.910614 0.337267,-0.404705 0.7757063,-0.539607 H 4.4350169 Z"/>
    <path style="fill:#ffffff" d="m 8.6002208,14.367447 q 0.4890329,0 0.8094324,-0.337286 0.3372604,-0.354125 0.3372604,-0.792572 0,-0.522767 -0.3709891,-0.826293 -0.3541248,-0.320383 -0.7757063,-0.320383 -0.4384399,0 -0.7925692,0.337287 -0.3372605,0.320383 -0.3372605,0.809435 0,0.50593 0.3372605,0.826293 0.3541248,0.303545 0.7925692,0.303545 z"/>
    <path style="fill:#ffffff" d="m 13.861531,14.367447 q 0.472169,0 0.792569,-0.337286 0.337267,-0.354125 0.337267,-0.792572 0,-0.489026 -0.337267,-0.809435 -0.320402,-0.337286 -0.792569,-0.337286 -0.455304,0 -0.809432,0.320383 -0.337261,0.303545 -0.337261,0.826293 0,0.505929 0.354125,0.826293 0.370989,0.303545 0.792569,0.303545 z"/>
    <path style="fill:#ffffff" d="m 5.9864287,14.367447 q 0.43844,0 0.7757063,-0.303545 0.3541247,-0.320383 0.3541247,-0.826293 0,-0.522769 -0.3709891,-0.826293 -0.3541247,-0.320383 -0.7588432,-0.320383 -0.4890329,0 -0.8262953,0.337286 -0.3204026,0.320383 -0.3204026,0.809435 0,0.438448 0.3204026,0.792572 0.337267,0.337286 0.8262953,0.337286 z"/>
    <path style="fill:#ffffff" d="m 11.230876,14.367447 q 0.489033,0 0.809433,-0.337286 0.33726,-0.354125 0.33726,-0.792572 0,-0.522767 -0.33726,-0.826293 -0.320403,-0.320383 -0.809433,-0.320383 -0.489033,0 -0.826295,0.337287 -0.320403,0.320383 -0.320403,0.809435 0,0.50593 0.354125,0.826293 0.370988,0.303545 0.792568,0.303545 z"/>
    <path style="fill:#ffffff" d="M 6.3236924,14.68783 H 8.2966838 Q 7.63902,14.536058 7.3017563,13.928988 7.015083,14.502335 6.3236924,14.68783 Z"/>
    <path style="fill:#ffffff" d="M 8.9543476,14.68783 H 10.927339 Q 10.269675,14.502348 9.9155484,13.928988 9.6457387,14.502335 8.9543476,14.68783 Z"/>
    <path style="fill:#ffffff" d="m 11.585003,14.68783 h 1.956128 q -0.69139,-0.185482 -0.994927,-0.758842 -0.286674,0.573347 -0.961201,0.758842 z"/>
    <path style="fill:#ffffff" d="M 4.4350169,15.514124 H 4.6036471 L 4.5024677,15.379222 q 0,-0.185481 0.1686302,-0.185481 l 0.2360876,0.10116 0.1854946,0.219223 H 5.2613103 L 5.1601308,15.379222 q 0,-0.185481 0.1686302,-0.185481 l 0.2360876,0.10116 0.1686302,0.219223 H 5.9189734 L 5.8177939,15.379222 q 0,-0.185481 0.1686302,-0.185481 l 0.2360876,0.10116 0.1686303,0.219223 H 6.5766365 L 6.4585927,15.379222 q 0,-0.185481 0.1854946,-0.185481 l 0.2360875,0.10116 0.1686303,0.219223 H 7.2174353 L 7.1162558,15.379222 q 0,-0.185481 0.1854946,-0.185481 l 0.2360875,0.10116 0.1686303,0.219223 H 7.8750984 L 7.7739256,15.379222 q 0,-0.185481 0.1686302,-0.185481 l 0.2529453,0.10116 0.1686303,0.219223 H 8.5327616 L 8.4315821,15.379222 q 0,-0.185481 0.1686302,-0.185481 l 0.2529454,0.10116 0.1686302,0.219223 H 9.1904182 L 9.0892388,15.379222 q 0,-0.185481 0.1686302,-0.185481 l 0.2529453,0.10116 0.1686303,0.219223 H 9.8480748 L 9.7468953,15.379222 q 0,-0.185481 0.1686303,-0.185481 l 0.2529454,0.10116 0.16863,0.219223 h 0.168631 l -0.10118,-0.134902 q 0,-0.185481 0.16863,-0.185481 l 0.236087,0.10116 0.185495,0.219223 h 0.168631 l -0.10118,-0.134902 q 0,-0.185481 0.16863,-0.185481 l 0.236088,0.10116 0.185494,0.219223 h 0.168631 l -0.10118,-0.134902 q 0,-0.185481 0.168631,-0.185481 l 0.236087,0.10116 0.185495,0.219223 h 0.168629 l -0.101179,-0.134902 q 0,-0.185481 0.168631,-0.185481 l 0.236087,0.10116 0.168631,0.219223 h 0.185494 l -0.101179,-0.134902 q 0,-0.185481 0.168629,-0.185481 l 0.236088,0.10116 0.16863,0.219223 h 0.185495 l -0.118043,-0.134902 q 0,-0.185481 0.185493,-0.185481 l 0.236089,0.10116 0.168629,0.219223 h 0.185495 l -0.118044,-0.134902 q 0,-0.185481 0.185495,-0.185481 l 0.236088,0.10116 0.168629,0.219223 h 0.168631 l -0.10118,-0.134902 q 0,-0.185481 0.185495,-0.185481 l 0.236087,0.151739 V 15.025097 H 4.4350169 Z"/>
    <path style="fill:#ffffff" d="M 4.4350169,16.036892 H 15.412944 v -0.286707 l -0.236088,0.134902 q -0.185495,0 -0.185495,-0.168644 l 0.06745,-0.134901 H 14.92391 l -0.168629,0.168643 -0.236088,0.134902 q -0.185494,0 -0.185494,-0.168644 l 0.06745,-0.134901 h -0.134908 l -0.16863,0.168643 -0.236088,0.134902 q -0.185494,0 -0.185494,-0.168644 l 0.08431,-0.134901 h -0.151765 l -0.168631,0.168643 -0.236087,0.134902 q -0.16863,0 -0.16863,-0.168644 l 0.06745,-0.134901 H 12.95091 l -0.168631,0.168643 -0.236087,0.134902 q -0.168631,0 -0.168631,-0.168644 l 0.06745,-0.134901 H 12.31011 l -0.185495,0.168643 -0.236087,0.134902 q -0.168631,0 -0.168631,-0.168644 l 0.06745,-0.134901 h -0.134909 l -0.185493,0.168643 -0.236089,0.134902 q -0.168629,0 -0.168629,-0.168644 l 0.06745,-0.134901 H 10.99477 l -0.185495,0.168643 -0.236087,0.134902 q -0.16863,0 -0.16863,-0.168644 l 0.06745,-0.134901 H 10.3371 l -0.16863,0.168643 -0.2529451,0.134902 q -0.1686302,0 -0.1686302,-0.168644 l 0.067451,-0.134901 h -0.134882 l -0.1686302,0.168643 -0.2529453,0.134902 q -0.1686303,0 -0.1686303,-0.168644 l 0.067451,-0.134901 H 9.0218003 l -0.1686302,0.168643 -0.2529453,0.134902 q -0.1686303,0 -0.1686303,-0.168644 l 0.067451,-0.134901 H 8.3641372 L 8.195507,15.750185 7.9425617,15.885087 q -0.1686303,0 -0.1686303,-0.168644 l 0.067451,-0.134901 H 7.7064741 l -0.1686303,0.168643 -0.2360875,0.134902 q -0.1854946,0 -0.1854946,-0.168644 l 0.067451,-0.134901 H 7.0488044 l -0.1686302,0.168643 -0.2360875,0.134902 q -0.1854946,0 -0.1854946,-0.168644 l 0.084315,-0.134901 H 6.3911413 l -0.1686302,0.168643 -0.2360876,0.134902 q -0.1686303,0 -0.1686303,-0.168644 l 0.067451,-0.134901 H 5.7334782 L 5.564848,15.750185 5.3287605,15.885087 q -0.1686302,0 -0.1686302,-0.168644 l 0.067451,-0.134901 h -0.134908 l -0.1854946,0.168643 -0.2360875,0.134902 q -0.1686303,0 -0.1686303,-0.168644 l 0.067451,-0.134901 H 4.4350162 Z"/>
    <path style="fill:#ffffff" d="m 13.068963,17.689485 q 1.618864,-0.522768 2.343981,-1.146696 v -0.168643 h -0.826296 l -1.635728,1.247875 z"/>
    <path style="fill:#ffffff" d="M 8.6002208,16.896914 9.1567045,16.795754 9.0217964,16.374146 H 8.3304105 Z"/>
    <path style="fill:#ffffff" d="M 7.908831,17.200459 8.3978639,16.964398 8.0943256,16.374211 H 7.2680303 Z"/>
    <path style="fill:#ffffff" d="M 7.4703911,17.554583 7.7402007,17.301619 7.0150849,16.374146 H 5.6660287 Z"/>
    <path style="fill:#ffffff" d="M 7.3017609,17.655743 5.3624962,16.374139 H 4.4350169 v 0.168644 q 0.4384399,0.252964 1.1635591,0.505929 0.7251164,0.252965 1.7031803,0.60709 z"/>
    <path style="fill:#ffffff" d="m 11.500692,16.930622 0.320402,-0.556509 h -0.725123 l -0.10118,0.421608 z"/>
    <path style="fill:#ffffff" d="m 12.225808,17.200426 0.657664,-0.826294 h -0.8263 l -0.337261,0.623928 z"/>
    <path style="fill:#ffffff" d="M 12.782292,17.487068 14.232525,16.3741 h -1.09611 l -0.725116,0.893797 z"/>
    <path style="fill:#ffffff" d="m 10.775574,16.761954 0.118043,-0.387867 h -0.725121 v 0.337286 h 0.337261 z"/>
    <path style="fill:#ffffff" d="m 9.3253407,16.761954 0.6239344,-0.05091 V 16.373761 H 9.2241586 Z"/>
    <path style="fill:#ffffff" d="m 4.4350169,22.175076 h 0.9612008 q -0.4553043,-0.657662 -0.4553043,-1.416505 0,-0.623928 0.2529454,-1.062381 v -0.489026 q -0.3878535,-0.10116 -0.3878535,-0.269804 0,-0.252965 0.1686302,-0.320383 L 4.8397341,18.347174 q 0,-0.219223 0.2023588,-0.320383 -0.1686302,-0.101159 -0.1686302,-0.269803 0,-0.269803 0.5227615,-0.421543 L 4.4350169,16.930609 Z"/>
    <path style="fill:#ffffff" d="m 12.883467,22.175076 h 2.529477 V 16.99808 q -0.657664,0.489027 -1.349055,0.758842 -0.691389,0.269804 -1.450232,0.371029 v 0.15174 q 0,0.236061 -0.202359,0.404704 -0.185495,0.168644 -0.320403,0.168644 l -0.06745,-0.03394 -0.101179,-0.03394 -0.06745,0.151739 0.06745,0.337287 q 0,0.168644 -0.236088,0.55651 -0.286674,0.303544 -0.286674,0.657663 0,0.269803 0.101179,0.370963 z"/>
    <path style="fill:#ffffff" d="m 10.370854,18.026739 q 0.303539,-0.303545 0.657665,-0.303545 l 0.236087,0.03394 0.134908,0.03394 q 0.286674,-0.134901 0.489033,-0.134901 0.202359,0 0.489033,0.168643 l 0.236088,-0.03394 q -1.450233,-0.725114 -2.563203,-0.725114 -1.4165064,0 -2.3102551,0.725114 l 0.1011795,0.06742 q 0.286674,-0.10116 0.5902123,-0.168644 0.3204026,-0.06742 0.6239345,-0.06742 0.1011795,0 0.5227615,0.337287 l 0.3035383,-0.06748 0.354125,0.06748 z"/>
    <path style="fill:#ffffff" d="m 6.2899664,18.616925 q 0.3878535,0 0.5227616,-0.725113 l -0.9274748,-0.337288 -0.033742,0.10116 -0.4890329,-0.03394 q -0.2023589,0.03394 -0.2023589,0.134902 0,0.168643 0.1686302,0.168643 l 0.2698097,-0.06748 0.3541248,0.06748 v 0.202385 q 0.067451,0.219223 0.337267,0.489026 z"/>
    <path style="fill:#ffffff" d="M 9.1567059,21.247584 9.1229641,20.825976 9.325323,19.797324 q -0.573348,-0.06748 -0.573348,-0.590187 0,-0.489026 0.5058973,-0.994923 -0.2360811,-0.252965 -0.3035384,-0.252965 -0.1011795,0 -0.4215821,0.06748 -0.3035384,0.06742 -0.5902124,0.168642 -0.2698097,0.08432 -0.2698097,0.118065 0,0.404703 0.1686303,0.438446 v 0.185481 l -0.1011794,0.202385 0.6576644,-0.320383 0.067451,0.06748 q -0.202359,0.354124 -0.6913899,0.455284 l 0.033742,0.10116 -0.1011795,0.06742 -0.1686303,0.185482 q 0.067451,0.134901 0.1854946,0.337286 0.1180438,0.202385 0.3035384,0.489026 v 0.472189 q 0.2360875,0.08432 0.5058972,0.151739 0.286674,0.06748 0.6239345,0.10116 z"/>
    <path style="fill:#ffffff" d="M 5.8515238,22.175057 H 6.9813563 L 7.6727467,20.960911 V 20.657366 L 7.4703878,20.30324 7.116263,19.544398 7.4366657,19.308337 7.402924,19.072275 7.470375,18.886794 7.436633,18.785634 7.470375,18.650733 7.3354668,18.313445 l 0.033742,-0.151739 0.033742,-0.06748 -0.3204027,-0.10116 Q 6.8801893,18.785638 6.4248844,18.886817 L 6.0201665,19.10604 v 0.590187 q 0.2360877,0.269803 0.2360877,1.062381 0,0.623928 -0.4047179,1.416505 z"/>
    <path style="fill:#ffffff" d="m 9.5445586,21.281307 h 0.1686302 q 0.6576632,0 1.4165062,-0.286642 l -0.101179,-0.472189 q 0,-0.28664 0.269809,-0.657663 Q 11.585,19.409529 11.585,19.274628 l -0.08432,-0.303545 -0.06745,-0.151806 0.421582,-0.370962 0.10118,0.03394 0.134909,0.03394 q 0.168629,0 0.168629,-0.236061 0,-0.286642 -0.370988,-0.286642 l -0.590213,0.354124 q -0.10118,-0.286641 -0.269809,-0.286641 -0.134909,0 -0.657665,0.522768 0,-0.03394 -0.151765,-0.185481 -0.134908,-0.15174 -0.3372609,-0.15174 -0.2360875,0 -0.5227615,0.370963 -0.2698097,0.354125 -0.2698097,0.590186 0,0.236062 0.2360876,0.236062 L 9.51084,19.308831 9.8143784,19.443733 Q 9.6794702,19.9665 9.5782909,20.320619 9.4771114,20.657906 9.4771114,20.826484 Z"/>
    <path style="fill:#ffffff" d="m 5.2275861,18.515745 0.067451,-0.03394 0.1011794,0.03394 0.2698097,-0.134901 0.1011795,-0.134901 -0.1011795,-0.08432 q -0.5396194,0 -0.5396194,0.185482 z"/>
    <path style="fill:#000000" d="m 13.827805,21.652302 -0.320403,-0.50593 q -0.725116,-0.792571 -0.826296,-1.045516 -0.134908,-0.168644 -0.134908,-0.438447 0,-0.691385 0.590212,-0.691385 0.404718,0 0.623935,0.404705 v -0.10116 q 0,-0.590187 -0.185494,-0.758849 h 0.489032 q -0.168629,0.168643 -0.168629,0.758849 v 0.134901 q 0.269809,-0.438446 0.623941,-0.438446 0.573347,0 0.573347,0.691385 0,0.370963 -0.573347,1.062381 -0.590213,0.691392 -0.691391,0.927479 z"/>
    <path style="fill:#ffffff" d="m 5.4636705,19.004798 q 0.4215821,0 0.7925692,-0.354124 l -0.4890328,-0.10116 q -0.2360876,0 -0.2698097,0.168643 L 5.362489,18.684219 q -0.2698096,0 -0.2698096,0.252966 z"/>
    <path style="fill:#ffffff" d="m 5.4636705,19.409503 h 0.2698096 v -0.202385 l -0.2698096,0.03394 z"/>
    <path style="fill:#ffffff" d="m 5.6660293,21.905254 q 0.286674,-0.455285 0.286674,-1.146696 0,-0.556509 -0.2529453,-1.062381 H 5.666016 Z"/>
    <path style="fill:#ffffff" d="M 5.5311212,21.905254 V 19.69619 h -0.067451 q -0.2023589,0.404705 -0.2023589,1.062381 0,0.691391 0.2698096,1.146696 z"/>
    <path d="m 17.824376,21.972672 q -0.202359,-0.455285 -0.522762,-0.725114 -0.37099,-0.286641 -0.37099,-0.691392 0,-0.455284 0.421582,-0.455284 0.303539,0 0.404718,0.354125 h 0.03374 v -0.151741 l -0.10118,-0.505929 h 0.269809 l -0.101179,0.505929 v 0.151741 h 0.03374 q 0.101179,-0.354125 0.421582,-0.354125 0.404717,0 0.404717,0.455284 0,0.337287 -0.33726,0.691392 -0.202359,0.134902 -0.354124,0.354125 -0.134909,0.202385 -0.202359,0.370963 z"/>
    <path style="fill:#000000" d="m 8.0605976,20.724796 0.033742,-0.236061 H 8.1955187 L 8.161777,20.303253 8.2292278,20.067192 H 8.0943197 v -0.202385 q 0.337267,0 0.9949275,0.337286 l -0.3035383,0.286642 q -0.3541248,0.236061 -0.7251113,0.236061 z"/>
    <path style="fill:#ffffff" d="m 8.4315867,20.421252 0.236081,-0.151806 -0.236081,-0.101159 z"/>
    <path style="fill:#ffffff" d="m 7.4029358,22.175076 h 5.0083632 l -0.978065,-0.89375 q -0.758843,0.337287 -1.7200432,0.337287 -1.1804227,0 -1.8043598,-0.337287 z"/>
    <path d="m 17.065535,25.041816 v -1.618864 q 0,-0.792572 0.792568,-0.792572 0.758843,0 0.758843,0.725121 v 0.202385 h -0.438439 v -0.10116 q 0,-0.421608 -0.320403,-0.421608 -0.269809,0 -0.269809,0.421608 v 1.585136 z"/>
</svg>