<svg xmlns="http://www.w3.org/2000/svg" width="74.952217" height="100" viewBox="0 0 19.831107 26.458333">
    <path d="m 1.1804255,26.458329 q -0.72511746,0 -0.96120202,-0.219223 Q 0,26.003044 0,25.277904 V 1.1804 Q 0,0.45527868 0.21922348,0.23606172 0.45531131,0 1.1804255,0 H 18.650693 q 0.725122,0 0.944339,0.23606172 0.236061,0.21922349 0.236061,0.94433828 v 24.097504 q 0,0.725113 -0.236061,0.961202 -0.219224,0.219223 -0.944339,0.219223 z"/>
    <path style="fill:#ffffff" d="M 1.3827846,25.969302 H 18.448334 q 0.590186,0 0.741986,-0.151739 0.151739,-0.151741 0.151739,-0.741979 V 1.3827983 q 0,-0.62392872 -0.151739,-0.7588435 Q 19.038514,0.48905306 18.448334,0.48905306 H 1.3827839 q -0.60707738,0 -0.75884346,0.13490174 Q 0.48903217,0.75885653 0.48903217,1.3827983 V 25.075584 q 0,0.590186 0.13490827,0.741979 0.15176608,0.151739 0.75884416,0.151739 z"/>
    <path d="M 1.2141522,3.8447844 V 1.4164813 H 1.7369143 V 2.4282769 L 2.6643869,1.4164813 H 3.3220516 L 2.3945757,2.3945482 3.3895043,3.8447844 H 2.7318398 L 2.0067224,2.7318091 1.7369124,3.0353543 v 0.8094366 z"/>
    <path d="M 3.9459894,22.664105 V 3.8110556 H 15.901994 V 22.664105 Z"/>
    <path style="fill:#ffffff" d="M 15.41296,10.15162 V 4.2832247 h -1.905539 l -0.691392,1.3153279 q 0.792571,0.2023853 0.792571,0.8937518 0,0.2529651 -0.03374,0.4721887 -0.03374,0.2192235 -0.10118,0.387867 L 13.3725,7.841387 13.40624,8.0774487 q 0.320403,0.2192234 0.320403,0.4890269 L 13.6086,8.9880844 13.794095,9.0892443 V 5.4636574 L 14.485485,4.4518617 15.210601,5.3962 v 4.620518 z"/>
    <path style="fill:#ffffff" d="M 8.161788,5.0420682 Q 8.6339572,4.5698796 9.12299,4.5698796 q 0.590213,0 0.89375,0.3035451 0.185495,-0.3372869 0.590212,-0.3372869 0.489034,0 0.657666,0.3709634 0.202359,-0.3035451 0.69139,-0.3035451 0.421582,0 0.758844,0.3372869 L 13.068978,4.2831791 H 7.706482 Z"/>
    <path style="fill:#ffffff" d="M 4.4350222,9.291597 Q 4.9071913,9.0555352 5.3962241,8.8868917 5.8852577,8.70141 6.3911529,8.6676682 6.4586037,8.0774813 7.0150881,8.0774813 q 0.320403,0 0.4553048,0.1518053 Q 7.5715724,7.1163114 8.0943281,5.6660818 L 7.268039,4.2832247 H 4.4350222 Z"/>
    <path d="M 1.8718167,6.6609348 1.9729963,6.1550696 V 6.0201678 h -0.033742 q -0.1011796,0.337287 -0.4047183,0.337287 -0.4215826,0 -0.4215826,-0.4552852 0,-0.3709634 0.3878539,-0.7251147 Q 1.669438,5.0084114 1.787482,4.8397678 1.9055259,4.6711243 2.0067054,4.4856427 2.1753358,4.9072514 2.5631898,5.1770353 2.7318202,5.362517 2.8161354,5.5311605 q 0.084315,0.1686434 0.084315,0.3709634 0,0.4552853 -0.4047182,0.4552853 -0.3204031,0 -0.4215826,-0.337287 H 2.040408 v 0.1349017 l 0.1011796,0.5058652 z"/>
    <path style="fill:#000000" d="M 5.8178041,7.9425404 Q 5.9864346,7.7064787 5.9864346,7.1836969 V 7.0487952 Q 5.767211,7.5040805 5.3624994,7.5040805 q -0.5902131,0 -0.5902131,-0.6913862 0,-0.4890269 0.961202,-1.4839647 L 6.0538914,4.8059608 6.3911522,5.3287296 q 0.9443389,1.0286534 0.9443389,1.4839647 0,0.6913862 -0.5902131,0.6913862 -0.4215826,0 -0.6239417,-0.4216088 v 0.10116 q 0,0.5227686 0.1686304,0.7588435 z"/>
    <path style="fill:#ffffff" d="m 11.12971,5.3287426 q -0.202358,-0.5227687 -0.522761,-0.5227687 -0.337262,0 -0.556485,0.4890269 h 0.758844 z"/>
    <path style="fill:#ffffff" d="m 13.996454,12.445015 0.489033,-0.08432 0.505898,0.08432 V 5.497373 L 14.485487,4.8397091 13.996454,5.5311017 Z"/>
    <path style="fill:#ffffff" d="M 8.4653254,5.497373 9.9155602,5.3287296 Q 9.7132011,4.8734443 9.1904429,4.8734443 q -0.4384405,0 -0.8600225,0.4216088 z"/>
    <path style="fill:#ffffff" d="m 12.411314,5.497373 0.134901,-0.2866416 q -0.236087,-0.3372871 -0.590213,-0.3372871 -0.370989,0 -0.69139,0.4552853 0.387853,0.033937 0.657664,0.067418 0.269811,0.033938 0.489034,0.10116 z"/>
    <path style="fill:#ffffff" d="m 11.365795,8.7013839 q 0.286674,0 0.522763,-0.050906 0.236087,-0.050906 0.421582,-0.084322 l 0.03374,-0.438447 -0.725118,-0.3203835 h -0.185515 l -0.370989,0.067418 -0.421582,0.10116 h -0.202359 l -0.06745,-0.033938 v -0.134901 h 0.269811 l 0.387853,-0.2023853 0.236089,0.033938 0.06745,-0.1686435 0.101179,-0.033938 0.286675,0.067483 q 0.10118,0 0.10118,-0.15174 0,-0.3035451 -0.168631,-0.4721886 -0.185494,-0.2866418 -0.185494,-0.6239287 0,-0.2698035 0.590212,-0.2698035 l 0.455306,0.10116 V 5.9015365 Q 11.652473,5.6991513 10.505776,5.6991513 H 9.9830137 Q 9.8481054,6.3568153 9.7975189,6.8627131 9.7469389,7.35174 9.7469389,7.7058717 v 0.5227688 q 1.0286551,0.4721886 1.6188671,0.4721886 z"/>
    <path style="fill:#ffffff" d="m 7.9931563,9.1904108 h 0.5733488 q 0.590213,0 0.7082543,-0.2023852 0.1349082,-0.2192234 0.1349082,-1.2816056 0,-1.1129687 0.2023592,-1.9729918 -0.5564844,0 -1.2816025,0.2023853 L 7.8751196,7.6727239 7.77394,8.36411 V 8.6001717 L 7.4704013,8.66759 Q 7.4366596,8.3977865 7.0825474,8.3977865 q -0.3372609,0 -0.3372609,0.3709635 0,0.4216086 1.2478763,0.4216086 z"/>
    <path style="fill:#ffffff" d="m 13.068978,9.0892508 q 0.370989,0 0.370989,-0.4890269 L 13.170158,8.2966787 13.136415,7.7064918 13.203867,7.284883 q 0.134901,-0.3035452 0.134901,-0.7925722 0,-0.4047051 -0.489033,-0.6239286 l 0.06745,1.0117891 q -0.134908,0.7588435 -0.185494,1.2310126 -0.05058,0.4552852 -0.05058,0.6239287 l -0.134908,0.067483 q 0.16863,0.2866418 0.522762,0.2866418 z"/>
    <path style="fill:#000000" d="M 11.230889,6.3911379 11.02853,6.2562361 10.674405,6.1550761 q -0.370989,0 -0.657664,0.1686435 l -0.033742,-0.10116 0.033742,-0.10116 q 0.118043,-0.2192235 0.657664,-0.2192235 0.421583,0 0.657664,0.2192235 l 0.03374,0.067418 -0.10118,0.2023852 z"/>
    <path style="fill:#ffffff" d="m 12.377586,7.9762757 0.20236,-1.0961044 -0.03374,-0.5565104 -0.455304,-0.10116 -0.269811,0.067418 v 0.067418 l 0.269811,-0.067418 0.286673,0.067418 0.134909,0.2023851 -0.16863,-0.033938 q 0,0.1349017 -0.151766,0.1349017 -0.134909,0 -0.134909,-0.1349017 l -0.202359,0.033938 0.134909,0.3203835 0.202359,0.5227687 q 0,0.1686435 -0.134909,0.3035453 z"/>
    <path style="fill:#000000" d="m 10.606951,6.6609348 q -0.134908,0 -0.134908,-0.1349017 h -0.10118 l -0.168629,0.033937 0.134908,-0.2023852 0.303538,-0.067418 0.320403,0.067418 -0.03374,0.2023852 -0.185495,-0.033937 q 0,0.1349017 -0.134908,0.1349017 z"/>
    <path style="fill:#000000" d="m 11.062257,8.1954861 v -0.067418 l 0.472168,-0.1180635 0.489034,0.1180635 v 0.067418 h -0.168631 l -0.320403,-0.033938 -0.303539,0.033938 z"/>
    <path style="fill:#000000" d="m 11.500697,8.3641296 -0.303539,-0.067418 v -0.067418 l 0.303539,0.033938 0.320403,-0.033938 v 0.067418 z"/>
    <path style="fill:#ffffff" d="m 9.949287,10.15162 q 1.349055,0 2.79929,-0.8263009 l -0.33726,-0.2023852 -0.151767,-0.1686435 -0.10118,0.033938 0.10118,0.4721888 -0.236088,0.067418 -0.168631,-0.5059305 -0.06745,0.033938 0.03374,0.5565106 -0.20236,0.033938 -0.151765,-0.590187 h -0.03374 l -0.03374,0.6913927 h -0.202361 l -0.06745,-0.691394 h -0.03374 L 10.859874,9.7812178 10.640651,9.7472803 10.775559,9.0221589 10.708108,8.9882214 10.337119,9.7470649 10.13476,9.6796466 10.337119,8.9208032 10.269667,8.8533197 9.7806344,9.6458919 9.5782752,9.5784084 9.8480852,8.701521 9.8143434,8.6675834 9.7131639,8.6001652 Q 9.6794222,9.1229339 9.4096252,9.32528 9.1566795,9.5276652 8.4652863,9.5276652 H 7.6727559 Q 8.7857265,10.151594 9.949287,10.151594 Z"/>
    <path style="fill:#ffffff" d="M 7.301765,13.541119 V 12.91719 q -1.6694563,-0.590186 -1.6694563,-2.141628 0,-0.8262946 0.3541252,-1.4165077 Q 5.9189831,9.0892508 5.59858,9.0892508 L 5.3962208,9.1566691 Q 5.008367,9.8480617 5.008367,10.775535 q 0,2.074172 2.2933941,2.765564 z"/>
    <path style="fill:#000000" d="m 5.5648565,9.7131731 q -0.2023591,0 -0.2023591,-0.2192235 0,-0.2023853 0.2023591,-0.2023853 0.2023591,0 0.2023591,0.2023853 0,0.2192235 -0.2023591,0.2192235 z"/>
    <path style="fill:#ffffff" d="m 12.090913,10.30336 0.556484,-0.185482 0.202359,-0.3709632 -0.623935,0.2360617 z"/>
    <path style="fill:#ffffff" d="M 7.740208,10.30336 7.6053064,9.9829765 6.9813645,9.7469148 7.1837237,10.117878 Z"/>
    <path style="fill:#000000" d="m 5.3962241,10.252454 q -0.2023591,0 -0.2023591,-0.202385 0,-0.2023858 0.2023591,-0.2023858 0.2023591,0 0.2023591,0.2023858 0,0.202385 -0.2023591,0.202385 z"/>
    <path style="fill:#ffffff" d="M 8.0268825,10.977569 7.8413876,10.539121 7.3354898,10.40422 7.5041202,10.842666 Z"/>
    <path style="fill:#ffffff" d="m 11.821102,10.977569 0.522762,-0.134903 0.168631,-0.438446 -0.522762,0.134901 z"/>
    <path style="fill:#000000" d="m 5.3287713,10.876409 q -0.2023591,0 -0.2023591,-0.202385 0,-0.202386 0.2023591,-0.202386 0.2023591,0 0.2023591,0.202386 0,0.202385 -0.2023591,0.202385 z"/>
    <path style="fill:#000000" d="m 5.3962222,11.466595 q -0.2023592,0 -0.2023592,-0.202385 0,-0.202386 0.2023592,-0.202386 0.2023591,0 0.2023591,0.202386 0,0.202385 -0.2023591,0.202385 z"/>
    <path style="fill:#ffffff" d="m 11.652467,11.635239 0.47217,-0.134901 0.101179,-0.370964 -0.472169,0.10116 z"/>
    <path style="fill:#ffffff" d="M 8.1955129,11.635239 8.0943333,11.230534 7.6052998,11.129374 7.7064793,11.500338 Z"/>
    <path style="fill:#000000" d="m 5.5648545,12.056848 q -0.2023591,0 -0.2023591,-0.202386 0,-0.219223 0.2023591,-0.219223 0.2023592,0 0.2023592,0.219223 0,0.202386 -0.2023592,0.202386 z"/>
    <path style="fill:#ffffff" d="m 11.534425,12.326651 0.455306,-0.10116 0.06745,-0.438447 -0.43844,0.10116 z"/>
    <path style="fill:#ffffff" d="m 8.2966917,12.326651 -0.067451,-0.438447 -0.4553048,-0.10116 0.067451,0.438447 z"/>
    <path style="fill:#000000" d="m 5.8515282,12.579617 q -0.2192234,0 -0.2192234,-0.219224 0,-0.202385 0.2192234,-0.202385 0.2023592,0 0.2023592,0.202385 0,0.219224 -0.2023592,0.219224 z"/>
    <path style="fill:#ffffff" d="M 8.3641445,13.085546 8.3304029,12.6471 7.875098,12.54594 7.90884,12.748325 v 0.236061 z"/>
    <path style="fill:#ffffff" d="m 11.466973,13.085546 0.455304,-0.10116 v -0.236061 l 0.03374,-0.202385 -0.455305,0.10116 z"/>
    <path style="fill:#000000" d="m 6.323698,12.950645 q -0.2023591,0 -0.2023591,-0.202385 0,-0.202386 0.2023591,-0.202386 0.2192235,0 0.2192235,0.202386 0,0.202385 -0.2192235,0.202385 z"/>
    <path style="fill:#ffffff" d="m 14.519211,13.169868 q 0.725118,0 0.725118,-0.286642 0,-0.269803 -0.725118,-0.269803 -0.725117,0 -0.725117,0.269803 0,0.286642 0.725117,0.286642 z"/>
    <path style="fill:#000000" d="m 6.846457,13.271028 q -0.2023591,0 -0.2023591,-0.219223 0,-0.202385 0.2023591,-0.202385 0.2023591,0 0.2023591,0.202385 0,0.219223 -0.2023591,0.219223 z"/>
    <path style="fill:#ffffff" d="m 14.232537,17.368785 0.219223,-0.06742 q 0.370989,-0.691392 0.370989,-1.618866 0,-2.1079 -2.276531,-2.765564 v 0.623929 q 1.652594,0.55651 1.652594,2.141628 0,0.826295 -0.337262,1.416507 0.10118,0.269804 0.37099,0.269804 z"/>
    <path style="fill:#000000" d="m 12.98466,13.608289 q -0.20236,0 -0.20236,-0.202384 0,-0.202386 0.20236,-0.202386 0.219223,0 0.219223,0.202386 0,0.202384 -0.219223,0.202384 z"/>
    <path style="fill:#ffffff" d="m 5.3287694,13.844351 q 0.7251174,0 0.7251174,-0.269804 0,-0.269802 -0.7251174,-0.269802 -0.7251175,0 -0.7251175,0.269802 0,0.269804 0.7251175,0.269804 z"/>
    <path style="fill:#ffffff" d="m 7.8751117,13.928672 0.4553048,-0.118063 0.033742,-0.438447 -0.4553048,0.10116 v 0.202385 z"/>
    <path style="fill:#ffffff" d="m 11.956005,13.928672 -0.03374,-0.252965 v -0.202385 l -0.455304,-0.10116 0.03374,0.438447 z"/>
    <path style="fill:#000000" d="m 13.507419,13.928672 q -0.202359,0 -0.202359,-0.219223 0,-0.202384 0.202359,-0.202384 0.219224,0 0.219224,0.202384 0,0.219223 -0.219224,0.219223 z"/>
    <path style="fill:#000000" d="m 13.996453,14.299636 q -0.202359,0 -0.202359,-0.202385 0,-0.202385 0.202359,-0.202385 0.202359,0 0.202359,0.202385 0,0.202385 -0.202359,0.202385 z"/>
    <path style="fill:#ffffff" d="m 5.3624974,21.618261 0.4890334,-0.691386 v -6.897049 l -0.4890334,0.06748 -0.5227621,-0.06748 v 6.930771 z"/>
    <path style="fill:#ffffff" d="m 12.057185,14.68749 -0.06745,-0.455285 -0.455305,-0.10116 0.08432,0.438447 z"/>
    <path style="fill:#ffffff" d="M 7.7739342,14.68749 8.229239,14.569427 8.2966898,14.130979 7.841385,14.232139 Z"/>
    <path style="fill:#000000" d="m 14.266264,14.822392 q -0.202359,0 -0.202359,-0.202385 0,-0.219224 0.202359,-0.219224 0.219223,0 0.219223,0.219224 0,0.202385 -0.219223,0.202385 z"/>
    <path style="fill:#ffffff" d="M 7.6053024,15.345161 8.0943359,15.227097 8.1955154,14.822392 7.706482,14.957293 Z"/>
    <path style="fill:#ffffff" d="m 12.225818,15.345161 -0.10118,-0.387868 -0.47217,-0.134901 0.10118,0.404705 z"/>
    <path style="fill:#000000" d="m 14.451759,15.412579 q -0.219223,0 -0.219223,-0.219223 0,-0.202386 0.219223,-0.202386 0.20236,0 0.20236,0.202386 0,0.219223 -0.20236,0.219223 z"/>
    <path style="fill:#ffffff" d="m 12.512492,16.070249 -0.168631,-0.455285 -0.522762,-0.134902 0.168631,0.438447 z"/>
    <path style="fill:#ffffff" d="M 7.3354911,16.070249 7.8413889,15.918444 8.0268837,15.479997 7.5041215,15.614899 Z"/>
    <path style="fill:#000000" d="m 14.519213,15.985928 q -0.219225,0 -0.219225,-0.20232 0,-0.202386 0.219225,-0.202386 0.202358,0 0.202358,0.202386 0,0.20232 -0.202358,0.20232 z"/>
    <path style="fill:#ffffff" d="m 12.849756,16.711049 -0.202359,-0.370964 -0.556484,-0.168643 0.134908,0.303546 z"/>
    <path style="fill:#ffffff" d="M 6.9813639,16.711049 7.6053057,16.474988 7.7402074,16.171442 7.1837231,16.340085 Z"/>
    <path style="fill:#000000" d="m 14.451759,16.609889 q -0.219223,0 -0.219223,-0.202385 0,-0.202386 0.219223,-0.202386 0.20236,0 0.20236,0.202386 0,0.202385 -0.20236,0.202385 z"/>
    <path style="fill:#ffffff" d="m 10.134781,17.857766 q 0.06745,-0.522769 0.303539,-0.725121 0.236087,-0.202386 0.961202,-0.202386 h 0.758843 q -1.062381,-0.623928 -2.2765309,-0.623928 -1.3490559,0 -2.7992906,0.826294 0.3878539,0.202385 0.4890334,0.387867 l 0.1011796,-0.03394 -0.1011796,-0.489027 0.2360814,-0.06742 0.1854947,0.505865 0.067451,-0.03394 -0.033742,-0.539607 0.2023591,-0.03394 0.1349083,0.573349 h 0.033742 l 0.033742,-0.691392 h 0.2023591 l 0.084315,0.691392 h 0.033742 l 0.2360878,-0.725121 0.2023591,0.03394 -0.1349018,0.725114 0.067451,0.05091 0.3878539,-0.775707 0.2023591,0.08432 -0.2023591,0.758844 0.067451,0.06742 0.4721695,-0.792566 0.219223,0.06748 -0.2866742,0.860023 0.033742,0.03394 z"/>
    <path style="fill:#ffffff" d="M 4.4350215,22.174746 H 6.3236993 L 7.01509,20.859411 q -0.7925695,-0.202385 -0.7925695,-0.893745 0,-0.590187 0.1349016,-0.860023 l 0.067451,-0.556511 V 18.380489 Q 6.1213343,18.161266 6.1213343,17.891462 L 6.222514,17.486756 6.0538835,17.368693 v 3.625588 L 5.3624928,22.006069 4.6373754,21.078595 V 16.441219 L 4.4350163,16.306317 Z"/>
    <path style="fill:#000000" d="m 14.266264,17.166706 q -0.202359,0 -0.202359,-0.202385 0,-0.202385 0.202359,-0.202385 0.219224,0 0.219224,0.202385 0,0.202385 -0.219224,0.202385 z"/>
    <path style="fill:#ffffff" d="m 12.579945,22.175078 h 2.833015 v -5.008372 q -0.927474,0.455285 -1.972992,0.623929 -0.06745,0.590186 -0.623935,0.590186 -0.26981,0 -0.438441,-0.134901 -0.118043,1.096104 -0.623935,2.54634 z"/>
    <path style="fill:#ffffff" d="m 10.235961,20.724842 q 0.53962,0 1.26474,-0.202385 l 0.455304,-1.736911 0.10118,-0.691392 v -0.236062 l 0.320403,-0.06748 q 0.101179,0.269803 0.37099,0.269803 0.354125,0 0.354125,-0.370963 0,-0.421609 -1.247877,-0.421609 h -0.590212 q -0.590214,0 -0.691392,0.168643 -0.03374,0.118064 -0.08432,0.421609 -0.05058,0.303545 -0.05058,0.893746 0,1.079246 -0.202359,1.972997 z"/>
    <path style="fill:#ffffff" d="m 6.9813645,20.58994 -0.067451,-1.011788 q 0.1011796,-0.792573 0.1686304,-1.247877 0.067451,-0.47219 0.067451,-0.607091 l 0.1517661,-0.06742 q -0.1854948,-0.286706 -0.5227557,-0.286706 -0.3878538,0 -0.3878538,0.489026 l 0.2866743,0.303546 0.067451,0.590187 -0.1011795,0.421609 q -0.1517661,0.269803 -0.1517661,0.792571 0,0.421609 0.4890334,0.623929 z"/>
    <path style="fill:#ffffff" d="m 9.3319339,20.759051 h 0.5227622 q 0.1011796,-0.691386 0.1686299,-1.163555 0.06745,-0.489027 0.06745,-0.843165 v -0.505866 q -1.0286544,-0.489027 -1.6188668,-0.489027 -0.2698101,0 -0.5227621,0.03394 -0.2360879,0.03394 -0.4047184,0.10116 l -0.033742,0.455286 0.7251174,0.303544 h 0.1686304 l 0.387854,-0.06742 0.4047182,-0.10116 0.2192235,0.03394 h 0.067451 v 0.134899 H 9.197008 l -0.3709895,0.202386 -0.2529457,-0.03394 -0.067451,0.185482 -0.1011795,0.03394 -0.2698101,-0.06742 q -0.1011795,0 -0.1011795,0.134902 0,0.202385 0.1686305,0.472189 0.1686304,0.219223 0.1686304,0.623929 0,0.286641 -0.5902131,0.286641 L 7.3420602,20.388577 v 0.168643 q 0.8937491,0.202386 1.9898567,0.202386 z"/>
    <path style="fill:#000000" d="m 8.0268825,18.245953 v -0.08432 l 0.3035386,-0.06748 0.3035387,0.06748 v 0.08432 l -0.3035387,-0.03394 z"/>
    <path style="fill:#000000" d="m 8.2966924,18.448338 -0.4890335,-0.10116 v -0.06748 h 0.1854948 l 0.3035387,0.03394 0.26981,-0.03394 h 0.2192234 v 0.06748 z"/>
    <path style="fill:#ffffff" d="m 7.740208,20.235835 0.2866745,-0.06748 v -0.06748 L 7.740208,20.134815 7.4703981,20.100875 7.3354898,19.89849 7.5041202,19.93243 q 0,-0.134902 0.1349083,-0.134902 0.1349083,0 0.1349083,0.134902 L 7.9931602,19.89849 7.6390351,19.072195 q 0,-0.219223 0.1349081,-0.320383 l -0.3035386,-0.269804 -0.2023591,1.096112 0.033742,0.55651 z"/>
    <path style="fill:#000000" d="m 13.794096,21.652342 -0.320403,-0.505931 q -0.725118,-0.792565 -0.826297,-1.045517 -0.134908,-0.168643 -0.134908,-0.438447 0,-0.691392 0.590213,-0.691392 0.404718,0 0.623942,0.404705 V 19.2746 q 0,-0.590187 -0.185495,-0.758844 h 0.489033 q -0.16863,0.168644 -0.16863,0.758844 v 0.134901 q 0.26981,-0.438446 0.623935,-0.438446 0.573349,0 0.573349,0.691392 0,0.370964 -0.573349,1.062382 -0.286674,0.354126 -0.455305,0.573349 -0.16863,0.219223 -0.236087,0.354125 z"/>
    <path style="fill:#000000" d="m 9.1904429,20.168384 -0.3035388,-0.06748 0.033742,-0.202384 0.1686304,0.03394 q 0,-0.134902 0.1349083,-0.134902 0.1349082,0 0.1349082,0.134902 H 9.510859 L 9.6457672,19.898516 9.510859,20.1009 Z"/>
    <path d="m 17.824399,21.972745 q -0.202386,-0.455285 -0.522769,-0.725121 -0.370964,-0.286641 -0.370964,-0.691392 0,-0.455286 0.421609,-0.455286 0.303545,0 0.404705,0.354126 h 0.03394 v -0.151806 l -0.10116,-0.50593 h 0.269804 l -0.10116,0.50593 v 0.151806 h 0.03394 q 0.10116,-0.354126 0.421609,-0.354126 0.404705,0 0.404705,0.455286 0,0.337286 -0.337287,0.691392 -0.202385,0.134902 -0.354125,0.354125 -0.134902,0.202386 -0.202386,0.370963 z"/>
    <path style="fill:#000000" d="m 9.1567168,20.556205 q -0.3709897,0 -0.6576646,-0.202385 L 8.4653104,20.269498 8.56649,20.067113 h 0.033742 l 0.2192235,0.134902 0.3372673,0.10116 q 0.4215826,0 0.6576646,-0.168644 l 0.033742,0.10116 -0.033742,0.118064 Q 9.7132076,20.55614 9.1567226,20.55614 Z"/>
    <path style="fill:#ffffff" d="m 7.8751137,21.584866 q 0.3541253,0 0.6913914,-0.438448 -0.6913914,0 -1.1298344,-0.185481 l -0.1349083,0.286641 q 0.3372674,0.337288 0.5733513,0.337288 z"/>
    <path style="fill:#ffffff" d="m 10.640678,21.584866 q 0.455304,0 0.860023,-0.404706 l -0.134908,-0.219223 -1.4502354,0.185481 q 0.2866744,0.438448 0.7251204,0.438448 z"/>
    <path style="fill:#ffffff" d="m 9.2241696,21.652349 q 0.3541252,0 0.5564844,-0.472189 H 9.0555378 L 8.7182704,21.14622 q 0.2023592,0.505929 0.5058979,0.505929 z"/>
    <path style="fill:#ffffff" d="m 6.7790061,22.175117 h 5.3456329 l -0.43844,-0.758849 q -0.489034,0.489027 -0.978066,0.489027 -0.573349,0 -0.8937491,-0.320385 -0.1011796,0.354126 -0.590213,0.354126 -0.4384405,0 -0.6576645,-0.387867 -0.2023593,0.320383 -0.6913914,0.320383 -0.4047182,0 -0.7588435,-0.354124 z"/>
    <path d="m 16.50907,25.041854 0.944339,-0.961196 -1.011795,-1.450236 h 0.65767 l 0.725115,1.096105 0.286642,-0.303546 v -0.792566 h 0.50593 v 2.411433 h -0.50593 v -0.994957 l -0.944339,0.994924 z"/>
</svg>