<svg xmlns="http://www.w3.org/2000/svg" width="74.952217" height="100" viewBox="0 0 19.831107 26.458333">
    <path d="m 1.1804252,26.458329 q -0.72511727,0 -0.96120178,-0.219223 Q 0,26.003044 0,25.277904 V 1.1803997 Q 0,0.4552851 0.21922342,0.23606166 0.45530467,0 1.1804252,0 H 18.650691 Q 19.375808,0 19.595029,0.23606166 19.83111,0.4552851 19.83111,1.1803997 V 25.277904 q 0,0.725114 -0.236081,0.961202 -0.219223,0.219223 -0.944338,0.219223 z"/>
    <path style="fill:#ffffff" d="M 1.3827842,25.969302 H 18.448333 q 0.590212,0 0.74198,-0.151739 0.151766,-0.151741 0.151766,-0.741979 V 1.382798 q 0,-0.6239286 -0.151766,-0.75884335 -0.151766,-0.13490171 -0.74198,-0.13490171 H 1.3827842 q -0.60707721,0 -0.75884391,0.13490171 Q 0.48903205,0.75885635 0.48903205,1.382798 v 23.692786 q 0,0.590186 0.13490824,0.741979 0.15176604,0.151739 0.75884391,0.151739 z"/>
    <path d="M 3.0522401,4.0134333 2.698115,3.69305 q -0.1686304,0.15174 -0.5902129,0.15174 -1.16356016,0 -1.16356016,-1.2478768 0,-0.5227685 0.30353866,-0.8768806 0.3204029,-0.3709633 0.8600228,-0.3709633 0.5564842,0 0.8600222,0.3709633 0.3204029,0.3541252 0.3204029,0.8768806 0,0.5901869 -0.3035385,0.8937516 l 0.3035385,0.2698034 z"/>
    <path style="fill:#ffffff" d="m 2.1079015,3.4232466 q 0.151766,0 0.2192233,-0.033938 L 2.1079015,3.1869238 2.3608471,2.9002822 2.6306569,3.1532473 Q 2.7655652,2.8666058 2.7655652,2.596737 q 0,-0.7925654 -0.6576644,-0.7925654 -0.6576645,0 -0.6576645,0.7925654 0,0.8263007 0.6576645,0.8263007 z"/>
    <path d="M 3.9459891,22.664146 V 3.8111004 H 15.901991 V 22.664146 Z"/>
    <path style="fill:#ffffff" d="M 7.5378484,8.3304315 7.7064788,8.262948 Q 8.7857237,7.3523387 9.4096621,6.5091736 10.050461,5.6660151 10.573222,4.2832368 h -0.37099 Q 9.3590723,6.3911363 7.6053006,8.1954972 Z"/>
    <path style="fill:#ffffff" d="M 4.4350217,10.843049 H 5.042099 Q 5.1601429,10.640664 5.4974037,10.438344 L 5.3624954,10.117961 q -0.826296,-0.10116 -0.826296,-0.8937519 0,-0.3709634 0.2529455,-0.6239286 0.2529456,-0.2698034 0.6407995,-0.2698034 0.3878537,0 0.6407993,0.2698034 0.2529456,0.2529652 0.2529456,0.6239286 0,0.3035451 -0.2023591,0.5733486 -0.202359,0.2529653 -0.4890333,0.3203833 l 0.067451,0.185482 Q 6.5429199,9.527689 8.2292389,6.7452614 L 7.8751137,6.4586198 q 0,-0.6913925 -0.6913911,-1.2816054 Q 7.3692173,4.907211 7.3692173,4.6374076 L 7.3354756,4.2832824 H 4.4350211 Z"/>
    <path style="fill:#ffffff" d="M 7.7064807,5.328787 7.8751111,5.2613688 8.0943346,5.328787 V 5.1095636 q 0,-0.4721887 0.4384402,-0.8262941 H 7.6390273 l 0.033742,0.3203833 q 0,0.3372869 -0.1349082,0.5059304 z"/>
    <path style="fill:#ffffff" d="M 8.3641444,6.526038 Q 9.3590723,4.8734497 9.5782938,4.2832368 H 9.0555317 Q 8.3641413,4.5698784 8.3641413,5.3624765 L 8.397883,5.7671816 Q 8.1617952,5.5311199 7.8751209,5.5311199 8.1617952,6.0201468 8.1617952,6.3236854 Z"/>
    <path style="fill:#ffffff" d="m 12.343857,7.9088229 q 0.404718,0 0.74198,-0.7757077 0.354125,-0.7757076 0.354125,-1.5682796 l -0.337261,0.067483 -0.354124,-0.033937 0.354124,0.6576637 q 0,0.1349017 -0.320402,0.3372868 l -0.26981,0.1180635 -0.06745,-0.2192233 Q 12.849756,6.3235288 12.849756,6.2561106 12.445038,5.4298165 12.445038,5.210593 q 0,-0.5733486 0.623935,-0.5733486 l 0.337267,0.10116 V 4.569761 L 13.3725,4.2831193 h -2.209065 q -0.168631,0.6576637 -0.455305,1.1972836 -0.26981,0.5396069 -0.573348,0.9780667 0.539619,0.6913924 1.096107,1.0455176 0.556484,0.3372869 1.11297,0.4047052 z"/>
    <path style="fill:#ffffff" d="m 15.126283,12.883465 h 0.286675 V 4.2832368 h -1.686319 l 0.03374,0.4216086 q 0.573349,0.9612024 0.573349,1.4839644 v 0.5901868 l 0.03374,1.5514087 -0.10118,0.067483 v 0.3372869 q 0,0.4890268 0.05058,1.0286533 0.05058,0.5396065 0.20236,1.1129745 l 0.134908,-0.303544 0.101179,-0.10116 q -0.236087,-0.320385 -0.236087,-0.354125 0,-0.06748 0.303537,-0.3710295 -0.269809,-0.2866416 -0.269809,-0.7588433 l 0.269809,-1.8043609 q 0,-0.303545 -0.168629,-0.4721885 -0.168631,-0.1854817 -0.168631,-0.3203834 0,-0.2360616 0.26981,-0.2360616 l -0.03374,-0.1686435 0.03374,-0.3203834 0.03374,-0.10116 -0.134908,-0.455285 0.101179,-0.4047052 0.10118,-0.2866416 0.236087,0.6913924 -0.134908,0.4552852 0.03374,0.1011598 0.03374,0.3203835 -0.03374,0.1686434 q 0.286674,0 0.286674,0.2360617 0,0.1686434 -0.185495,0.3203833 -0.16863,0.2360617 -0.16863,0.4721887 l 0.286674,1.8043609 q 0,0.5901867 -0.320403,0.7588433 0.354125,0.3035447 0.354125,0.3710287 0,0.185481 -0.134908,0.269802 -0.118044,0.08432 -0.151766,0.08432 0.354125,0.303547 0.354125,0.725116 z"/>
    <path d="M 1.8718156,6.6609462 1.9729952,6.1550811 V 6.0201794 h -0.033742 q -0.1011795,0.3372869 -0.4047181,0.3372869 -0.4215825,0 -0.4215825,-0.4552851 0,-0.3709633 0.3878537,-0.7251211 Q 1.6694369,5.0084167 1.7874809,4.8397732 1.9055248,4.6711297 2.0067042,4.485648 q 0.1686304,0.4216087 0.5564843,0.691386 0.1686304,0.1854817 0.2529456,0.3541252 0.084315,0.1686433 0.084315,0.3709633 0,0.4552851 -0.4047182,0.4552851 -0.320403,0 -0.4215825,-0.3372869 h -0.033742 v 0.1349017 l 0.1011796,0.505865 z"/>
    <path style="fill:#000000" d="m 11.19716,5.0083514 -0.10118,-0.067418 q 0,-0.2698035 0.860023,-0.2698035 0.134909,0 0.134909,0.2023852 z"/>
    <path style="fill:#1a1a1a" d="M 5.7672129,7.942545 Q 5.9527077,7.7064833 5.9527077,7.1837017 V 7.0488 q -0.2192235,0.4552851 -0.6239351,0.4552851 -0.5902129,0 -0.5902129,-0.6913924 0,-0.4890268 0.9612017,-1.483958 l 0.320403,-0.5227685 0.3372608,0.5227685 q 0.9443387,1.0286533 0.9443387,1.483958 0,0.6913924 -0.5902129,0.6913924 -0.4215825,0 -0.6239351,-0.4216086 v 0.10116 q 0,0.5227685 0.1686304,0.7588433 z"/>
    <path style="fill:#ffffff" d="M 12.681121,5.2107105 Q 12.98466,5.0083253 13.439964,5.0083253 L 13.068975,4.8734235 q -0.387854,0 -0.387854,0.337287 z"/>
    <path style="fill:#000000" d="m 11.61874,5.733479 q -0.252945,0 -0.556484,-0.2360616 l -0.03374,-0.067418 Q 11.332052,5.075874 12.023442,5.075874 l 0.168631,0.4216087 q -0.404718,0.2360616 -0.573349,0.2360616 z"/>
    <path style="fill:#ffffff" d="m 13.102701,5.4974174 0.33726,-0.10116 V 5.177034 L 13.406221,5.143096 H 13.23759 l 0.03374,0.1180635 q 0,0.10116 -0.134909,0.10116 -0.151766,0 -0.151766,-0.10116 v -0.050906 l -0.26981,0.15174 q 0.134909,0.1349017 0.387854,0.1349017 z"/>
    <path style="fill:#ffffff" d="m 11.61874,5.5648356 q 0.43844,0 0.43844,-0.2360617 L 11.922272,5.2107105 h -0.168631 l 0.03374,0.1180634 q 0,0.10116 -0.134909,0.10116 -0.151766,0 -0.151766,-0.10116 v -0.033937 l -0.26981,0.1349017 q 0.134909,0.1349017 0.387854,0.1349017 z"/>
    <path style="fill:#000000" d="m 11.719919,6.0538624 -0.06745,-0.033937 0.06745,-0.084322 0.47217,-0.2360617 0.06745,0.033938 q 0,0.3203834 -0.53962,0.3203827 z"/>
    <path style="fill:#ffffff" d="M 13.068974,8.0099958 Q 13.574872,7.9088359 13.794092,7.7739342 V 6.222519 H 13.676048 Q 13.608597,6.7452875 13.473689,7.2005856 13.33878,7.6390325 13.06897,8.010022 Z"/>
    <path style="fill:#000000" d="m 12.158362,6.6272175 q -0.202359,-0.10116 -0.202359,-0.2698034 h 0.06745 l 0.10118,-0.033937 V 6.424637 l 0.101179,0.1686434 z"/>
    <path style="fill:#ffffff" d="m 11.956003,8.2966766 h 0.26981 V 8.2627391 Q 10.994802,8.2292193 9.881831,6.7452614 L 9.2916181,7.3523517 q 1.4165079,0.944338 2.6643839,0.944338 z"/>
    <path style="fill:#000000" d="m 12.023454,7.1499796 -0.202359,-0.10116 0.03374,-0.10116 0.06745,0.033938 0.101179,0.033937 0.320403,-0.2023852 0.134908,0.10116 0.10118,-0.067418 0.134908,0.1011599 0.101179,0.033938 h 0.03374 v 0.1011599 h -0.168631 l -0.03374,-0.033937 -0.16863,0.067483 -0.16863,-0.067483 z"/>
    <path style="fill:#000000" d="m 12.411308,7.3523647 -0.219223,-0.033937 -0.134909,-0.033938 v -0.10116 l 0.354126,0.033938 0.202359,-0.10116 h 0.134908 q 0,0.2360616 -0.337267,0.2360616 z"/>
    <path style="fill:#ffffff" d="m 11.888546,9.2241765 q 1.483961,0 1.939267,-0.6239285 V 8.1618011 q -0.758844,0.5396067 -1.871815,0.5396067 -1.062381,0 -2.9341943,-0.9274736 L 8.566499,8.2292193 q 1.63573,0.994931 3.322049,0.994931 z"/>
    <path style="fill:#ffffff" d="M 7.9088326,11.129716 8.5327677,8.853187 7.8751033,8.3979019 7.6727442,8.5328036 6.3911415,10.185398 q 1.112971,0.06748 1.5176872,0.944338 z"/>
    <path style="fill:#ffffff" d="m 5.4299437,9.6794811 q 0.4215824,0 0.4215824,-0.455285 0,-0.4216087 -0.4215824,-0.4216087 -0.4553047,0 -0.4553047,0.4216087 0,0.455285 0.4553047,0.455285 z"/>
    <path style="fill:#ffffff" d="M 7.8751065,12.883491 H 9.2916142 L 9.7131967,9.3590847 8.9543534,9.0555395 Z"/>
    <path style="fill:#ffffff" d="m 13.406233,12.883491 h 1.079244 l -0.118044,-0.92748 Q 13.996444,10.809313 13.827814,9.1904478 13.507411,9.4602511 12.950928,9.6120564 Z"/>
    <path style="fill:#ffffff" d="m 9.7131941,12.883491 h 1.5176869 l -0.06745,-3.1702812 q -0.269811,0 -0.53962,-0.067418 -0.252946,-0.067484 -0.489034,-0.1518052 z"/>
    <path style="fill:#ffffff" d="m 11.652461,12.883491 h 1.332192 L 12.579935,9.7132098 12.22581,9.7471473 h -0.640799 z"/>
    <path style="fill:#ffffff" d="m 6.3236932,12.15837 0.2192235,-0.03394 -0.2192235,-0.236061 0.067451,-0.06742 0.320403,0.202386 0.1011795,-0.202386 q 0,-0.252964 -0.2698099,-0.455284 l 0.067451,-0.06748 q 0.4047182,0.134902 0.6576645,0.370964 0.1349081,0.252964 0.2698098,0.252964 0.2023591,0 0.2023591,-0.252964 l -0.033742,-0.06742 Q 7.6727175,11.264442 7.2848767,10.960897 6.9138872,10.640514 6.3574011,10.640514 q -0.3372608,0 -0.6407995,0.236061 -0.2866742,0.219223 -0.2866742,0.455286 0,0.590186 0.3372608,0.590186 l 0.1854946,-0.03394 q 0.1011796,0.269803 0.3709896,0.269803 z"/>
    <path style="fill:#ffffff" d="M 4.7048265,12.883491 H 5.0420938 V 11.095988 H 4.7048265 Z"/>
    <path style="fill:#ffffff" d="m 5.8177975,12.883491 h 1.6188662 l 0.1349081,-0.590187 q -0.1011795,0 -0.522762,-0.337287 0,0.691393 -0.7251166,0.691393 H 6.0876055 Z"/>
    <path style="fill:#ffffff" d="M 10.050458,13.40626 H 10.47204 V 13.052135 H 10.050458 Z"/>
    <path style="fill:#ffffff" d="M 12.849748,13.40626 H 13.27133 V 13.052135 H 12.849748 Z"/>
    <path style="fill:#ffffff" d="m 10.741849,13.40626 h 0.421582 v -0.354125 h -0.421582 z"/>
    <path style="fill:#ffffff" d="m 12.12463,13.40626 h 0.421583 v -0.35419 h -0.421576 z"/>
    <path style="fill:#ffffff" d="m 11.433239,13.40626 h 0.421583 v -0.354125 h -0.421583 z"/>
    <path style="fill:#ffffff" d="M 9.3590671,13.40626 H 9.7806496 V 13.05207 H 9.3590736 Z"/>
    <path style="fill:#ffffff" d="M 8.6676766,13.40626 H 9.0892591 V 13.052135 H 8.6676766 Z"/>
    <path style="fill:#ffffff" d="M 7.9931484,13.40626 H 8.3978667 V 13.052135 H 7.9931484 Z"/>
    <path style="fill:#ffffff" d="m 13.541138,13.40626 h 0.421583 v -0.354125 h -0.421583 z"/>
    <path style="fill:#ffffff" d="M 7.301758,13.40626 H 7.7064761 V 13.052135 H 7.301758 Z"/>
    <path style="fill:#ffffff" d="m 14.232529,13.40626 h 0.421583 v -0.354125 h -0.421583 z"/>
    <path style="fill:#ffffff" d="m 14.92392,13.40626 h 0.421576 V 13.052135 H 14.92392 Z"/>
    <path style="fill:#ffffff" d="M 4.4687419,13.40626 H 4.9071823 V 13.052135 H 4.4687419 Z"/>
    <path style="fill:#ffffff" d="M 6.5766408,13.40626 H 6.981359 V 13.052135 H 6.5766408 Z"/>
    <path style="fill:#ffffff" d="M 5.8852497,13.40626 H 6.2899678 V 13.052135 H 5.8852497 Z"/>
    <path style="fill:#ffffff" d="M 5.1938592,13.40626 H 5.5985774 V 13.052135 H 5.1938592 Z"/>
    <path style="fill:#ffffff" d="M 4.4350158,22.175118 H 6.12134 L 6.0875983,21.75351 Q 5.4973854,20.792308 5.4973854,20.269545 v -1.298462 l -0.033742,-0.843159 0.1011796,-0.06748 v -0.337287 q 0,-0.489027 -0.067451,-1.028653 -0.067451,-0.55651 -0.1686304,-1.112974 l -0.1349081,0.303545 -0.1011796,0.10116 q 0.2360812,0.252965 0.2360812,0.354125 0,0.06748 -0.320403,0.370963 0.2866743,0.286641 0.2866743,0.775708 l -0.286674,1.787499 q 0,0.269803 0.1854948,0.455285 0.1686304,0.168643 0.1686304,0.337286 0,0.236063 -0.26981,0.236063 l 0.033742,0.185481 -0.084315,0.404705 0.151766,0.455286 -0.1011795,0.404704 -0.1180439,0.286707 Q 4.7385355,21.584762 4.7385355,21.348655 l 0.1349083,-0.455286 -0.067451,-0.404705 0.033742,-0.185481 q -0.2698099,0 -0.2698099,-0.236062 0,-0.10116 0.1686303,-0.337287 0.1686304,-0.185482 0.1686304,-0.455285 l -0.26981,-1.787503 q 0,-0.489027 0.2698099,-0.775708 -0.3035386,-0.303544 -0.3035386,-0.370963 0,-0.168644 0.1180439,-0.252965 Q 4.8397347,15.98625 4.8734569,15.98625 4.5361895,15.581545 4.5361895,15.261136 L 4.7048199,13.574812 H 4.43501 Z"/>
    <path style="fill:#ffffff" d="M 7.2680313,16.762036 7.6052921,16.71113 H 8.262965 L 8.1955122,13.574851 H 6.8464573 Z"/>
    <path style="fill:#ffffff" d="m 14.789015,15.379251 h 0.33726 v -1.80436 h -0.33726 z"/>
    <path style="fill:#ffffff" d="m 12.782295,14.50237 q 0,-0.691392 0.725117,-0.691392 h 0.252945 l 0.269811,-0.236061 H 12.41131 l -0.151766,0.590186 q 0.219223,0 0.522762,0.337287 z"/>
    <path style="fill:#ffffff" d="M 9.7131941,16.964395 10.134777,13.574891 H 8.600229 l 0.067451,3.187145 z"/>
    <path style="fill:#ffffff" d="m 10.893617,17.402842 1.062381,-3.827945 h -1.416502 l -0.404719,3.524406 z"/>
    <path style="fill:#ffffff" d="M 6.0201605,17.267895 Q 6.3236991,16.998091 6.8801833,16.86319 L 6.4248774,13.574851 H 5.3624961 l 0.1011796,0.92748 q 0.202359,0.590187 0.354125,1.281599 0.1686304,0.691392 0.2023598,1.483965 z"/>
    <path style="fill:#ffffff" d="m 13.473691,15.817659 q 0.387854,0 0.657665,-0.219223 0.269809,-0.219224 0.269809,-0.47219 0,-0.590186 -0.337261,-0.590186 L 13.895275,14.57 q -0.10118,-0.269804 -0.387855,-0.269804 l -0.202359,0.03394 0.202359,0.236062 -0.06745,0.08432 -0.303539,-0.219224 -0.101178,0.219224 q 0,0.236062 0.269809,0.438446 l -0.06745,0.06748 q -0.252945,-0.10116 -0.404717,-0.185482 -0.151767,-0.08432 -0.219224,-0.219223 -0.134909,-0.219223 -0.303538,-0.219223 -0.185495,0 -0.185495,0.252965 v 0.06742 q 0.06745,0.337287 0.421582,0.657664 0.370989,0.303545 0.927476,0.303545 z"/>
    <path style="fill:#ffffff" d="m 11.956004,18.06046 0.202359,-0.134902 1.281602,-1.652595 q -1.028655,-0.03394 -1.517688,-0.927474 l -0.623935,2.276531 z"/>
    <path style="fill:#ffffff" d="m 12.512488,22.175079 h 2.900468 V 15.6153 h -0.623935 q -0.134908,0.236061 -0.455304,0.421608 l 0.151765,0.303546 q 0.826297,0.03394 0.826297,0.893751 0,0.387867 -0.26981,0.640766 -0.252946,0.252966 -0.6408,0.252966 -0.337261,0 -0.623934,-0.252966 -0.269811,-0.252964 -0.269811,-0.640766 0,-0.303546 0.219224,-0.573348 0.236087,-0.286708 0.472169,-0.320384 l -0.06745,-0.168644 q -0.826297,0.758843 -2.512616,3.558136 l 0.337261,0.269803 q 0,0.691393 0.691391,1.281606 -0.168631,0.236061 -0.168631,0.55651 z"/>
    <path style="fill:#ffffff" d="m 14.401164,17.655748 q 0.455306,0 0.455306,-0.421609 0,-0.438446 -0.455306,-0.438446 -0.404717,0 -0.404717,0.438446 0,0.421609 0.404717,0.421609 z"/>
    <path style="fill:#ffffff" d="m 10.809305,18.684401 0.455305,-0.438446 q -1.618866,-1.01179 -3.322048,-1.01179 -1.4502345,0 -1.9224042,0.623929 v 0.455286 q 0.6913912,-0.556511 1.8549514,-0.556511 1.0792442,0 2.9341948,0.92748 z"/>
    <path style="fill:#ffffff" d="M 9.2578934,22.175079 H 9.6457472 Q 10.472044,20.06718 12.225816,18.279683 l 0.08432,-0.151739 v -0.03394 l -0.185495,0.118064 q -1.06238,0.860022 -1.720044,1.720045 -0.6576652,0.860023 -1.146698,2.242801 z"/>
    <path style="fill:#ffffff" d="M 9.9492839,19.729919 10.539497,19.105991 Q 9.1567139,18.161639 7.8751118,18.161639 H 7.6053019 v 0.05091 q 1.2816027,0.10116 2.3439833,1.517686 z"/>
    <path style="fill:#ffffff" d="M 5.9864344,20.303267 H 6.087614 q 0.1349082,-0.99493 0.623935,-1.787496 -0.5227621,0.10116 -0.7251172,0.236062 z"/>
    <path style="fill:#000000" d="m 13.827818,21.652324 -0.320403,-0.505931 q -0.725117,-0.792571 -0.826296,-1.045517 -0.134908,-0.168643 -0.134908,-0.438447 0,-0.691392 0.590212,-0.691392 0.404719,0 0.623942,0.404705 v -0.10116 q 0,-0.590187 -0.185494,-0.758843 h 0.489033 q -0.16863,0.168643 -0.16863,0.758843 v 0.134902 q 0.269809,-0.438447 0.623935,-0.438447 0.573348,0 0.573348,0.691392 0,0.370964 -0.573348,1.062375 -0.590213,0.691393 -0.691391,0.92748 z"/>
    <path style="fill:#ffffff" d="m 6.4586034,22.175092 h 2.2090784 q 0.3878538,-1.315327 1.0455175,-2.175349 -1.0792442,-1.382786 -2.2090776,-1.450236 -0.3878539,0 -0.758844,0.775707 -0.3541251,0.775707 -0.3541251,1.56828 l 0.3541251,-0.06748 0.3372608,0.03394 -0.3372608,-0.657663 q 0,-0.337287 0.5902129,-0.438447 l 0.067451,0.202385 q -0.4215824,0.10116 -0.4215824,0.236062 0.4215824,0.826294 0.4215824,1.045517 0,0.590188 -0.623935,0.590188 L 6.4248813,21.719925 v 0.185481 z"/>
    <path style="fill:#000000" d="m 7.0825385,19.342078 q 0,-0.236061 0.3541252,-0.236061 l 0.202359,0.03394 0.1349017,0.03394 v 0.10116 l -0.3372607,-0.03394 -0.2192235,0.10116 z"/>
    <path style="fill:#000000" d="m 7.504121,19.662461 q -0.1349083,0 -0.1349083,-0.118063 l -0.1011794,0.06742 -0.1517661,-0.10116 -0.1011795,-0.03394 h -0.033742 v -0.10116 l 0.1011795,0.03394 H 7.183705 l 0.1854947,-0.06748 0.1686304,0.06748 0.2698099,-0.10116 0.2192235,0.10116 -0.033742,0.10116 -0.084315,-0.03394 h -0.067451 l -0.033742,-0.03394 z"/>
    <path d="m 17.824394,21.972714 q -0.202359,-0.455285 -0.522762,-0.725115 -0.37099,-0.286706 -0.37099,-0.691392 0,-0.455286 0.421582,-0.455286 0.303539,0 0.404719,0.354126 h 0.03374 v -0.151741 l -0.10118,-0.505929 h 0.26981 l -0.10118,0.505929 v 0.151741 h 0.03374 q 0.101179,-0.354126 0.421582,-0.354126 0.404719,0 0.404719,0.455286 0,0.337287 -0.337268,0.691392 -0.202359,0.134902 -0.354124,0.354126 -0.134909,0.202385 -0.202359,0.370962 z"/>
    <path style="fill:#000000" d="m 7.7064801,20.134637 v -0.06748 l -0.1011795,-0.202386 0.067451,-0.03394 q 0.2023591,0.202385 0.2023591,0.269804 h -0.067451 z"/>
    <path style="fill:#ffffff" d="m 10.269685,22.175079 h 0.505898 q 0.69139,-0.202385 0.69139,-1.062382 l -0.03374,-0.421608 q 0.320403,0.236061 0.522756,0.236061 -0.26981,-0.438447 -0.26981,-0.792565 L 11.466954,19.9322 q -0.994929,1.652588 -1.197287,2.242801 z"/>
    <path style="fill:#000000" d="m 7.6390273,20.758573 -0.033742,-0.06742 q 0,-0.269804 0.522762,-0.269804 l 0.1011796,0.03394 -0.1011796,0.06742 z"/>
    <path style="fill:#000000" d="M 7.8076577,21.382501 7.6390273,20.960893 q 0.3541251,-0.236063 0.5902129,-0.236063 0.3035386,0 0.5564841,0.236063 l 0.033742,0.06748 -0.2192234,0.185482 q -0.3035386,0.168644 -0.6070773,0.168644 z"/>
    <path style="fill:#ffffff" d="m 7.9088372,21.247599 h 0.1854947 l -0.033742,-0.10116 q 0,-0.118064 0.1349083,-0.118064 0.1349081,0 0.1349081,0.118064 v 0.03394 l 0.26981,-0.151739 q -0.1686304,-0.134902 -0.3709895,-0.134902 -0.4553046,0 -0.4553046,0.252965 z"/>
    <path style="fill:#ffffff" d="m 6.4248767,21.315017 h 0.1854947 l -0.033742,-0.10116 q 0,-0.10116 0.1349082,-0.10116 0.1349083,0 0.1349083,0.10116 v 0.03394 L 7.116256,21.112893 q -0.1686303,-0.15174 -0.3709894,-0.15174 l -0.3541251,0.118063 v 0.202386 z"/>
    <path style="fill:#ffffff" d="m 11.298339,22.17504 h 0.893749 l -0.03374,-0.303545 q 0,-0.354125 0.151766,-0.522769 l -0.185495,-0.202384 -0.16863,0.03394 -0.20236,-0.03394 v 0.202384 q 0,0.522769 -0.455304,0.826294 z"/>
    <path style="fill:#ffffff" d="m 6.7790038,21.584854 q 0.3709894,0 0.3709894,-0.337288 -0.3035385,0.202385 -0.7588438,0.202385 0,0.134903 0.3878544,0.134903 z"/>
    <path style="fill:#000000" d="m 7.8751111,21.804077 q -0.1349082,0 -0.1349082,-0.219223 l 0.8937489,-0.134903 0.1180439,0.06748 q 0,0.286642 -0.8768846,0.286642 z"/>
    <path d="m 17.723214,25.10926 q -0.556484,0 -0.876885,-0.354125 -0.303539,-0.370964 -0.303539,-0.893752 0,-0.539607 0.320403,-0.893744 l -0.320403,-0.269804 0.252945,-0.252965 0.337261,0.320383 q 0.134909,-0.06742 0.286674,-0.10116 0.168631,-0.03394 0.303539,-0.03394 0.556484,0 0.860023,0.354125 0.320403,0.337286 0.320403,0.87688 0,0.522769 -0.320403,0.893752 -0.303539,0.354125 -0.860023,0.354125 z"/>
    <path style="fill:#ffffff" d="m 17.723214,24.670813 q 0.657664,0 0.657664,-0.809436 0,-0.826295 -0.657664,-0.826295 l -0.202359,0.03394 0.202359,0.219223 -0.236087,0.269804 -0.286675,-0.236061 q -0.134908,0.168643 -0.134908,0.539606 0,0.809436 0.657664,0.809436 z"/>
</svg>