<svg xmlns="http://www.w3.org/2000/svg" width="74.952217" height="100" viewBox="0 0 19.831107 26.458333">
    <path d="m 1.1804262,26.458333 q -0.72511483,0 -0.96120269,-0.219224 Q 0,26.003047 0,25.277906 V 1.1804001 Q 0,0.45527874 0.21922351,0.23606175 0.45528526,0 1.1804262,0 H 18.650699 Q 19.375814,0 19.595038,0.23606175 19.8311,0.45528526 19.8311,1.1804001 V 25.277906 q 0,0.725115 -0.236062,0.961203 -0.219224,0.219224 -0.944339,0.219224 z"/>
    <path style="fill:#ffffff" d="M 1.3828115,25.969306 H 18.448366 q 0.590187,0 0.74198,-0.15174 0.151805,-0.15174 0.151805,-0.74198 V 1.3827985 q 0,-0.62392881 -0.151805,-0.75884362 -0.15174,-0.13490176 -0.74198,-0.13490176 H 1.3828115 q -0.60709052,0 -0.75884357,0.13490176 Q 0.48906618,0.75885663 0.48906618,1.3827985 V 25.075586 q 0,0.590187 0.13490175,0.74198 0.15174,0.15174 0.75884357,0.15174 z"/>
    <path d="m 2.7655904,3.8447914 q -0.7588436,0 -0.7588436,-1.2478771 0,-1.2141485 0.7588436,-1.2141485 0.7588436,0 0.7588436,1.2141485 0,1.2478771 -0.7588436,1.2478771 z"/>
    <path d="M 1.2816319,3.7604696 V 2.2427825 H 0.87692667 V 1.9054954 q 0.37096353,0 0.47218873,-0.489027 h 0.3878671 v 2.3439882 z"/>
    <path style="fill:#ffffff" d="m 2.7655904,3.4569244 q 0.2866417,0 0.2866417,-0.8600232 0,-0.7925723 -0.2866417,-0.7925723 -0.2698035,0 -0.2698035,0.7925723 0,0.8600232 0.2698035,0.8600232 z"/>
    <path d="M 13.574902,6.6609291 Q 13.827867,6.2899656 13.827867,5.5648246 V 5.2950211 q -0.354125,0.7588436 -1.011789,0.7588436 -0.404705,0 -0.691393,-0.2698035 -0.269803,-0.2866418 -0.269803,-0.7082505 0,-0.4047053 0.269803,-0.6745284 0.286707,-0.2866417 0.691393,-0.2866417 0.354125,0 0.590187,0.1349017 -0.489027,-0.489027 -0.489027,-0.9949249 0,-0.387867 0.286642,-0.6745283 0.303545,-0.3035453 0.691392,-0.3035453 0.370964,0 0.657664,0.3035453 0.303546,0.2866417 0.303546,0.6745283 0,0.5059305 -0.489027,0.9949249 0.252965,-0.1349017 0.590187,-0.1349017 0.421543,0 0.691386,0.2866417 0.286642,0.2698035 0.286642,0.6745284 0,0.4216087 -0.286642,0.7082505 -0.269804,0.2698035 -0.691386,0.2698035 -0.691393,0 -0.994932,-0.7588436 v 0.2698035 q 0,0.6239288 0.236062,1.0961045 z"/>
    <path d="M 5.666063,6.6609291 Q 5.9190282,6.2899656 5.9190282,5.5648246 V 5.2950211 Q 5.564903,6.0538647 4.907239,6.0538647 q -0.4047053,0 -0.6913927,-0.2698035 -0.2698036,-0.2866418 -0.2698036,-0.7082505 0,-0.4047053 0.2698036,-0.6745284 0.2866417,-0.2866417 0.6913927,-0.2866417 0.3541252,0 0.590187,0.1349017 -0.489027,-0.489027 -0.489027,-0.9949249 0,-0.387867 0.2866417,-0.6745283 0.3035453,-0.3035453 0.6913927,-0.3035453 0.3709635,0 0.657664,0.3035453 0.3035453,0.2866417 0.3035453,0.6745283 0,0.5059305 -0.489027,0.9949249 0.2529652,-0.1349017 0.590187,-0.1349017 0.4216088,0 0.6913862,0.2866417 0.2866417,0.2698035 0.2866417,0.6745284 0,0.4216087 -0.2866417,0.7082505 -0.2698036,0.2698035 -0.6913862,0.2698035 -0.6913927,0 -0.9949315,-0.7588436 v 0.2698035 q 0,0.6239288 0.2360618,1.0961045 z"/>
    <path d="m 2.0404755,6.7118355 0.10116,-0.5901871 v -0.10116 q -0.1349017,0.3035453 -0.4721888,0.3035453 -0.489027,0 -0.489027,-0.4552853 0,-0.438447 0.489027,-0.438447 l 0.1349018,0.033938 q -0.10116,-0.10116 -0.10116,-0.4552853 0,-0.5227688 0.4721888,-0.5227688 0.489027,0 0.489027,0.5227688 0,0.2529653 -0.2023853,0.4552853 l 0.2360618,-0.033938 q 0.489027,0 0.489027,0.438447 0,0.4552853 -0.489027,0.4552853 -0.3035453,0 -0.4721888,-0.3035453 v 0.10116 l 0.10116,0.5901871 z"/>
    <path d="M 9.6457757,9.7472098 Q 9.8818374,9.2581828 9.8818374,8.6342409 V 8.3644374 Q 9.5782922,9.123281 8.886906,9.123281 q -0.4216088,0 -0.7082505,-0.2698035 -0.2698036,-0.2866418 -0.2698036,-0.6913927 0,-0.4216088 0.2698036,-0.6913862 0.2866417,-0.2866417 0.7082505,-0.2866417 0.337287,0 0.590187,0.1349017 -0.489027,-0.4721888 -0.489027,-0.9949249 0,-0.387867 0.3035452,-0.6745283 0.3203836,-0.2866418 0.657664,-0.2866418 0.3878668,0 0.6745288,0.2866418 0.303545,0.286707 0.303545,0.6745283 0,0.5227688 -0.489027,0.9949249 0.236062,-0.1349017 0.590187,-0.1349017 0.404705,0 0.674528,0.2866417 0.286642,0.2698035 0.286642,0.6913862 0,0.4047053 -0.286642,0.6913927 -0.269803,0.2698035 -0.674528,0.2698035 -0.657664,0 -1.011796,-0.7588436 v 0.2698035 q 0,0.7251149 0.252965,1.1129689 z"/>
    <path d="m 5.666063,12.613954 q 0.2529652,-0.387867 0.2529652,-1.112976 v -0.269803 q -0.3541252,0.758843 -1.0117892,0.758843 -0.4047053,0 -0.6913927,-0.269803 -0.2698036,-0.286642 -0.2698036,-0.691393 0,-0.421543 0.2698036,-0.691386 0.2866417,-0.286642 0.6913927,-0.286642 0.3541252,0 0.590187,0.134902 -0.489027,-0.4721888 -0.489027,-0.994925 0,-0.387867 0.2866417,-0.6745283 0.3035453,-0.2866418 0.6913927,-0.2866418 0.3709635,0 0.657664,0.2866418 0.3035453,0.2866417 0.3035453,0.6745283 0,0.5227688 -0.489027,0.994925 0.2529652,-0.134902 0.590187,-0.134902 0.4216088,0 0.6913862,0.286642 0.2866417,0.269803 0.2866417,0.691386 0,0.404705 -0.2866417,0.691393 -0.2698036,0.269803 -0.6913862,0.269803 -0.6913927,0 -0.9949315,-0.758843 v 0.269803 q 0,0.623929 0.2360618,1.112976 z"/>
    <path d="m 13.574902,12.613954 q 0.252965,-0.387867 0.252965,-1.112976 v -0.269803 q -0.354125,0.758843 -1.011789,0.758843 -0.404705,0 -0.691393,-0.269803 -0.269803,-0.286642 -0.269803,-0.691393 0,-0.421543 0.269803,-0.691386 0.286707,-0.286642 0.691393,-0.286642 0.354125,0 0.590187,0.134902 -0.489027,-0.4721888 -0.489027,-0.994925 0,-0.387867 0.286642,-0.6745283 0.303545,-0.2866418 0.691392,-0.2866418 0.370964,0 0.657664,0.2866418 0.303546,0.2866417 0.303546,0.6745283 0,0.5227688 -0.489027,0.994925 0.252965,-0.134902 0.590187,-0.134902 0.421543,0 0.691386,0.286642 0.286642,0.269803 0.286642,0.691386 0,0.404705 -0.286642,0.691393 -0.269804,0.269803 -0.691386,0.269803 -0.691393,0 -0.994932,-0.758843 v 0.269803 q 0,0.623929 0.236062,1.112976 z"/>
    <path d="m 5.986466,18.246262 q -0.387867,0 -0.6913927,-0.286642 -0.2866417,-0.303545 -0.2866417,-0.691393 0,-0.50593 0.489027,-0.994931 -0.2360617,0.134902 -0.590187,0.134902 -0.4047053,0 -0.6913927,-0.269804 -0.2698035,-0.286642 -0.2698035,-0.691393 0,-0.421608 0.2698035,-0.691392 0.2866417,-0.286642 0.6913927,-0.286642 0.657664,0 1.0117893,0.758844 v -0.269804 q 0,-0.725115 -0.2529653,-1.112969 h 0.6239288 q -0.2360618,0.489027 -0.2360618,1.112969 v 0.269804 q 0.3035453,-0.758844 0.9949315,-0.758844 0.4216087,0 0.6913861,0.286642 0.2866418,0.269803 0.2866418,0.691392 0,0.404706 -0.2866418,0.691393 -0.2698035,0.269804 -0.6913861,0.269804 -0.3372871,0 -0.5901871,-0.134902 0.4890271,0.489027 0.4890271,0.994931 0,0.387867 -0.3035453,0.691393 -0.2866418,0.286642 -0.657664,0.286642 z"/>
    <path d="m 13.895305,18.246262 q -0.387867,0 -0.691393,-0.286642 -0.286642,-0.303545 -0.286642,-0.691393 0,-0.50593 0.489028,-0.994931 -0.236062,0.134902 -0.590188,0.134902 -0.404705,0 -0.691392,-0.269804 -0.269804,-0.286642 -0.269804,-0.691393 0,-0.421608 0.269804,-0.691392 0.286707,-0.286642 0.691392,-0.286642 0.657664,0 1.01179,0.758844 v -0.269804 q 0,-0.725115 -0.252966,-1.112969 h 0.623929 q -0.236061,0.489027 -0.236061,1.112969 v 0.269804 q 0.303545,-0.758844 0.994931,-0.758844 0.421543,0 0.691386,0.286642 0.286642,0.269803 0.286642,0.691392 0,0.404706 -0.286642,0.691393 -0.269803,0.269804 -0.691386,0.269804 -0.337287,0 -0.590187,-0.134902 0.489027,0.489027 0.489027,0.994931 0,0.387867 -0.303545,0.691393 -0.286642,0.286642 -0.657664,0.286642 z"/>
    <path d="m 9.9493144,21.113006 q -0.337287,0 -0.657664,-0.286642 -0.3035453,-0.303545 -0.3035453,-0.691393 0,-0.522769 0.4890271,-0.994931 -0.2529653,0.134902 -0.5901871,0.134902 -0.4216087,0 -0.7082505,-0.269804 -0.2698035,-0.286642 -0.2698035,-0.691393 0,-0.421608 0.2698035,-0.691392 0.2866418,-0.286642 0.7082505,-0.286642 0.6913927,0 0.9949315,0.758843 v -0.269803 q 0,-0.623929 -0.2360618,-1.112969 h 0.6239292 q -0.252966,0.387867 -0.252966,1.112969 v 0.269803 q 0.354126,-0.758843 1.011796,-0.758843 0.404705,0 0.674528,0.286642 0.286642,0.269803 0.286642,0.691392 0,0.404706 -0.286642,0.691393 -0.269803,0.269804 -0.674528,0.269804 -0.354125,0 -0.590187,-0.134902 0.489027,0.472189 0.489027,0.994931 0,0.387867 -0.303545,0.691393 -0.286707,0.286642 -0.6745285,0.286642 z"/>
    <path d="m 17.655794,21.973029 q -0.489027,0 -0.489027,-0.522769 0,-0.269803 0.219224,-0.421543 h -0.252966 q -0.472188,0 -0.472188,-0.438447 0,-0.455286 0.472188,-0.455286 0.387867,0 0.489027,0.320384 v -0.10116 l -0.10116,-0.590187 h 0.269804 l -0.10116,0.590187 v 0.10116 q 0.10116,-0.320384 0.489027,-0.320384 0.472189,0 0.472189,0.455286 0,0.438447 -0.472189,0.438447 h -0.252965 q 0.219223,0.219223 0.219223,0.421543 0,0.522769 -0.489027,0.522769 z"/>
    <path d="m 5.986466,24.182102 q -0.387867,0 -0.6913927,-0.286642 -0.2866417,-0.303545 -0.2866417,-0.691386 0,-0.50593 0.489027,-0.994931 -0.1349017,0.03394 -0.2698035,0.08432 -0.1349018,0.05091 -0.3203835,0.05091 -0.4047053,0 -0.6913927,-0.269804 -0.2698035,-0.269803 -0.2698035,-0.691392 0,-0.421609 0.2698035,-0.691393 0.2866417,-0.269804 0.6913927,-0.269804 0.6239288,0 1.0117893,0.758844 V 20.89418 q 0,-0.725115 -0.2529653,-1.096111 H 6.2900244 Q 6.0539626,20.270258 6.0539626,20.89418 v 0.286642 q 0.3035453,-0.758844 0.9949315,-0.758844 0.4216087,0 0.6913861,0.269804 0.2866418,0.269803 0.2866418,0.691393 0,0.421608 -0.2866418,0.691392 -0.2698035,0.269804 -0.6913861,0.269804 -0.1349018,0 -0.2866418,-0.05091 -0.15174,-0.05091 -0.3035453,-0.08432 0.4890271,0.489027 0.4890271,0.994931 0,0.387867 -0.3035453,0.691386 Q 6.357547,24.1821 5.9865248,24.1821 Z"/>
    <path d="m 13.895305,24.182102 q -0.387867,0 -0.691393,-0.286642 -0.286642,-0.303545 -0.286642,-0.691386 0,-0.50593 0.489028,-0.994931 -0.134902,0.03394 -0.286642,0.08432 -0.134902,0.05091 -0.303546,0.05091 -0.404705,0 -0.691392,-0.269804 -0.269804,-0.269803 -0.269804,-0.691392 0,-0.421609 0.269804,-0.691393 0.286707,-0.269804 0.691392,-0.269804 0.623929,0 1.01179,0.758844 V 20.89418 q 0,-0.725115 -0.252966,-1.096111 h 0.623929 q -0.236061,0.472189 -0.236061,1.096111 v 0.286642 q 0.303545,-0.758844 0.994931,-0.758844 0.421543,0 0.691386,0.269804 0.286642,0.269803 0.286642,0.691393 0,0.421608 -0.286642,0.691392 -0.269803,0.269804 -0.691386,0.269804 -0.134902,0 -0.286642,-0.05091 -0.151805,-0.05091 -0.303545,-0.08432 0.489027,0.489027 0.489027,0.994931 0,0.387867 -0.303545,0.691386 -0.286642,0.286642 -0.657664,0.286642 z"/>
    <path d="m 17.065581,25.075854 q -0.758844,0 -0.758844,-1.214148 0,-1.231013 0.758844,-1.231013 0.75885,0 0.75885,1.231013 0,1.214148 -0.75885,1.214148 z"/>
    <path d="m 18.111099,25.041916 v -2.343981 h 0.438447 v 1.517687 h 0.421544 v 0.337287 q -0.421544,0 -0.489028,0.489027 z"/>
    <path style="fill:#ffffff" d="m 17.065581,24.670953 q 0.286642,0 0.286642,-0.80943 0,-0.860023 -0.286642,-0.860023 -0.269803,0 -0.269803,0.860023 0,0.80943 0.269803,0.80943 z"/>
</svg>