<svg xmlns="http://www.w3.org/2000/svg" width="74.952217" height="100" viewBox="0 0 19.831107 26.458333">
    <path d="m 1.1804245,26.458333 q -0.72511683,0 -0.96120119,-0.219224 Q 0,26.003048 0,25.277908 V 1.1804251 Q 0.08431516,0.42157572 0.2866741,0.21922331 0.4890331,0 1.1804225,0 H 18.650678 q 0.725116,0 0.944338,0.23606152 0.236088,0.21922331 0.236088,0.94434408 V 25.277889 q 0,0.725113 -0.236089,0.961201 -0.219225,0.219224 -0.944339,0.219224 z"/>
    <path style="fill:#ffffff" d="M 1.3827834,25.969306 H 18.448322 q 0.590213,0 0.74198,-0.151803 0.151765,-0.151739 0.151765,-0.741979 V 1.3827514 q 0,-0.6239281 -0.151765,-0.75884278 -0.151766,-0.13490163 -0.74198,-0.13490163 H 1.1804251 q -0.45530457,0 -0.57334822,0.15173984 Q 0.4890331,0.79255193 0.4890331,1.3827253 V 25.075497 q 0,0.590187 0.13490809,0.741978 0.151766,0.151804 0.75884291,0.151804 z"/>
    <path d="m 1.2141511,3.7604921 q 0,-0.5058647 0.6239347,-0.9611953 0.6239347,-0.4890265 0.6239347,-0.6576699 0,-0.3709632 -0.354125,-0.3709632 -0.3709893,0 -0.3709893,0.5396063 H 1.2816016 V 2.20911 q 0,-0.8600224 0.8262956,-0.8600224 0.8431593,0 0.8431593,0.7588429 0,0.2866413 -0.1517658,0.455285 Q 2.6643826,2.7318586 2.175356,3.035404 L 1.8380887,3.3557874 h 1.1129704 v 0.4047047 z"/>
    <path d="M 9.6120149,6.6609619 Q 9.8481039,6.2899988 9.8481039,5.5648584 V 5.2950552 Q 9.5445638,6.053898 8.8531755,6.053898 q -0.4215833,0 -0.708254,-0.2698031 -0.2698122,-0.2866413 -0.2698122,-0.7082498 0,-0.4047047 0.2698122,-0.6745278 0.2866772,-0.2866412 0.708254,-0.2866412 0.3372588,0 0.5902127,0.1349015 -0.4890299,-0.4890265 -0.4890299,-0.9949239 0,-0.3878666 0.3035421,-0.6745277 0.3204004,-0.3035447 0.6576638,-0.3035447 0.3878538,0 0.6745278,0.3035447 0.303536,0.2866413 0.303536,0.6745277 0,0.5058647 -0.48903,0.9949239 0.236082,-0.1349015 0.590213,-0.1349015 0.404718,0 0.674527,0.2866412 0.286677,0.2698032 0.286677,0.6745278 0,0.4216081 -0.286677,0.7082498 -0.269812,0.2698031 -0.674527,0.2698031 -0.657664,0 -1.0117911,-0.7588428 v 0.2698031 q 0,0.7251142 0.2529471,1.0961036 z"/>
    <path d="M 2.0404468,6.7118679 2.1416264,6.1216813 v -0.10116 q -0.1349081,0.3035453 -0.4721689,0.3035453 -0.4890331,0 -0.4890331,-0.455285 0,-0.4384469 0.4890331,-0.4384469 l 0.1349081,0.033939 Q 1.703186,5.3631133 1.703186,5.0089883 q 0,-0.5227681 0.4721689,-0.5227681 0.4890331,0 0.4890331,0.5227681 0,0.252965 -0.2023592,0.4552851 l 0.2360876,-0.033939 q 0.4890331,0 0.4890331,0.4384469 0,0.455285 -0.4890331,0.455285 -0.3035381,0 -0.4721688,-0.3035453 v 0.10116 l 0.1011796,0.5901866 z"/>
    <path d="m 17.655752,21.97304 q -0.48903,0 -0.48903,-0.522766 0,-0.269806 0.219225,-0.421609 h -0.252948 q -0.472171,0 -0.472171,-0.438448 0,-0.455287 0.472171,-0.455287 0.387854,0 0.48903,0.32038 v -0.101156 l -0.101183,-0.590187 h 0.269812 l -0.101182,0.590187 v 0.101156 q 0.101182,-0.32038 0.489029,-0.32038 0.472172,0 0.472172,0.455287 0,0.438448 -0.472172,0.438448 h -0.252947 q 0.219224,0.219224 0.219224,0.421609 0,0.522766 -0.48903,0.522766 z"/>
    <path d="m 9.9155518,24.182118 q -0.3372588,0 -0.6576638,-0.28671 -0.3035421,-0.303542 -0.3035421,-0.691385 0,-0.505862 0.4890364,-0.99493 -0.1517645,0.03394 -0.2866772,0.08432 -0.1349061,0.05091 -0.3035355,0.05091 -0.4215833,0 -0.7082539,-0.269806 -0.2698123,-0.269805 -0.2698123,-0.691385 0,-0.42161 0.2698123,-0.691393 0.2866771,-0.269805 0.7082539,-0.269805 0.6913897,0 0.9949272,0.758842 v -0.286703 q 0,-0.725121 -0.236089,-1.09611 H 10.23595 q -0.2529471,0.370963 -0.2529471,1.09611 v 0.286703 q 0.3878531,-0.758842 1.0117911,-0.758842 0.404718,0 0.674527,0.269805 0.286677,0.269806 0.286677,0.691393 0,0.421609 -0.286677,0.691385 -0.269812,0.269806 -0.674527,0.269806 -0.134906,0 -0.303536,-0.05091 -0.151764,-0.05091 -0.286677,-0.08432 0.48903,0.48903 0.48903,0.99493 0,0.387867 -0.303536,0.691385 -0.286677,0.28671 -0.6745232,0.28671 z"/>
    <path d="m 17.723205,25.109597 q -0.826296,0 -0.826296,-0.758842 0,-0.455287 0.792569,-0.961202 l 0.303536,-0.286971 h -1.096105 v -0.404705 h 1.720045 q 0,0.505862 -0.623936,0.927472 -0.607078,0.455287 -0.607078,0.691393 0,0.387866 0.337265,0.387866 0.387854,0 0.387854,-0.556509 h 0.438442 v 0.101163 q 0,0.860023 -0.826296,0.860023 z"/>
</svg>