<svg xmlns="http://www.w3.org/2000/svg" width="74.952217" height="100" viewBox="0 0 19.831107 26.458333">
    <path d="m 1.1804253,26.458333 q -0.72511731,0 -0.96120184,-0.219224 Q 0,26.003048 0,25.277907 V 1.1803999 Q 0,0.45528515 0.21922346,0.2360617 0.45531126,0 1.1804253,0 H 18.650691 q 0.725121,0 0.944338,0.2360617 0.236062,0.21922345 0.236062,0.9443382 V 25.277907 q 0,0.725114 -0.236062,0.961202 -0.219223,0.219224 -0.944338,0.219224 z"/>
    <path style="fill:#ffffff" d="M 1.3827844,25.969306 H 18.448332 q 0.590187,0 0.741985,-0.15174 0.15174,-0.15174 0.15174,-0.741979 V 1.3827981 q 0,-0.6239286 -0.15174,-0.75884337 Q 19.038512,0.489053 18.448332,0.489053 H 1.3827838 q -0.60707736,0 -0.75884343,0.13490173 Q 0.48903212,0.75885645 0.48903212,1.3827981 V 25.075587 q 0,0.590187 0.13490825,0.741979 0.15176607,0.15174 0.75884403,0.15174 z"/>
    <path d="m 2.1416285,3.844797 q -0.8937497,0 -0.8937497,-0.8768808 h 0.4890334 q 0,0.4890269 0.3709895,0.4890269 0.4215826,0 0.4215826,-0.3709634 0,-0.3541252 -0.5564843,-0.3541252 V 2.3945676 h 0.1011796 q 0.3878538,0 0.3878538,-0.2866417 0,-0.3035452 -0.320403,-0.3035452 -0.3709895,0 -0.3709895,0.4047051 H 1.3153362 Q 1.382787,1.3827851 2.141633,1.3827851 q 0.2866743,0 0.5227621,0.1854817 0.2360879,0.1686434 0.2360879,0.4721886 0,0.3035452 -0.3035387,0.4890269 0.4215826,0.10116 0.4215826,0.5565104 0,0.7588434 -0.876886,0.7588434 z"/>
    <path d="M 9.6120224,6.6609536 Q 9.8481037,6.2899902 9.8481037,5.5648429 V 5.2950394 Q 9.544565,6.0538828 8.8531758,6.0538828 q -0.4215826,0 -0.7082543,-0.2698034 -0.26981,-0.2866417 -0.26981,-0.7082569 0,-0.4047052 0.26981,-0.6745217 0.2866743,-0.2866417 0.7082543,-0.2866417 0.3372608,0 0.5902129,0.1349018 Q 8.9543553,3.760534 8.9543553,3.2546362 q 0,-0.3878669 0.3035387,-0.6745282 0.320403,-0.3035452 0.6576645,-0.3035452 0.3878535,0 0.6745285,0.3035452 0.303538,0.2866417 0.303538,0.6745282 0,0.5058651 -0.489033,0.9949247 0.236081,-0.1349018 0.590213,-0.1349018 0.404718,0 0.674527,0.2866417 0.286675,0.2698035 0.286675,0.6745217 0,0.4216087 -0.286675,0.7082569 -0.26981,0.2698034 -0.674527,0.2698034 -0.657665,0 -1.0117918,-0.7588434 v 0.2698035 q 0,0.7251212 0.2529458,1.0961107 z"/>
    <path d="M 2.0404489,6.7118599 2.1416285,6.121673 V 6.0205131 q -0.1349083,0.3035452 -0.4721691,0.3035452 -0.4890334,0 -0.4890334,-0.4552852 0,-0.4384469 0.4890334,-0.4384469 l 0.1349082,0.033938 Q 1.7031881,5.3631038 1.7031881,5.0089786 q 0,-0.5227687 0.4721691,-0.5227687 0.4890334,0 0.4890334,0.5227687 0,0.2529652 -0.2023591,0.4552851 l 0.2360878,-0.033938 q 0.4890334,0 0.4890334,0.4384469 0,0.4552852 -0.4890334,0.4552852 -0.3035387,0 -0.4721691,-0.3035452 V 6.121673 l 0.1011796,0.5901869 z"/>
    <path d="m 9.6120224,15.37954 q 0.2360813,-0.387867 0.2360813,-1.112968 v -0.269804 q -0.3035387,0.758844 -0.9949279,0.758844 -0.4215826,0 -0.7082543,-0.269804 -0.26981,-0.286707 -0.26981,-0.708257 0,-0.404705 0.26981,-0.674528 0.2866743,-0.286642 0.7082543,-0.286642 0.3372608,0 0.5902129,0.134902 -0.4890334,-0.472188 -0.4890334,-0.994931 0,-0.387867 0.3035387,-0.674528 0.320403,-0.303545 0.6576645,-0.303545 0.3878535,0 0.6745285,0.303545 0.303538,0.286707 0.303538,0.674528 0,0.522769 -0.489033,0.994931 0.236081,-0.134902 0.590213,-0.134902 0.404718,0 0.674527,0.286642 0.286675,0.269804 0.286675,0.674528 0,0.421609 -0.286675,0.708257 -0.26981,0.269804 -0.674527,0.269804 -0.657665,0 -1.0117918,-0.758844 v 0.269804 q 0,0.725114 0.2529458,1.112968 z"/>
    <path d="m 17.655766,21.97305 q -0.489027,0 -0.489027,-0.522769 0,-0.269804 0.219224,-0.421609 h -0.252965 q -0.472189,0 -0.472189,-0.438447 0,-0.455285 0.472189,-0.455285 0.387867,0 0.489027,0.320384 v -0.10116 l -0.10116,-0.590187 h 0.269803 l -0.10116,0.590187 v 0.10116 q 0.10116,-0.320384 0.489027,-0.320384 0.472189,0 0.472189,0.455285 0,0.438447 -0.472189,0.438447 H 17.92557 q 0.219223,0.219224 0.219223,0.421609 0,0.522769 -0.489027,0.522769 z"/>
    <path d="m 9.9155598,24.182129 q -0.3372609,0 -0.6576645,-0.286707 -0.3035387,-0.303545 -0.3035387,-0.691393 0,-0.505865 0.4890334,-0.994924 -0.151766,0.03394 -0.2866743,0.08432 -0.1349082,0.05091 -0.3035386,0.05091 -0.4215826,0 -0.7082543,-0.269804 -0.26981,-0.269803 -0.26981,-0.691392 0,-0.421609 0.26981,-0.691386 0.2866743,-0.269804 0.7082543,-0.269804 0.6913905,0 0.9949279,0.758844 v -0.286707 q 0,-0.725121 -0.2360813,-1.096111 h 0.6239353 q -0.2529458,0.370963 -0.2529458,1.096111 v 0.286707 q 0.3878538,-0.758844 1.0117918,-0.758844 0.404718,0 0.674527,0.269804 0.286675,0.269803 0.286675,0.691386 0,0.421608 -0.286675,0.691392 -0.26981,0.269804 -0.674527,0.269804 -0.134908,0 -0.303539,-0.05091 -0.151766,-0.05091 -0.286674,-0.08432 0.489033,0.489027 0.489033,0.994924 0,0.387867 -0.303538,0.691393 -0.286675,0.286707 -0.6745272,0.286707 z"/>
    <path d="m 17.689488,25.075881 q -0.236061,0 -0.505865,-0.168644 -0.252965,-0.168643 -0.252965,-0.489027 0,-0.337287 0.303545,-0.489027 -0.404705,-0.10116 -0.404705,-0.539607 0,-0.758843 0.860023,-0.758843 0.893752,0 0.893752,0.860023 h -0.472189 q 0,-0.489027 -0.387867,-0.489027 -0.421608,0 -0.421608,0.387867 0,0.337287 0.55651,0.337287 v 0.354125 h -0.10116 q -0.370963,0 -0.370963,0.269803 0,0.320384 0.303545,0.320384 0.387867,0 0.387867,-0.421609 h 0.438447 q -0.10116,0.826301 -0.826301,0.826301 z"/>
</svg>