<svg xmlns="http://www.w3.org/2000/svg" width="74.952217" height="100" viewBox="0 0 19.831107 26.458333">
    <path d="m 1.1804262,26.458333 q -0.72512136,0 -0.96120269,-0.219224 Q 0,26.003047 0,25.277906 V 1.1804001 Q 0,0.45527874 0.21922351,0.23606175 0.45528526,0 1.1804262,0 H 18.650693 Q 19.375814,0 19.595038,0.23606175 19.8311,0.45528526 19.8311,1.1804001 V 25.277906 q 0,0.725115 -0.236062,0.961203 -0.219224,0.219224 -0.944345,0.219224 z"/>
    <path style="fill:#ffffff" d="M 1.3828115,25.969306 H 18.448366 q 0.590187,0 0.74198,-0.15174 0.15174,-0.15174 0.15174,-0.74198 V 1.3827985 q 0,-0.62392881 -0.15174,-0.75885015 Q 19.03854,0.4890466 18.448366,0.4890466 H 1.3828115 q -0.60709052,0 -0.75885009,0.13490175 Q 0.48905965,0.75885011 0.48905965,1.3827985 V 25.075586 q 0,0.590187 0.13490176,0.74198 0.15173999,0.15174 0.75885009,0.15174 z"/>
    <path d="M 2.0067403,3.7604761 V 3.2208691 H 1.0455375 V 2.7992604 L 2.040469,1.4164749 H 2.4620778 V 2.8329825 H 2.765623 v 0.387867 H 2.4620778 v 0.5396071 z"/>
    <path style="fill:#ffffff" d="M 1.3828115,2.8329956 H 2.0067403 V 2.0066946 Z"/>
    <path d="M 13.574902,6.6609422 Q 13.827867,6.2899787 13.827867,5.5648377 V 5.2950342 q -0.354125,0.7588436 -1.011789,0.7588436 -0.404705,0 -0.691393,-0.2698035 -0.269803,-0.2867071 -0.269803,-0.7082506 0,-0.4047052 0.269803,-0.6745283 0.286642,-0.286707 0.691393,-0.286707 0.354125,0 0.590187,0.1349017 -0.489027,-0.489027 -0.489027,-0.9949249 0,-0.387867 0.286642,-0.6745284 0.303545,-0.3035452 0.691386,-0.3035452 0.370963,0 0.657664,0.3035452 0.303545,0.2867071 0.303545,0.6745284 0,0.5058653 -0.489027,0.9949249 0.252965,-0.1349017 0.590187,-0.1349017 0.421609,0 0.691393,0.286707 0.286642,0.2698035 0.286642,0.6745283 0,0.4216088 -0.286642,0.7082506 -0.269804,0.2698035 -0.691393,0.2698035 -0.691393,0 -0.994925,-0.7588436 v 0.2698035 q 0,0.6239288 0.236062,1.0961045 z"/>
    <path d="M 5.666063,6.6609422 Q 5.9190282,6.2899787 5.9190282,5.5648377 V 5.2950342 Q 5.564903,6.0538778 4.907239,6.0538778 q -0.4047053,0 -0.6913927,-0.2698035 -0.2698036,-0.2867071 -0.2698036,-0.7082506 0,-0.4047052 0.2698036,-0.6745283 0.2866417,-0.286707 0.6913927,-0.286707 0.3541252,0 0.590187,0.1349017 -0.489027,-0.489027 -0.489027,-0.9949249 0,-0.387867 0.2866417,-0.6745284 0.3035453,-0.3035452 0.6913927,-0.3035452 0.3709635,0 0.657664,0.3035452 0.3035453,0.2867071 0.3035453,0.6745284 0,0.5058653 -0.489027,0.9949249 0.2529652,-0.1349017 0.590187,-0.1349017 0.4216088,0 0.6913927,0.286707 0.2866417,0.2698035 0.2866417,0.6745283 0,0.4216088 -0.2866417,0.7082506 -0.2698035,0.2698035 -0.6913927,0.2698035 -0.6913927,0 -0.9949249,-0.7588436 v 0.2698035 q 0,0.6239288 0.2360617,1.0961045 z"/>
    <path d="m 2.0404755,6.7118485 0.10116,-0.590187 v -0.10116 q -0.1349017,0.3035453 -0.4721888,0.3035453 -0.489027,0 -0.489027,-0.4552853 0,-0.438447 0.489027,-0.438447 l 0.1349018,0.033938 q -0.10116,-0.10116 -0.10116,-0.4552852 0,-0.5227688 0.4721888,-0.5227688 0.489027,0 0.489027,0.5227688 0,0.2529652 -0.2023853,0.4552852 l 0.2360618,-0.033938 q 0.489027,0 0.489027,0.438447 0,0.4552853 -0.489027,0.4552853 -0.3035453,0 -0.4721888,-0.3035453 v 0.10116 l 0.10116,0.590187 z"/>
    <path d="m 17.655794,21.973042 q -0.489027,0 -0.489027,-0.522769 0,-0.269803 0.219224,-0.421609 h -0.252966 q -0.472188,0 -0.472188,-0.438447 0,-0.455285 0.472188,-0.455285 0.387867,0 0.489027,0.320384 v -0.10116 l -0.10116,-0.590187 h 0.269804 l -0.10116,0.590187 v 0.10116 q 0.10116,-0.320384 0.489027,-0.320384 0.472189,0 0.472189,0.455285 0,0.438447 -0.472189,0.438447 h -0.252965 q 0.219223,0.219224 0.219223,0.421609 0,0.522769 -0.489027,0.522769 z"/>
    <path d="m 13.895298,24.182115 q -0.387867,0 -0.691386,-0.286642 -0.286642,-0.303545 -0.286642,-0.691386 0,-0.50593 0.489028,-0.994931 -0.134902,0.03394 -0.286642,0.08432 -0.134902,0.05091 -0.303546,0.05091 -0.404705,0 -0.691392,-0.269804 -0.269804,-0.269803 -0.269804,-0.691392 0,-0.421609 0.269804,-0.691393 0.286642,-0.269804 0.691392,-0.269804 0.623929,0 1.01179,0.758844 v -0.286642 q 0,-0.725115 -0.252966,-1.096111 h 0.623929 q -0.236061,0.472189 -0.236061,1.096111 v 0.286642 q 0.303545,-0.758844 0.994924,-0.758844 0.421609,0 0.691393,0.269804 0.286642,0.269804 0.286642,0.691393 0,0.421608 -0.286642,0.691392 -0.269803,0.269804 -0.691393,0.269804 -0.134901,0 -0.286641,-0.05091 -0.15174,-0.05091 -0.303546,-0.08432 0.489027,0.489027 0.489027,0.994931 0,0.387867 -0.303545,0.691386 -0.286642,0.286642 -0.657664,0.286642 z"/>
    <path d="m 5.9864595,24.182115 q -0.387867,0 -0.6913927,-0.286642 -0.2866417,-0.303545 -0.2866417,-0.691386 0,-0.50593 0.489027,-0.994931 -0.1349018,0.03394 -0.2698035,0.08432 -0.1349018,0.05091 -0.3203835,0.05091 -0.4047053,0 -0.6913927,-0.269804 -0.2698035,-0.269803 -0.2698035,-0.691392 0,-0.421609 0.2698035,-0.691393 0.2866417,-0.269804 0.6913927,-0.269804 0.6239287,0 1.0117892,0.758844 v -0.286642 q 0,-0.725115 -0.2529652,-1.096111 h 0.6239287 q -0.2360617,0.472189 -0.2360617,1.096111 v 0.286642 q 0.3035452,-0.758844 0.9949249,-0.758844 0.4216088,0 0.6913927,0.269804 0.2866418,0.269804 0.2866418,0.691393 0,0.421608 -0.2866418,0.691392 -0.2698035,0.269804 -0.6913927,0.269804 -0.1349018,0 -0.2866418,-0.05091 -0.15174,-0.05091 -0.3035452,-0.08432 0.489027,0.489027 0.489027,0.994931 0,0.387867 -0.3035453,0.691386 -0.2866417,0.286642 -0.657664,0.286642 z"/>
    <path d="m 17.385984,25.042138 v -1.416507 h -0.320383 v -0.370964 h 0.320383 v -0.55651 h 0.438447 v 0.55651 h 0.978067 v 0.404706 l -1.011796,1.382778 z"/>
    <path style="fill:#ffffff" d="M 17.824431,24.451951 18.44836,23.62565 h -0.623929 z"/>
</svg>