<svg xmlns="http://www.w3.org/2000/svg" width="74.952217" height="100" viewBox="0 0 19.831107 26.458333">
    <path d="m 1.1804256,26.458333 q -0.72511749,0 -0.96120209,-0.219224 Q 0,26.003047 0,25.277906 V 1.1804001 Q 0,0.45528526 0.21922351,0.23606175 0.45531137,0 1.1804256,0 H 18.650696 q 0.725121,0 0.944338,0.23606175 0.236062,0.21922351 0.236062,0.94433835 V 25.277906 q 0,0.725122 -0.236062,0.961203 -0.219224,0.219224 -0.944338,0.219224 z"/>
    <path style="fill:#ffffff" d="M 1.3827848,25.969306 H 18.448336 q 0.590187,0 0.741986,-0.15174 0.15174,-0.15174 0.15174,-0.74198 V 1.3827919 q 0,-0.62392874 -0.15174,-0.75884355 Q 19.038517,0.4890466 18.448336,0.4890466 H 1.3827841 q -0.60707747,0 -0.75884358,0.13490175 Q 0.48903224,0.75885011 0.48903224,1.3827919 V 25.075586 q 0,0.590187 0.13490828,0.74198 0.15176611,0.15174 0.75884428,0.15174 z"/>
    <path d="m 2.0404494,3.8447914 q -0.8600232,0 -0.8600232,-0.7251149 h 0.4890336 q 0,0.337287 0.3709896,0.337287 0.387854,0 0.387854,-0.4552852 0,-0.4384471 -0.387854,-0.4384471 -0.2023592,0 -0.3709896,0.2023853 H 1.2478771 L 1.5008228,1.4502885 H 2.7992891 V 1.8718973 H 1.8380863 L 1.7369068,2.394666 q 0.2360878,-0.1854817 0.4384404,-0.1854817 0.7251175,0 0.7251175,0.7925723 0,0.8431588 -0.8600231,0.8431588 z"/>
    <path d="m 13.574876,6.6609487 q 0.252946,-0.3710288 0.252946,-1.096111 V 5.2950342 q -0.354125,0.7588436 -1.011792,0.7588436 -0.404718,0 -0.691391,-0.2698035 -0.26981,-0.2866418 -0.26981,-0.7082571 0,-0.4047053 0.26981,-0.6745283 0.286675,-0.2866418 0.691391,-0.2866418 0.354125,0 0.590213,0.1349018 -0.489033,-0.4890271 -0.489033,-0.9949315 0,-0.387867 0.286674,-0.6745283 0.303539,-0.3035453 0.691391,-0.3035453 0.37099,0 0.657665,0.3035453 0.303538,0.2866417 0.303538,0.6745283 0,0.5059305 -0.489033,0.9949315 0.252945,-0.1349018 0.590213,-0.1349018 0.421583,0 0.691392,0.2866418 0.286642,0.2698035 0.286642,0.6745283 0,0.4216088 -0.286642,0.7082571 -0.269804,0.2698035 -0.691392,0.2698035 -0.691392,0 -0.994929,-0.7588436 v 0.2698035 q 0,0.6239288 0.236088,1.096111 z"/>
    <path d="M 5.6660369,6.6609487 Q 5.9189825,6.2899199 5.9189825,5.5648377 V 5.2950342 q -0.3541252,0.7588436 -1.0117912,0.7588436 -0.4047183,0 -0.6913914,-0.2698035 -0.26981,-0.2866418 -0.26981,-0.7082571 0,-0.4047053 0.26981,-0.6745283 0.2866744,-0.2866418 0.6913914,-0.2866418 0.3541253,0 0.5902131,0.1349018 -0.4890335,-0.4890271 -0.4890335,-0.9949315 0,-0.387867 0.2866744,-0.6745283 0.3035387,-0.3035453 0.6913907,-0.3035453 0.3709896,0 0.6576647,0.3035453 0.3035387,0.2866417 0.3035387,0.6745283 0,0.5059305 -0.4890335,0.9949315 0.2529457,-0.1349018 0.5902131,-0.1349018 0.4215827,0 0.6913907,0.2866418 0.2866744,0.2698035 0.2866744,0.6745283 0,0.4216088 -0.2866744,0.7082571 -0.26981,0.2698035 -0.6913907,0.2698035 -0.6913914,0 -0.9949288,-0.7588436 v 0.2698035 q 0,0.6239288 0.2360878,1.096111 z"/>
    <path d="M 2.0404494,6.711855 2.141629,6.121668 v -0.10116 q -0.1349083,0.3035453 -0.4721692,0.3035453 -0.4890336,0 -0.4890336,-0.4552853 0,-0.438447 0.4890336,-0.438447 L 1.8043681,5.464258 Q 1.7031885,5.363098 1.7031885,5.0089728 q 0,-0.5227688 0.4721692,-0.5227688 0.4890335,0 0.4890335,0.5227688 0,0.2529652 -0.2023591,0.4552852 L 2.6981199,5.430321 q 0.4890336,0 0.4890336,0.438447 0,0.4552853 -0.4890336,0.4552853 -0.3035387,0 -0.4721692,-0.3035453 v 0.10116 l 0.1011796,0.590187 z"/>
    <path d="M 9.6120248,15.379538 Q 9.8481061,14.99167 9.8481061,14.266569 v -0.269804 q -0.3035387,0.758844 -0.9949282,0.758844 -0.4215826,0 -0.7082544,-0.269804 -0.26981,-0.286642 -0.26981,-0.708257 0,-0.404705 0.26981,-0.674528 0.2866744,-0.286642 0.7082544,-0.286642 0.3372609,0 0.5902132,0.134902 -0.4890336,-0.472189 -0.4890336,-0.994932 0,-0.387867 0.3035387,-0.674528 0.3204031,-0.303545 0.6576647,-0.303545 0.3878541,0 0.6745281,0.303545 0.303539,0.286642 0.303539,0.674528 0,0.522769 -0.489034,0.994932 0.236082,-0.134902 0.590214,-0.134902 0.404718,0 0.674527,0.286642 0.286675,0.269803 0.286675,0.674528 0,0.421609 -0.286675,0.708257 -0.26981,0.269804 -0.674527,0.269804 -0.657665,0 -1.0117923,-0.758844 v 0.269804 q 0,0.725115 0.2529453,1.112969 z"/>
    <path d="m 17.655771,21.973048 q -0.489027,0 -0.489027,-0.522768 0,-0.269804 0.219223,-0.421609 h -0.252965 q -0.472189,0 -0.472189,-0.438447 0,-0.455285 0.472189,-0.455285 0.387867,0 0.489027,0.320383 v -0.10116 l -0.10116,-0.590187 h 0.269803 l -0.10116,0.590187 v 0.10116 q 0.10116,-0.320383 0.489027,-0.320383 0.472189,0 0.472189,0.455285 0,0.438447 -0.472189,0.438447 h -0.252965 q 0.219224,0.219223 0.219224,0.421609 0,0.522768 -0.489027,0.522768 z"/>
    <path d="m 5.9864373,24.182128 q -0.3878539,0 -0.6913907,-0.286641 -0.2866744,-0.303546 -0.2866744,-0.691393 0,-0.505931 0.4890335,-0.994925 -0.1349082,0.03394 -0.26981,0.08432 -0.1349083,0.05091 -0.3204031,0.05091 -0.4047183,0 -0.6913914,-0.269804 -0.26981,-0.269803 -0.26981,-0.691392 0,-0.421609 0.26981,-0.691393 0.2866744,-0.269803 0.6913914,-0.269803 0.6239353,0 1.0117912,0.758843 v -0.286642 q 0,-0.725115 -0.2529456,-1.096104 H 6.28998 q -0.2360879,0.472189 -0.2360879,1.096104 v 0.286642 q 0.3035388,-0.758843 0.9949289,-0.758843 0.4215826,0 0.6913907,0.269803 0.2866744,0.269804 0.2866744,0.691393 0,0.421609 -0.2866744,0.691392 -0.26981,0.269804 -0.6913907,0.269804 -0.1349083,0 -0.2866744,-0.05091 -0.1517661,-0.05091 -0.3035388,-0.08432 0.4890336,0.489027 0.4890336,0.994925 0,0.387867 -0.3035388,0.691393 -0.2866743,0.286641 -0.6576653,0.286641 z"/>
    <path d="m 13.895277,24.182128 q -0.387854,0 -0.691391,-0.286641 -0.286674,-0.303546 -0.286674,-0.691393 0,-0.505931 0.489033,-0.994925 -0.134908,0.03394 -0.286674,0.08432 -0.134908,0.05091 -0.303539,0.05091 -0.404718,0 -0.691391,-0.269804 -0.26981,-0.269803 -0.26981,-0.691392 0,-0.421609 0.26981,-0.691393 0.286675,-0.269803 0.691391,-0.269803 0.623935,0 1.011792,0.758843 v -0.286642 q 0,-0.725115 -0.252946,-1.096104 h 0.623936 q -0.236088,0.472189 -0.236088,1.096104 v 0.286642 q 0.303539,-0.758843 0.994929,-0.758843 0.421582,0 0.691388,0.269803 0.286642,0.269804 0.286642,0.691393 0,0.421609 -0.286642,0.691392 -0.269803,0.269804 -0.691388,0.269804 -0.134909,0 -0.286675,-0.05091 -0.151766,-0.05091 -0.303538,-0.08432 0.489033,0.489027 0.489033,0.994925 0,0.387867 -0.303539,0.691393 -0.286674,0.286641 -0.657659,0.286641 z"/>
    <path d="m 17.031829,25.008423 v -0.421609 h 0.961203 l 0.118063,-0.505931 q -0.15174,0.168644 -0.455285,0.168644 -0.725122,0 -0.725122,-0.792572 0,-0.826295 0.860024,-0.826295 0.860023,0 0.860023,0.725122 h -0.472189 q 0,-0.354126 -0.387867,-0.354126 -0.370964,0 -0.370964,0.455286 0,0.438447 0.370964,0.438447 0.252965,0 0.387867,-0.202386 h 0.404705 l -0.236062,1.315328 z"/>
</svg>