<svg xmlns="http://www.w3.org/2000/svg" width="74.952217" height="100" viewBox="0 0 19.831107 26.458333">
    <path d="m 1.1804256,26.458332 q -0.72511751,0 -0.96120212,-0.219224 Q 0,26.003047 0,25.277906 V 1.1804001 Q 0,0.45527872 0.21922348,0.23606177 0.45531135,0 1.1804256,0 H 18.650697 q 0.725118,0 0.94434,0.23606177 0.236089,0.21922348 0.236089,0.94433833 V 25.277906 q 0,0.725121 -0.236089,0.961203 -0.219225,0.219224 -0.94434,0.219224 z"/>
    <path style="fill:#ffffff" d="M 1.3827848,25.969305 H 18.44834 q 0.590213,0 0.74198,-0.151738 0.151765,-0.151739 0.151765,-0.741986 V 1.3827919 q 0,-0.62392876 -0.151765,-0.75884352 Q 19.038554,0.4890466 18.44834,0.4890466 H 1.3827841 q -0.60707759,0 -0.75884356,0.13490178 -0.1349083,0.1349017 -0.1349083,0.75884352 V 25.07558 q 0,0.590187 0.1349083,0.741985 0.1517661,0.151739 0.75884426,0.15174 z"/>
    <path d="m 2.0741755,3.8447848 q -0.8937499,0 -0.8937499,-1.2141484 0,-1.2478771 0.9274759,-1.2478771 0.6576647,0 0.7588443,0.657664 H 2.4283017 Q 2.3608505,1.7706199 2.1078983,1.7706199 q -0.4384401,0 -0.4384401,0.5733484 V 2.4620318 Q 1.8718176,2.2090666 2.175356,2.2090666 q 0.3204034,0 0.5227622,0.2360618 0.2023594,0.2192237 0.2023594,0.5227687 0,0.8768874 -0.8263021,0.8768877 z"/>
    <path d="M 13.574876,6.6609357 Q 13.827821,6.2899721 13.827821,5.5648311 V 5.2950276 q -0.354124,0.7588436 -1.011791,0.7588436 -0.404719,0 -0.691392,-0.2698034 -0.269812,-0.2866416 -0.269812,-0.7082571 0,-0.4047051 0.269812,-0.6745283 0.286678,-0.2866416 0.691392,-0.2866416 0.354124,0 0.590213,0.1349017 -0.48903,-0.4890271 -0.48903,-0.9949314 0,-0.387867 0.286677,-0.6745283 0.303536,-0.303545 0.69139,-0.303545 0.370989,0 0.657666,0.303545 0.303535,0.2866415 0.303535,0.6745283 0,0.5059305 -0.48903,0.9949314 0.252948,-0.1349017 0.590213,-0.1349017 0.421578,0 0.691391,0.2866416 0.286677,0.2698034 0.286677,0.6745283 0,0.4216086 -0.286677,0.7082571 -0.269813,0.2698034 -0.691391,0.2698034 -0.691391,0 -0.994928,-0.7588436 V 5.564831 q 0,0.6239288 0.236082,1.0961047 z"/>
    <path d="M 5.6660361,6.6609357 Q 5.9189818,6.2899721 5.9189818,5.5648311 V 5.2950276 q -0.3541254,0.7588436 -1.0117912,0.7588436 -0.4047181,0 -0.6913914,-0.2698034 -0.2698099,-0.2866416 -0.2698099,-0.7082571 0,-0.4047051 0.2698099,-0.6745283 0.2866742,-0.2866416 0.6913914,-0.2866416 0.3541254,0 0.5902134,0.1349017 -0.4890337,-0.4890271 -0.4890337,-0.9949314 0,-0.387867 0.2866742,-0.6745283 0.3035385,-0.303545 0.6913908,-0.303545 0.3709896,0 0.6576648,0.303545 0.3035359,0.2866415 0.3035359,0.6745283 0,0.5059305 -0.4890336,0.9949314 0.2529456,-0.1349017 0.5902133,-0.1349017 0.4215837,0 0.6913904,0.2866416 0.2866775,0.2698034 0.2866775,0.6745283 0,0.4216086 -0.2866775,0.7082571 -0.2698126,0.2698034 -0.6913904,0.2698034 -0.6913914,0 -0.9949288,-0.7588436 V 5.564831 q 0,0.6239288 0.2360879,1.0961047 z"/>
    <path style="fill:#ffffff" d="m 2.0741755,3.4569309 q 0.3541254,0 0.3541254,-0.4552855 0,-0.4384467 -0.3541254,-0.4384467 -0.3709897,0 -0.3709897,0.4384467 0,0.4552855 0.3709897,0.4552855 z"/>
    <path d="M 2.0404337,6.7115284 2.1416134,6.1213419 V 6.0201818 q -0.1349082,0.303545 -0.4721693,0.303545 -0.4890336,0 -0.4890336,-0.4552856 0,-0.4384473 0.4890336,-0.4384473 l 0.1349082,0.033939 Q 1.7031726,5.3627724 1.7031726,5.0086471 q 0,-0.5227687 0.4721694,-0.5227687 0.4890336,0 0.4890336,0.5227687 0,0.2529652 -0.2023594,0.4552855 l 0.2360879,-0.033939 q 0.4890336,0 0.4890336,0.4384473 0,0.4552856 -0.4890336,0.4552856 -0.3035385,0 -0.4721694,-0.303545 v 0.1011601 l 0.1011797,0.5901865 z"/>
    <path d="m 13.574861,15.379211 q 0.252947,-0.387867 0.252947,-1.112969 v -0.269806 q -0.354124,0.75885 -1.011791,0.75885 -0.404719,0 -0.691392,-0.269806 -0.269812,-0.286704 -0.269812,-0.708251 0,-0.404706 0.269812,-0.674528 0.286678,-0.286638 0.691392,-0.286638 0.354124,0 0.590213,0.1349 -0.489036,-0.472185 -0.489036,-0.994921 0,-0.387867 0.286678,-0.674529 0.303536,-0.303542 0.69139,-0.303542 0.370989,0 0.657665,0.303542 0.303536,0.286639 0.303536,0.674529 0,0.522766 -0.48903,0.994925 0.252947,-0.1349 0.590213,-0.1349 0.421577,0 0.691391,0.286638 0.286677,0.269806 0.286677,0.674528 0,0.421545 -0.286677,0.708251 -0.269813,0.269806 -0.691391,0.269806 -0.691392,0 -0.994929,-0.75885 v 0.269806 q 0,0.62393 0.236083,1.112969 z"/>
    <path d="m 5.6660211,15.379211 q 0.2529457,-0.387867 0.2529457,-1.112969 v -0.269806 q -0.3541254,0.75885 -1.0117912,0.75885 -0.4047182,0 -0.6913914,-0.269806 -0.2698099,-0.286704 -0.2698099,-0.708251 0,-0.404706 0.2698099,-0.674528 0.2866742,-0.286638 0.6913914,-0.286638 0.3541254,0 0.5902133,0.1349 -0.4890336,-0.472192 -0.4890336,-0.994925 0,-0.387867 0.2866742,-0.674528 0.3035391,-0.303543 0.6913908,-0.303543 0.3709896,0 0.6576648,0.303543 0.3035359,0.286638 0.3035359,0.674528 0,0.522766 -0.4890337,0.994925 0.2529457,-0.1349 0.5902134,-0.1349 0.4215837,0 0.6913904,0.286638 0.2866774,0.269806 0.2866774,0.674528 0,0.421545 -0.2866774,0.708251 -0.2698126,0.269806 -0.6913904,0.269806 -0.6913914,0 -0.9949289,-0.75885 v 0.269806 q 0,0.62393 0.236088,1.112969 z"/>
    <path d="m 17.655754,21.972722 q -0.48903,0 -0.48903,-0.522767 0,-0.269806 0.219224,-0.42161 H 17.133 q -0.472172,0 -0.472172,-0.438449 0,-0.455287 0.472172,-0.455287 0.387854,0 0.489031,0.320381 v -0.101157 l -0.101177,-0.590187 h 0.269813 l -0.101177,0.590187 v 0.101157 q 0.101177,-0.320381 0.489031,-0.320381 0.472172,0 0.472172,0.455287 0,0.438449 -0.472172,0.438449 h -0.252948 q 0.219224,0.219224 0.219224,0.42161 0,0.522767 -0.489043,0.522767 z"/>
    <path d="m 5.9864216,24.181802 q -0.3878539,0 -0.6913908,-0.286704 -0.2866742,-0.303542 -0.2866742,-0.691393 0,-0.505928 0.4890336,-0.994931 -0.1349082,0.03394 -0.2698099,0.08432 -0.1349082,0.05091 -0.3204034,0.05091 -0.4047181,0 -0.6913914,-0.269806 -0.2698099,-0.269806 -0.2698099,-0.691392 0,-0.42161 0.2698099,-0.691393 0.2866742,-0.269806 0.6913914,-0.269806 0.6239353,0 1.0117912,0.758843 v -0.286645 q 0,-0.725115 -0.2529457,-1.096104 h 0.6239354 q -0.2360684,0.471865 -0.2360684,1.095772 v 0.286644 q 0.3035385,-0.758843 0.9949289,-0.758843 0.4215837,0 0.6913904,0.269806 0.2866775,0.269806 0.2866775,0.691393 0,0.42161 -0.2866775,0.691392 -0.2698125,0.269806 -0.6913904,0.269806 -0.1349063,0 -0.2866775,-0.05091 -0.1517646,-0.05091 -0.3035391,-0.08432 0.4890336,0.48903 0.4890336,0.994931 0,0.387867 -0.3035358,0.691393 -0.2866742,0.28671 -0.6576649,0.28671 z"/>
    <path d="m 13.895261,24.181802 q -0.387854,0 -0.691391,-0.286704 -0.286677,-0.303542 -0.286677,-0.691393 0,-0.505928 0.48903,-0.994931 -0.134906,0.03394 -0.286677,0.08432 -0.1349,0.05091 -0.303536,0.05091 -0.404719,0 -0.691391,-0.269806 -0.269813,-0.269806 -0.269813,-0.691392 0,-0.42161 0.269813,-0.691393 0.286677,-0.269806 0.691391,-0.269806 0.623943,0 1.011792,0.758843 v -0.286645 q 0,-0.725115 -0.252948,-1.096104 h 0.623937 q -0.236083,0.472191 -0.236083,1.096104 v 0.286645 q 0.303536,-0.758843 0.994929,-0.758843 0.421577,0 0.69139,0.269806 0.286678,0.269806 0.286678,0.691393 0,0.42161 -0.286678,0.691392 -0.269812,0.269806 -0.69139,0.269806 -0.134906,0 -0.286677,-0.05091 -0.151765,-0.05091 -0.303536,-0.08432 0.489037,0.48903 0.489037,0.994931 0,0.387867 -0.303536,0.691393 -0.286678,0.286704 -0.657664,0.286704 z"/>
    <path d="m 17.723207,25.075547 q -0.657664,0 -0.758844,-0.657664 h 0.455307 q 0.101183,0.286704 0.303542,0.286704 0.455307,0 0.455307,-0.590188 v -0.101156 q -0.219224,0.236063 -0.52276,0.236063 -0.303536,0 -0.52276,-0.219225 -0.202359,-0.236063 -0.202359,-0.539605 0,-0.860023 0.826296,-0.860023 0.893749,0 0.893749,1.197283 0,1.247877 -0.927475,1.247877 z"/>
    <path style="fill:#ffffff" d="m 17.756949,23.895127 q 0.387854,0 0.387854,-0.438448 0,-0.455288 -0.387854,-0.455288 -0.337259,0 -0.337259,0.455288 0,0.438448 0.337259,0.438448 z"/>
</svg>