<svg xmlns="http://www.w3.org/2000/svg" width="74.952217" height="100" viewBox="0 0 19.831107 26.458333">
    <path d="m 1.1804256,26.458332 q -0.72511751,0 -0.96120212,-0.219224 Q 0,26.003047 0,25.277906 V 1.1804001 Q 0,0.45527872 0.21922348,0.23606177 0.45531135,0 1.1804256,0 H 18.650697 q 0.725118,0 0.94434,0.23606177 0.236089,0.21922348 0.236089,0.94433833 V 25.277906 q 0,0.725115 -0.236089,0.961203 -0.219225,0.219224 -0.94434,0.219224 z"/>
    <path style="fill:#ffffff" d="M 1.3827848,25.969305 H 18.44834 q 0.590213,0 0.74198,-0.151738 0.151765,-0.151739 0.151765,-0.74198 V 1.3827985 q 0,-0.62392884 -0.151765,-0.7588436 Q 19.038554,0.48905313 18.44834,0.48905313 H 1.3827841 q -0.60707759,0 -0.75884356,0.13490177 -0.1349083,0.13490171 -0.1349083,0.7588436 V 25.075586 q 0,0.590187 0.1349083,0.741979 0.1517661,0.151739 0.75884426,0.15174 z"/>
    <path d="M 1.73691,3.7604761 Q 1.8380896,2.6643586 2.5294816,1.8717863 H 1.4165108 V 1.416501 H 3.0185145 V 1.8381096 Q 2.2596703,2.4957738 2.2596703,3.7605153 Z"/>
    <path d="M 13.574874,6.6609422 Q 13.827822,6.2899786 13.827822,5.5648376 V 5.2950341 q -0.354124,0.7588436 -1.011792,0.7588436 -0.404719,0 -0.691391,-0.2698034 -0.269812,-0.2866416 -0.269812,-0.7082505 0,-0.4047051 0.269812,-0.6745284 0.286678,-0.2866415 0.691391,-0.2866415 0.354124,0 0.590214,0.1349017 -0.489031,-0.4890271 -0.489031,-0.9949249 0,-0.387867 0.286671,-0.6745283 0.303536,-0.303545 0.691391,-0.303545 0.370989,0 0.657665,0.303545 0.303536,0.2866415 0.303536,0.6745283 0,0.5059305 -0.489031,0.9949249 0.252948,-0.1349017 0.590214,-0.1349017 0.421577,0 0.69139,0.2866415 0.286677,0.2698034 0.286677,0.6745284 0,0.4216085 -0.286677,0.7082505 -0.269813,0.2698034 -0.69139,0.2698034 -0.691392,0 -0.994929,-0.7588436 v 0.2698034 q 0,0.6239288 0.236082,1.0961047 z"/>
    <path d="M 5.6660348,6.6609422 Q 5.9189805,6.2899786 5.9189805,5.5648376 V 5.2950341 q -0.3541254,0.7588436 -1.0117912,0.7588436 -0.4047181,0 -0.6913914,-0.2698034 Q 3.945988,5.4974327 3.945988,5.0758238 q 0,-0.4047051 0.2698099,-0.6745284 0.2866742,-0.2866415 0.6913914,-0.2866415 0.3541254,0 0.5902133,0.1349017 Q 5.008369,3.7605285 5.008369,3.2546307 q 0,-0.387867 0.2866742,-0.6745283 0.3035392,-0.303545 0.6913908,-0.303545 0.3709896,0 0.6576648,0.303545 0.3035359,0.2866415 0.3035359,0.6745283 0,0.5059305 -0.4890337,0.9949249 0.2529457,-0.1349017 0.5902134,-0.1349017 0.4215837,0 0.6913904,0.2866415 0.2866775,0.2698034 0.2866775,0.6745284 0,0.4216085 -0.2866775,0.7082505 -0.2698126,0.2698034 -0.6913904,0.2698034 -0.6913914,0 -0.9949289,-0.7588436 v 0.2698034 q 0,0.6239288 0.236088,1.0961047 z"/>
    <path d="M 2.0404474,6.7118483 2.1416271,6.1216617 V 6.0205016 q -0.1349082,0.303545 -0.4721693,0.303545 -0.4890336,0 -0.4890336,-0.4552856 0,-0.4384473 0.4890336,-0.4384473 L 1.804366,5.4642524 Q 1.7031863,5.3630923 1.7031863,5.0089669 q 0,-0.5227687 0.4721694,-0.5227687 0.4890336,0 0.4890336,0.5227687 0,0.2529652 -0.2023594,0.4552855 l 0.2360879,-0.033939 q 0.4890336,0 0.4890336,0.4384473 0,0.4552856 -0.4890336,0.4552856 -0.3035385,0 -0.4721694,-0.303545 V 6.1216614 L 2.3271282,6.711848 Z"/>
    <path d="M 9.6457497,11.130001 Q 9.881839,10.640978 9.881839,10.017033 V 9.747229 q -0.3035405,0.758844 -0.9949302,0.758844 -0.4215838,0 -0.7082547,-0.269806 -0.2698126,-0.2866453 -0.2698126,-0.7082571 0,-0.4047058 0.2698126,-0.6745288 0.2866775,-0.2866383 0.7082547,-0.2866383 0.3372591,0 0.5902133,0.1348998 Q 8.9880852,8.229551 8.9880852,7.7068111 q 0,-0.387867 0.3035424,-0.6745281 0.3204008,-0.2866383 0.6576645,-0.2866383 0.3878539,0 0.6745279,0.2866383 0.303542,0.2866383 0.303542,0.6745281 0,0.5227667 -0.489037,0.9949315 0.236089,-0.1348998 0.590213,-0.1348998 0.404719,0 0.674528,0.2866383 0.286677,0.2698061 0.286677,0.6745288 0,0.4216098 -0.286677,0.7082571 -0.269813,0.269806 -0.674528,0.269806 -0.657665,0 -1.011791,-0.758844 v 0.269806 q 0,0.725114 0.252947,1.112968 z"/>
    <path d="m 13.574874,15.379531 q 0.252948,-0.387867 0.252948,-1.112976 v -0.269806 q -0.354124,0.758844 -1.011792,0.758844 -0.404719,0 -0.691391,-0.269806 -0.269812,-0.286645 -0.269812,-0.708251 0,-0.404706 0.269812,-0.674528 0.286678,-0.286638 0.691391,-0.286638 0.354124,0 0.590214,0.134899 -0.489031,-0.472191 -0.489031,-0.994925 0,-0.387867 0.286671,-0.674528 0.303536,-0.303549 0.691391,-0.303549 0.370989,0 0.657665,0.303549 0.303536,0.28671 0.303536,0.674528 0,0.522767 -0.489031,0.994925 0.252948,-0.134899 0.590214,-0.134899 0.421577,0 0.69139,0.286638 0.286677,0.269806 0.286677,0.674528 0,0.421545 -0.286677,0.708251 -0.269813,0.269806 -0.69139,0.269806 -0.691392,0 -0.994929,-0.758844 v 0.269806 q 0,0.62393 0.236082,1.112976 z"/>
    <path d="m 5.6660348,15.379531 q 0.2529457,-0.387867 0.2529457,-1.112976 v -0.269806 q -0.3541254,0.758844 -1.0117912,0.758844 -0.4047181,0 -0.6913914,-0.269806 -0.2698099,-0.286645 -0.2698099,-0.708251 0,-0.404706 0.2698099,-0.674528 0.2866742,-0.286638 0.6913914,-0.286638 0.3541254,0 0.5902133,0.134899 -0.4890336,-0.472191 -0.4890336,-0.994925 0,-0.387867 0.2866742,-0.674528 0.3035392,-0.303549 0.6913908,-0.303549 0.3709896,0 0.6576648,0.303549 0.3035359,0.28671 0.3035359,0.674528 0,0.522767 -0.4890337,0.994925 0.2529457,-0.134899 0.5902134,-0.134899 0.4215837,0 0.6913904,0.286638 0.2866775,0.269806 0.2866775,0.674528 0,0.421545 -0.2866775,0.708251 -0.2698126,0.269806 -0.6913904,0.269806 -0.6913914,0 -0.9949289,-0.758844 v 0.269806 q 0,0.62393 0.236088,1.112976 z"/>
    <path d="m 17.655768,21.973041 q -0.489031,0 -0.489031,-0.522766 0,-0.269806 0.219225,-0.421545 h -0.25295 q -0.472172,0 -0.472172,-0.438449 0,-0.455287 0.472172,-0.455287 0.387854,0 0.48903,0.320381 v -0.101154 l -0.101176,-0.590187 h 0.269813 l -0.101183,0.590187 v 0.101157 q 0.101183,-0.320381 0.489036,-0.320381 0.472172,0 0.472172,0.455287 0,0.438449 -0.472172,0.438449 h -0.252947 q 0.219224,0.219224 0.219224,0.421544 0,0.522767 -0.489041,0.522764 z"/>
    <path d="m 13.895275,24.182115 q -0.387854,0 -0.691391,-0.286638 -0.286677,-0.303549 -0.286677,-0.691387 0,-0.505928 0.48903,-0.994931 -0.134906,0.03394 -0.286677,0.08432 -0.1349,0.05091 -0.303536,0.05091 -0.404719,0 -0.691391,-0.269806 -0.269813,-0.269806 -0.269813,-0.691392 0,-0.42161 0.269813,-0.691393 0.286677,-0.269806 0.691391,-0.269806 0.623943,0 1.011792,0.758843 v -0.286638 q 0,-0.725115 -0.252948,-1.096111 h 0.623937 q -0.236083,0.472191 -0.236083,1.096111 v 0.286638 q 0.303536,-0.758843 0.994929,-0.758843 0.421577,0 0.69139,0.269806 0.286678,0.269806 0.286678,0.691393 0,0.42161 -0.286678,0.691392 -0.269812,0.269806 -0.69139,0.269806 -0.134907,0 -0.286678,-0.05091 -0.151764,-0.05091 -0.303536,-0.08432 0.489031,0.489023 0.489031,0.994931 0,0.387867 -0.303536,0.691387 -0.286678,0.286638 -0.657667,0.286638 z"/>
    <path d="m 5.9864353,24.182115 q -0.3878539,0 -0.6913908,-0.286638 -0.2866742,-0.303549 -0.2866742,-0.691387 0,-0.505928 0.4890337,-0.994931 -0.1349083,0.03394 -0.26981,0.08432 -0.1349082,0.05091 -0.3204034,0.05091 -0.4047181,0 -0.6913914,-0.269806 -0.2698099,-0.269806 -0.2698099,-0.691392 0,-0.42161 0.2698099,-0.691393 0.2866742,-0.269806 0.6913914,-0.269806 0.6239354,0 1.0117912,0.758843 v -0.286638 q 0,-0.725115 -0.2529457,-1.096111 h 0.6239354 q -0.2360821,0.471473 -0.2360821,1.095393 v 0.286645 q 0.3035385,-0.758844 0.9949289,-0.758844 0.4215837,0 0.6913904,0.269806 0.2866775,0.269806 0.2866775,0.691393 0,0.42161 -0.2866775,0.691393 -0.2698125,0.269806 -0.6913904,0.269806 -0.1349063,0 -0.2866775,-0.05091 -0.1517646,-0.05091 -0.3035391,-0.08432 0.4890336,0.489031 0.4890336,0.994932 0,0.387867 -0.3035358,0.691386 -0.2866742,0.286645 -0.6576649,0.286645 z"/>
    <path d="m 16.829471,25.042138 v -0.421544 q 0.758844,-0.60709 0.758844,-1.922405 h 0.52276 q -0.118042,1.096111 -0.809431,1.888677 h 1.112971 v 0.455287 z"/>
</svg>