<svg xmlns="http://www.w3.org/2000/svg" width="74.952217" height="100" viewBox="0 0 19.831107 26.458333">
    <path d="m 1.1804253,26.458332 q -0.72511732,0 -0.96120187,-0.219224 Q 0,26.003047 0,25.277907 V 1.1803999 Q 0,0.45528514 0.21922343,0.23606171 0.45531124,0 1.1804253,0 H 18.650693 q 0.725117,0 0.944339,0.23606171 0.236089,0.21922343 0.236089,0.94433819 V 25.277907 q 0,0.725114 -0.236089,0.961202 -0.219224,0.219224 -0.944339,0.219224 z"/>
    <path style="fill:#ffffff" d="M 1.3827844,25.969305 H 18.448335 q 0.590213,0 0.741981,-0.151738 0.151764,-0.151739 0.151764,-0.741979 V 1.3827981 q 0,-0.62392862 -0.151764,-0.75884335 Q 19.03855,0.48905301 18.448335,0.48905301 H 1.3827838 q -0.60707748,0 -0.75884341,0.13490174 Q 0.48903213,0.75885642 0.48903213,1.3827981 V 25.075586 q 0,0.590188 0.13490826,0.74198 0.15176606,0.151738 0.75884401,0.151739 z"/>
    <path d="m 2.1416284,3.8447969 q -0.8937496,0 -0.8937496,-0.7251147 0,-0.4890269 0.4553049,-0.590187 -0.3541253,-0.1011601 -0.3541253,-0.489027 0,-0.3035449 0.2698099,-0.4721888 0.2866741,-0.1854821 0.522762,-0.1854821 0.8094332,0 0.8094332,0.6239287 0,0.3372871 -0.3541253,0.5227685 0.455305,0.1011601 0.455305,0.5901871 0,0.7251146 -0.9106148,0.7251153 z"/>
    <path style="fill:#ffffff" d="m 2.1416284,2.3945675 q 0.3541253,0 0.3541253,-0.3203837 0,-0.3035449 -0.3541253,-0.3035449 -0.3372675,0 -0.3372675,0.3035449 0,0.3203837 0.3372675,0.3203837 z"/>
    <path d="M 13.574873,6.6609536 Q 13.827821,6.2899902 13.827821,5.5648428 V 5.2950393 q -0.354124,0.7588435 -1.011792,0.7588435 -0.404719,0 -0.691391,-0.2698034 -0.269812,-0.2866415 -0.269812,-0.7082568 0,-0.4047051 0.269812,-0.6745217 0.286678,-0.2866415 0.691391,-0.2866415 0.354124,0 0.590213,0.1349016 -0.48903,-0.4890269 -0.48903,-0.9949246 0,-0.3878669 0.286677,-0.6745282 0.303536,-0.3035449 0.691391,-0.3035449 0.370989,0 0.657665,0.3035449 0.303535,0.2866415 0.303535,0.6745282 0,0.5058651 -0.489036,0.9949246 0.252947,-0.1349016 0.590213,-0.1349016 0.421577,0 0.69139,0.2866415 0.286677,0.2698033 0.286677,0.6745217 0,0.4216084 -0.286677,0.7082568 -0.269812,0.2698034 -0.69139,0.2698034 -0.691392,0 -0.994929,-0.7588435 v 0.2698034 q 0,0.6239286 0.236083,1.0961109 z"/>
    <path d="M 5.6660354,6.6609536 Q 5.918981,6.2899901 5.918981,5.5648428 V 5.2950393 Q 5.5648557,6.0538828 4.9071901,6.0538828 4.502472,6.0538828 4.2157989,5.7840794 3.945989,5.4974379 3.945989,5.0758226 q 0,-0.4047051 0.2698099,-0.6745217 0.2866741,-0.2866415 0.6913912,-0.2866415 0.3541253,0 0.5902132,0.1349016 -0.4890335,-0.4890269 -0.4890335,-0.9949246 0,-0.3878669 0.2866741,-0.6745282 0.303539,-0.3035449 0.6913906,-0.3035449 0.3709895,0 0.6576646,0.3035449 0.3035358,0.2866415 0.3035358,0.6745282 0,0.5058651 -0.4890335,0.9949246 0.2529456,-0.1349016 0.5902132,-0.1349016 0.4215836,0 0.6913909,0.2866415 0.2866774,0.2698033 0.2866774,0.6745217 0,0.4216084 -0.2866774,0.7082568 -0.2698125,0.2698034 -0.6913909,0.2698034 -0.6913906,0 -0.9949286,-0.7588435 v 0.2698034 q 0,0.6239286 0.2360879,1.0961109 z"/>
    <path style="fill:#ffffff" d="m 2.1416284,3.4569431 q 0.4215758,0 0.4215758,-0.3709635 0,-0.3878668 -0.4215758,-0.3878668 -0.404718,0 -0.404718,0.3878668 0,0.3709635 0.404718,0.3709635 z"/>
    <path d="M 2.0404489,6.7115399 2.1416284,6.1213532 V 6.0201931 Q 2.0067202,6.323738 1.6694592,6.323738 q -0.4890335,0 -0.4890335,-0.4552854 0,-0.4384466 0.4890335,-0.4384466 L 1.8043674,5.463945 Q 1.7031877,5.3627846 1.7031877,5.0086593 q 0,-0.5227686 0.4721693,-0.5227686 0.4890334,0 0.4890334,0.5227686 0,0.2529652 -0.2023593,0.4552854 L 2.698119,5.430006 q 0.4890335,0 0.4890335,0.4384466 0,0.4552854 -0.4890335,0.4552854 -0.3035384,0 -0.4721693,-0.3035449 v 0.1011601 l 0.1011797,0.5901867 z"/>
    <path d="M 9.6457493,11.129698 Q 9.881832,10.640675 9.881832,10.01673 V 9.7469264 q -0.3035404,0.7588496 -0.99493,0.7588496 -0.4215836,0 -0.7082538,-0.269806 -0.2698125,-0.2867097 -0.2698125,-0.7082496 0,-0.4047057 0.2698125,-0.6745286 0.2866774,-0.28671 0.7082538,-0.28671 0.3372656,0 0.5902132,0.1348997 Q 8.988085,8.22919 8.988085,7.7064567 q 0,-0.3878668 0.3035423,-0.6745279 0.3204007,-0.28671 0.6576643,-0.28671 0.3878534,0 0.6745274,0.28671 0.303536,0.2867035 0.303536,0.6745279 0,0.5227666 -0.489031,0.9949248 0.236083,-0.1348997 0.590214,-0.1348997 0.404718,0 0.674527,0.28671 0.286677,0.2698059 0.286677,0.6745286 0,0.4216097 -0.286677,0.7082496 -0.269813,0.269806 -0.674527,0.269806 -0.657665,0 -1.011792,-0.7588496 v 0.2698056 q 0,0.725115 0.252948,1.112968 z"/>
    <path d="m 13.574873,15.37922 q 0.252948,-0.387867 0.252948,-1.112968 v -0.269806 q -0.354124,0.758843 -1.011792,0.758843 -0.404719,0 -0.691391,-0.269806 -0.269812,-0.286703 -0.269812,-0.708257 0,-0.404706 0.269812,-0.674528 0.286678,-0.286638 0.691391,-0.286638 0.354124,0 0.590213,0.134899 -0.48903,-0.472191 -0.48903,-0.994931 0,-0.387867 0.286677,-0.674528 0.303536,-0.303549 0.691391,-0.303549 0.370989,0 0.657665,0.303549 0.303535,0.28671 0.303535,0.674528 0,0.522767 -0.489036,0.994931 0.252947,-0.134899 0.590213,-0.134899 0.421577,0 0.69139,0.286638 0.286677,0.269806 0.286677,0.674528 0,0.42161 -0.286677,0.708257 -0.269812,0.269806 -0.69139,0.269806 -0.691392,0 -0.994929,-0.758843 v 0.269806 q 0,0.62393 0.236083,1.112968 z"/>
    <path d="M 5.6660354,15.37922 Q 5.918981,14.991353 5.918981,14.266252 v -0.269806 q -0.3541253,0.758843 -1.0117909,0.758843 -0.4047181,0 -0.6913912,-0.269806 Q 3.945989,14.19878 3.945989,13.777226 q 0,-0.404706 0.2698099,-0.674528 0.2866741,-0.286638 0.6913912,-0.286638 0.3541253,0 0.5902132,0.134899 -0.4890335,-0.472191 -0.4890335,-0.994931 0,-0.387867 0.2866741,-0.674528 0.303539,-0.303549 0.6913906,-0.303549 0.3709895,0 0.6576646,0.303549 0.3035358,0.28671 0.3035358,0.674528 0,0.522767 -0.4890335,0.994931 0.2529456,-0.134899 0.5902132,-0.134899 0.4215836,0 0.6913909,0.286638 0.2866774,0.269806 0.2866774,0.674528 0,0.42161 -0.2866774,0.708257 -0.2698125,0.269806 -0.6913909,0.269806 -0.6913906,0 -0.9949286,-0.758843 v 0.269806 q 0,0.62393 0.2360879,1.112968 z"/>
    <path d="m 9.9492864,19.729928 q -0.3372656,0 -0.6576643,-0.28671 -0.3035423,-0.303542 -0.3035423,-0.691392 0,-0.505928 0.4890367,-0.994931 -0.1517646,0.03394 -0.2866774,0.08432 -0.1349062,0.05091 -0.3035358,0.05091 -0.4215836,0 -0.7082538,-0.269806 -0.2698125,-0.286703 -0.2698125,-0.691392 0,-0.42161 0.2698125,-0.691393 0.2866774,-0.286703 0.7082538,-0.286703 0.6913909,0 0.994928,0.758843 V 16.44187 q 0,-0.62393 -0.2360826,-1.096104 h 0.6239363 q -0.252947,0.370963 -0.252947,1.096104 v 0.269806 q 0.354124,-0.758843 1.011791,-0.758843 0.404719,0 0.674527,0.286703 0.286678,0.269806 0.286678,0.691393 0,0.404705 -0.286678,0.691392 -0.269812,0.269806 -0.674527,0.269806 -0.134906,0 -0.303542,-0.05091 -0.151771,-0.05091 -0.286678,-0.08432 0.489037,0.489023 0.489037,0.994931 0,0.387867 -0.303542,0.691392 -0.286677,0.28671 -0.6745274,0.28671 z"/>
    <path d="m 17.655765,21.972729 q -0.48903,0 -0.48903,-0.522766 0,-0.269806 0.219224,-0.42161 h -0.252947 q -0.472172,0 -0.472172,-0.438449 0,-0.455287 0.472172,-0.455287 0.387854,0 0.48903,0.320381 v -0.101157 l -0.101183,-0.590187 h 0.269813 l -0.101177,0.590187 v 0.101157 q 0.101177,-0.320381 0.48903,-0.320381 0.472172,0 0.472172,0.455287 0,0.438449 -0.472172,0.438449 h -0.252947 q 0.219224,0.219224 0.219224,0.42161 0,0.522766 -0.489037,0.522766 z"/>
    <path d="m 5.9864358,24.181809 q -0.3878538,0 -0.6913906,-0.28671 -0.2866741,-0.303543 -0.2866741,-0.691393 0,-0.505863 0.4890335,-0.994925 -0.1349082,0.03394 -0.2698099,0.08433 -0.1349082,0.05091 -0.3204027,0.05091 -0.404718,0 -0.6913912,-0.269806 -0.2698099,-0.269806 -0.2698099,-0.691392 0,-0.42161 0.2698099,-0.691387 0.2866741,-0.269806 0.6913912,-0.269806 0.6239352,0 1.011791,0.758844 v -0.28671 q 0,-0.725122 -0.2529456,-1.096111 h 0.6239351 q -0.2360878,0.472191 -0.2360878,1.096111 v 0.28671 Q 6.357423,20.42163 7.0488133,20.42163 q 0.4215836,0 0.6913909,0.269806 0.2866774,0.269806 0.2866774,0.691387 0,0.421609 -0.2866774,0.691392 -0.2698125,0.269806 -0.6913909,0.269806 -0.1349063,0 -0.2866774,-0.05091 -0.1517646,-0.05091 -0.303539,-0.08433 0.4890334,0.48903 0.4890334,0.994925 0,0.387867 -0.3035357,0.691393 -0.2866748,0.28671 -0.6576588,0.28671 z"/>
    <path d="m 13.895273,24.181809 q -0.387854,0 -0.69139,-0.28671 -0.286678,-0.303543 -0.286678,-0.691393 0,-0.505863 0.489031,-0.994925 -0.134907,0.03394 -0.286678,0.08433 -0.134899,0.05091 -0.303535,0.05091 -0.404719,0 -0.691391,-0.269806 -0.269813,-0.269806 -0.269813,-0.691392 0,-0.42161 0.269813,-0.691387 0.286677,-0.269806 0.691391,-0.269806 0.623936,0 1.011791,0.758844 v -0.28671 q 0,-0.725122 -0.252947,-1.096111 h 0.623936 q -0.236083,0.472191 -0.236083,1.096111 v 0.28671 q 0.303536,-0.758844 0.994929,-0.758844 0.421577,0 0.69139,0.269806 0.286678,0.269806 0.286678,0.691387 0,0.421609 -0.286678,0.691392 -0.269812,0.269806 -0.69139,0.269806 -0.134906,0 -0.286677,-0.05091 -0.151765,-0.05091 -0.303536,-0.08433 0.48903,0.48903 0.48903,0.994925 0,0.387867 -0.303536,0.691393 -0.286677,0.28671 -0.657666,0.28671 z"/>
    <path d="m 17.689491,25.07556 q -0.79257,0 -0.79257,-0.62393 0,-0.370962 0.337266,-0.522766 -0.438442,-0.101164 -0.438442,-0.573348 0,-0.725121 0.893749,-0.725121 0.893749,0 0.893749,0.725121 0,0.472191 -0.438442,0.573348 0.33726,0.118061 0.33726,0.489024 0,0.320381 -0.269813,0.489023 -0.252948,0.168643 -0.522767,0.168643 z"/>
    <path style="fill:#ffffff" d="m 17.689491,23.760233 q 0.421584,0 0.421584,-0.370963 0,-0.387867 -0.421584,-0.387867 -0.421583,0 -0.421583,0.387867 0,0.370963 0.421583,0.370963 z"/>
    <path style="fill:#ffffff" d="m 17.689491,24.704571 q 0.354124,0 0.354124,-0.320381 0,-0.303543 -0.354124,-0.303543 -0.337259,0 -0.337259,0.303543 0,0.320381 0.337259,0.320381 z"/>
</svg>