<svg xmlns="http://www.w3.org/2000/svg" width="74.952217" height="100" viewBox="0 0 19.831107 26.458333">
    <path d="m 1.1804262,26.458333 q -0.72512136,0 -0.96120269,-0.219224 Q 0,26.003047 0,25.277906 V 1.1804001 Q 0,0.45527874 0.21922351,0.23606175 0.45528526,0 1.1804262,0 H 18.650693 Q 19.375814,0 19.595038,0.23606175 19.8311,0.45528526 19.8311,1.1804001 V 25.277906 q 0,0.725122 -0.236062,0.961203 -0.219224,0.219224 -0.944345,0.219224 z"/>
    <path style="fill:#ffffff" d="M 1.3828115,25.969306 H 18.448366 q 0.590187,0 0.74198,-0.15174 0.15174,-0.15174 0.15174,-0.741986 V 1.3827919 q 0,-0.62392874 -0.15174,-0.75884355 Q 19.03854,0.4890466 18.448366,0.4890466 H 1.3828115 q -0.60709052,0 -0.75885009,0.13490175 Q 0.48905965,0.75885011 0.48905965,1.3827919 V 25.07558 q 0,0.590187 0.13490176,0.741986 0.15173999,0.15174 0.75885009,0.15174 z"/>
    <path d="m 2.0067403,3.8447914 q -0.657664,0 -0.7588436,-0.657664 H 1.703182 q 0.10116,0.2698035 0.3035452,0.2698035 0.4552853,0 0.4552853,-0.590187 v -0.10116 q -0.2360618,0.2360617 -0.5227688,0.2360617 -0.3035452,0 -0.5227688,-0.2192235 -0.2023852,-0.2192235 -0.2023852,-0.539607 0,-0.8600232 0.826301,-0.8600232 0.9106097,0 0.9106097,1.2141485 0,1.2478771 -0.9443384,1.2478771 z"/>
    <path style="fill:#ffffff" d="m 2.0406778,2.6643651 q 0.3878671,0 0.3878671,-0.4552852 0,-0.4047053 -0.3878671,-0.4047053 -0.337287,0 -0.337287,0.4047053 0,0.4552852 0.337287,0.4552852 z"/>
    <path d="M 13.575104,6.6609422 Q 13.828069,6.2899787 13.828069,5.5648377 V 5.2950342 q -0.354125,0.7588436 -1.011789,0.7588436 -0.404705,0 -0.691393,-0.2698035 -0.269803,-0.2866418 -0.269803,-0.7082571 0,-0.4047053 0.269803,-0.6745283 0.286642,-0.2866418 0.691393,-0.2866418 0.354125,0 0.590187,0.1349018 -0.489027,-0.4890271 -0.489027,-0.9949315 0,-0.387867 0.286642,-0.6745283 0.303545,-0.3035453 0.691386,-0.3035453 0.370964,0 0.657664,0.3035453 0.303545,0.2866417 0.303545,0.6745283 0,0.5059305 -0.489027,0.9949315 0.252966,-0.1349018 0.590187,-0.1349018 0.421609,0 0.691393,0.2866418 0.286642,0.2698035 0.286642,0.6745283 0,0.4216088 -0.286642,0.7082571 -0.269803,0.2698035 -0.691393,0.2698035 -0.691392,0 -0.994925,-0.7588436 v 0.2698035 q 0,0.6239288 0.236062,1.0961045 z"/>
    <path d="M 5.6662653,6.6609422 Q 5.9192305,6.2899787 5.9192305,5.5648377 V 5.2950342 q -0.3541252,0.7588436 -1.0117892,0.7588436 -0.4047053,0 -0.6913927,-0.2698035 -0.2698035,-0.2866418 -0.2698035,-0.7082571 0,-0.4047053 0.2698035,-0.6745283 0.2866417,-0.2866418 0.6913927,-0.2866418 0.3541252,0 0.590187,0.1349018 -0.489027,-0.4890271 -0.489027,-0.9949315 0,-0.387867 0.2866417,-0.6745283 0.3035453,-0.3035453 0.6913927,-0.3035453 0.3709635,0 0.657664,0.3035453 0.3035453,0.2866417 0.3035453,0.6745283 0,0.5059305 -0.489027,0.9949315 0.2529652,-0.1349018 0.590187,-0.1349018 0.4216088,0 0.6913927,0.2866418 0.2866418,0.2698035 0.2866418,0.6745283 0,0.4216088 -0.2866418,0.7082571 -0.2698035,0.2698035 -0.6913927,0.2698035 -0.6913927,0 -0.9949249,-0.7588436 v 0.2698035 q 0,0.6239288 0.2360617,1.0961045 z"/>
    <path d="m 2.0406778,6.7118485 0.10116,-0.590187 v -0.10116 q -0.1349017,0.3035453 -0.4721887,0.3035453 -0.4890271,0 -0.4890271,-0.4552853 0,-0.438447 0.4890271,-0.438447 l 0.1349017,0.033938 q -0.10116,-0.10116 -0.10116,-0.4552852 0,-0.5227688 0.4721888,-0.5227688 0.489027,0 0.489027,0.5227688 0,0.2529652 -0.2023853,0.4552852 l 0.2360618,-0.033938 q 0.489027,0 0.489027,0.438447 0,0.4552853 -0.489027,0.4552853 -0.3035453,0 -0.4721888,-0.3035453 v 0.10116 l 0.10116,0.590187 z"/>
    <path d="m 13.575104,12.613967 q 0.252965,-0.387867 0.252965,-1.112969 v -0.269804 q -0.354125,0.75885 -1.011789,0.75885 -0.404705,0 -0.691393,-0.269803 -0.269803,-0.286642 -0.269803,-0.691386 0,-0.421609 0.269803,-0.691393 0.286642,-0.286642 0.691393,-0.286642 0.354125,0 0.590187,0.134902 -0.489027,-0.4721887 -0.489027,-0.9949249 0,-0.387867 0.286642,-0.6745283 0.303545,-0.2866418 0.691386,-0.2866418 0.370964,0 0.657664,0.2866418 0.303545,0.2866418 0.303545,0.6745283 0,0.5227688 -0.489027,0.9949249 0.252966,-0.134902 0.590187,-0.134902 0.421609,0 0.691393,0.286642 0.286642,0.269804 0.286642,0.691393 0,0.404705 -0.286642,0.691386 -0.269803,0.269803 -0.691393,0.269803 -0.691392,0 -0.994925,-0.75885 v 0.269804 q 0,0.623929 0.236062,1.112969 z"/>
    <path d="M 5.6662653,12.613967 Q 5.9192305,12.2261 5.9192305,11.500998 v -0.269804 q -0.3541252,0.75885 -1.0117892,0.75885 -0.4047053,0 -0.6913927,-0.269803 -0.2698035,-0.286642 -0.2698035,-0.691386 0,-0.421609 0.2698035,-0.691393 0.2866417,-0.286642 0.6913927,-0.286642 0.3541252,0 0.590187,0.134902 -0.489027,-0.4721887 -0.489027,-0.9949249 0,-0.387867 0.2866417,-0.6745283 0.3035453,-0.2866418 0.6913927,-0.2866418 0.3709635,0 0.657664,0.2866418 0.3035453,0.2866418 0.3035453,0.6745283 0,0.5227688 -0.489027,0.9949249 0.2529652,-0.134902 0.590187,-0.134902 0.4216088,0 0.6913927,0.286642 0.2866418,0.269804 0.2866418,0.691393 0,0.404705 -0.2866418,0.691386 -0.2698035,0.269803 -0.6913927,0.269803 -0.6913927,0 -0.9949249,-0.75885 v 0.269804 q 0,0.623929 0.2360617,1.112969 z"/>
    <path d="M 9.6122493,15.379531 Q 9.848311,14.991664 9.848311,14.266562 v -0.269803 q -0.3035452,0.75885 -0.9949314,0.75885 -0.4215435,0 -0.7082505,-0.269804 -0.2698035,-0.286707 -0.2698035,-0.70825 0,-0.404706 0.2698035,-0.674529 0.2866417,-0.286641 0.7082505,-0.286641 0.337287,0 0.590187,0.134901 -0.489027,-0.472188 -0.489027,-0.994925 0,-0.387867 0.3035453,-0.674528 0.3203835,-0.303545 0.657664,-0.303545 0.3878671,0 0.6745281,0.303545 0.303545,0.286642 0.303545,0.674528 0,0.522769 -0.489027,0.994925 0.236062,-0.134901 0.590187,-0.134901 0.404706,0 0.674529,0.286641 0.286642,0.269804 0.286642,0.674529 0,0.421543 -0.286642,0.70825 -0.269804,0.269804 -0.674529,0.269804 -0.657664,0 -1.0117953,-0.75885 v 0.269803 q 0,0.725115 0.2529653,1.112969 z"/>
    <path d="m 5.9866618,18.246275 q -0.387867,0 -0.6913927,-0.286707 -0.2866417,-0.303545 -0.2866417,-0.691393 0,-0.50593 0.489027,-0.994925 -0.2360618,0.134902 -0.590187,0.134902 -0.4047053,0 -0.6913927,-0.269804 -0.2698035,-0.286707 -0.2698035,-0.691392 0,-0.421609 0.2698035,-0.691386 0.2866417,-0.286707 0.6913927,-0.286707 0.657664,0 1.0117892,0.758843 v -0.269803 q 0,-0.725115 -0.2529652,-1.112969 h 0.6239288 q -0.2360618,0.489027 -0.2360618,1.112969 v 0.269803 q 0.3035453,-0.758843 0.9949249,-0.758843 0.4216088,0 0.6913927,0.286707 0.2866418,0.269803 0.2866418,0.691386 0,0.404705 -0.2866418,0.691392 -0.2698035,0.269804 -0.6913927,0.269804 -0.337287,0 -0.590187,-0.134902 0.489027,0.489027 0.489027,0.994925 0,0.387867 -0.3035452,0.691393 -0.2866418,0.286707 -0.657664,0.286707 z"/>
    <path d="m 13.895501,18.246275 q -0.387867,0 -0.691386,-0.286707 -0.286642,-0.303545 -0.286642,-0.691393 0,-0.50593 0.489027,-0.994925 -0.236062,0.134902 -0.590187,0.134902 -0.404705,0 -0.691393,-0.269804 -0.269803,-0.286707 -0.269803,-0.691392 0,-0.421609 0.269803,-0.691386 0.286642,-0.286707 0.691393,-0.286707 0.657664,0 1.011789,0.758843 v -0.269803 q 0,-0.725115 -0.252965,-1.112969 h 0.623929 q -0.236062,0.489027 -0.236062,1.112969 v 0.269803 q 0.303545,-0.758843 0.994925,-0.758843 0.421609,0 0.691392,0.286707 0.286642,0.269803 0.286642,0.691386 0,0.404705 -0.286642,0.691392 -0.269803,0.269804 -0.691392,0.269804 -0.337287,0 -0.590187,-0.134902 0.489027,0.489027 0.489027,0.994925 0,0.387867 -0.303546,0.691393 -0.286641,0.286707 -0.657664,0.286707 z"/>
    <path d="m 17.655996,21.973042 q -0.489027,0 -0.489027,-0.522769 0,-0.269803 0.219224,-0.421609 h -0.252965 q -0.472189,0 -0.472189,-0.438447 0,-0.455285 0.472189,-0.455285 0.387867,0 0.489027,0.320384 v -0.10116 l -0.10116,-0.590187 h 0.269803 l -0.10116,0.590187 v 0.10116 q 0.10116,-0.320384 0.489027,-0.320384 0.472189,0 0.472189,0.455285 0,0.438447 -0.472189,0.438447 H 17.9258 q 0.219223,0.219224 0.219223,0.421609 0,0.522769 -0.489027,0.522769 z"/>
    <path d="m 13.895501,24.182122 q -0.387867,0 -0.691386,-0.286707 -0.286642,-0.303546 -0.286642,-0.691393 0,-0.505931 0.489027,-0.994931 -0.134902,0.03394 -0.286642,0.08432 -0.134902,0.05091 -0.303545,0.05091 -0.404705,0 -0.691393,-0.269804 -0.269803,-0.269803 -0.269803,-0.691393 0,-0.421608 0.269803,-0.691392 0.286642,-0.269804 0.691393,-0.269804 0.623929,0 1.011789,0.758844 V 20.89413 q 0,-0.725115 -0.252965,-1.096104 h 0.623929 q -0.236062,0.472188 -0.236062,1.096104 v 0.286642 q 0.303545,-0.758844 0.994925,-0.758844 0.421609,0 0.691392,0.269804 0.286642,0.269803 0.286642,0.691392 0,0.421609 -0.286642,0.691393 -0.269803,0.269804 -0.691392,0.269804 -0.134902,0 -0.286642,-0.05091 -0.15174,-0.05091 -0.303545,-0.08432 0.489027,0.489027 0.489027,0.994931 0,0.387867 -0.303546,0.691393 -0.286641,0.286707 -0.657664,0.286707 z"/>
    <path d="m 5.9866618,24.182122 q -0.387867,0 -0.6913927,-0.286707 -0.2866417,-0.303546 -0.2866417,-0.691393 0,-0.505931 0.489027,-0.994931 -0.1349018,0.03394 -0.2698035,0.08432 -0.1349018,0.05091 -0.3203835,0.05091 -0.4047053,0 -0.6913927,-0.269804 -0.2698035,-0.269803 -0.2698035,-0.691393 0,-0.421608 0.2698035,-0.691392 0.2866417,-0.269804 0.6913927,-0.269804 0.6239288,0 1.0117892,0.758844 V 20.89413 q 0,-0.725115 -0.2529652,-1.096104 H 6.2902202 Q 6.0541584,20.270214 6.0541584,20.89413 v 0.286642 q 0.3035453,-0.758844 0.9949249,-0.758844 0.4216088,0 0.6913927,0.269804 0.2866418,0.269803 0.2866418,0.691392 0,0.421609 -0.2866418,0.691393 -0.2698035,0.269804 -0.6913927,0.269804 -0.1349017,0 -0.2866417,-0.05091 -0.15174,-0.05091 -0.3035453,-0.08432 0.489027,0.489027 0.489027,0.994931 0,0.387867 -0.3035452,0.691393 -0.2866418,0.286707 -0.657664,0.286707 z"/>
    <path d="m 17.790898,25.075867 q -0.893745,0 -0.893745,-1.214148 0,-1.231013 0.927474,-1.231013 0.657664,0 0.758843,0.657664 h -0.438447 q -0.06748,-0.286707 -0.320383,-0.286707 -0.438447,0 -0.438447,0.590187 v 0.10116 q 0.236062,-0.236062 0.505865,-0.236062 0.320384,0 0.522769,0.219224 0.202385,0.219223 0.202385,0.539607 0,0.860023 -0.826301,0.860023 z"/>
    <path style="fill:#ffffff" d="m 17.790898,24.671162 q 0.354125,0 0.354125,-0.421609 0,-0.455285 -0.354125,-0.455285 -0.370963,0 -0.370963,0.455285 0,0.421609 0.370963,0.421609 z"/>
</svg>