<svg xmlns="http://www.w3.org/2000/svg" width="74.952217" height="100" viewBox="0 0 19.831107 26.458333">
    <path d="m 1.1804244,26.458333 q -0.72511609,0 -0.96120111,-0.219223 Q 0,26.003048 0,25.277908 V 1.1804251 Q 0.08431515,0.42158225 0.28667411,0.21922329 0.48903307,0 1.1804225,0 H 18.650682 q 0.725114,0 0.944337,0.23606152 0.236062,0.2192233 0.236062,0.94433748 v 24.097483 q 0,0.72512 -0.236062,0.961201 -0.219223,0.219224 -0.944337,0.219224 z"/>
    <path style="fill:#ffffff" d="M 1.3827847,25.969306 H 18.448323 q 0.590186,0 0.741978,-0.15174 0.15174,-0.151739 0.15174,-0.741978 V 1.3828167 q 0,-0.62392818 -0.15174,-0.75884285 Q 19.038562,0.48907222 18.448323,0.48907222 H 1.1804244 q -0.45530436,0 -0.57334817,0.15180512 Q 0.48903241,0.79261719 0.48903241,1.3828558 V 25.075627 q 0,0.590187 0.13490815,0.741979 0.15176596,0.151739 0.75884414,0.151739 z"/>
    <path d="M 1.0117941,3.7604986 1.9055399,1.3490619 h 0.55651 l 0.893751,2.4114367 h -0.55651 L 2.6306476,3.2208921 H 1.7368966 L 1.5345115,3.7604986 Z"/>
    <path style="fill:#ffffff" d="M 1.8718178,2.8330254 H 2.4957459 L 2.1753627,1.9392745 Z"/>
    <path d="M 2.0404611,6.7115548 2.141621,6.1213683 V 6.0202084 q -0.1349016,0.303545 -0.4721883,0.303545 -0.4890331,0 -0.4890331,-0.4552848 0,-0.4384466 0.4890331,-0.4384466 L 1.8043343,5.463959 Q 1.7031744,5.3627996 1.7031744,5.0086747 q 0,-0.5227683 0.4721883,-0.5227683 0.4890266,0 0.4890266,0.5227683 0,0.252965 -0.2023851,0.4552848 L 2.6980657,5.430022 q 0.4890266,0 0.4890266,0.4384466 0,0.4552848 -0.4890266,0.4552848 -0.3035449,0 -0.4721883,-0.303545 v 0.1011599 l 0.1011599,0.5901865 z"/>
    <path d="M 9.4771235,16.306702 Q 9.8144102,15.649039 9.8144102,14.654115 V 14.19883 q -0.1349016,0.489026 -0.5901864,0.826293 -0.4384466,0.320384 -0.9274797,0.320384 -0.6239281,0 -1.0455169,-0.421609 -0.4047049,-0.421608 -0.4047049,-1.028652 0,-0.623929 0.4047049,-1.028653 0.4216083,-0.421608 1.0455169,-0.421608 0.4216084,0 0.8600223,0.168643 -0.691392,-0.623928 -0.691392,-1.517686 0,-0.590186 0.4216084,-1.011788 0.4384466,-0.4384465 1.0286526,-0.4384465 0.5901866,0 1.0117946,0.4384465 0.438447,0.421543 0.438447,1.011788 0,0.893751 -0.691392,1.517686 0.522768,-0.168643 0.860022,-0.168643 0.623928,0 1.028653,0.421608 0.421608,0.404705 0.421608,1.028653 0,0.60709 -0.421608,1.028652 -0.404705,0.421609 -1.028653,0.421609 -0.438447,0 -0.893744,-0.320384 -0.438447,-0.337286 -0.623929,-0.826293 v 0.455285 q 0,0.994924 0.354125,1.652587 z"/>
    <path d="m 17.655764,21.972733 q -0.489026,0 -0.489026,-0.522768 0,-0.269803 0.219223,-0.421608 h -0.252965 q -0.472188,0 -0.472188,-0.438447 0,-0.455285 0.472188,-0.455285 0.387867,0 0.489027,0.320383 v -0.10116 l -0.10116,-0.590186 h 0.269803 l -0.10116,0.590186 v 0.10116 q 0.10116,-0.320383 0.489027,-0.320383 0.472188,0 0.472188,0.455285 0,0.438447 -0.472188,0.438447 h -0.252965 q 0.219223,0.219223 0.219223,0.421608 0,0.522768 -0.489027,0.522768 z"/>
    <path d="m 17.385961,25.109284 -0.910615,-2.411437 h 0.55651 l 0.168643,0.55651 h 0.910609 l 0.202385,-0.55651 h 0.522768 l -0.910615,2.411437 z"/>
    <path style="fill:#ffffff" d="m 17.655764,24.519098 0.303545,-0.893745 h -0.60709 z"/>
</svg>