<svg xmlns="http://www.w3.org/2000/svg" width="74.952217" height="100" viewBox="0 0 19.831107 26.458333">
    <path d="m 1.1804256,26.458332 q -0.72511751,0 -0.96120212,-0.219224 Q 0,26.003047 0,25.277906 V 1.1804001 Q 0,0.45527872 0.21922348,0.23606177 0.45531135,0 1.1804256,0 H 18.650697 q 0.725118,0 0.94434,0.23606177 0.236089,0.21922348 0.236089,0.94433833 V 25.277906 q 0,0.725121 -0.236089,0.961203 -0.219225,0.219224 -0.94434,0.219224 z"/>
    <path style="fill:#ffffff" d="M 1.3827848,25.969305 H 18.44834 q 0.590213,0 0.74198,-0.151738 0.151765,-0.151739 0.151765,-0.741986 V 1.3827919 q 0,-0.62392876 -0.151765,-0.75884352 Q 19.038554,0.4890466 18.44834,0.4890466 H 1.3827841 q -0.60707759,0 -0.75884356,0.13490178 -0.1349083,0.1349017 -0.1349083,0.75884352 V 25.07558 q 0,0.590187 0.1349083,0.741985 0.1517661,0.151739 0.75884426,0.15174 z"/>
    <path d="m 2.0404487,3.8447848 q -0.5396198,0 -0.8600231,-0.3541254 -0.30353847,-0.3709635 -0.30353847,-0.8937519 0,-0.5565102 0.30353847,-0.9106096 0.3204034,-0.3709635 0.8600231,-0.3709635 0.9106129,0 1.0455186,0.8600232 H 2.5632052 Q 2.5294623,1.7706524 2.0404431,1.7706524 q -0.6576647,0 -0.6576647,0.8262944 0,0.7925723 0.6576647,0.7925723 0.5227621,0 0.5564841,-0.5227687 H 3.1196828 Q 3.0185145,3.8447848 2.0404487,3.8447848 Z"/>
    <path d="M 3.9459898,22.664115 V 3.8110561 H 15.901997 V 22.664115 Z"/>
    <path style="fill:#ffffff" d="M 15.412964,12.445016 V 4.2832253 H 13.43997 l 0.06745,0.2866416 q 0.320401,0.2023855 0.320401,0.5396068 0,0.3878669 -0.269813,0.8094301 -0.252947,0.4047051 -0.809433,0.4047051 -0.489037,0 -0.489037,-0.387867 0,-0.2698034 0.219224,-0.303545 0.20236,-0.067419 0.20236,-0.2023855 L 12.343865,5.2949097 12.124641,5.463553 v 0.2360618 l 0.06745,0.3203838 0.151765,0.2023855 0.06745,0.2023856 -0.03374,0.4216085 q 0,0.1686426 0.337266,0.4047058 0.354124,0.2529672 0.354124,0.4890238 0,0.387867 -0.657665,0.387867 0.370989,0.3035423 0.640802,0.7419786 0.286677,0.4216098 0.320401,0.7082573 h 0.101176 q 0.354124,0 0.455307,0.2023855 l 0.826297,2.0067208 q 0.101176,0.202385 0.657664,0.657664 z"/>
    <path style="fill:#ffffff" d="M 4.4350227,11.230861 Q 4.5024736,10.876736 5.2613191,10.117892 5.9864366,9.3927779 6.3237008,8.8868801 6.6103748,8.4315945 7.9088415,8.161765 7.7402107,8.0437015 7.7402107,7.8413812 L 8.0268881,7.504096 Q 8.9543613,6.5597494 8.9543613,6.0538581 8.6676871,5.6997329 8.2966968,5.5985729 8.8531809,5.2950276 9.0218144,4.7385497 l 0.3372592,0.033939 q 0.7757064,0 1.7369094,-0.4890271 H 4.4350227 Z"/>
    <path style="fill:#ffffff" d="m 12.782305,6.0538647 q 0.286677,0 0.48903,-0.303545 0.20236,-0.3203838 0.20236,-0.6070907 0,-0.1686433 -0.303536,-0.3709635 0,-0.387867 -0.269813,-0.4216086 -0.252947,-0.033939 -0.640801,-0.033939 -0.404719,0 -0.607078,0.1686433 0.202359,0.1517398 0.421583,0.2866415 0.23609,0.1349017 0.505896,0.2023855 0.48903,0.1686433 0.48903,0.4552855 0,0.2023856 -0.252948,0.303545 -0.236089,0.1686433 -0.236089,0.2023856 0,0.1180635 0.202359,0.1180635 z"/>
    <path d="M 2.0404487,6.7115284 2.1416284,6.1213419 V 6.0201818 q -0.1349082,0.303545 -0.4721693,0.303545 -0.4890336,0 -0.4890336,-0.4552856 0,-0.4384473 0.4890336,-0.4384473 l 0.1349082,0.033939 Q 1.7031876,5.3627724 1.7031876,5.0086471 q 0,-0.5227687 0.4721694,-0.5227687 0.4890336,0 0.4890336,0.5227687 0,0.2529652 -0.2023594,0.4552855 l 0.2360879,-0.033939 q 0.4890336,0 0.4890336,0.4384473 0,0.4552856 -0.4890336,0.4552856 -0.3035385,0 -0.4721693,-0.303545 v 0.1011601 l 0.1011797,0.5901865 z"/>
    <path style="fill:#000000" d="M 5.8178049,7.9425414 Q 5.9864351,7.6052561 5.9864351,7.2174263 V 7.0150415 q -0.2529457,0.5227667 -0.6576646,0.5227667 -0.6239354,0 -0.6239354,-0.6576639 0,-0.6576642 0.6239354,-0.6576642 L 5.5985804,6.3236402 Q 5.4299502,6.1212547 5.4299502,5.6659762 q 0,-0.2360618 0.1686302,-0.4216085 0.1686302,-0.2023855 0.4553051,-0.2023855 0.2698099,0 0.4384408,0.2023855 0.1854945,0.1854821 0.1854945,0.4216085 0,0.2698034 -0.2866742,0.657664 L 6.7790005,6.2224801 q 0.6239366,0 0.6239366,0.6576642 0,0.6576639 -0.6239366,0.6576639 -0.3878539,0 -0.6576648,-0.5227667 V 7.217427 q 0,0.3878669 0.1686303,0.725115 z"/>
    <path style="fill:#ffffff" d="m 10.8599,7.9425414 q 0.337259,0 0.472172,-0.4047058 l -0.404719,0.033939 -0.387853,-0.067421 -0.03374,-0.067486 0.03374,-0.1180609 0.48903,0.033939 0.404719,-0.06742 0.219224,-0.8262945 h -0.03374 q -0.151764,0 -0.151764,-0.1349017 v -0.033939 l -0.03374,0.1011601 v 0.067484 l -0.03374,0.033939 q -0.101183,0 -0.101183,-0.2023855 0,-0.2023855 0.354124,-0.2023855 h 0.06745 l 0.03374,-0.1517399 -0.252948,-0.033939 -0.303536,0.033939 q 0,0.6576637 0.134907,1.1804258 l -0.370989,0.06742 -0.286678,-0.033939 0.06745,-0.2023855 0.151765,0.033939 h 0.16863 L 10.994776,6.4252132 V 5.8012844 l 0.404719,-0.1011601 0.354124,0.033939 0.03374,-0.2698034 Q 11.264599,5.295615 11.028518,5.295615 q -0.556483,0 -1.2478764,0.3709635 V 5.868964 l 0.067453,0.9780601 -0.033743,0.657671 Q 10.202206,7.9431438 10.85987,7.9431438 Z"/>
    <path style="fill:#000000" d="M 9.9492882,6.1213155 9.8143819,5.9864138 Q 10.134783,5.7671901 10.370865,5.7671901 l 0.303543,0.033939 -0.06745,0.2192237 -0.23609,-0.033939 q -0.202359,0 -0.4215768,0.1349017 z"/>
    <path style="fill:#ffffff" d="m 8.8194537,8.0774496 q 0.5396186,0 0.6070782,-0.387867 Q 9.51085,7.2848769 9.51085,6.8464171 L 9.4433955,5.902079 9.2916296,6.0201425 Q 9.1904499,6.9813449 8.0943419,7.8750974 8.2967013,8.0774829 8.8194596,8.0774829 Z"/>
    <path style="fill:#000000" d="m 10.134783,6.5597559 q -0.1854948,0 -0.1854948,-0.1011601 L 9.9155453,6.3236941 q 0.1686297,-0.1686433 0.4890307,-0.1686433 0.337259,0 0.337259,0.2023855 0,0.2023856 -0.101177,0.2023856 l -0.03374,-0.033939 v -0.067419 l -0.03374,-0.1011601 v 0.033939 q 0,0.1349017 -0.1349,0.1349017 -0.134906,0 -0.134906,-0.1349017 l 0.03374,-0.067418 -0.06745,0.067418 q 0,0.1686433 -0.134906,0.1686433 z"/>
    <path style="fill:#ffffff" d="m 12.259546,7.8413616 q 0.387854,0 0.387854,-0.1686426 L 12.579947,7.4703335 Q 12.343858,7.2511092 12.158363,7.1499523 12.057187,7.0487889 12.057187,6.8801463 V 6.3911192 l -0.03374,-0.067419 q -0.101177,0.7588436 -0.404719,1.3490569 0.269812,0.1686427 0.640801,0.1686427 z"/>
    <path style="fill:#000000" d="m 10.741858,7.7739438 -0.06745,-0.067486 0.06745,-0.033939 h 0.320401 l 0.06745,0.033939 -0.06745,0.067486 z"/>
    <path style="fill:#ffffff" d="m 10.472048,8.8025972 q 0.590214,0 1.31533,-0.725115 L 11.466975,7.9425805 q -0.23609,0.3541241 -0.607079,0.3541241 -0.590213,0 -1.0792433,-0.387867 -0.1011764,0.4552875 -0.8600232,0.4552875 0.826296,0.4384487 1.5514135,0.4384487 z"/>
    <path style="fill:#ffffff" d="m 11.332072,12.259554 q 0.134906,0 0.252947,-0.202386 0,-0.961203 0.219225,-1.770639 0.219224,-0.8262947 0.843159,-1.5851382 L 12.377591,8.3641055 12.023467,8.9206151 q -0.758844,0.994925 -0.89375,3.1702759 0.06745,0.168643 0.20236,0.168643 z"/>
    <path style="fill:#ffffff" d="m 8.9206334,12.158342 q 0.1349063,0 0.2023594,-0.168642 L 9.0218131,11.062218 Q 8.9880709,10.539449 8.6845454,9.8986562 8.3978712,9.257824 7.8076592,8.4315619 L 7.4029411,8.5664636 q 1.0961072,1.3153342 1.1972863,2.5969344 l 0.067453,0.8263 q 0,0.168643 0.252953,0.168644 z"/>
    <path style="fill:#ffffff" d="m 9.9155616,12.293244 h 0.3541244 q 0.657666,-2.5800699 1.31533,-3.6255876 -0.455307,0.3878669 -1.21415,0.3878669 -0.691391,0 -1.281603,-0.354124 0.5227602,1.2816057 0.8262967,3.5918587 z"/>
    <path style="fill:#ffffff" d="m 13.406243,10.370838 q 0.202359,0 0.202359,-0.219224 0,-0.2023859 -0.202359,-0.2023859 -0.20236,0 -0.20236,0.2023859 0,0.219224 0.20236,0.219224 z"/>
    <path style="fill:#ffffff" d="m 13.068982,10.876769 q 0.20236,0 0.20236,-0.202386 0,-0.202386 -0.20236,-0.202386 -0.219224,0 -0.219224,0.202386 0,0.202386 0.219224,0.202386 z"/>
    <path style="fill:#ffffff" d="m 12.714857,11.365796 q 0.202359,0 0.202359,-0.202386 0,-0.219224 -0.202359,-0.219224 -0.202359,0 -0.202359,0.219224 0,0.202386 0.202359,0.202386 z"/>
    <path style="fill:#ffffff" d="m 7.6727614,13.170158 q 0.3878539,-0.657665 0.6913905,-0.775709 l 0.033743,-0.573348 Q 8.1955353,11.635619 8.1955353,11.399491 7.605322,11.854778 7.2174694,11.854778 l 0.1180414,0.168643 0.067453,0.269806 -0.067453,0.252967 q 0.2360892,0.101157 0.3372656,0.62393 z"/>
    <path style="fill:#ffffff" d="m 12.377593,11.821101 q 0.202359,0 0.202359,-0.219225 0,-0.202385 -0.202359,-0.202385 -0.219225,0 -0.219225,0.202385 0,0.219225 0.219225,0.219225 z"/>
    <path style="fill:#ffffff" d="m 12.05719,12.360708 q 0.202359,0 0.202359,-0.202386 0,-0.202386 -0.202359,-0.202386 -0.202359,0 -0.202359,0.202386 0,0.202386 0.202359,0.202386 z"/>
    <path style="fill:#ffffff" d="m 11.719929,12.950895 q 0.202359,0 0.202359,-0.202386 0,-0.202385 -0.202359,-0.202385 -0.219225,0 -0.219225,0.202385 0,0.202386 0.219225,0.202386 z"/>
    <path style="fill:#ffffff" d="m 11.652478,15.058795 q 0.691391,-0.438449 0.961202,-0.438449 l -0.101177,-0.185481 -0.03374,-0.269806 0.03374,-0.236063 q -0.252948,-0.118058 -0.354127,-0.623924 -0.30354,0.657664 -0.691392,0.758844 l -0.03374,0.590187 q 0.219224,0.1349 0.219224,0.404706 z"/>
    <path style="fill:#ffffff" d="m 8.1280704,13.928962 q 0.2023595,0 0.2023595,-0.219224 0,-0.202386 -0.2023595,-0.202386 -0.2192243,0 -0.2192243,0.202386 0,0.219224 0.2192243,0.219224 z"/>
    <path style="fill:#ffffff" d="m 4.4350299,22.175068 h 1.9561309 l -0.067451,-0.269806 q -0.3035385,-0.219224 -0.3035385,-0.55651 0,-0.387867 0.2529457,-0.792566 0.2698099,-0.42161 0.8094333,-0.42161 0.4890303,0 0.4890303,0.387867 0,0.202386 -0.2023594,0.303543 -0.2192243,0.03394 -0.2192243,0.202385 L 7.504121,21.18011 7.7064804,20.994628 v -0.269806 l -0.067453,-0.269806 -0.1349062,-0.219224 -0.067453,-0.202386 0.033743,-0.42161 q 0,-0.202385 -0.3541241,-0.404705 -0.3372591,-0.236063 -0.3372591,-0.489024 0,-0.370963 0.6576645,-0.370963 Q 7.0488418,18.026731 6.7621682,17.588271 6.492358,17.132986 6.4586293,16.896878 H 6.3574496 q -0.3372611,0 -0.4384408,-0.219224 L 5.4636783,15.649021 5.0926887,14.687819 q -0.118044,-0.219224 -0.657666,-0.657665 z"/>
    <path style="fill:#ffffff" d="m 7.7739431,14.50231 q 0.2192243,0 0.2192243,-0.202385 0,-0.202386 -0.2192243,-0.202386 -0.2023594,0 -0.2023594,0.202386 0,0.202385 0.2023594,0.202385 z"/>
    <path style="fill:#ffffff" d="M 8.2629767,17.790637 Q 8.7182838,17.40277 9.477126,17.40277 q 0.691392,0 1.26474,0.354124 -0.43844,-1.146696 -0.8262966,-3.591858 H 9.5783083 q -0.3541254,1.2816 -0.6745281,2.192216 -0.3035391,0.91061 -0.6407996,1.433372 z"/>
    <path style="fill:#ffffff" d="m 7.4704059,18.094182 q 0.472172,-0.75885 0.7082541,-1.247877 0.2529476,-0.505928 0.354124,-1.062382 0.1011765,-0.55651 0.1854945,-1.416508 -0.050582,-0.168642 -0.2192243,-0.168642 -0.1686296,0 -0.2360892,0.202385 0,2.276531 -1.079245,3.355778 z"/>
    <path style="fill:#ffffff" d="m 12.023469,18.026699 0.421583,-0.1349 q -1.079256,-0.859993 -1.281613,-3.423198 0,-0.168642 -0.236089,-0.168642 -0.219225,0 -0.219225,0.168642 l 0.151765,0.91061 q 0.06745,0.505928 0.354124,1.332193 0.286677,0.809436 0.809433,1.315327 z"/>
    <path style="fill:#ffffff" d="m 7.4703981,15.058808 q 0.2023594,0 0.2023594,-0.202385 0,-0.202386 -0.2023594,-0.202386 -0.2023594,0 -0.2023594,0.202386 0,0.202385 0.2023594,0.202385 z"/>
    <path style="fill:#ffffff" d="m 7.1162734,15.514093 q 0.2192243,0 0.2192243,-0.219224 0,-0.202386 -0.2192243,-0.202386 -0.2023594,0 -0.2023594,0.202386 0,0.219224 0.2023594,0.219224 z"/>
    <path style="fill:#ffffff" d="m 8.7520025,22.175055 h 6.6609635 v -6.947636 q 0,0.252967 -0.20236,0.42161 l -1.079244,1.146696 q -0.404719,0.539605 -0.674528,0.843159 -0.252947,0.28671 -0.590213,0.404706 -0.320401,0.118061 -0.944339,0.269806 0.16863,0.101157 0.16863,0.303542 l -0.269813,0.354124 q -0.927475,0.92748 -0.927475,1.450236 0.303535,0.303542 0.640801,0.438449 -0.505895,0.387867 -0.725117,0.860016 l -0.337266,-0.03394 q -0.7588437,0 -1.7200467,0.48903 z"/>
    <path style="fill:#ffffff" d="m 6.779007,15.986289 q 0.2023595,0 0.2023595,-0.202386 0,-0.202386 -0.2023595,-0.202386 -0.2023594,0 -0.2023594,0.202386 0,0.202386 0.2023594,0.202386 z"/>
    <path style="fill:#ffffff" d="m 6.4248817,16.509057 q 0.2192236,0 0.2192236,-0.202385 0,-0.202386 -0.2192236,-0.202386 -0.2023595,0 -0.2023595,0.202386 0,0.202385 0.2023595,0.202385 z"/>
    <path style="fill:#ffffff" d="m 10.050469,18.549506 q 0.151765,-0.455287 0.876886,-0.455287 -0.843159,-0.438449 -1.5682769,-0.438449 -0.5733484,0 -1.298466,0.725115 l 0.3035358,0.1349 q 0.2023595,-0.354124 0.6239367,-0.354124 0.5902133,0 1.0623814,0.387867 z"/>
    <path style="fill:#ffffff" d="m 10.404595,20.556227 0.134906,-0.101157 q 0.101176,-0.978066 1.21415,-1.871818 -0.219225,-0.202386 -0.725117,-0.202386 -0.556484,0 -0.623937,0.387867 -0.06745,0.370963 -0.06745,0.843166 z"/>
    <path style="fill:#000000" d="m 13.794097,21.41625 q -0.286677,0 -0.455307,-0.185481 -0.168629,-0.202386 -0.168629,-0.438449 0,-0.337285 0.202359,-0.590187 l -0.303536,0.03394 q -0.623936,0 -0.623936,-0.657665 0,-0.640834 0.623936,-0.640834 0.404719,0 0.657665,0.505863 V 19.24105 q 0,-0.455287 -0.185495,-0.725115 h 0.489031 q -0.16863,0.269806 -0.16863,0.725115 v 0.202386 q 0.303536,-0.505863 0.657665,-0.505863 0.607078,0 0.607078,0.640834 0,0.657665 -0.607078,0.657665 h -0.387854 q 0.269812,0.387867 0.269812,0.556509 0,0.236064 -0.168629,0.438449 -0.16863,0.185481 -0.438442,0.185481 z"/>
    <path style="fill:#ffffff" d="m 8.8194537,21.180149 q 0.5396186,0 1.2310133,-0.387867 v -0.202385 l -0.067453,-0.97806 0.033743,-0.640834 q -0.3372592,-0.455288 -1.0286555,-0.455288 -0.3204007,0 -0.4890303,0.42161 l 0.4215837,-0.05091 0.370989,0.08432 0.033743,0.101157 -0.033743,0.06749 -0.4721719,-0.03394 -0.4215773,0.06742 -0.2023594,0.826301 h 0.033743 q 0.1349063,0 0.1349063,0.1349 v 0.03394 l 0.033743,-0.101157 v -0.06749 l 0.033743,-0.03394 q 0.1011764,0 0.1011764,0.202386 0,0.219224 -0.3372592,0.219224 H 8.128139 l -0.033743,0.1349 0.2698125,0.03394 0.2698126,-0.03394 q 0,-0.320381 -0.033743,-0.607091 Q 8.5665354,19.6113 8.4991019,19.341494 l 0.4215837,-0.06742 0.2360827,0.03394 -0.067453,0.202385 -0.1349063,-0.03394 H 8.7857793 l 0.067453,0.522767 v 0.657664 l -0.3878539,0.101163 -0.370989,-0.03394 -0.033743,0.269806 Q 8.4990885,21.1794 8.8194899,21.1794 Z"/>
    <path style="fill:#ffffff" d="m 7.8076618,20.134632 q 0.101183,-0.792572 0.4215838,-1.349057 -0.2023594,-0.168643 -0.6576645,-0.168643 -0.3878539,0 -0.3878539,0.168643 l 0.1180413,0.219224 0.3372657,0.303543 q 0.1349063,0.101156 0.1349063,0.269806 v 0.48903 z"/>
    <path style="fill:#000000" d="m 8.7857278,18.785575 -0.067453,-0.06742 0.067453,-0.03394 h 0.3035358 l 0.067453,0.03394 -0.067453,0.06742 z"/>
    <path d="m 17.655769,21.972722 q -0.489037,0 -0.489037,-0.522767 0,-0.269806 0.219224,-0.42161 h -0.252947 q -0.472172,0 -0.472172,-0.438449 0,-0.455287 0.472172,-0.455287 0.387854,0 0.48903,0.320381 v -0.101157 l -0.101183,-0.590187 h 0.269813 l -0.101183,0.590187 v 0.101157 q 0.101183,-0.320381 0.48903,-0.320381 0.472172,0 0.472172,0.455287 0,0.438449 -0.472172,0.438449 h -0.252947 q 0.219224,0.219224 0.219224,0.42161 0,0.522767 -0.489037,0.522767 z"/>
    <path style="fill:#000000" d="m 9.4433923,20.303262 q -0.3541241,0 -0.3541241,-0.202386 0,-0.202385 0.1011764,-0.202385 l 0.033743,0.03394 v 0.06749 l 0.033743,0.101164 v -0.03394 q 0,-0.1349 0.1517647,-0.1349 0.1349062,0 0.1349062,0.1349 l -0.033743,0.06742 0.067453,-0.06742 q 0,-0.168643 0.1349063,-0.168643 l 0.2023594,0.236064 q -0.2360893,0.168642 -0.472172,0.168642 z"/>
    <path style="fill:#000000" d="m 9.4771338,20.691129 -0.3204007,-0.03394 0.067453,-0.202385 0.2529476,0.03394 q 0.2698126,0 0.4047189,-0.134899 l 0.1349064,0.134899 Q 9.713223,20.69113 9.4771337,20.69113 Z"/>
    <path style="fill:#ffffff" d="m 7.5715928,22.141365 q 0.4215838,0 0.6239367,-0.168642 Q 7.7402224,21.618599 7.3017796,21.449956 6.779026,21.281313 6.779026,21.028346 q 0,-0.168642 0.2360892,-0.337285 0.2529476,-0.1349 0.2529476,-0.168643 0,-0.101163 -0.2192243,-0.101163 -0.2360892,0 -0.4721719,0.303542 -0.2192237,0.303543 -0.2192237,0.590188 0,0.168642 0.3204034,0.370962 0,0.354125 0.2529476,0.404706 0.2529476,0.05091 0.6408015,0.05091 z"/>
    <path d="m 17.79069,25.143018 q -0.89375,0 -1.028655,-0.860024 h 0.505895 q 0.08432,0.42161 0.52276,0.42161 0.657665,0 0.657665,-0.843159 0,-0.792572 -0.657665,-0.792572 -0.48903,0 -0.556483,0.522767 h -0.505894 q 0.101176,-0.961202 1.062381,-0.961202 0.556484,0 0.860023,0.370962 0.320401,0.354125 0.320401,0.860023 0,0.55651 -0.320401,0.927475 -0.303536,0.354124 -0.860027,0.35412 z"/>
</svg>