<svg xmlns="http://www.w3.org/2000/svg" width="74.952217" height="100" viewBox="0 0 19.831107 26.458333">
    <path d="m 1.1804256,26.458332 q -0.72511751,0 -0.96120212,-0.219224 Q 0,26.003047 0,25.277906 V 1.1804001 Q 0,0.45527872 0.21922348,0.23606177 0.45530483,0 1.1804256,0 H 18.650697 q 0.725118,0 0.94434,0.23606177 0.236089,0.21922348 0.236089,0.94433833 V 25.277906 q 0,0.725115 -0.236089,0.961203 -0.219225,0.219224 -0.94434,0.219224 z"/>
    <path style="fill:#ffffff" d="M 1.3827848,25.969305 H 18.448339 q 0.590213,0 0.741981,-0.151738 0.151764,-0.151739 0.151764,-0.74198 V 1.3827985 q 0,-0.62392884 -0.151764,-0.75885012 Q 19.038554,0.4890466 18.448339,0.4890466 H 1.3827848 q -0.60707763,0 -0.75884426,0.13490178 -0.1349083,0.1349017 -0.1349083,0.75885012 V 25.075586 q 0,0.590187 0.1349083,0.741979 0.1517661,0.151739 0.75884426,0.15174 z"/>
    <path d="m 1.9729979,3.8447913 q -0.7588443,0 -0.7588443,-0.7251213 V 2.9004464 h 0.4553051 v 0.1011601 q 0,0.4216086 0.3035385,0.4216086 0.2866742,0 0.2866742,-0.4216086 V 1.4164619 h 0.5058978 v 1.6188667 q 0,0.8094366 -0.7925703,0.8094366 z"/>
    <path d="M 3.9459918,22.664115 V 3.8110627 H 15.901998 V 22.664115 Z"/>
    <path style="fill:#ffffff" d="M 15.412963,9.5276796 V 4.2832253 h -0.961202 q 0.438442,0.657664 0.438442,1.4165076 0,0.6239288 -0.236082,1.0792467 v 0.4721916 q 0.370989,0.1854814 0.370989,0.2867101 0,0.2023855 -0.16863,0.3035424 l 0.134906,0.2866448 q 0,0.2023855 -0.202359,0.3035424 0.16863,0.1011634 0.16863,0.269806 0,0.2529672 -0.505896,0.4215446 z"/>
    <path style="fill:#ffffff" d="m 12.748578,8.465297 q 0.20236,-0.7925656 0.657665,-0.8937453 L 13.827827,7.3523274 V 6.7789796 Q 13.57488,6.4922725 13.57488,5.6997329 q 0,-0.6576641 0.421584,-1.4165076 h -1.146699 l -0.69139,1.2141484 v 0.303545 l 0.219224,0.3541254 0.337259,0.7588503 -0.303536,0.2360631 0.03374,0.2023855 -0.06745,0.2192244 0.03374,0.1011634 -0.03374,0.1348997 0.134907,0.3541241 -0.03374,0.1348997 -0.03374,0.067486 z"/>
    <path style="fill:#ffffff" d="m 8.3978739,5.1769771 q 0.6576645,-0.3372872 1.7369091,-0.3372872 1.231013,0 1.787499,0.3372872 L 12.445044,4.2832253 H 7.4366715 Z"/>
    <path style="fill:#ffffff" d="M 4.4350227,9.4602285 Q 5.6323094,8.5327547 7.2174498,8.3303953 V 8.1954955 q 0,-0.2867036 0.1854945,-0.4384486 Q 7.6053037,7.6053083 7.74021,7.6053083 v 0.033939 h 0.067453 l 0.1011765,0.033939 0.084318,-0.1348998 -0.084318,-0.3541241 q 0,-0.2360631 0.2866775,-0.5565096 0.2360827,-0.3709635 0.2360827,-0.6408328 0,-0.2866416 -0.1011765,-0.387867 L 6.9476386,4.2832253 H 4.4350227 Z"/>
    <path d="M 2.0404487,6.7115284 2.1416284,6.1213419 V 6.0201818 q -0.1349082,0.303545 -0.4721693,0.303545 -0.4890336,0 -0.4890336,-0.4552856 0,-0.4384473 0.4890336,-0.4384473 l 0.1349082,0.033939 Q 1.7031876,5.3627724 1.7031876,5.0086471 q 0,-0.5227687 0.4721694,-0.5227687 0.4890336,0 0.4890336,0.5227687 0,0.2529652 -0.2023594,0.4552855 l 0.2360879,-0.033939 q 0.4890336,0 0.4890336,0.4384473 0,0.4552856 -0.4890336,0.4552856 -0.3035385,0 -0.4721693,-0.303545 v 0.1011601 l 0.1011797,0.5901865 z"/>
    <path style="fill:#ffffff" d="m 14.299993,6.7790123 h 0.06745 q 0.219224,-0.4216086 0.219224,-1.0792468 0,-0.6913862 -0.286677,-1.1298332 z"/>
    <path style="fill:#ffffff" d="m 14.131362,6.7790123 h 0.03374 v -2.20908 q -0.269813,0.4384474 -0.269813,1.1298332 0,0.2360619 0.06745,0.5058653 0.06745,0.2529652 0.16863,0.573349 z"/>
    <path style="fill:#000000" d="M 5.8178062,7.942574 Q 5.9864364,7.6052887 5.9864364,7.2174524 V 7.0150676 q -0.2529457,0.5227667 -0.6576646,0.5227667 -0.6239354,0 -0.6239354,-0.6576639 0,-0.6576642 0.6239354,-0.6576642 L 5.5985817,6.3236663 Q 5.4299515,6.1212808 5.4299515,5.6660023 q 0,-0.2360618 0.1686302,-0.4216085 0.1686302,-0.2023855 0.4553051,-0.2023855 0.2698099,0 0.4384408,0.2023855 0.1854945,0.1854821 0.1854945,0.4216085 0,0.2698034 -0.2866742,0.657664 L 6.7790018,6.2225062 q 0.6239366,0 0.6239366,0.6576642 0,0.6576639 -0.6239366,0.6576639 -0.3878539,0 -0.6576647,-0.5227667 v 0.2023855 q 0,0.3878669 0.1686302,0.7251215 z"/>
    <path style="fill:#ffffff" d="M 7.9425688,8.4653427 8.2966928,8.2967 8.5327821,8.1280574 q 0.1011764,0.269806 0.2866775,0.269806 0.1349062,0 0.6576645,-0.5227667 0,0.033939 0.1349062,0.2023855 0.1349063,0.1518038 0.3372592,0.1518038 0.2866775,0 0.5396185,-0.354124 0.252948,-0.3709629 0.252948,-0.6239301 0,-0.2360632 -0.236083,-0.2360632 L 10.337144,7.1500672 10.016741,7.0151655 q 0.354125,-0.9949251 0.354125,-1.3827791 l -0.06745,-0.4552855 h -0.16863 q -0.6576642,0 -1.4165084,0.2866416 l 0.1011765,0.4721889 q 0,0.2867068 -0.2866775,0.657664 -0.2698125,0.387867 -0.2698125,0.5901872 l 0.06745,0.3203812 0.067453,0.1348998 L 7.9931485,8.0100265 7.8751071,7.9760878 H 7.7739307 l -0.033743,-0.033939 q -0.1686296,0 -0.1686296,0.2529672 0,0.269806 0.370989,0.269806 z"/>
    <path style="fill:#ffffff" d="m 10.893628,8.49928 q 0.101177,0 0.404719,-0.067486 0.320401,-0.067486 0.590213,-0.1517386 0.269813,-0.084325 0.269813,-0.1180609 0,-0.387867 -0.16863,-0.4552875 V 7.5380647 L 12.09092,7.3188403 11.433255,7.6392215 11.365802,7.571801 Q 11.61875,7.1501912 12.057193,7.1165136 L 12.02345,7.0153567 12.090903,6.9478709 12.310128,6.7792283 11.821091,5.9360694 V 5.4638804 Q 11.585002,5.3963966 11.298331,5.3289787 11.028518,5.2615608 10.674394,5.2109152 l 0.03374,0.4216085 -0.202359,1.0286534 q 0.590213,0.084325 0.590213,0.5901873 0,0.4890238 -0.52276,1.0117892 0.202359,0.2360631 0.3204,0.2360631 z"/>
    <path style="fill:#000000" d="m 11.753651,6.593739 q -0.387854,0 -1.011792,-0.3372866 L 11.06226,6.0203906 Q 11.500702,5.733749 11.787377,5.733749 l -0.03374,0.2529653 h -0.101176 l 0.03374,0.1686433 -0.06745,0.2360618 h 0.134906 z"/>
    <path style="fill:#ffffff" d="M 11.399526,6.290194 V 6.0541321 l -0.236083,0.1349017 z"/>
    <path style="fill:#ffffff" d="M 14.097637,7.251397 14.36745,7.2174583 V 7.0488157 h -0.269813 z"/>
    <path style="fill:#ffffff" d="m 14.063896,7.9090608 q 0.168629,0 0.269812,-0.1686426 l 0.151765,0.033939 q 0.269812,0 0.269812,-0.2360631 L 14.367431,7.470808 q -0.168629,0 -0.354124,0.084325 -0.185494,0.084324 -0.438442,0.2529672 z"/>
    <path style="fill:#ffffff" d="m 13.962716,8.9208501 0.03374,-0.118061 h 0.48903 q 0.20236,0 0.20236,-0.1011634 0,-0.1686426 -0.16863,-0.1686426 l -0.252948,0.033939 -0.370989,-0.033939 -0.03374,-0.1686426 q -0.219224,-0.4216099 -0.3204,-0.5227667 -0.337259,0 -0.505896,0.725115 z"/>
    <path style="fill:#ffffff" d="m 14.165075,8.2969213 q 0.556483,0 0.556483,-0.1686427 l -0.101176,-0.1854814 -0.06745,0.033939 -0.101177,-0.033939 -0.286677,0.1348997 -0.06745,0.1518039 z"/>
    <path style="fill:#ffffff" d="m 9.7806442,9.3930325 q 1.4839608,0 2.3102578,-0.7251216 l -0.101176,-0.067486 q -0.623937,0.2529672 -1.21415,0.2529672 -0.168629,0 -0.505895,-0.3541241 L 9.9492804,8.5667541 9.6120212,8.4992683 9.4771149,8.4317825 Q 9.1567141,8.7353249 8.8194504,8.7353249 L 8.5665028,8.7013862 8.4315965,8.6674475 Q 8.161784,8.8023473 7.9425662,8.8023473 q -0.2023595,0 -0.472172,-0.1686427 l -0.2529476,0.033939 q 1.4502352,0.7251216 2.5632061,0.7251216 z"/>
    <path style="fill:#ffffff" d="M 4.435011,10.084418 H 5.2613074 L 6.8801743,8.8534054 6.7789946,8.7690841 Q 5.1601278,9.2918528 4.4350103,9.9157816 Z"/>
    <path style="fill:#ffffff" d="m 14.485476,10.084418 h 0.927475 V 9.915775 Q 14.95766,9.6794521 14.249403,9.4096487 13.541149,9.1229412 12.54622,8.8025581 Z"/>
    <path style="fill:#ffffff" d="m 12.81602,10.084418 h 1.349066 L 12.377588,8.9208566 12.090914,9.1569184 Z"/>
    <path style="fill:#ffffff" d="M 5.5985716,10.084418 H 6.7115422 L 7.4366598,9.1906731 7.0488059,8.9882875 Z"/>
    <path style="fill:#ffffff" d="m 11.753638,10.084418 h 0.826296 L 11.92227,9.2581242 11.433236,9.4941854 Z"/>
    <path style="fill:#ffffff" d="M 6.9476268,10.084418 H 7.7739353 L 8.1280607,9.4604895 7.6052979,9.2581047 Z"/>
    <path style="fill:#ffffff" d="m 8.0268718,10.084418 h 0.725117 L 8.8531652,9.6797126 8.3304051,9.527974 Z"/>
    <path style="fill:#ffffff" d="m 10.809299,10.084418 h 0.691403 L 11.230889,9.5785557 10.674406,9.6797191 Z"/>
    <path style="fill:#ffffff" d="M 9.8818226,10.084418 H 10.60694 L 10.505764,9.7134554 9.8818272,9.7473941 Z"/>
    <path style="fill:#ffffff" d="M 8.9543476,10.084418 H 9.6794652 V 9.7471331 H 9.3590644 L 9.0555286,9.7131944 Z"/>
    <path style="fill:#ffffff" d="m 9.5782829,10.91072 0.3372657,-0.03394 q 0.067453,-0.202386 0.3204004,-0.202386 l 0.23609,0.1349 -0.03374,-0.1349 0.101176,-0.236063 H 9.6120238 l 0.1349063,0.236063 q 0,0.1349 -0.1686296,0.236064 z"/>
    <path style="fill:#ffffff" d="m 13.102691,10.91072 0.33726,-0.03394 q 0.06745,-0.202386 0.3204,-0.202386 l 0.23609,0.1349 -0.03374,-0.1349 0.101176,-0.236063 h -0.927442 l 0.134906,0.236063 q 0,0.1349 -0.16863,0.236064 z"/>
    <path style="fill:#ffffff" d="m 11.922267,10.91072 0.337266,-0.03394 q 0.08432,-0.202386 0.320401,-0.202386 l 0.236089,0.1349 -0.03374,-0.1349 0.101177,-0.236063 h -0.927449 l 0.134907,0.236063 q 0,0.1349 -0.16863,0.236064 z"/>
    <path style="fill:#ffffff" d="m 7.2174355,10.91072 0.354124,-0.03394 Q 7.672736,10.674395 7.8751019,10.674395 l 0.2529477,0.1349 -0.033743,-0.1349 0.1011764,-0.236063 H 7.2680393 l 0.1349063,0.236063 q 0,0.1349 -0.1854945,0.236064 z"/>
    <path style="fill:#ffffff" d="M 4.6036402,10.809559 4.5698973,10.67466 4.671077,10.438597 H 4.434989 v 0.269806 z"/>
    <path style="fill:#ffffff" d="m 14.266252,10.91072 0.354124,-0.03394 q 0.101183,-0.202386 0.303542,-0.202386 l 0.252948,0.1349 -0.05058,-0.1349 0.118042,-0.236063 h -0.944333 l 0.151764,0.236063 q 0,0.1349 -0.185494,0.236064 z"/>
    <path style="fill:#ffffff" d="m 4.8734515,10.91072 0.3541253,-0.03394 q 0.1011798,-0.202386 0.3035385,-0.202386 l 0.236088,0.1349 -0.033743,-0.1349 0.1180439,-0.236063 H 4.9071919 l 0.1349083,0.236063 q 0,0.1349 -0.1686303,0.236064 z"/>
    <path style="fill:#ffffff" d="M 8.3978595,10.91072 8.7519836,10.87678 Q 8.85316,10.674395 9.055526,10.674395 l 0.2360892,0.1349 -0.033743,-0.1349 0.1011765,-0.236063 h -0.927449 l 0.1349062,0.236063 q 0,0.1349 -0.1686295,0.236064 z"/>
    <path style="fill:#ffffff" d="m 10.741843,10.91072 0.354124,-0.03394 q 0.101177,-0.202386 0.303536,-0.202386 l 0.252948,0.1349 -0.03374,-0.1349 0.101176,-0.236063 h -0.944299 l 0.151765,0.236063 q 0,0.1349 -0.185495,0.236064 z"/>
    <path style="fill:#ffffff" d="m 6.0538751,10.91072 0.3372611,-0.03394 q 0.067451,-0.202386 0.3204027,-0.202386 l 0.2360892,0.1349 -0.033743,-0.1349 0.1011765,-0.236063 H 6.0876155 l 0.1349082,0.236063 q 0,0.1349 -0.1686302,0.236064 z"/>
    <path style="fill:#ffffff" d="M 7.268025,11.433488 H 8.1955007 Q 8.0943178,11.366068 8.0943178,11.197425 l 0.033743,-0.1349 -0.2529477,0.1349 q -0.2023594,0 -0.3035358,-0.168643 l -0.3035359,-0.05091 h -0.050582 l 0.1854945,0.219225 q 0,0.202385 -0.1349063,0.236063 z"/>
    <path style="fill:#ffffff" d="M 8.4315854,11.433488 H 9.3590612 Q 9.2578847,11.366068 9.2578847,11.197425 l 0.033743,-0.1349 -0.2360892,0.1349 q -0.2023595,0 -0.3035424,-0.168643 l -0.3204008,-0.05091 h -0.033743 l 0.1686296,0.219225 q 0,0.168642 -0.1349063,0.236063 z"/>
    <path style="fill:#ffffff" d="m 11.955994,11.433488 h 0.927476 q -0.101177,-0.06742 -0.101177,-0.236063 l 0.03374,-0.1349 -0.236089,0.1349 q -0.269813,0 -0.320401,-0.168643 l -0.303536,-0.05091 h -0.03374 l 0.16863,0.219225 q 0,0.168642 -0.134906,0.236063 z"/>
    <path style="fill:#ffffff" d="M 6.0876012,11.433488 H 7.0150917 Q 6.9139153,11.366068 6.9139153,11.197425 l 0.033743,-0.1349 -0.2360893,0.1349 q -0.2866742,0 -0.3204027,-0.168643 l -0.3035385,-0.05091 h -0.033743 l 0.1686303,0.219225 q 0,0.202385 -0.1349083,0.236063 z"/>
    <path style="fill:#ffffff" d="m 10.775571,11.433488 h 0.944338 q -0.101176,-0.06742 -0.101176,-0.236063 l 0.03374,-0.1349 -0.252948,0.1349 q -0.202359,0 -0.303542,-0.168643 l -0.320401,-0.05091 h -0.03374 l 0.185494,0.219225 q 0,0.202385 -0.151764,0.236063 z"/>
    <path style="fill:#ffffff" d="M 9.6120094,11.433488 H 10.5395 q -0.101177,-0.06742 -0.101177,-0.236063 l 0.03374,-0.1349 -0.236089,0.1349 q -0.2866777,0 -0.320401,-0.168643 l -0.3035359,-0.05091 h -0.033743 l 0.1686296,0.219225 q 0,0.202385 -0.1349063,0.236063 z"/>
    <path style="fill:#ffffff" d="m 4.9071776,11.433488 h 0.944339 q -0.118044,-0.06742 -0.118044,-0.236063 l 0.033743,-0.1349 -0.2360879,0.1349 q -0.2023594,0 -0.3035385,-0.168643 l -0.3204027,-0.05091 h -0.033743 l 0.1686302,0.219225 q 0,0.168642 -0.1349082,0.236063 z"/>
    <path style="fill:#ffffff" d="m 14.299978,11.433488 h 0.944339 q -0.118041,-0.06742 -0.118041,-0.236063 l 0.05058,-0.1349 -0.252947,0.1349 q -0.20236,0 -0.303536,-0.168643 l -0.320401,-0.05091 h -0.03374 l 0.185495,0.219225 q 0,0.168642 -0.151765,0.236063 z"/>
    <path style="fill:#ffffff" d="m 13.136417,11.433488 h 0.927477 q -0.101177,-0.06742 -0.101177,-0.236063 l 0.03374,-0.1349 -0.236089,0.1349 q -0.286678,0 -0.320401,-0.168643 l -0.303536,-0.05091 h -0.03374 l 0.16863,0.219225 q 0,0.202385 -0.134906,0.236063 z"/>
    <path style="fill:#ffffff" d="M 4.4350084,11.433488 H 4.6710963 Q 4.5699166,11.366068 4.5699166,11.197425 l 0.033743,-0.1349 -0.1686303,0.1349 z"/>
    <path style="fill:#ffffff" d="m 14.232525,14.688086 h 1.180438 v -2.90074 h -1.214149 q 0.48903,0.1349 0.809433,0.539606 0.337259,0.387867 0.337259,0.910609 0,0.505863 -0.320401,0.893752 -0.303536,0.370963 -0.79257,0.556509 z"/>
    <path style="fill:#ffffff" d="M 7.3017659,12.54619 Q 7.6053018,11.98968 8.2629682,11.787346 H 6.289974 q 0.6576646,0.134902 1.0117919,0.758844 z"/>
    <path style="fill:#ffffff" d="M 4.4350227,14.687819 H 5.6323094 Q 5.1938689,14.502336 4.8397391,14.131308 4.5024717,13.743441 4.5024717,13.237556 q 0,-0.522767 0.3204034,-0.91061 0.3372676,-0.404705 0.7757073,-0.539605 H 4.4350227 Z"/>
    <path style="fill:#ffffff" d="M 9.9155616,12.54619 Q 10.168507,11.989679 10.893627,11.787346 H 8.9206327 q 0.6913911,0.168643 0.9949289,0.758844 z"/>
    <path style="fill:#ffffff" d="m 12.54622,12.54619 q 0.236088,-0.556511 0.961202,-0.758844 h -1.972994 q 0.657665,0.168643 1.011792,0.758844 z"/>
    <path style="fill:#ffffff" d="m 13.861549,14.367415 q 0.472172,0 0.79257,-0.337285 0.337266,-0.354124 0.337266,-0.792572 0,-0.489031 -0.337266,-0.80943 -0.3204,-0.337285 -0.79257,-0.337285 -0.455307,0 -0.809433,0.320381 -0.337259,0.303542 -0.337259,0.826294 0,0.505863 0.354124,0.826301 0.370989,0.303543 0.79257,0.303543 z"/>
    <path style="fill:#ffffff" d="m 11.230891,14.367415 q 0.48903,0 0.809433,-0.337285 0.33726,-0.354124 0.33726,-0.792572 0,-0.522767 -0.33726,-0.826294 -0.3204,-0.320381 -0.809433,-0.320381 -0.489037,0 -0.826296,0.337285 -0.320401,0.320381 -0.320401,0.80943 0,0.505862 0.354124,0.826301 0.370989,0.303542 0.79257,0.303542 z"/>
    <path style="fill:#ffffff" d="m 5.9864366,14.367415 q 0.4384408,0 0.7757075,-0.303542 0.3541241,-0.320381 0.3541241,-0.826301 0,-0.522767 -0.370989,-0.826295 -0.3541254,-0.320381 -0.7588439,-0.320381 -0.4890336,0 -0.8262964,0.337286 -0.3204034,0.320381 -0.3204034,0.809429 0,0.438449 0.3204034,0.792572 0.3372611,0.337286 0.8262964,0.337286 z"/>
    <path style="fill:#ffffff" d="m 8.600232,14.367415 q 0.4890303,0 0.8094337,-0.337285 0.3372657,-0.354124 0.3372657,-0.792572 0,-0.522767 -0.370989,-0.826294 -0.3541241,-0.320381 -0.7757065,-0.320381 -0.4384422,0 -0.7925701,0.337285 -0.3372657,0.320381 -0.3372657,0.80943 0,0.505862 0.3372657,0.826301 0.354124,0.303542 0.7925701,0.303542 z"/>
    <path style="fill:#ffffff" d="M 6.3237001,14.687799 H 8.2966948 Q 7.6390303,14.536058 7.3017659,13.928975 7.0150917,14.502323 6.3237001,14.687819 Z"/>
    <path style="fill:#ffffff" d="M 8.9543593,14.687799 H 10.927353 Q 10.269689,14.502317 9.9155616,13.928955 9.6457491,14.502304 8.9543593,14.687799 Z"/>
    <path style="fill:#ffffff" d="m 11.585018,14.687799 h 1.956131 q -0.691392,-0.185482 -0.994929,-0.758824 -0.286675,0.573348 -0.961202,0.758844 z"/>
    <path style="fill:#ffffff" d="m 11.466974,15.514093 q -0.16863,-0.03394 -0.16863,-0.252967 l 0.101177,-0.236063 h -0.893748 l 0.101176,0.236063 -0.03374,0.151738 0.236089,-0.151738 q 0.286677,0 0.320401,0.219224 z"/>
    <path style="fill:#ffffff" d="m 15.278057,15.412933 0.134899,-0.118061 v -0.269806 h -0.202359 l 0.101183,0.236063 z"/>
    <path style="fill:#ffffff" d="m 13.827822,15.514093 q -0.185495,-0.06748 -0.185495,-0.252965 l 0.118041,-0.236063 h -0.910611 l 0.101177,0.236063 -0.03374,0.151738 0.252948,-0.151738 q 0.202359,0 0.303535,0.219224 z"/>
    <path style="fill:#ffffff" d="m 14.991382,15.514093 q -0.168629,-0.03394 -0.168629,-0.252967 l 0.101183,-0.236063 h -0.893755 l 0.101183,0.236063 -0.03374,0.151738 0.236089,-0.151738 q 0.286678,0 0.320401,0.219224 z"/>
    <path style="fill:#ffffff" d="M 6.7790057,15.514093 Q 6.6103748,15.44661 6.6103748,15.261128 L 6.7115513,15.025065 H 5.8178049 l 0.1011797,0.236063 -0.033743,0.151738 0.2360879,-0.151738 q 0.2023594,0 0.3035385,0.219224 z"/>
    <path style="fill:#ffffff" d="M 9.1229895,15.514093 Q 8.95436,15.446607 8.95436,15.261126 L 9.0555364,15.025063 H 8.1617892 l 0.1011764,0.236063 -0.033743,0.151738 0.2360893,-0.151738 q 0.2866774,0 0.3204008,0.219224 z"/>
    <path style="fill:#ffffff" d="m 10.303414,15.514093 q -0.16863,-0.06749 -0.16863,-0.252967 L 10.23596,15.025063 H 9.3253496 l 0.1180414,0.236063 -0.033743,0.151738 0.2360892,-0.151738 q 0.2023594,0 0.3035359,0.219224 z"/>
    <path style="fill:#ffffff" d="M 7.9425662,15.514093 Q 7.7739366,15.480154 7.7739366,15.261191 L 7.875113,15.025128 H 6.9813651 l 0.1011765,0.236063 -0.033743,0.151739 0.2529476,-0.151739 q 0.2698126,0 0.3035359,0.219224 z"/>
    <path style="fill:#ffffff" d="M 5.598582,15.514093 Q 5.4299518,15.480154 5.4299518,15.261126 L 5.5311315,15.025063 H 4.6373806 l 0.1011797,0.236063 -0.033743,0.151738 0.2360814,-0.151738 q 0.2866742,0 0.3204034,0.219224 z"/>
    <path style="fill:#ffffff" d="m 12.647397,15.514093 q -0.168629,-0.06749 -0.168629,-0.252967 l 0.101176,-0.236063 h -0.893747 l 0.101176,0.236063 -0.03374,0.151738 0.236089,-0.151738 q 0.202359,0 0.320401,0.219224 z"/>
    <path style="fill:#ffffff" d="m 5.8178035,16.036862 h 0.8937491 q -0.101183,-0.08432 -0.101183,-0.252967 l 0.1686296,-0.202386 -0.3878539,0.03394 Q 6.2899656,15.78409 6.1213354,15.78409 l -0.236088,-0.134899 0.033743,0.134899 z"/>
    <path style="fill:#ffffff" d="M 9.3253483,16.036862 H 10.23596 q -0.101176,-0.08432 -0.101176,-0.252967 l 0.16863,-0.202386 -0.3878543,0.03394 Q 9.8143832,15.78409 9.6457471,15.78409 l -0.2360892,-0.134899 0.033743,0.134899 z"/>
    <path style="fill:#ffffff" d="M 6.9813638,16.036862 H 7.875115 Q 7.773932,15.952537 7.773932,15.78396 l 0.1686296,-0.202386 -0.370989,0.03394 Q 7.5041195,15.784156 7.30176,15.784156 l -0.2529476,-0.1349 0.033743,0.1349 z"/>
    <path style="fill:#ffffff" d="M 8.1617879,16.036862 H 9.0555371 Q 8.9543606,15.952537 8.9543606,15.783895 l 0.1686296,-0.202386 -0.370989,0.03394 Q 8.6676831,15.78409 8.4653237,15.78409 l -0.2360892,-0.134899 0.033743,0.134899 z"/>
    <path style="fill:#ffffff" d="M 4.6373793,16.036862 H 5.5311291 Q 5.4299494,15.952537 5.4299494,15.783895 L 5.5985797,15.581509 5.22759,15.615448 Q 5.1601389,15.78409 4.9409158,15.78409 l -0.2360814,-0.134899 0.033743,0.134899 z"/>
    <path style="fill:#ffffff" d="m 12.849756,16.036862 h 0.910613 q -0.118041,-0.08432 -0.118041,-0.252967 l 0.185494,-0.202386 -0.387854,0.03394 q -0.06745,0.168642 -0.269812,0.168642 l -0.252948,-0.134899 0.03374,0.134899 z"/>
    <path style="fill:#ffffff" d="m 14.03018,16.036862 h 0.89375 q -0.101183,-0.08432 -0.101183,-0.252967 l 0.16863,-0.202386 -0.370989,0.03394 q -0.06745,0.168642 -0.286678,0.168642 l -0.236089,-0.134899 0.03374,0.134899 z"/>
    <path style="fill:#ffffff" d="m 10.505772,16.036862 h 0.893751 q -0.101177,-0.08432 -0.101177,-0.252967 l 0.16863,-0.202386 -0.370989,0.03394 q -0.06745,0.168642 -0.286678,0.168642 l -0.236089,-0.134899 0.03374,0.134899 z"/>
    <path style="fill:#ffffff" d="m 11.686196,16.036862 h 0.893749 q -0.10118,-0.08432 -0.10118,-0.252966 l 0.16863,-0.202385 -0.387854,0.03394 q -0.101177,0.168642 -0.269813,0.168642 l -0.236089,-0.134899 0.03374,0.134899 z"/>
    <path style="fill:#ffffff" d="m 15.210604,16.036862 h 0.20236 v -0.252967 l -0.1349,-0.06749 0.03374,0.06749 z"/>
    <path style="fill:#ffffff" d="M 7.4703975,17.554562 7.7402074,17.301597 7.0150904,16.374116 H 5.6660355 Z"/>
    <path style="fill:#ffffff" d="m 13.068979,17.689464 q 1.618867,-0.522769 2.343984,-1.146698 v -0.168643 h -0.826296 l -1.63573,1.24789 z"/>
    <path style="fill:#ffffff" d="m 9.3253496,16.761983 0.6239366,-0.05091 V 16.37379 H 9.2241699 Z"/>
    <path style="fill:#ffffff" d="m 10.775585,16.761983 0.118041,-0.387867 h -0.725119 v 0.337286 h 0.337265 z"/>
    <path style="fill:#ffffff" d="M 7.9088409,17.200431 8.3978712,16.964367 8.0943354,16.37418 H 7.2680393 Z"/>
    <path style="fill:#ffffff" d="M 8.600232,16.896885 9.1567155,16.795722 9.0218157,16.374112 H 8.3304207 Z"/>
    <path style="fill:#ffffff" d="m 11.500702,16.930822 0.320403,-0.55651 h -0.72512 l -0.101176,0.42161 z"/>
    <path style="fill:#ffffff" d="m 12.22582,17.200626 0.657664,-0.826301 h -0.826297 l -0.337259,0.62393 z"/>
    <path style="fill:#ffffff" d="M 7.3017659,17.655742 5.3624981,16.374136 H 4.4350227 v 0.168643 q 0.4384408,0.252967 1.1635606,0.505862 0.7251168,0.252967 1.7031826,0.607101 z"/>
    <path style="fill:#ffffff" d="m 12.782304,17.487111 1.450236,-1.112975 h -1.096108 l -0.725117,0.893752 z"/>
    <path style="fill:#ffffff" d="m 4.4350227,22.175081 h 0.9612021 q -0.4553051,-0.65767 -0.4553051,-1.416514 0,-0.62393 0.2529457,-1.062383 v -0.489023 q -0.387854,-0.101164 -0.387854,-0.269807 0,-0.252967 0.1686303,-0.320381 L 4.8397334,18.347167 q 0,-0.219224 0.2023595,-0.320381 -0.1686303,-0.101163 -0.1686303,-0.269806 0,-0.269806 0.5227622,-0.42161 L 4.4350227,16.930666 Z"/>
    <path style="fill:#ffffff" d="m 12.883484,22.175081 h 2.529479 v -5.177003 q -0.657665,0.489027 -1.349055,0.758843 -0.691392,0.269804 -1.450235,0.370964 v 0.151738 q 0,0.236064 -0.20236,0.404706 -0.185494,0.168643 -0.3204,0.168643 l -0.06745,-0.03394 -0.101176,-0.03394 -0.06745,0.151739 0.06745,0.337285 q 0,0.168643 -0.236083,0.55651 -0.286677,0.303542 -0.286677,0.657664 0,0.269806 0.101176,0.370963 z"/>
    <path style="fill:#ffffff" d="m 10.370867,18.026731 q 0.303539,-0.303545 0.657666,-0.303545 l 0.236082,0.03394 0.134907,0.03394 q 0.286677,-0.1349 0.48903,-0.1349 0.202359,0 0.48903,0.168643 l 0.236089,-0.03394 q -1.450229,-0.725118 -2.5632,-0.725118 -1.4165086,0 -2.3102584,0.725115 l 0.1011765,0.06749 q 0.2866774,-0.101157 0.5902133,-0.168643 0.3204008,-0.06748 0.6239366,-0.06748 0.101183,0 0.5227602,0.337285 l 0.3035358,-0.06749 0.354124,0.06749 z"/>
    <path style="fill:#ffffff" d="m 6.289974,18.616918 q 0.3878539,0 0.5227622,-0.725121 l -0.9274761,-0.337285 -0.033743,0.101163 -0.4890336,-0.03394 q -0.2023594,0.03394 -0.2023594,0.1349 0,0.168643 0.1686302,0.168643 l 0.2698099,-0.06749 0.3541254,0.06749 v 0.202385 q 0.067451,0.219225 0.3372677,0.489024 z"/>
    <path style="fill:#ffffff" d="m 9.1567174,21.247575 -0.033743,-0.42161 0.2023594,-1.02866 q -0.5733484,-0.06749 -0.5733484,-0.590188 0,-0.48903 0.5058953,-0.994931 -0.2360827,-0.252967 -0.3035359,-0.252967 -0.1011764,0 -0.4215837,0.06742 -0.3035424,0.06749 -0.5902133,0.168643 -0.2698126,0.08432 -0.2698126,0.118061 0,0.404706 0.1686296,0.438448 v 0.185482 l -0.1011764,0.202385 0.6576651,-0.320381 0.067453,0.06749 q -0.2023592,0.35412 -0.6913908,0.455283 l 0.033743,0.101157 -0.1011765,0.06742 -0.1686295,0.185481 q 0.067453,0.1349 0.1854944,0.337286 0.1180414,0.202385 0.3035424,0.489023 v 0.472192 q 0.2360827,0.08432 0.5058953,0.151738 0.2866709,0.06749 0.6239366,0.101164 z"/>
    <path style="fill:#ffffff" d="M 5.851531,22.175055 H 6.9813651 L 7.6727562,20.9609 V 20.657357 L 7.4703968,20.303233 7.1162727,19.54439 l 0.3204008,-0.236063 -0.033743,-0.236064 0.067453,-0.185481 -0.033743,-0.101157 0.033743,-0.1349 -0.1349062,-0.337285 0.033743,-0.151739 0.033743,-0.06749 -0.3204007,-0.101164 Q 6.8801972,18.78562 6.4248914,18.8868 l -0.4047181,0.219225 v 0.590187 q 0.2360879,0.269806 0.2360879,1.062382 0,0.623931 -0.4047182,1.416514 z"/>
    <path style="fill:#ffffff" d="m 9.5445713,21.281329 h 0.1686296 q 0.6576641,0 1.4165091,-0.28671 l -0.101177,-0.472192 q 0,-0.286644 0.269813,-0.657663 0.286677,-0.455288 0.286677,-0.590188 l -0.08432,-0.303542 -0.06745,-0.151739 0.421584,-0.370962 0.101183,0.03394 0.134906,0.03394 q 0.16863,0 0.16863,-0.236063 0,-0.286645 -0.370989,-0.286645 l -0.590214,0.354124 q -0.101176,-0.286645 -0.269812,-0.286645 -0.134907,0 -0.657665,0.522767 0,-0.03394 -0.151765,-0.185481 -0.134906,-0.151739 -0.3372593,-0.151739 -0.2360892,0 -0.5227602,0.370963 -0.2698125,0.354124 -0.2698125,0.590187 0,0.236063 0.2360892,0.236063 l 0.1854945,-0.1349 0.3035359,0.1349 q -0.1348998,0.522767 -0.2360893,0.876888 -0.1011764,0.337285 -0.1011764,0.505862 z"/>
    <path style="fill:#ffffff" d="m 5.2275924,18.515765 0.067451,-0.03394 0.1011797,0.03394 0.2698099,-0.1349 0.1011797,-0.1349 -0.1011797,-0.08432 q -0.5396199,0 -0.5396199,0.185481 z"/>
    <path style="fill:#000000" d="m 13.794097,21.416231 q -0.286678,0 -0.455307,-0.185482 -0.16863,-0.202385 -0.16863,-0.438448 0,-0.337286 0.20236,-0.590187 l -0.303536,0.03394 q -0.623937,0 -0.623937,-0.657664 0,-0.640834 0.623937,-0.640834 0.404719,0 0.657664,0.505927 v -0.202385 q 0,-0.455288 -0.185494,-0.725115 h 0.48903 q -0.16863,0.269806 -0.16863,0.725115 v 0.202385 q 0.303536,-0.505927 0.657665,-0.505927 0.607078,0 0.607078,0.640834 0,0.657664 -0.607078,0.657664 h -0.387854 q 0.269813,0.387867 0.269813,0.55651 0,0.236063 -0.16863,0.438448 -0.16863,0.185482 -0.438442,0.185482 z"/>
    <path style="fill:#ffffff" d="m 5.4636776,19.004798 q 0.4215825,0 0.7925704,-0.354124 L 5.7672143,18.549511 q -0.2360879,0 -0.2698099,0.168643 l -0.1349082,-0.03394 q -0.26981,0 -0.26981,0.252967 z"/>
    <path style="fill:#ffffff" d="m 5.4636776,19.409504 h 0.26981 v -0.202386 l -0.26981,0.03394 z"/>
    <path style="fill:#ffffff" d="m 5.6660368,21.93898 q 0.2866742,-0.48903 0.2866742,-1.180426 0,-0.55651 -0.2529457,-1.062383 h -0.033743 z"/>
    <path style="fill:#ffffff" d="m 5.5311285,21.93898 v -2.242796 h -0.067451 q -0.2023594,0.404706 -0.2023594,1.062383 0,0.691392 0.2698099,1.180426 z"/>
    <path d="m 17.655766,21.972917 q -0.48903,0 -0.48903,-0.522766 0,-0.269806 0.219224,-0.42161 h -0.252947 q -0.472172,0 -0.472172,-0.438449 0,-0.455287 0.472172,-0.455287 0.387854,0 0.48903,0.320381 v -0.101157 l -0.101176,-0.590187 h 0.269812 l -0.101176,0.590187 v 0.101157 q 0.101176,-0.320381 0.48903,-0.320381 0.472172,0 0.472172,0.455287 0,0.438449 -0.472172,0.438449 h -0.252948 q 0.219225,0.219224 0.219225,0.42161 0,0.522766 -0.489031,0.522766 z"/>
    <path style="fill:#000000" d="m 8.0606075,20.725041 0.033743,-0.236063 H 8.1955268 L 8.161784,20.303496 8.2292371,20.067433 H 8.0943308 V 19.86505 q 0.3372592,0 0.9949283,0.337285 l -0.3035359,0.286711 q -0.3541241,0.236063 -0.7251176,0.236063 z"/>
    <path style="fill:#ffffff" d="M 8.4315972,20.421495 8.6676864,20.269757 8.4315972,20.1686 Z"/>
    <path style="fill:#ffffff" d="m 7.402945,22.175081 h 5.00837 l -0.978066,-0.893752 q -0.758844,0.337287 -1.7200461,0.337287 -1.1804234,0 -1.804362,-0.337285 z"/>
    <path d="m 17.065557,25.041818 v -1.618866 q 0,-0.792566 0.79257,-0.792566 0.758844,0 0.758844,0.725114 v 0.202386 h -0.438442 v -0.101163 q 0,-0.42161 -0.320401,-0.42161 -0.269813,0 -0.269813,0.42161 v 1.585138 z"/>
</svg>