<svg xmlns="http://www.w3.org/2000/svg" width="74.952217" height="100" viewBox="0 0 19.831107 26.458333">
    <path d="m 1.1804256,26.458332 q -0.72511751,0 -0.96120212,-0.219224 Q 0,26.003047 0,25.277906 V 1.1804001 Q 0,0.45528525 0.21922348,0.23606177 0.45531135,0 1.1804256,0 H 18.650697 q 0.725118,0 0.94434,0.23606177 0.236089,0.21922348 0.236089,0.94433833 V 25.277906 q 0,0.725121 -0.236089,0.961203 -0.219225,0.219224 -0.94434,0.219224 z"/>
    <path style="fill:#ffffff" d="M 1.3827848,25.969305 H 18.44834 q 0.590213,0 0.74198,-0.151738 0.151765,-0.151739 0.151765,-0.74198 V 1.3827919 q 0,-0.62392876 -0.151765,-0.75884352 Q 19.038554,0.4890466 18.44834,0.4890466 H 1.3827841 q -0.60707759,0 -0.75884356,0.13490178 -0.1349083,0.1349017 -0.1349083,0.75884352 V 25.075586 q 0,0.590187 0.1349083,0.741979 0.1517661,0.151739 0.75884426,0.15174 z"/>
    <path d="M 1.2141543,3.8447913 V 1.4164945 H 1.7369164 V 2.4282838 L 2.6643873,1.416488 H 3.3220519 L 2.3945759,2.3945485 3.3895048,3.8447848 H 2.7318401 L 2.0067226,2.731816 1.7369126,3.0353612 v 0.8094301 z"/>
    <path d="M 3.9459918,22.664121 V 3.8110627 H 15.901999 V 22.664121 Z"/>
    <path style="fill:#ffffff" d="M 15.412966,10.151628 V 4.2832383 h -1.905541 l -0.691392,1.3153281 q 0.792571,0.2023855 0.792571,0.8937453 0,0.2529652 -0.03374,0.4721883 -0.03374,0.2192243 -0.101177,0.3878669 l -0.101183,0.4890304 0.03374,0.2360631 q 0.320401,0.2192243 0.320401,0.4890304 L 13.608604,8.9881006 13.794098,9.089264 V 5.4636515 l 0.691391,-1.0117892 0.725118,0.9443383 v 4.6205124 z"/>
    <path style="fill:#ffffff" d="M 8.1617911,5.0420819 Q 8.6339631,4.569893 9.1229935,4.569893 q 0.5902133,0 0.8937495,0.303545 0.185495,-0.3372873 0.590214,-0.3372873 0.48903,0 0.657664,0.3709636 0.20236,-0.303545 0.691391,-0.303545 0.421584,0 0.758844,0.3372872 L 13.068981,4.2831927 H 7.7064828 Z"/>
    <path style="fill:#ffffff" d="M 4.4350247,9.2916048 Q 4.907194,9.0555416 5.3962267,8.886899 5.8852603,8.7014175 6.3911555,8.6676747 6.4586067,8.0774874 7.0150909,8.0774874 q 0.3204007,0 0.455307,0.1517386 Q 7.5715744,7.1162577 8.0943345,5.6660211 L 7.26804,4.2832318 H 4.4350227 Z"/>
    <path d="M 2.0404507,6.711535 2.1416304,6.1213484 V 6.0201883 q -0.1349082,0.303545 -0.4721694,0.303545 -0.4890336,0 -0.4890336,-0.4552855 0,-0.4384474 0.4890336,-0.4384474 l 0.1349083,0.033939 Q 1.7031896,5.362779 1.7031896,5.0086536 q 0,-0.5227687 0.4721693,-0.5227687 0.4890336,0 0.4890336,0.5227687 0,0.2529652 -0.2023594,0.4552855 l 0.236088,-0.033939 q 0.4890336,0 0.4890336,0.4384474 0,0.4552855 -0.4890336,0.4552855 -0.3035385,0 -0.4721694,-0.303545 V 6.1213484 L 2.3271314,6.711535 Z"/>
    <path style="fill:#ffffff" d="m 11.129712,5.3287498 q -0.20236,-0.5227687 -0.522761,-0.5227687 -0.337265,0 -0.556483,0.4890271 h 0.758844 z"/>
    <path style="fill:#ffffff" d="m 13.996455,12.445016 0.48903,-0.08432 0.505896,0.08432 V 5.4973803 L 14.485489,4.8397162 13.996455,5.5311024 Z"/>
    <path style="fill:#ffffff" d="M 8.4653263,5.4973803 9.9155616,5.328737 Q 9.7132022,4.8734515 9.190444,4.8734515 q -0.4384422,0 -0.8600226,0.4216085 z"/>
    <path style="fill:#ffffff" d="m 12.411315,5.4973803 0.134907,-0.2867069 q -0.23609,-0.3372872 -0.590214,-0.3372872 -0.370989,0 -0.691391,0.4552855 0.387854,0.033939 0.657665,0.067419 0.269813,0.033939 0.489031,0.1011601 z"/>
    <path style="fill:#000000" d="M 5.8178049,7.9425414 Q 5.9864351,7.6052561 5.9864351,7.2174263 V 7.0150415 q -0.2529457,0.5227667 -0.6576646,0.5227667 -0.6239354,0 -0.6239354,-0.6576639 0,-0.6576642 0.6239354,-0.6576642 L 5.5985804,6.3236402 Q 5.4299502,6.1212547 5.4299502,5.6659762 q 0,-0.2360618 0.1686302,-0.4216085 0.1686302,-0.2023203 0.4553051,-0.2023203 0.2698099,0 0.4384408,0.2023203 0.1854945,0.1854821 0.1854945,0.4216085 0,0.2698034 -0.2866742,0.657664 L 6.7790005,6.2224801 q 0.6239366,0 0.6239366,0.6576642 0,0.6576639 -0.6239366,0.6576639 -0.3878539,0 -0.6576648,-0.5227667 V 7.217427 q 0,0.3878669 0.1686303,0.725115 z"/>
    <path style="fill:#ffffff" d="m 11.365796,8.7013849 q 0.286678,0 0.52276,-0.050908 0.23609,-0.050908 0.421584,-0.084325 L 12.34388,8.1277098 11.618762,7.807326 h -0.185494 l -0.370989,0.067486 -0.421584,0.1011569 h -0.202359 l -0.06745,-0.033939 V 7.8071306 h 0.269812 l 0.387854,-0.2023856 0.236089,0.033939 0.06745,-0.1686426 0.101177,-0.033939 0.286677,0.067486 q 0.101177,0 0.101177,-0.1518038 0,-0.3035424 -0.16863,-0.4721916 -0.185494,-0.2866448 -0.185494,-0.6239288 0,-0.2698034 0.590213,-0.2698034 l 0.455307,0.1011601 V 5.9015386 Q 11.652499,5.6991531 10.5058,5.6991531 H 9.9830402 Q 9.8481339,6.3568171 9.7975457,6.862709 9.746964,7.3517328 9.746964,7.7058738 v 0.5227668 q 1.028655,0.4721915 1.618867,0.4721915 z"/>
    <path style="fill:#ffffff" d="m 7.993157,9.190412 h 0.5733484 q 0.5902133,0 0.7082547,-0.2023855 0.1348997,-0.2192244 0.1348997,-1.2815992 0,-1.1129755 0.2023594,-1.9729984 -0.5564835,0 -1.2816024,0.2023855 L 7.8751143,7.6727249 7.7739346,8.3641173 V 8.6001804 L 7.4703922,8.6676662 Q 7.4366493,8.3978601 7.0825383,8.3978601 q -0.3372591,0 -0.3372591,0.3709629 0,0.4216099 1.2478758,0.4216099 z"/>
    <path style="fill:#ffffff" d="m 13.06898,9.0892519 q 0.370989,0 0.370989,-0.4890304 l -0.269813,-0.3035424 -0.03374,-0.5901872 0.06745,-0.4216098 q 0.134906,-0.3035424 0.134906,-0.7925724 0,-0.4047051 -0.489031,-0.6239288 l 0.06745,1.0117915 q -0.134906,0.7588435 -0.185494,1.2310122 -0.05058,0.4552875 -0.05058,0.6239301 l -0.134906,0.06742 q 0.168629,0.2866384 0.52276,0.2866384 z"/>
    <path style="fill:#000000" d="M 11.230891,6.3911386 11.028531,6.2562369 10.674407,6.1550767 q -0.370989,0 -0.657664,0.1686433 L 9.9829997,6.2225599 10.016743,6.1213998 q 0.118041,-0.2192237 0.657664,-0.2192237 0.421584,0 0.657665,0.2192237 l 0.03374,0.067483 -0.101177,0.2023856 z"/>
    <path style="fill:#ffffff" d="M 12.377588,7.9762829 12.579947,6.8801724 12.546207,6.3236615 12.0909,6.2225014 11.821087,6.2899194 v 0.067484 l 0.269813,-0.067484 0.286677,0.067484 0.134906,0.2023848 -0.168629,-0.033939 q 0,0.1349018 -0.151765,0.1349018 -0.134906,0 -0.134906,-0.1349018 l -0.20236,0.033939 0.134907,0.3203812 0.202359,0.5227667 q 0,0.1686427 -0.134906,0.3035424 z"/>
    <path style="fill:#000000" d="m 10.606953,6.6609422 q -0.134907,0 -0.134907,-0.1349017 H 10.37087 l -0.16863,0.033939 0.134907,-0.2023856 0.303536,-0.067484 0.3204,0.067484 -0.03374,0.2023856 -0.185494,-0.033939 q 0,0.1349017 -0.134906,0.1349017 z"/>
    <path style="fill:#000000" d="m 11.062258,8.1954936 v -0.067486 l 0.472172,-0.118061 0.48903,0.118061 v 0.067486 h -0.168629 l -0.320401,-0.033939 -0.303536,0.033939 z"/>
    <path style="fill:#000000" d="m 11.500698,8.3641368 -0.303536,-0.067486 v -0.067421 l 0.303536,0.033939 0.320401,-0.033939 v 0.067421 z"/>
    <path style="fill:#ffffff" d="m 9.9492843,10.151635 q 1.3490557,0 2.7992897,-0.8262952 l -0.337259,-0.2023855 -0.151764,-0.1686426 -0.101177,0.033939 0.101177,0.4721916 -0.23609,0.067486 -0.168629,-0.5059279 -0.06745,0.033939 0.03374,0.5565096 -0.20236,0.033939 -0.151765,-0.5901872 h -0.03374 l -0.03374,0.6913924 h -0.20236 l -0.06745,-0.6914028 h -0.03374 L 10.859878,9.7813119 10.640654,9.7473729 10.77556,9.0222586 10.70811,8.9883196 10.337121,9.7471631 10.134761,9.6796771 10.337121,8.9208335 10.269671,8.8533475 9.7806168,9.6459135 9.5782574,9.578493 9.84807,8.7016055 9.8143271,8.6676668 9.7131506,8.6001811 Q 9.6794078,9.1229478 9.4096148,9.3253026 9.1566672,9.5276881 8.4652754,9.5276881 H 7.6727549 q 1.1129709,0.6239299 2.2765313,0.6239299 z"/>
    <path style="fill:#ffffff" d="m 7.301762,13.541134 v -0.62393 q -1.6694559,-0.590187 -1.6694559,-2.141629 0,-0.8262946 0.3541254,-1.416508 Q 5.9189803,9.089261 5.5985776,9.089261 L 5.3962182,9.156747 q -0.3878539,0.6913924 -0.3878539,1.618867 0,2.074177 2.2933944,2.765564 z"/>
    <path style="fill:#000000" d="m 5.5648572,9.7131807 q -0.2023594,0 -0.2023594,-0.2192244 0,-0.2023855 0.2023594,-0.2023855 0.2023594,0 0.2023594,0.2023855 0,0.2192244 -0.2023594,0.2192244 z"/>
    <path style="fill:#ffffff" d="M 7.7402094,10.303368 7.6053031,9.9829867 6.9813665,9.7469236 7.1837259,10.117886 Z"/>
    <path style="fill:#ffffff" d="m 12.090914,10.303368 0.556483,-0.185482 0.20236,-0.3709624 -0.623937,0.2360631 z"/>
    <path style="fill:#000000" d="m 5.3962248,10.252461 q -0.2023594,0 -0.2023594,-0.202385 0,-0.2023859 0.2023594,-0.2023859 0.2023594,0 0.2023594,0.2023859 0,0.202385 -0.2023594,0.202385 z"/>
    <path style="fill:#ffffff" d="m 8.0268836,10.977576 -0.1854945,-0.438448 -0.5058953,-0.1349 0.1686296,0.438448 z"/>
    <path style="fill:#ffffff" d="m 11.821103,10.977576 0.522754,-0.1349 0.16863,-0.438448 -0.522761,0.1349 z"/>
    <path style="fill:#000000" d="m 5.328772,10.876416 q -0.2023595,0 -0.2023595,-0.20232 0,-0.202386 0.2023595,-0.202386 0.2023594,0 0.2023594,0.202386 0,0.20232 -0.2023594,0.20232 z"/>
    <path style="fill:#000000" d="m 5.3962228,11.466603 q -0.2023594,0 -0.2023594,-0.202385 0,-0.202386 0.2023594,-0.202386 0.2023594,0 0.2023594,0.202386 0,0.202385 -0.2023594,0.202385 z"/>
    <path style="fill:#ffffff" d="M 8.1955138,11.635247 8.0943373,11.230541 7.605307,11.129377 7.7064834,11.50034 Z"/>
    <path style="fill:#ffffff" d="m 11.652469,11.635247 0.472172,-0.1349 0.101177,-0.370963 -0.472172,0.101163 z"/>
    <path style="fill:#000000" d="m 5.5648553,12.056856 q -0.2023595,0 -0.2023595,-0.202386 0,-0.219224 0.2023595,-0.219224 0.2023594,0 0.2023594,0.219224 0,0.202386 -0.2023594,0.202386 z"/>
    <path style="fill:#ffffff" d="m 11.534427,12.326659 0.455307,-0.101163 0.06745,-0.438449 -0.438442,0.101157 z"/>
    <path style="fill:#ffffff" d="m 8.2966928,12.326659 -0.067453,-0.438448 -0.455307,-0.101157 0.067453,0.438448 z"/>
    <path style="fill:#000000" d="m 5.8515297,12.579624 q -0.2192237,0 -0.2192237,-0.219224 0,-0.202385 0.2192237,-0.202385 0.2023594,0 0.2023594,0.202385 0,0.219224 -0.2023594,0.219224 z"/>
    <path style="fill:#ffffff" d="m 8.3641453,13.08549 -0.033743,-0.438449 -0.455307,-0.101157 0.033743,0.202386 v 0.236063 z"/>
    <path style="fill:#000000" d="m 6.3236988,12.950588 q -0.2023594,0 -0.2023594,-0.202386 0,-0.202385 0.2023594,-0.202385 0.2192237,0 0.2192237,0.202385 0,0.202386 -0.2192237,0.202386 z"/>
    <path style="fill:#ffffff" d="m 11.466974,13.08549 0.455307,-0.101164 v -0.236063 l 0.03374,-0.202385 -0.455307,0.101156 z"/>
    <path style="fill:#ffffff" d="m 14.519212,13.169812 q 0.725118,0 0.725118,-0.286645 0,-0.269806 -0.725118,-0.269806 -0.725117,0 -0.725117,0.269806 0,0.286645 0.725117,0.286645 z"/>
    <path style="fill:#000000" d="m 6.8464576,13.270971 q -0.2023594,0 -0.2023594,-0.219224 0,-0.202386 0.2023594,-0.202386 0.2023594,0 0.2023594,0.202386 0,0.219224 -0.2023594,0.219224 z"/>
    <path style="fill:#ffffff" d="m 14.232538,17.368728 0.219225,-0.06742 q 0.370989,-0.691393 0.370989,-1.618867 0,-2.1079 -2.276532,-2.765564 v 0.62393 q 1.652593,0.55651 1.652593,2.141629 0,0.826294 -0.337259,1.416508 0.101183,0.269806 0.370989,0.269806 z"/>
    <path style="fill:#000000" d="m 12.984664,13.608578 q -0.20236,0 -0.20236,-0.202385 0,-0.202386 0.20236,-0.202386 0.219224,0 0.219224,0.202386 0,0.202385 -0.219224,0.202385 z"/>
    <path style="fill:#ffffff" d="m 5.328772,13.84466 q 0.7251175,0 0.7251175,-0.269806 0,-0.269806 -0.7251175,-0.269806 -0.7251175,0 -0.7251175,0.269806 0,0.269806 0.7251175,0.269806 z"/>
    <path style="fill:#ffffff" d="m 7.875115,13.928982 0.455307,-0.118061 0.033743,-0.438449 -0.455307,0.101157 v 0.202385 z"/>
    <path style="fill:#ffffff" d="m 11.956008,13.928982 -0.03374,-0.252968 v -0.202385 l -0.455307,-0.101157 0.03374,0.438449 z"/>
    <path style="fill:#000000" d="m 13.507423,13.928982 q -0.20236,0 -0.20236,-0.219225 0,-0.202385 0.20236,-0.202385 0.219224,0 0.219224,0.202385 0,0.219225 -0.219224,0.219225 z"/>
    <path style="fill:#000000" d="m 13.996456,14.299945 q -0.202359,0 -0.202359,-0.20232 0,-0.202386 0.202359,-0.202386 0.20236,0 0.20236,0.202386 0,0.20232 -0.20236,0.20232 z"/>
    <path style="fill:#ffffff" d="m 5.3625,21.618577 0.4890336,-0.691393 v -6.89705 L 5.3625,14.09762 4.8397378,14.030134 v 6.930779 z"/>
    <path style="fill:#ffffff" d="m 12.057189,14.687799 -0.06745,-0.455287 -0.455307,-0.101157 0.08432,0.438448 z"/>
    <path style="fill:#ffffff" d="m 7.7739372,14.687799 0.4553071,-0.118061 0.067453,-0.438449 -0.455307,0.101164 z"/>
    <path style="fill:#000000" d="m 14.266267,14.822701 q -0.202359,0 -0.202359,-0.202386 0,-0.219224 0.202359,-0.219224 0.219225,0 0.219225,0.219224 0,0.202386 -0.219225,0.202386 z"/>
    <path style="fill:#ffffff" d="m 7.605305,15.345469 0.4890304,-0.118061 0.101183,-0.404705 -0.4890369,0.134899 z"/>
    <path style="fill:#ffffff" d="m 12.225821,15.345469 -0.101177,-0.387867 -0.472172,-0.134899 0.101177,0.404705 z"/>
    <path style="fill:#000000" d="m 14.451763,15.412887 q -0.219224,0 -0.219224,-0.219224 0,-0.202386 0.219224,-0.202386 0.20236,0 0.20236,0.202386 0,0.219224 -0.20236,0.219224 z"/>
    <path style="fill:#ffffff" d="m 12.512495,16.070552 -0.16863,-0.455288 -0.522753,-0.134899 0.168629,0.438448 z"/>
    <path style="fill:#ffffff" d="M 7.3354938,16.070552 7.8413891,15.918813 8.0268836,15.480365 7.5041234,15.615264 Z"/>
    <path style="fill:#000000" d="m 14.519216,15.98623 q -0.219225,0 -0.219225,-0.202386 0,-0.202385 0.219225,-0.202385 0.202359,0 0.202359,0.202385 0,0.202386 -0.202359,0.202386 z"/>
    <path style="fill:#ffffff" d="M 12.849759,16.711345 12.6474,16.340382 12.090916,16.171739 12.225823,16.475288 Z"/>
    <path style="fill:#ffffff" d="M 6.9813665,16.711345 7.6053031,16.475282 7.7402094,16.171733 7.1837259,16.340375 Z"/>
    <path style="fill:#000000" d="m 14.451763,16.610185 q -0.219224,0 -0.219224,-0.202386 0,-0.202385 0.219224,-0.202385 0.20236,0 0.20236,0.202385 0,0.202386 -0.20236,0.202386 z"/>
    <path style="fill:#ffffff" d="m 10.134783,17.858101 q 0.06745,-0.522769 0.303539,-0.725115 0.236081,-0.202386 0.961202,-0.202386 h 0.758844 q -1.062382,-0.623928 -2.2765323,-0.623928 -1.3490556,0 -2.7992908,0.826301 0.3878539,0.202385 0.4890303,0.387867 l 0.1011764,-0.03394 -0.1011764,-0.489024 0.2360892,-0.06748 0.1854945,0.505928 0.067453,-0.03394 -0.033743,-0.539606 0.2023594,-0.03394 0.1349063,0.573348 h 0.033743 l 0.033743,-0.691392 H 8.63398 l 0.084318,0.691392 h 0.033743 l 0.2360893,-0.725115 0.2023594,0.03394 -0.1349063,0.725121 0.067453,0.05091 0.3878539,-0.775708 0.2023594,0.08432 -0.2023594,0.758844 0.067453,0.06749 0.4721727,-0.792572 0.219224,0.06742 -0.2866779,0.860023 0.033743,0.03394 z"/>
    <path style="fill:#ffffff" d="m 4.4350227,22.175081 h 1.8886781 l 0.6913916,-1.315328 q -0.7925705,-0.202385 -0.7925705,-0.893752 0,-0.590187 0.1349082,-0.860023 l 0.067451,-0.556509 V 18.380826 Q 6.1213428,18.161602 6.1213428,17.891796 L 6.2225225,17.48709 6.0538923,17.369029 v 3.625587 L 5.3624987,22.006451 4.6373812,21.07897 v -4.637376 l -0.2023594,-0.1349 z"/>
    <path style="fill:#000000" d="m 14.266266,17.166708 q -0.202359,0 -0.202359,-0.202386 0,-0.202385 0.202359,-0.202385 0.219224,0 0.219224,0.202385 0,0.202386 -0.219224,0.202386 z"/>
    <path style="fill:#ffffff" d="m 12.579947,22.175081 h 2.833017 v -5.008373 q -0.927476,0.455287 -1.972994,0.62393 -0.06745,0.590187 -0.623937,0.590187 -0.269812,0 -0.438442,-0.134899 -0.118041,1.096111 -0.623936,2.54634 z"/>
    <path style="fill:#ffffff" d="m 10.235962,20.724845 q 0.539619,0 1.26474,-0.202386 l 0.455307,-1.73691 0.101176,-0.691386 V 17.8581 l 0.320401,-0.06742 q 0.101177,0.269806 0.370989,0.269806 0.354124,0 0.354124,-0.370963 0,-0.42161 -1.247876,-0.42161 h -0.590214 q -0.590213,0 -0.691391,0.168643 -0.03374,0.118061 -0.08432,0.42161 -0.05058,0.303542 -0.05058,0.893752 0,1.07924 -0.20236,1.972992 z"/>
    <path style="fill:#ffffff" d="m 6.9813651,20.589943 -0.06745,-1.011796 q 0.1011765,-0.792572 0.1686296,-1.247877 0.067453,-0.472191 0.067453,-0.607091 l 0.1517647,-0.06749 q -0.1854945,-0.286638 -0.5227602,-0.286638 -0.3878539,0 -0.3878539,0.489024 l 0.2866742,0.303542 0.067453,0.590187 -0.1011764,0.421545 q -0.151766,0.269806 -0.151766,0.792573 0,0.42161 0.489033,0.62393 z"/>
    <path style="fill:#ffffff" d="m 9.3253496,20.758587 h 0.5227602 q 0.1011764,-0.691393 0.1686292,-1.163562 0.06745,-0.48903 0.06745,-0.843159 v -0.505928 q -1.0286553,-0.48903 -1.618868,-0.48903 -0.2698125,0 -0.5227602,0.03394 -0.2360892,0.03394 -0.4047188,0.101157 l -0.033743,0.455288 0.725117,0.303542 h 0.1686296 l 0.3878539,-0.06742 0.4047188,-0.101163 0.2192244,0.03394 h 0.067453 v 0.1349 H 9.1904224 l -0.370989,0.202385 -0.2529476,-0.03394 -0.067453,0.185482 -0.1011765,0.03394 -0.2698125,-0.06742 q -0.1011765,0 -0.1011765,0.1349 0,0.202385 0.1686296,0.472191 0.1686296,0.219225 0.1686296,0.62393 0,0.286645 -0.5902133,0.286645 L 7.3354709,20.388037 v 0.168642 q 0.8937492,0.202386 1.9898572,0.202386 z"/>
    <path style="fill:#000000" d="m 8.0268836,18.245968 v -0.08432 l 0.3035358,-0.06742 0.3035359,0.06742 v 0.08432 l -0.3035359,-0.03394 z"/>
    <path style="fill:#000000" d="m 8.2966935,18.448353 -0.4890336,-0.10116 v -0.06742 h 0.1854945 l 0.3035358,0.03394 0.2698126,-0.03394 h 0.2192243 v 0.06742 z"/>
    <path style="fill:#ffffff" d="m 7.7402087,20.235851 0.2866775,-0.06742 v -0.06742 l -0.2866775,0.03394 -0.2698125,-0.03394 -0.1349063,-0.202386 0.1686296,0.03394 q 0,-0.1349 0.1349062,-0.1349 0.1349063,0 0.1349063,0.1349 l 0.2192243,-0.03394 -0.354124,-0.826301 q 0,-0.219225 0.1349062,-0.320381 l -0.3035423,-0.269806 -0.2023595,1.096104 0.033743,0.556509 z"/>
    <path style="fill:#000000" d="m 13.794097,21.416277 q -0.286678,0 -0.455307,-0.185482 -0.16863,-0.202385 -0.16863,-0.438449 0,-0.337285 0.20236,-0.590187 l -0.303536,0.03394 q -0.623937,0 -0.623937,-0.657665 0,-0.640834 0.623937,-0.640834 0.404719,0 0.657664,0.505928 v -0.202385 q 0,-0.455288 -0.185494,-0.725122 h 0.48903 q -0.16863,0.269806 -0.16863,0.725122 v 0.202385 Q 14.16509,18.9376 14.519219,18.9376 q 0.607078,0 0.607078,0.640834 0,0.657665 -0.607078,0.657665 h -0.387854 q 0.269813,0.387867 0.269813,0.55651 0,0.236063 -0.16863,0.438448 -0.16863,0.185482 -0.438442,0.185482 z"/>
    <path d="m 17.655768,21.972787 q -0.48903,0 -0.48903,-0.522767 0,-0.269806 0.219224,-0.42161 h -0.252947 q -0.472172,0 -0.472172,-0.438448 0,-0.455288 0.472172,-0.455288 0.387854,0 0.48903,0.320381 v -0.101157 l -0.101176,-0.590187 h 0.269812 l -0.101176,0.590187 v 0.101157 q 0.101176,-0.320381 0.48903,-0.320381 0.472172,0 0.472172,0.455288 0,0.438448 -0.472172,0.438448 h -0.25295 q 0.219224,0.219225 0.219224,0.42161 0,0.522767 -0.489041,0.522767 z"/>
    <path style="fill:#000000" d="m 9.1904433,20.168425 -0.3035358,-0.06742 0.033743,-0.202386 0.1686295,0.03394 q 0,-0.1349 0.1349063,-0.1349 0.1349063,0 0.1349063,0.1349 h 0.1517673 l 0.1349062,-0.03394 -0.1349062,0.202386 z"/>
    <path style="fill:#000000" d="m 9.1567017,20.556292 q -0.3709889,0 -0.6576651,-0.202385 L 8.4652936,20.269587 8.56647,20.067202 h 0.033743 l 0.2192244,0.1349 0.3372657,0.101163 q 0.4215837,0 0.6576645,-0.168643 l 0.033743,0.101164 -0.033743,0.118061 q -0.1011765,0.202385 -0.6576645,0.202385 z"/>
    <path style="fill:#ffffff" d="m 7.8750987,21.584946 q 0.354124,0 0.691391,-0.438449 -0.691391,0 -1.1298345,-0.185481 l -0.1349063,0.286645 q 0.3372657,0.337285 0.5733498,0.337285 z"/>
    <path style="fill:#ffffff" d="m 10.640662,21.584946 q 0.455307,0 0.860024,-0.404706 l -0.134907,-0.219224 -1.4502344,0.185481 q 0.2866774,0.438449 0.7251174,0.438449 z"/>
    <path style="fill:#ffffff" d="m 9.2241542,21.652364 q 0.3541241,0 0.5564835,-0.472191 h -0.7251 L 8.718272,21.146234 q 0.2023594,0.505863 0.5058953,0.505863 z"/>
    <path style="fill:#ffffff" d="m 6.7789907,22.175133 h 5.3456333 l -0.43844,-0.758843 q -0.48903,0.489023 -0.978066,0.489023 -0.573348,0 -0.8937491,-0.320381 -0.1011765,0.354124 -0.5902134,0.354124 -0.4384421,0 -0.6576645,-0.387867 -0.2023594,0.320382 -0.691391,0.320382 -0.4047189,0 -0.7588436,-0.354125 z"/>
    <path d="m 16.509055,25.041877 0.94434,-0.961203 -1.011792,-1.450236 h 0.657664 l 0.725118,1.096111 0.286677,-0.303543 v -0.792574 h 0.505896 v 2.411439 h -0.505899 v -0.994932 l -0.944339,0.994932 z"/>
</svg>