<svg xmlns="http://www.w3.org/2000/svg" width="74.952217" height="100" viewBox="0 0 19.831107 26.458333">
    <path d="m 1.1804253,26.458332 q -0.72511732,0 -0.96120187,-0.219224 Q 0,26.003047 0,25.277907 V 1.1803999 Q 0,0.45528514 0.21922343,0.23606171 0.45531124,0 1.1804253,0 H 18.650693 q 0.725117,0 0.944339,0.23606171 0.236089,0.21922343 0.236089,0.94433819 V 25.277907 q 0,0.725114 -0.236089,0.961202 -0.219224,0.219224 -0.944339,0.219224 z"/>
    <path style="fill:#ffffff" d="M 1.3827844,25.969305 H 18.448335 q 0.590213,0 0.741981,-0.151738 0.151764,-0.151739 0.151764,-0.741979 V 1.3827981 q 0,-0.62392862 -0.151764,-0.75884335 Q 19.03855,0.48905301 18.448335,0.48905301 H 1.3827838 q -0.60707748,0 -0.75884341,0.13490174 Q 0.48903213,0.75885642 0.48903213,1.3827981 V 25.075586 q 0,0.590188 0.13490826,0.74198 0.15176606,0.151738 0.75884401,0.151739 z"/>
    <path d="M 3.0522405,4.0134339 2.6981152,3.6930502 Q 2.529485,3.84479 2.107902,3.84479 q -1.16356026,0 -1.16356026,-1.2478768 0,-0.5227686 0.30353836,-0.8768807 Q 1.5682834,1.349069 2.107903,1.349069 q 0.5564847,0 0.860023,0.3709635 0.3204027,0.3541253 0.3204027,0.8768807 0,0.590187 -0.3035384,0.8937516 l 0.3035384,0.2698034 z"/>
    <path style="fill:#ffffff" d="M 2.1079017,3.423247 2.3271253,3.3893083 2.1079017,3.1869229 2.3608473,2.9002814 2.6306572,3.1532465 Q 2.7655654,2.866605 2.7655654,2.5967364 q 0,-0.7925655 -0.6576646,-0.7925655 -0.6576644,0 -0.6576644,0.7925655 0,0.8263008 0.6576644,0.8263008 z"/>
    <path d="M 3.9459895,22.664148 V 3.8111009 H 15.901993 V 22.664148 Z"/>
    <path style="fill:#ffffff" d="M 7.5378501,8.3304324 7.7064796,8.2629466 Q 8.785725,7.3523393 9.4096627,6.5091744 10.050462,5.6660158 10.573223,4.2832373 h -0.37099 Q 9.3590739,6.391137 7.6053019,8.1954981 Z"/>
    <path style="fill:#ffffff" d="m 4.4350223,10.84305 h 0.6070773 q 0.1180439,-0.202385 0.455305,-0.404705 L 5.3624961,10.117962 q -0.8262969,-0.10116 -0.8262969,-0.8937519 0,-0.3709628 0.2529456,-0.62393 0.2529456,-0.2698059 0.6407995,-0.2698059 0.3878538,0 0.6407994,0.2698059 0.2529456,0.2529672 0.2529456,0.62393 0,0.3035488 -0.2023594,0.5733482 -0.2023593,0.2529667 -0.4890335,0.3203807 l 0.067451,0.185482 Q 6.5429208,9.5276904 8.2292396,6.7452625 L 7.8751157,6.4586203 q 0,-0.6913925 -0.6913909,-1.2816055 Q 7.3692192,4.9072115 7.3692192,4.6374081 L 7.335477,4.283283 H 4.4350216 Z"/>
    <path style="fill:#ffffff" d="m 7.7064815,5.3287876 0.1686296,-0.067418 0.2192243,0.067418 V 5.109564 q 0,-0.4721888 0.438442,-0.8262943 h -0.893749 l 0.033743,0.3203837 q 0,0.3372872 -0.1349062,0.5059304 z"/>
    <path style="fill:#ffffff" d="M 8.3641459,6.5260714 Q 9.3590745,4.8734829 9.5782962,4.2832699 H 9.0555342 Q 8.3641426,4.5699116 8.3641426,5.3625098 l 0.033743,0.404705 Q 8.1617963,5.5311531 7.8751254,5.5311531 8.1618028,6.02018 8.1618028,6.3237186 Z"/>
    <path style="fill:#ffffff" d="m 12.34386,7.9088566 q 0.404719,0 0.74198,-0.7757077 0.354124,-0.7757079 0.354124,-1.56828 l -0.337265,0.067483 -0.354124,-0.033939 0.354124,0.6576638 q 0,0.1349017 -0.320401,0.3372865 l -0.269813,0.1180609 -0.06745,-0.219223 q 0.404719,-0.1686432 0.404719,-0.2360618 -0.404719,-0.8262942 -0.404719,-1.0455176 0,-0.573349 0.623937,-0.573349 l 0.337259,0.1011601 V 4.5697941 l -0.03374,-0.2866417 h -2.209052 q -0.168629,0.6576639 -0.455307,1.1972838 -0.269812,0.5396067 -0.573348,0.9780669 0.539618,0.6913926 1.096108,1.0455179 0.556483,0.3372852 1.112971,0.4047057 z"/>
    <path style="fill:#ffffff" d="m 15.126286,12.883499 h 0.286678 V 4.2832699 h -1.686323 l 0.03374,0.4216085 q 0.573348,0.9612024 0.573348,1.4839645 V 6.77903 l 0.03374,1.5514087 -0.101183,0.067486 v 0.3372852 q 0,0.4890302 0.05058,1.0286538 0.05058,0.5396053 0.202359,1.1129743 l 0.1349,-0.303542 0.101183,-0.101164 q -0.236089,-0.320381 -0.236089,-0.354124 0,-0.06748 0.303542,-0.3710274 Q 14.552956,9.4603421 14.552956,8.988137 l 0.269813,-1.8043609 q 0,-0.3035423 -0.16863,-0.4721914 -0.168629,-0.1854814 -0.168629,-0.3203831 0,-0.2360618 0.269812,-0.2360618 l -0.03374,-0.1686432 0.03374,-0.3203837 0.03374,-0.1011601 -0.134906,-0.4552854 0.101176,-0.404705 0.101183,-0.2866415 0.236089,0.6913925 -0.134899,0.4552854 0.03374,0.1011601 0.03374,0.3203837 -0.03374,0.1686433 q 0.286677,0 0.286677,0.2360617 0,0.1686433 -0.185494,0.3203831 -0.16863,0.2360631 -0.16863,0.4721914 l 0.286677,1.8043609 q 0,0.5901871 -0.3204,0.7588434 0.354124,0.3035426 0.354124,0.3710276 0,0.185482 -0.134907,0.269806 -0.118041,0.08432 -0.151764,0.08432 0.354124,0.303549 0.354124,0.725115 z"/>
    <path d="M 2.0404489,6.711566 2.1416284,6.1213793 V 6.0202192 q -0.1349082,0.3035449 -0.4721692,0.3035449 -0.4890335,0 -0.4890335,-0.4552854 0,-0.4384466 0.4890335,-0.4384466 l 0.1349082,0.033939 Q 1.7031877,5.3628107 1.7031877,5.0086854 q 0,-0.5227686 0.4721693,-0.5227686 0.4890334,0 0.4890334,0.5227686 0,0.2529652 -0.2023593,0.4552854 L 2.698119,5.4300321 q 0.4890335,0 0.4890335,0.4384466 0,0.4552854 -0.4890335,0.4552854 -0.3035384,0 -0.4721693,-0.3035449 V 6.1213793 L 2.3271294,6.711566 Z"/>
    <path style="fill:#000000" d="m 11.197163,5.0083846 -0.10118,-0.067418 q 0,-0.2698034 0.860022,-0.2698034 0.134907,0 0.134907,0.2023855 z"/>
    <path style="fill:#ffffff" d="M 12.681123,5.2107698 Q 12.984659,5.0083844 13.439967,5.0083844 L 13.068979,4.8734827 q -0.387854,0 -0.387856,0.3372871 z"/>
    <path style="fill:#000000" d="M 5.8178041,7.9426047 Q 5.9864343,7.6053195 5.9864343,7.2174898 V 7.015105 q -0.2529456,0.5227666 -0.6576645,0.5227666 -0.6239352,0 -0.6239352,-0.6576637 0,-0.6576706 0.6239352,-0.6576706 L 5.5985797,6.3236974 Q 5.4299495,6.1213119 5.4299495,5.6660336 q 0,-0.2360618 0.1686302,-0.4216085 0.1686302,-0.2023854 0.455305,-0.2023854 0.2698098,0 0.4384407,0.2023854 0.1854944,0.1854821 0.1854944,0.4216085 0,0.2698033 -0.2866741,0.6576638 L 6.7789995,6.2225373 q 0.6239365,0 0.6239365,0.6576706 0,0.6576637 -0.6239365,0.6576637 -0.3878538,0 -0.6576646,-0.5227666 v 0.2023855 q 0,0.3878668 0.1686302,0.7251148 z"/>
    <path style="fill:#000000" d="m 11.618742,5.7335319 q -0.252947,0 -0.556483,-0.2360617 l -0.03374,-0.067418 Q 11.332052,5.075927 12.023443,5.075927 l 0.16863,0.4216084 q -0.404719,0.2360618 -0.573348,0.2360618 z"/>
    <path style="fill:#ffffff" d="M 13.102703,5.4974702 13.439969,5.3963101 V 5.1770865 l -0.03374,-0.033939 h -0.168628 l 0.03374,0.1180635 q 0,0.1011601 -0.1349,0.1011601 -0.151764,0 -0.151764,-0.1011601 V 5.210303 l -0.269813,0.1517398 q 0.134907,0.1349017 0.387854,0.1349017 z"/>
    <path style="fill:#ffffff" d="m 11.618742,5.5648885 q 0.438442,0 0.438442,-0.2360618 L 11.922278,5.2107632 h -0.168629 l 0.03374,0.1180635 q 0,0.1011601 -0.134906,0.1011601 -0.151764,0 -0.151764,-0.1011601 V 5.294888 l -0.269813,0.1349017 q 0.134906,0.1349017 0.387854,0.1349017 z"/>
    <path style="fill:#000000" d="m 11.719922,6.0539154 -0.06745,-0.033939 0.06745,-0.084322 0.472172,-0.2360618 0.06745,0.033939 q 0,0.3203837 -0.539618,0.3203837 z"/>
    <path style="fill:#ffffff" d="M 13.068978,8.0100493 Q 13.574873,7.9088859 13.794095,7.7739862 V 6.2225719 H 13.676051 Q 13.6086,6.7453408 13.473692,7.2006386 13.338786,7.6390872 13.068973,8.0100754 Z"/>
    <path style="fill:#000000" d="M 12.158364,6.6272186 Q 11.956005,6.5260585 11.956005,6.3574146 h 0.06745 l 0.101176,-0.033939 V 6.424637 l 0.101177,0.1686432 z"/>
    <path style="fill:#ffffff" d="m 11.956005,8.2966778 h 0.269812 V 8.2627391 Q 10.994803,8.2292201 9.8818326,6.7452625 L 9.2916194,7.3523536 q 1.4165076,0.9443385 2.6643836,0.9443385 z"/>
    <path style="fill:#000000" d="m 12.023455,7.1499806 -0.202359,-0.1011634 0.03374,-0.1011634 0.06745,0.033939 0.101176,0.033939 0.320401,-0.2023855 0.134906,0.1011634 0.101177,-0.06742 0.134906,0.1011634 0.101176,0.033939 h 0.03374 V 7.083154 H 12.681139 L 12.647399,7.049215 12.478769,7.116701 12.31014,7.049215 Z"/>
    <path style="fill:#000000" d="M 12.41131,7.3523654 12.192085,7.3184267 12.057179,7.284488 V 7.1833247 l 0.354124,0.033939 0.202359,-0.1011568 h 0.134907 q 0,0.2360631 -0.337259,0.2360631 z"/>
    <path style="fill:#ffffff" d="m 11.888547,9.2241774 q 1.483961,0 1.939268,-0.6239299 V 8.1617989 Q 13.068971,8.7014043 11.956,8.7014043 q -1.06238,0 -2.934195,-0.9274735 L 8.5664981,8.2292181 q 1.6357289,0.9949313 3.3220479,0.9949313 z"/>
    <path style="fill:#ffffff" d="M 7.9088344,11.129718 8.5327696,8.8531879 7.8751052,8.3979031 7.6727458,8.5328048 6.3911429,10.1854 q 1.1129708,0.06748 1.5176876,0.944338 z"/>
    <path style="fill:#ffffff" d="m 5.429945,9.6794824 q 0.4215823,0 0.4215823,-0.4552874 0,-0.4216097 -0.4215823,-0.4216097 -0.455305,0 -0.455305,0.4216097 0,0.4552874 0.455305,0.4552874 z"/>
    <path style="fill:#ffffff" d="M 7.8751078,12.883493 H 9.2916162 L 9.7131985,9.3590856 8.9543545,9.0555407 Z"/>
    <path style="fill:#ffffff" d="m 13.406234,12.883493 h 1.079245 l -0.118044,-0.92748 q -0.370989,-1.146698 -0.53962,-2.7655641 -0.320403,0.2698034 -0.876886,0.4216084 z"/>
    <path style="fill:#ffffff" d="m 9.7131959,12.883493 h 1.5176871 l -0.06745,-3.1702821 q -0.269812,0 -0.539618,-0.067421 -0.252948,-0.067486 -0.489031,-0.1518038 z"/>
    <path style="fill:#ffffff" d="m 11.652463,12.883493 h 1.332192 l -0.404718,-3.1702821 -0.354124,0.033939 h -0.640802 z"/>
    <path style="fill:#ffffff" d="M 6.323694,12.158372 6.5429176,12.124433 6.323694,11.88837 6.3911452,11.82095 6.7115478,12.023335 6.8127242,11.82095 q 0,-0.252968 -0.2698124,-0.455288 l 0.067453,-0.06748 q 0.4047187,0.134899 0.657665,0.370962 0.1349062,0.252967 0.2698124,0.252967 0.2023594,0 0.2023594,-0.252967 l -0.033743,-0.06742 Q 7.672716,11.264434 7.2848752,10.960885 6.9138863,10.640504 6.3573996,10.640504 q -0.337261,0 -0.6407994,0.236063 -0.2866741,0.219224 -0.2866741,0.455287 0,0.590187 0.337261,0.590187 l 0.1854944,-0.03394 q 0.1011797,0.269805 0.3709896,0.269805 z"/>
    <path style="fill:#ffffff" d="M 4.7048277,12.883493 H 5.0420885 V 11.095989 H 4.7048275 Z"/>
    <path style="fill:#ffffff" d="m 5.8177982,12.883493 h 1.6188663 l 0.1349062,-0.590187 q -0.1011764,0 -0.52276,-0.337286 0,0.691393 -0.7251174,0.691393 H 6.087612 Z"/>
    <path style="fill:#ffffff" d="m 10.05046,13.406261 h 0.421583 V 13.052136 H 10.05046 Z"/>
    <path style="fill:#ffffff" d="m 5.1938598,13.406261 h 0.404718 v -0.35419 H 5.193865 Z"/>
    <path style="fill:#ffffff" d="m 12.84975,13.406261 h 0.421583 V 13.052136 H 12.84975 Z"/>
    <path style="fill:#ffffff" d="m 14.923922,13.406261 h 0.421584 v -0.35419 h -0.421577 z"/>
    <path style="fill:#ffffff" d="m 10.74185,13.406261 h 0.421584 V 13.052136 H 10.74185 Z"/>
    <path style="fill:#ffffff" d="m 11.433241,13.406261 h 0.421584 v -0.354125 h -0.421584 z"/>
    <path style="fill:#ffffff" d="m 12.124632,13.406261 h 0.421583 v -0.354125 h -0.421583 z"/>
    <path style="fill:#ffffff" d="m 14.232532,13.406261 h 0.421575 V 13.052136 H 14.23253 Z"/>
    <path style="fill:#ffffff" d="m 13.541141,13.406261 h 0.421583 v -0.354125 h -0.421583 z"/>
    <path style="fill:#ffffff" d="M 4.4687432,13.406261 H 4.9071836 V 13.052136 H 4.4687428 Z"/>
    <path style="fill:#ffffff" d="M 6.5766414,13.406261 H 6.9813602 V 13.052136 H 6.5766414 Z"/>
    <path style="fill:#ffffff" d="M 9.3590687,13.406261 H 9.7806523 V 13.052136 H 9.3590687 Z"/>
    <path style="fill:#ffffff" d="M 7.3017589,13.406261 H 7.7064776 V 13.052136 H 7.3017589 Z"/>
    <path style="fill:#ffffff" d="M 5.885251,13.406261 H 6.2899691 V 13.052136 H 5.885251 Z"/>
    <path style="fill:#ffffff" d="M 7.9931498,13.406261 H 8.3978685 V 13.052136 H 7.9931498 Z"/>
    <path style="fill:#ffffff" d="M 8.6676778,13.406261 H 9.0892614 V 13.052136 H 8.6676778 Z"/>
    <path style="fill:#ffffff" d="m 14.789016,15.379253 h 0.337259 v -1.804361 h -0.337259 z"/>
    <path style="fill:#ffffff" d="M 6.0201567,17.267936 Q 6.3236953,16.998132 6.8801798,16.863231 L 6.4248781,13.574853 H 5.3624974 l 0.1011797,0.92748 q 0.2023594,0.590187 0.3541253,1.281599 0.1686302,0.691393 0.2023593,1.483965 z"/>
    <path style="fill:#ffffff" d="M 9.7131959,16.964391 10.134778,13.574885 H 8.6002299 l 0.067453,3.187146 z"/>
    <path style="fill:#ffffff" d="m 4.4350216,22.175082 h 1.6863192 l -0.033743,-0.42161 Q 5.4973861,20.792271 5.4973861,20.269509 v -1.298463 l -0.033743,-0.843159 0.1011797,-0.06749 v -0.337284 q 0,-0.489024 -0.067451,-1.028654 -0.067451,-0.556509 -0.1686302,-1.112975 l -0.1349082,0.303543 -0.1011796,0.101156 q 0.2360813,0.252968 0.2360813,0.354124 0,0.06749 -0.3204033,0.370963 0.2866741,0.286638 0.2866741,0.775708 l -0.2866727,1.787511 q 0,0.269806 0.1854944,0.455287 0.1686302,0.168643 0.1686302,0.337285 0,0.236063 -0.2698098,0.236063 l 0.033743,0.185482 -0.084315,0.404705 0.1517659,0.455288 -0.1011796,0.404705 -0.118044,0.286704 Q 4.7385361,21.584725 4.7385361,21.348618 l 0.1349082,-0.455287 -0.067451,-0.404706 0.033743,-0.185481 q -0.2698098,0 -0.2698098,-0.236063 0,-0.101157 0.1686302,-0.337285 0.1686302,-0.185482 0.1686302,-0.455288 L 4.6373762,17.487009 q 0,-0.48903 0.2698098,-0.775707 -0.3035384,-0.303549 -0.3035384,-0.370963 0,-0.168643 0.118044,-0.252967 0.1180439,-0.101164 0.1517659,-0.101164 -0.3372674,-0.4047 -0.3372674,-0.72511 L 4.7048203,13.574775 H 4.4350215 Z"/>
    <path style="fill:#ffffff" d="m 12.782302,14.502333 q 0,-0.691392 0.725117,-0.691392 h 0.252948 l 0.269812,-0.236063 h -1.61887 l -0.151765,0.590187 q 0.219225,0 0.52276,0.337285 z"/>
    <path style="fill:#ffffff" d="m 10.893625,17.402798 1.06238,-3.827945 h -1.416507 l -0.404719,3.524407 z"/>
    <path style="fill:#ffffff" d="m 7.2680382,16.761966 0.3372591,-0.05091 H 8.2629669 L 8.1955137,13.574853 H 6.8464578 Z"/>
    <path style="fill:#ffffff" d="m 13.473693,15.817628 q 0.387854,0 0.657664,-0.219224 0.269813,-0.219224 0.269813,-0.472191 0,-0.590187 -0.33726,-0.590187 l -0.168629,0.03394 Q 13.794105,14.30016 13.507427,14.30016 l -0.202359,0.03394 0.202359,0.236063 -0.06745,0.08432 -0.303542,-0.219225 -0.101177,0.219225 q 0,0.236063 0.269813,0.438448 l -0.06745,0.06749 q -0.252948,-0.101157 -0.404719,-0.185482 -0.151765,-0.08432 -0.219224,-0.219224 -0.1349,-0.219224 -0.303536,-0.219224 -0.185495,0 -0.185495,0.252967 v 0.06742 q 0.06745,0.337285 0.421584,0.657663 0.370989,0.303543 0.927475,0.303543 z"/>
    <path style="fill:#ffffff" d="m 11.956005,18.060429 0.20236,-0.134899 1.281602,-1.652595 q -1.028654,-0.03394 -1.517687,-0.927476 l -0.623943,2.27653 z"/>
    <path style="fill:#ffffff" d="m 12.512489,22.175049 h 2.90047 v -6.55978 h -0.623937 q -0.134906,0.236063 -0.455307,0.42161 l 0.151765,0.303542 q 0.826296,0.03394 0.826296,0.893752 0,0.387866 -0.269812,0.640768 -0.252948,0.252967 -0.640802,0.252967 -0.337259,0 -0.623936,-0.252967 -0.269813,-0.252967 -0.269813,-0.640768 0,-0.303543 0.219225,-0.573349 0.236089,-0.28671 0.472172,-0.320381 l -0.06744,-0.168644 q -0.826307,0.75883 -2.512626,3.558123 l 0.337259,0.269806 q 0,0.691392 0.691391,1.281605 -0.16863,0.236063 -0.16863,0.55651 z"/>
    <path style="fill:#ffffff" d="m 14.401167,17.655718 q 0.455307,0 0.455307,-0.42161 0,-0.438449 -0.455307,-0.438449 -0.404719,0 -0.404719,0.438449 0,0.42161 0.404719,0.42161 z"/>
    <path style="fill:#ffffff" d="m 10.809307,18.684371 0.455307,-0.438449 q -1.618868,-1.011787 -3.3220511,-1.011787 -1.4502345,0 -1.9224036,0.62393 v 0.455288 q 0.6913903,-0.556514 1.8549511,-0.556514 1.0792441,0 2.9341956,0.92748 z"/>
    <path style="fill:#ffffff" d="m 9.2578935,22.175049 h 0.3878539 q 0.8262966,-2.107867 2.5800696,-3.895364 l 0.08432,-0.151738 v -0.03394 l -0.185495,0.118061 q -1.062384,0.860025 -1.720049,1.720048 -0.6576646,0.860023 -1.1466968,2.242802 z"/>
    <path style="fill:#ffffff" d="m 9.9492844,19.729889 0.5902136,-0.62393 Q 9.1567158,18.161642 7.875113,18.161642 H 7.6053006 v 0.05091 q 1.2816027,0.101156 2.3439838,1.517686 z"/>
    <path style="fill:#ffffff" d="m 5.9864338,20.303237 h 0.1011797 q 0.1349082,-0.994931 0.6239352,-1.787496 -0.522762,0.101163 -0.7251165,0.236063 z"/>
    <path style="fill:#000000" d="m 13.794093,21.416206 q -0.286678,0 -0.455307,-0.185481 -0.16863,-0.202386 -0.16863,-0.438449 0,-0.337285 0.20236,-0.590187 l -0.303536,0.03394 q -0.623937,0 -0.623937,-0.657665 0,-0.640834 0.623937,-0.640834 0.404719,0 0.657664,0.505863 v -0.202386 q 0,-0.455287 -0.185494,-0.725114 h 0.48903 q -0.16863,0.269805 -0.16863,0.725114 v 0.202386 q 0.303536,-0.505863 0.657665,-0.505863 0.607078,0 0.607078,0.640834 0,0.657665 -0.607078,0.657665 h -0.387854 q 0.269812,0.387867 0.269812,0.556509 0,0.236063 -0.168629,0.438449 -0.16863,0.185481 -0.438442,0.185481 z"/>
    <path style="fill:#ffffff" d="M 6.4586049,22.175082 H 8.667683 q 0.3878538,-1.315327 1.0455181,-2.17535 -1.079244,-1.382785 -2.2090783,-1.450237 -0.3878538,0 -0.7588433,0.775708 -0.3541253,0.775708 -0.3541253,1.56828 l 0.3541253,-0.06749 0.337259,0.03394 -0.337259,-0.657664 q 0,-0.337285 0.5902131,-0.438449 l 0.067453,0.202386 q -0.4215837,0.101157 -0.4215837,0.236063 0.4215837,0.826294 0.4215837,1.045518 0,0.590187 -0.6239365,0.590187 l -0.3541264,-0.11806 v 0.185482 z"/>
    <path style="fill:#000000" d="m 7.0825399,19.342068 q 0,-0.236063 0.3541239,-0.236063 l 0.2023594,0.03394 0.1349062,0.03394 v 0.101157 L 7.4366704,19.2411 7.2174461,19.342257 Z"/>
    <path style="fill:#000000" d="m 7.5041228,19.662451 q -0.1349062,0 -0.1349062,-0.118061 L 7.2680402,19.61181 7.1162755,19.510646 7.0150991,19.476706 h -0.033743 v -0.101164 l 0.1011829,0.03394 h 0.1011764 l 0.1854945,-0.06749 0.1686295,0.06749 0.2698125,-0.101164 0.2192243,0.101164 -0.033743,0.101157 -0.084318,-0.03394 h -0.067453 l -0.033743,-0.03394 z"/>
    <path d="m 17.655765,21.972703 q -0.489037,0 -0.489037,-0.522767 0,-0.269805 0.219224,-0.421609 h -0.252947 q -0.472172,0 -0.472172,-0.438449 0,-0.455287 0.472172,-0.455287 0.387853,0 0.48903,0.320381 v -0.101157 l -0.101183,-0.590187 h 0.269812 l -0.101183,0.590187 v 0.101157 q 0.101183,-0.320381 0.489031,-0.320381 0.472172,0 0.472172,0.455287 0,0.438449 -0.472172,0.438449 h -0.252948 q 0.219224,0.219224 0.219224,0.421609 0,0.522767 -0.489036,0.522767 z"/>
    <path style="fill:#000000" d="m 7.7064809,20.13464 v -0.06749 l -0.1011764,-0.202385 0.067453,-0.03394 q 0.2023594,0.202385 0.2023594,0.269806 h -0.067453 z"/>
    <path style="fill:#ffffff" d="m 10.269686,22.175082 h 0.505896 q 0.691393,-0.202385 0.691393,-1.062382 l -0.03374,-0.421609 q 0.320401,0.236063 0.52276,0.236063 -0.269812,-0.438449 -0.269812,-0.792566 l -0.219218,-0.202386 q -0.994929,1.652589 -1.197287,2.242802 z"/>
    <path style="fill:#000000" d="m 7.6390284,20.758575 -0.033743,-0.06742 q 0,-0.269805 0.5227601,-0.269805 l 0.1011764,0.03394 -0.1011764,0.06742 z"/>
    <path style="fill:#000000" d="M 7.8076586,21.382504 7.6390284,20.960895 q 0.354124,-0.236064 0.5902132,-0.236064 0.3035423,0 0.5564834,0.236064 l 0.033743,0.06748 -0.2192242,0.185482 Q 8.296708,21.382499 7.9931657,21.382499 Z"/>
    <path style="fill:#ffffff" d="m 7.9088383,21.247602 h 0.1854945 l -0.033743,-0.101163 q 0,-0.118061 0.1349062,-0.118061 0.1349063,0 0.1349063,0.118061 v 0.03394 l 0.2698124,-0.151738 q -0.1686295,-0.1349 -0.3709889,-0.1349 -0.4553069,0 -0.4553069,0.252967 z"/>
    <path style="fill:#ffffff" d="m 6.4248768,21.31502 h 0.1854945 l -0.033743,-0.101157 q 0,-0.101157 0.1349062,-0.101157 0.1349063,0 0.1349063,0.101157 v 0.03394 l 0.2698125,-0.1349 Q 6.9476238,20.961157 6.7452645,20.961157 l -0.3541253,0.118061 v 0.202385 z"/>
    <path style="fill:#ffffff" d="m 11.29834,22.175043 h 0.893749 l -0.03374,-0.303542 q 0,-0.354124 0.151765,-0.522767 l -0.185494,-0.202385 -0.16863,0.03394 -0.202359,-0.03394 v 0.202385 q 0,0.522767 -0.455307,0.826294 z"/>
    <path style="fill:#ffffff" d="m 6.7790041,21.584856 q 0.3709889,0 0.3709889,-0.337285 -0.3035358,0.202385 -0.7588436,0.202385 0,0.1349 0.3878547,0.1349 z"/>
    <path style="fill:#000000" d="m 7.8751117,21.804079 q -0.1349062,0 -0.1349062,-0.219224 l 0.8937503,-0.1349 0.1180413,0.06749 q 0,0.286645 -0.8768847,0.286645 z"/>
    <path d="m 17.723216,25.109263 q -0.556483,0 -0.876886,-0.354124 -0.303542,-0.370963 -0.303542,-0.893752 0,-0.539606 0.320401,-0.893745 l -0.320401,-0.269806 0.252948,-0.252968 0.337259,0.320382 q 0.1349,-0.06742 0.286677,-0.101157 0.16863,-0.03394 0.303543,-0.03394 0.556483,0 0.860022,0.354124 0.320401,0.337285 0.320401,0.87688 0,0.522767 -0.320401,0.893752 -0.303542,0.354124 -0.860022,0.354124 z"/>
    <path style="fill:#ffffff" d="m 17.723216,24.670816 q 0.657665,0 0.657665,-0.809437 0,-0.826294 -0.657665,-0.826294 l -0.202359,0.03394 0.202359,0.219224 -0.236089,0.269806 -0.286677,-0.236063 q -0.1349,0.168643 -0.1349,0.539606 0,0.809437 0.657665,0.809437 z"/>
</svg>