<svg xmlns="http://www.w3.org/2000/svg" width="74.952217" height="100" viewBox="0 0 19.831107 26.458333">
    <path d="m 1.1804256,26.458332 q -0.72511751,0 -0.96120212,-0.219224 Q 0,26.003047 0,25.277906 V 1.1804001 Q 0,0.45527872 0.21922348,0.23606177 0.45530483,0 1.1804256,0 H 18.650697 q 0.725118,0 0.94434,0.23606177 0.236089,0.21922348 0.236089,0.94433833 V 25.277906 q 0,0.725121 -0.236089,0.961203 -0.219225,0.219224 -0.94434,0.219224 z"/>
    <path style="fill:#ffffff" d="M 1.3827848,25.969305 H 18.448339 q 0.590213,0 0.741981,-0.151738 0.151764,-0.151739 0.151764,-0.741986 V 1.3827919 q 0,-0.62392876 -0.151764,-0.75884352 Q 19.038554,0.4890466 18.448339,0.4890466 H 1.3827848 q -0.60707763,0 -0.75884426,0.13490178 -0.1349083,0.1349017 -0.1349083,0.75884352 V 25.07558 q 0,0.590187 0.1349083,0.741985 0.1517661,0.151739 0.75884426,0.15174 z"/>
    <path style="fill:#ff0000" d="m 2.7655662,3.8447848 q -0.7588442,0 -0.7588442,-1.2478771 0,-1.2141484 0.7588442,-1.2141484 0.7588436,0 0.7588436,1.2141484 0,1.2478771 -0.7588436,1.2478771 z"/>
    <path style="fill:#ff0000" d="M 1.2816045,3.7604631 V 2.2427759 H 0.87688622 V 1.9054887 q 0.37098968,0 0.47216938,-0.4890271 h 0.3878539 v 2.3439881 z"/>
    <path style="fill:#ffffff" d="m 2.7655662,3.4569178 q 0.2866742,0 0.2866742,-0.8600232 0,-0.7925723 -0.2866742,-0.7925723 -0.2698099,0 -0.2698099,0.7925723 0,0.8600232 0.2698099,0.8600232 z"/>
    <path style="fill:#ff0000" d="M 13.726644,7.2174133 11.787377,4.7385236 13.726644,2.2427694 15.649048,4.7385236 Z"/>
    <path style="fill:#ff0000" d="M 6.1213423,7.2174133 4.1820744,4.7385236 6.1213423,2.2427694 8.0606095,4.7385236 Z"/>
    <path style="fill:#ff0000" d="M 2.1753544,6.8127082 1.2816045,5.6660107 2.1753544,4.5361775 3.0859667,5.6660107 Z"/>
    <path style="fill:#ff0000" d="M 9.9155616,10.050442 7.9931563,7.5715517 9.9155616,5.0757976 11.854829,7.5715517 Z"/>
    <path style="fill:#ff0000" d="M 6.1213423,12.883457 4.1820744,10.404567 6.1213423,7.9088128 8.0606095,10.404567 Z"/>
    <path style="fill:#ff0000" d="m 13.726644,12.883457 -1.939267,-2.47889 1.939267,-2.4957542 1.922404,2.4957542 z"/>
    <path style="fill:#ff0000" d="m 13.726644,18.549493 -1.939267,-2.478889 1.939267,-2.495754 1.922404,2.495754 z"/>
    <path style="fill:#ff0000" d="M 6.1213423,18.549493 4.1820744,16.070604 6.1213423,13.57485 8.0606095,16.070604 Z"/>
    <path style="fill:#ff0000" d="M 9.9155616,21.382509 7.9931563,18.886755 9.9155616,16.407864 11.854829,18.886755 Z"/>
    <path style="fill:#ff0000" d="m 13.726644,24.215524 -1.939267,-2.495755 1.939267,-2.478889 1.922404,2.478889 z"/>
    <path style="fill:#ff0000" d="M 6.1213423,24.215524 4.1820744,21.719769 6.1213423,19.24088 8.0606095,21.719769 Z"/>
    <path style="fill:#ff0000" d="m 17.655768,21.938993 -0.893749,-1.146697 0.893749,-1.129834 0.89375,1.129834 z"/>
    <path style="fill:#ff0000" d="m 17.065556,25.075547 q -0.758845,0 -0.758845,-1.214149 0,-1.231012 0.758845,-1.231012 0.758843,0 0.758843,1.231012 0,1.214149 -0.758843,1.214149 z"/>
    <path style="fill:#ff0000" d="m 18.111073,25.04161 v -2.343989 h 0.438443 v 1.517687 h 0.421583 v 0.337286 q -0.421583,0 -0.48903,0.48903 z"/>
    <path style="fill:#ffffff" d="m 17.065556,24.670646 q 0.286677,0 0.286677,-0.809437 0,-0.860023 -0.286677,-0.860023 -0.269813,0 -0.269813,0.860023 0,0.809437 0.269813,0.809437 z"/>
</svg>