<svg xmlns="http://www.w3.org/2000/svg" width="74.952217" height="100" viewBox="0 0 19.831107 26.458333">
    <path d="m 1.1804247,26.458333 q -0.72511695,0 -0.96120136,-0.219223 Q 0,26.003048 0,25.277908 V 1.1804195 Q 0,0.45530253 0.21922334,0.23608115 0.45531101,0 1.1804247,0 H 18.650683 q 0.725117,0 0.944338,0.23608115 0.236088,0.21922334 0.236088,0.94433835 V 25.277908 q 0,0.72512 -0.236088,0.961202 -0.219223,0.219223 -0.944338,0.219223 z"/>
    <path style="fill:#ffffff" d="M 1.3827837,25.969306 H 18.448326 q 0.590213,0 0.74198,-0.15174 0.151766,-0.151805 0.151766,-0.741985 V 1.3827778 q 0,-0.62394134 -0.151766,-0.75884364 Q 19.03854,0.48902598 18.448326,0.48902598 H 1.382783 q -0.60707698,0 -0.75884297,0.13490818 Q 0.48903186,0.75884233 0.48903186,1.3827778 V 25.075549 q 0,0.590186 0.13490817,0.741985 0.15176599,0.15174 0.75884297,0.15174 z"/>
    <path style="fill:#ff0000" d="m 1.2141514,3.7604863 q 0,-0.5058975 0.6239348,-0.9612014 0.6239348,-0.4890331 0.6239348,-0.6576641 0,-0.3709893 -0.354125,-0.3709893 -0.3709893,0 -0.3709893,0.5396196 H 1.2816022 V 2.2090716 q 0,-0.8600225 0.8262958,-0.8600225 0.8431594,0 0.8431594,0.7588437 0,0.2866741 -0.1517659,0.4553045 Q 2.6643833,2.7318276 2.1753566,3.0353661 L 1.8380895,3.3557689 h 1.1129706 v 0.404718 z"/>
    <path style="fill:#ff0000" d="M 9.9155538,7.2174392 7.9931511,4.7385513 9.9155538,2.2427996 11.85482,4.7385513 Z"/>
    <path style="fill:#ff0000" d="M 2.1753527,6.8127225 1.2816042,5.6660259 2.1753527,4.5361929 3.085965,5.6660259 Z"/>
    <path style="fill:#ff0000" d="M 9.9155538,24.215526 7.9931511,21.719774 9.9155538,19.240886 11.85482,21.719774 Z"/>
    <path style="fill:#ff0000" d="m 17.655756,21.938997 -0.89375,-1.146697 0.89375,-1.129832 0.893748,1.129832 z"/>
    <path style="fill:#ff0000" d="m 17.723206,25.109277 q -0.826296,0 -0.826296,-0.758843 0,-0.455285 0.79257,-0.961202 l 0.303538,-0.286641 h -1.096106 v -0.404705 h 1.720045 q 0,0.50593 -0.623935,0.92748 -0.607077,0.455285 -0.607077,0.691385 0,0.387867 0.337267,0.387867 0.387854,0 0.387854,-0.55651 h 0.43844 v 0.10116 q 0,0.860022 -0.826296,0.860022 z"/>
</svg>