<svg xmlns="http://www.w3.org/2000/svg" width="74.952217" height="100" viewBox="0 0 19.831107 26.458333">
    <path d="m 1.1804252,26.458329 q -0.72511727,0 -0.96120178,-0.219223 Q 0,26.003044 0,25.277904 V 1.1803997 Q 0,0.4552851 0.21922342,0.23606166 0.45530467,0 1.1804252,0 H 18.650691 q 0.725117,0 0.944338,0.23606166 0.236088,0.21922344 0.236088,0.94433804 V 25.277904 q 0,0.725114 -0.236088,0.961202 -0.219223,0.219223 -0.944338,0.219223 z"/>
    <path style="fill:#ffffff" d="M 1.3827842,25.969302 H 18.448333 q 0.590212,0 0.74198,-0.151739 0.151766,-0.151741 0.151766,-0.741979 V 1.382798 q 0,-0.6239286 -0.151766,-0.75884335 -0.151766,-0.13490171 -0.74198,-0.13490171 H 1.3827842 q -0.60707721,0 -0.75884391,0.13490171 Q 0.48903205,0.75885635 0.48903205,1.382798 v 23.692786 q 0,0.590186 0.13490824,0.741979 0.15176604,0.151739 0.75884391,0.151739 z"/>
    <path style="fill:#ff0000" d="m 2.1416275,3.8447964 q -0.8937489,0 -0.8937489,-0.8768806 H 1.736912 q 0,0.4890269 0.3709895,0.4890269 0.421576,0 0.421576,-0.3709635 0,-0.354125 -0.5564843,-0.354125 v -0.337287 h 0.1011796 q 0.3878537,0 0.3878537,-0.2866416 0,-0.3035451 -0.3204029,-0.3035451 -0.3709894,0 -0.3709894,0.404705 H 1.3153295 q 0.067451,-0.8263006 0.8262961,-0.8263006 0.2866742,0 0.522762,0.1854817 0.2360813,0.1686435 0.2360813,0.4721885 0,0.3035452 -0.3035387,0.4890269 0.4215825,0.10116 0.4215825,0.5565103 0,0.7588433 -0.8768858,0.7588433 z"/>
    <path style="fill:#ff0000" d="M 9.9155584,7.2174369 7.9931543,4.738548 9.9155584,2.2427947 11.854825,4.738548 Z"/>
    <path style="fill:#ff0000" d="M 2.1753542,6.8127318 1.2816046,5.6660347 2.1753542,4.536202 3.0859662,5.6660347 Z"/>
    <path style="fill:#ff0000" d="m 9.9155584,15.716499 -1.9224041,-2.47889 1.9224041,-2.495752 1.9392666,2.495752 z"/>
    <path style="fill:#ff0000" d="M 9.9155584,24.215547 7.9931543,21.719794 9.9155584,19.240905 11.854825,21.719794 Z"/>
    <path style="fill:#ff0000" d="m 17.655762,21.939018 -0.893748,-1.146697 0.893748,-1.129833 0.89375,1.129833 z"/>
    <path style="fill:#ff0000" d="m 17.689505,25.075571 q -0.236089,0 -0.505898,-0.168644 -0.252946,-0.168644 -0.252946,-0.489027 0,-0.337287 0.303538,-0.489026 -0.404718,-0.10116 -0.404718,-0.539607 0,-0.758844 0.860024,-0.758844 0.893748,0 0.893748,0.860023 h -0.472168 q 0,-0.489027 -0.387854,-0.489027 -0.421583,0 -0.421583,0.387868 0,0.337286 0.556484,0.337286 v 0.354125 h -0.10118 q -0.370989,0 -0.370989,0.269804 0,0.320383 0.303539,0.320383 0.387853,0 0.387853,-0.421608 h 0.438441 q -0.10118,0.8263 -0.826296,0.8263 z"/>
</svg>