<svg xmlns="http://www.w3.org/2000/svg" width="74.952217" height="100" viewBox="0 0 19.831107 26.458333">
    <path d="m 1.1804262,26.458333 q -0.72511744,0 -0.96120269,-0.219224 Q 0,26.003047 0,25.277906 V 1.1804001 Q 0,0.45527874 0.21922351,0.23606175 0.45531137,0 1.1804262,0 H 18.650696 q 0.725122,0 0.944339,0.23606175 0.236061,0.21922351 0.236061,0.94433835 V 25.277906 q 0,0.725122 -0.236061,0.961203 -0.219224,0.219224 -0.944339,0.219224 z"/>
    <path style="fill:#ffffff" d="M 1.3827854,25.969306 H 18.448337 q 0.590187,0 0.741986,-0.15174 0.15174,-0.15174 0.15174,-0.741986 V 1.3827919 q 0,-0.62392874 -0.15174,-0.75884355 Q 19.038583,0.4890466 18.448337,0.4890466 H 1.3827841 q -0.60707747,0 -0.75884358,0.13490175 Q 0.48903224,0.75885011 0.48903224,1.3827919 V 25.07558 q 0,0.590187 0.13490828,0.741986 0.15176611,0.15174 0.75884488,0.15174 z"/>
    <path style="fill:#ff0000" d="M 2.0067207,3.7604761 V 3.2208691 H 1.0455206 V 2.7992604 L 2.0404488,1.4164749 h 0.4215826 v 1.4165142 h 0.3035388 v 0.387867 H 2.4620288 v 0.539607 z"/>
    <path style="fill:#ffffff" d="M 1.3827854,2.8330021 H 2.0067207 V 2.0067011 Z"/>
    <path style="fill:#ff0000" d="M 6.1213437,7.2174331 4.1820764,4.7385432 6.1213437,2.242789 8.0606115,4.7385432 Z"/>
    <path style="fill:#ff0000" d="m 13.726645,7.2174331 -1.93927,-2.4788899 1.93927,-2.4957542 1.922406,2.4957542 z"/>
    <path style="fill:#ff0000" d="M 2.1753557,6.8127279 1.2816065,5.6660303 2.1753557,4.5361971 3.0859687,5.6660303 Z"/>
    <path style="fill:#ff0000" d="M 6.1213423,24.215524 4.1820751,21.71977 6.1213423,19.24088 8.0606102,21.71977 Z"/>
    <path style="fill:#ff0000" d="m 13.726645,24.215524 -1.93927,-2.495754 1.93927,-2.47889 1.922406,2.47889 z"/>
    <path style="fill:#ff0000" d="m 17.655771,21.938993 -0.893752,-1.146697 0.893752,-1.129833 0.893746,1.129833 z"/>
    <path style="fill:#ff0000" d="m 17.385968,25.041825 v -1.416507 h -0.320384 v -0.370964 h 0.320384 v -0.556511 h 0.438447 v 0.556511 h 0.978067 v 0.404705 l -1.011796,1.382786 z"/>
    <path style="fill:#ffffff" d="m 17.824415,24.451638 0.623929,-0.826294 h -0.623929 z"/>
</svg>