<svg xmlns="http://www.w3.org/2000/svg" width="74.952217" height="100" viewBox="0 0 19.831107 26.458333">
    <path d="m 1.1804256,26.458332 q -0.72511751,0 -0.96120212,-0.219224 Q 0,26.003047 0,25.277906 V 1.1804001 Q 0,0.45527872 0.21922348,0.23606177 0.45531135,0 1.1804256,0 H 18.650697 q 0.725118,0 0.94434,0.23606177 0.236089,0.21922348 0.236089,0.94433833 V 25.277906 q 0,0.725121 -0.236089,0.961203 -0.219225,0.219224 -0.94434,0.219224 z"/>
    <path style="fill:#ffffff" d="M 1.3827848,25.969305 H 18.44834 q 0.590213,0 0.74198,-0.151738 0.151765,-0.151739 0.151765,-0.741986 V 1.3827919 q 0,-0.62392876 -0.151765,-0.75884352 Q 19.038554,0.4890466 18.44834,0.4890466 H 1.3827841 q -0.60707759,0 -0.75884356,0.13490178 -0.1349083,0.1349017 -0.1349083,0.75884352 V 25.07558 q 0,0.590187 0.1349083,0.741985 0.1517661,0.151739 0.75884426,0.15174 z"/>
    <path style="fill:#ff0000" d="m 2.0404487,3.8447848 q -0.8600231,0 -0.8600231,-0.7251148 h 0.4890336 q 0,0.3372872 0.3709897,0.3372872 0.3878539,0 0.3878539,-0.4552855 0,-0.4384467 -0.3878539,-0.4384467 -0.2023595,0 -0.3709897,0.2023855 H 1.2478768 L 1.5008225,1.4502825 H 2.7992887 V 1.871891 H 1.8380857 L 1.736906,2.3946597 q 0.2360814,-0.1854821 0.4384408,-0.1854821 0.7251174,0 0.7251174,0.7925723 0,0.8431588 -0.8600231,0.8431588 z"/>
    <path style="fill:#ff0000" d="M 13.726644,7.2174263 11.787377,4.7385366 13.726644,2.2427824 15.649048,4.7385366 Z"/>
    <path style="fill:#ff0000" d="M 6.1213423,7.2174263 4.1820751,4.7385366 6.1213423,2.2427824 8.0606101,4.7385366 Z"/>
    <path style="fill:#ff0000" d="M 2.1753544,6.8127212 1.2816052,5.6660237 2.1753544,4.5361905 3.0859673,5.6660237 Z"/>
    <path style="fill:#ff0000" d="M 9.9155616,15.716485 7.993157,13.237595 9.9155616,10.741847 11.854829,13.237595 Z"/>
    <path style="fill:#ff0000" d="m 13.726644,24.215537 -1.939267,-2.495755 1.939267,-2.478889 1.922404,2.478889 z"/>
    <path style="fill:#ff0000" d="M 6.1213423,24.215537 4.1820751,21.719782 6.1213423,19.240893 8.0606101,21.719782 Z"/>
    <path style="fill:#ff0000" d="m 17.655769,21.939006 -0.89375,-1.146697 0.89375,-1.129834 0.893749,1.129834 z"/>
    <path style="fill:#ff0000" d="M 17.031834,25.008109 V 24.5865 h 0.961199 l 0.118041,-0.505863 q -0.151765,0.168643 -0.455307,0.168643 -0.725118,0 -0.725118,-0.792573 0,-0.826294 0.860024,-0.826294 0.860022,0 0.860022,0.725114 h -0.472172 q 0,-0.354124 -0.387854,-0.354124 -0.370989,0 -0.370989,0.455288 0,0.438448 0.370989,0.438448 0.252948,0 0.387854,-0.202385 h 0.404719 l -0.236089,1.315328 z"/>
</svg>