<svg xmlns="http://www.w3.org/2000/svg" width="74.952217" height="100" viewBox="0 0 19.831107 26.458333">
    <path d="m 1.1804256,26.458333 q -0.72511749,0 -0.96120209,-0.219224 Q 0,26.003047 0,25.277906 V 1.1804001 Q 0,0.45527874 0.21922351,0.23606175 0.45531137,0 1.1804256,0 H 18.650696 q 0.725121,0 0.944338,0.23606175 0.236062,0.21922351 0.236062,0.94433835 V 25.277906 q 0,0.725122 -0.236062,0.961203 -0.219224,0.219224 -0.944338,0.219224 z"/>
    <path style="fill:#ffffff" d="M 1.3827848,25.969306 H 18.448336 q 0.590187,0 0.741986,-0.15174 0.15174,-0.15174 0.15174,-0.741986 V 1.3827919 q 0,-0.62392874 -0.15174,-0.75884355 Q 19.038517,0.4890466 18.448336,0.4890466 H 1.3827841 q -0.60707747,0 -0.75884358,0.13490175 Q 0.48903224,0.75885011 0.48903224,1.3827919 V 25.07558 q 0,0.590187 0.13490828,0.741986 0.15176611,0.15174 0.75884428,0.15174 z"/>
    <path style="fill:#ff0000" d="m 2.0741755,3.8447848 q -0.8937499,0 -0.8937499,-1.2141484 0,-1.2478771 0.927476,-1.2478771 0.6576646,0 0.7588436,0.657664 H 2.4283047 Q 2.3608538,1.7706198 2.1079016,1.7706198 q -0.4384405,0 -0.4384405,0.5733488 V 2.4620321 Q 1.8718203,2.2090668 2.175359,2.2090668 q 0.3204031,0 0.5227622,0.2360618 0.2023592,0.2192235 0.2023592,0.5227687 0,0.8768875 -0.8262964,0.8768875 z"/>
    <path style="fill:#ff0000" d="M 13.726644,7.2174266 11.787377,4.7385367 13.726644,2.2427825 15.64905,4.7385367 Z"/>
    <path style="fill:#ff0000" d="M 6.1213423,7.2174266 4.1820751,4.7385367 6.1213423,2.2427825 8.0606102,4.7385367 Z"/>
    <path style="fill:#ffffff" d="m 2.0741755,3.4569309 q 0.3541253,0 0.3541253,-0.4552853 0,-0.438447 -0.3541253,-0.438447 -0.3709896,0 -0.3709896,0.438447 0,0.4552853 0.3709896,0.4552853 z"/>
    <path style="fill:#ff0000" d="M 2.1753551,6.8127083 1.2816058,5.6660107 2.1753551,4.5361776 3.085968,5.6660107 Z"/>
    <path style="fill:#ff0000" d="M 6.121343,15.716472 4.1820758,13.237582 6.121343,10.741834 8.0606109,13.237582 Z"/>
    <path style="fill:#ff0000" d="m 13.726645,15.716472 -1.939268,-2.47889 1.939268,-2.495748 1.922405,2.495748 z"/>
    <path style="fill:#ff0000" d="m 13.726645,24.215524 -1.939268,-2.495754 1.939268,-2.47889 1.922405,2.47889 z"/>
    <path style="fill:#ff0000" d="M 6.121343,24.215524 4.1820758,21.71977 6.121343,19.24088 8.0606109,21.71977 Z"/>
    <path style="fill:#ff0000" d="m 17.655771,21.938993 -0.893752,-1.146697 0.893752,-1.129833 0.893745,1.129833 z"/>
    <path style="fill:#ff0000" d="m 17.723254,25.075547 q -0.657664,0 -0.758843,-0.657664 h 0.455285 q 0.10116,0.286707 0.303545,0.286707 0.455285,0 0.455285,-0.590187 v -0.10116 q -0.219223,0.236062 -0.522768,0.236062 -0.303546,0 -0.522769,-0.219223 -0.202385,-0.236062 -0.202385,-0.539607 0,-0.860024 0.826301,-0.860024 0.893745,0 0.893745,1.197284 0,1.247878 -0.927474,1.247878 z"/>
    <path style="fill:#ffffff" d="m 17.757192,23.895128 q 0.387867,0 0.387867,-0.438447 0,-0.455286 -0.387867,-0.455286 -0.337287,0 -0.337287,0.455286 0,0.438447 0.337287,0.438447 z"/>
</svg>