<svg xmlns="http://www.w3.org/2000/svg" width="74.952217" height="100" viewBox="0 0 19.831107 26.458333">
    <path d="m 1.1804256,26.458331 q -0.72511754,0 -0.96120207,-0.219224 Q 0,26.003047 0,25.277906 V 1.1804001 Q 0,0.45527869 0.21922353,0.23606175 0.4553048,0 1.1804256,0 H 18.650697 q 0.725118,0 0.944339,0.23606175 0.236083,0.21922347 0.236083,0.94433835 V 25.277906 q 0,0.725115 -0.236083,0.961203 -0.219224,0.219224 -0.944339,0.219224 z"/>
    <path style="fill:#ffffff" d="M 1.3827847,25.969305 H 18.448339 q 0.590213,0 0.74198,-0.151739 0.151765,-0.151738 0.151765,-0.741979 V 1.3827984 q 0,-0.62392855 -0.151765,-0.75884352 -0.151765,-0.13490179 -0.74198,-0.13490179 H 1.3827847 q -0.60707735,0 -0.75884418,0.13490179 Q 0.4890322,0.7588566 0.4890322,1.3827984 V 25.075586 q 0,0.590187 0.13490832,0.741979 0.15176611,0.151738 0.75884418,0.15174 z"/>
    <path style="fill:#ff0000" d="M 1.73691,3.760476 Q 1.8380895,2.664365 2.5294796,1.8717928 H 1.4165102 V 1.4165076 h 1.6020036 v 0.421609 Q 2.2596702,2.4957803 2.2596702,3.7605217 Z"/>
    <path style="fill:#ff0000" d="M 6.1213408,7.2174264 4.182073,4.7385365 6.1213408,2.2427889 8.0606079,4.7385365 Z"/>
    <path style="fill:#ff0000" d="M 13.726642,7.2174264 11.787375,4.7385365 13.726642,2.2427889 15.649047,4.7385365 Z"/>
    <path style="fill:#ff0000" d="M 2.1753531,6.8127214 1.2816032,5.6660236 2.1753531,4.5361839 3.0859653,5.6660236 Z"/>
    <path style="fill:#ff0000" d="M 9.9155614,11.466949 7.9931568,8.9880592 9.9155614,6.492305 11.854829,8.9880592 Z"/>
    <path style="fill:#ff0000" d="m 6.1213421,15.716472 -1.9392678,-2.47889 1.9392678,-2.495754 1.9392671,2.495754 z"/>
    <path style="fill:#ff0000" d="m 13.726643,15.716472 -1.939267,-2.47889 1.939267,-2.495754 1.922405,2.495754 z"/>
    <path style="fill:#ff0000" d="M 6.1213421,24.215524 4.1820743,21.719769 6.1213421,19.24088 8.0606092,21.719769 Z"/>
    <path style="fill:#ff0000" d="m 13.726643,24.215524 -1.939267,-2.495755 1.939267,-2.478889 1.922405,2.478889 z"/>
    <path style="fill:#ff0000" d="m 17.655768,21.938992 -0.893749,-1.146697 0.893749,-1.129833 0.89375,1.129833 z"/>
    <path style="fill:#ff0000" d="m 16.829472,25.041818 v -0.421544 q 0.758844,-0.60709 0.758844,-1.922405 h 0.52276 q -0.118042,1.096111 -0.809432,1.888677 h 1.112972 v 0.455287 z"/>
</svg>