<svg xmlns="http://www.w3.org/2000/svg" width="74.952217" height="100" viewBox="0 0 19.831107 26.458333">
    <path d="m 1.1804256,26.458333 q -0.72511749,0 -0.96120209,-0.219224 Q 0,26.003047 0,25.277906 V 1.1804001 Q 0,0.45527874 0.21922351,0.23606175 0.45531137,0 1.1804256,0 H 18.650696 q 0.725121,0 0.944338,0.23606175 0.236062,0.21922351 0.236062,0.94433835 V 25.277906 q 0,0.725115 -0.236062,0.961203 -0.219224,0.219224 -0.944338,0.219224 z"/>
    <path style="fill:#ffffff" d="M 1.3827848,25.969306 H 18.448336 q 0.590187,0 0.741986,-0.15174 0.15174,-0.15174 0.15174,-0.74198 V 1.3827985 q 0,-0.62392881 -0.15174,-0.75885015 Q 19.038517,0.4890466 18.448336,0.4890466 H 1.3827841 q -0.60707747,0 -0.75884358,0.13490175 Q 0.48903224,0.75885011 0.48903224,1.3827985 V 25.075586 q 0,0.590187 0.13490828,0.74198 0.15176611,0.15174 0.75884428,0.15174 z"/>
    <path style="fill:#ff0000" d="m 2.141629,3.8447914 q -0.8937499,0 -0.8937499,-0.7251214 0,-0.489027 0.4553048,-0.590187 -0.3541252,-0.10116 -0.3541252,-0.4890271 0,-0.3035452 0.26981,-0.4721887 0.2866744,-0.1854818 0.5227622,-0.1854818 0.8094334,0 0.8094334,0.6239288 0,0.337287 -0.3541252,0.5227688 0.4553048,0.10116 0.4553048,0.590187 0,0.7251214 -0.9106149,0.7251214 z"/>
    <path style="fill:#ffffff" d="m 2.141629,2.3945551 q 0.3541253,0 0.3541253,-0.3203835 0,-0.3035453 -0.3541253,-0.3035453 -0.3372675,0 -0.3372675,0.3035453 0,0.3203835 0.3372675,0.3203835 z"/>
    <path style="fill:#ff0000" d="M 13.726645,7.2174266 11.787377,4.7385367 13.726645,2.242789 15.64905,4.7385367 Z"/>
    <path style="fill:#ff0000" d="M 6.121343,7.2174266 4.1820758,4.7385367 6.121343,2.242789 8.0606109,4.7385367 Z"/>
    <path style="fill:#ffffff" d="m 2.1416283,3.4569309 q 0.4215762,0 0.4215762,-0.3709635 0,-0.387867 -0.4215762,-0.387867 -0.4047183,0 -0.4047183,0.387867 0,0.3709635 0.4047183,0.3709635 z"/>
    <path style="fill:#ff0000" d="M 2.1753701,6.8127083 1.2816208,5.6660107 2.1753701,4.536171 3.085983,5.6660107 Z"/>
    <path style="fill:#ff0000" d="M 9.9155772,11.466949 7.993173,8.9880595 9.9155772,6.4923052 11.854845,8.9880595 Z"/>
    <path style="fill:#ff0000" d="m 6.1213423,15.716472 -1.9392672,-2.47889 1.9392672,-2.495754 1.9392679,2.495754 z"/>
    <path style="fill:#ff0000" d="m 13.726644,15.716472 -1.939267,-2.47889 1.939267,-2.495754 1.922406,2.495754 z"/>
    <path style="fill:#ff0000" d="m 9.9155616,19.966001 -1.9224042,-2.47889 1.9224042,-2.495754 1.9392674,2.495754 z"/>
    <path style="fill:#ff0000" d="m 13.726644,24.215524 -1.939267,-2.495754 1.939267,-2.47889 1.922406,2.47889 z"/>
    <path style="fill:#ff0000" d="M 6.1213423,24.215524 4.1820751,21.71977 6.1213423,19.24088 8.0606102,21.71977 Z"/>
    <path style="fill:#ff0000" d="m 17.655771,21.938993 -0.893752,-1.146697 0.893752,-1.129833 0.893745,1.129833 z"/>
    <path style="fill:#ff0000" d="m 17.689708,25.075547 q -0.792566,0 -0.792566,-0.623928 0,-0.370964 0.337287,-0.522769 -0.438447,-0.10116 -0.438447,-0.573349 0,-0.725115 0.893746,-0.725115 0.893752,0 0.893752,0.725115 0,0.472189 -0.438447,0.573349 0.337287,0.118063 0.337287,0.489027 0,0.320383 -0.269804,0.489027 -0.252965,0.168643 -0.522769,0.168643 z"/>
    <path style="fill:#ffffff" d="m 17.689708,23.760219 q 0.421609,0 0.421609,-0.370963 0,-0.387867 -0.421609,-0.387867 -0.421543,0 -0.421543,0.387867 0,0.370963 0.421543,0.370963 z"/>
    <path style="fill:#ffffff" d="m 17.689708,24.704558 q 0.354125,0 0.354125,-0.320384 0,-0.303545 -0.354125,-0.303545 -0.337287,0 -0.337287,0.303545 0,0.320384 0.337287,0.320384 z"/>
</svg>