<svg xmlns="http://www.w3.org/2000/svg" width="74.952217" height="100" viewBox="0 0 19.831107 26.458333">
    <path d="m 1.1804256,26.458331 q -0.72511754,0 -0.96120207,-0.219224 Q 0,26.003047 0,25.277906 V 1.1804001 Q 0,0.45527869 0.21922353,0.23606175 0.45531132,0 1.1804256,0 H 18.650697 q 0.725118,0 0.944339,0.23606175 0.236083,0.21922347 0.236083,0.94433835 V 25.277906 q 0,0.725115 -0.236083,0.961203 -0.219224,0.219224 -0.944339,0.219224 z"/>
    <path style="fill:#ffffff" d="M 1.3827847,25.969305 H 18.448339 q 0.590213,0 0.741981,-0.151739 0.151765,-0.151738 0.151765,-0.741979 V 1.3827984 q 0,-0.62392855 -0.151765,-0.75885005 Q 19.038548,0.48904656 18.448339,0.48904656 H 1.3827847 q -0.60707735,0 -0.75884418,0.13490179 Q 0.4890322,0.75885008 0.4890322,1.3827984 V 25.075586 q 0,0.590187 0.13490832,0.741979 0.15176611,0.151738 0.75884418,0.15174 z"/>
    <path style="fill:#ff0000" d="m 2.00672,3.8447913 q -0.6576646,0 -0.7588436,-0.657664 h 0.4553049 q 0.1011797,0.2698033 0.303539,0.2698033 0.455305,0 0.455305,-0.590187 V 2.7655835 q -0.2360879,0.2360617 -0.522762,0.2360617 -0.303539,0 -0.5227619,-0.2192236 Q 1.214142,2.563198 1.214142,2.2428143 q 0,-0.8600231 0.8262964,-0.8600231 0.9106122,0 0.9106122,1.2141484 0,1.2478771 -0.944339,1.2478771 z"/>
    <path style="fill:#ffffff" d="m 2.0404617,2.664365 q 0.3878538,0 0.3878538,-0.4552853 0,-0.404705 -0.3878538,-0.404705 -0.337261,0 -0.337261,0.404705 0,0.4552853 0.337261,0.4552853 z"/>
    <path style="fill:#ff0000" d="M 13.726656,7.2174264 11.78739,4.7385365 13.726656,2.2427889 15.649061,4.7385365 Z"/>
    <path style="fill:#ff0000" d="M 6.1213552,7.2174264 4.1820874,4.7385365 6.1213552,2.2427889 8.0606229,4.7385365 Z"/>
    <path style="fill:#ff0000" d="M 2.1753544,6.8127084 1.2816045,5.6660106 2.1753544,4.5361709 3.0859666,5.6660106 Z"/>
    <path style="fill:#ff0000" d="M 6.1213421,12.883457 4.1820743,10.404567 6.1213421,7.9088127 8.0606099,10.404567 Z"/>
    <path style="fill:#ff0000" d="m 13.726643,12.883457 -1.939267,-2.47889 1.939267,-2.4957543 1.922405,2.4957543 z"/>
    <path style="fill:#ff0000" d="m 9.9155614,15.716472 -1.922404,-2.47889 1.922404,-2.495754 1.9392676,2.495754 z"/>
    <path style="fill:#ff0000" d="m 13.726643,18.549493 -1.939267,-2.478889 1.939267,-2.495755 1.922405,2.495755 z"/>
    <path style="fill:#ff0000" d="M 6.1213421,18.549493 4.1820743,16.070604 6.1213421,13.574849 8.0606099,16.070604 Z"/>
    <path style="fill:#ff0000" d="m 13.726643,24.215524 -1.939267,-2.495755 1.939267,-2.478889 1.922405,2.478889 z"/>
    <path style="fill:#ff0000" d="M 6.1213421,24.215524 4.1820743,21.719769 6.1213421,19.24088 8.0606099,21.719769 Z"/>
    <path style="fill:#ff0000" d="m 17.655768,21.938992 -0.893749,-1.146697 0.893749,-1.129833 0.89375,1.129833 z"/>
    <path style="fill:#ff0000" d="m 17.790676,25.075547 q -0.893749,0 -0.893749,-1.214149 0,-1.231013 0.927476,-1.231013 0.657665,0 0.758844,0.657664 h -0.438442 q -0.06745,-0.28671 -0.320401,-0.28671 -0.438442,0 -0.438442,0.590188 v 0.101163 q 0.236089,-0.236063 0.505895,-0.236063 0.320401,0 0.52276,0.219224 0.20236,0.219224 0.20236,0.539605 0,0.860023 -0.826298,0.860023 z"/>
    <path style="fill:#ffffff" d="m 17.790676,24.670841 q 0.354124,0 0.354124,-0.421544 0,-0.455288 -0.354124,-0.455288 -0.370989,0 -0.370989,0.455288 0,0.421544 0.370989,0.421544 z"/>
</svg>