<svg xmlns="http://www.w3.org/2000/svg" width="74.952217" height="100" viewBox="0 0 19.831107 26.458333">
    <path d="m 1.180426,26.458333 q -0.72511735,0 -0.96120254,-0.219224 Q 0,26.003048 0,25.277907 V 1.1804064 Q 0,0.45528515 0.21922346,0.2360617 0.45531126,0 1.180426,0 h 17.470266 q 0.725121,0 0.944338,0.2360617 0.236061,0.21922345 0.236061,0.9443447 V 25.277907 q 0,0.725114 -0.236061,0.961202 -0.219224,0.219224 -0.944338,0.219224 z"/>
    <path style="fill:#ffffff" d="M 1.3827851,25.969306 H 18.448333 q 0.590186,0 0.741985,-0.151805 0.15174,-0.15174 0.15174,-0.741979 V 1.3827329 q 0,-0.62392866 -0.15174,-0.75884344 -0.15174,-0.13490172 -0.741985,-0.13490172 H 1.3827838 q -0.60707736,0 -0.75884343,0.13490172 Q 0.48903212,0.75879118 0.48903212,1.3827329 V 25.075522 q 0,0.590186 0.13490825,0.741979 0.15176607,0.151805 0.75884473,0.151805 z"/>
    <path style="fill:#ff0000" d="m 1.0117936,3.7604752 0.893749,-2.4114319 h 0.5564843 l 0.893749,2.4114319 H 2.7992916 L 2.6306612,3.2208683 H 1.7369109 L 1.5345518,3.7604752 Z"/>
    <path style="fill:#ffffff" d="M 1.8718165,2.8330014 H 2.4957517 L 2.1753539,1.9392563 Z"/>
    <path style="fill:#ff0000" d="M 2.1753552,6.8127131 1.2816062,5.6660159 2.1753552,4.536183 3.0859679,5.6660159 Z"/>
    <path style="fill:#ff0000" d="M 9.8818317,16.576504 7.3354922,13.305043 9.8818317,10.016724 12.445036,13.305043 Z"/>
    <path style="fill:#ff0000" d="m 17.655767,21.939001 -0.893752,-1.146697 0.893752,-1.129833 0.893745,1.129833 z"/>
    <path style="fill:#ff0000" d="m 17.385964,25.109283 -0.910616,-2.411439 h 0.55651 l 0.168643,0.556511 h 0.910616 l 0.202386,-0.556511 h 0.522768 l -0.910609,2.411439 z"/>
    <path style="fill:#ffffff" d="m 17.655767,24.519096 0.303545,-0.893752 h -0.60709 z"/>
</svg>