<svg xmlns="http://www.w3.org/2000/svg" width="74.952217" height="100" viewBox="0 0 19.831107 26.458333">
    <path d="m 1.1804256,26.458331 q -0.72511754,0 -0.96120207,-0.219224 Q 0,26.003047 0,25.277906 V 1.1804001 Q 0,0.45528522 0.21922353,0.23606175 0.4553048,0 1.1804256,0 H 18.650697 q 0.725118,0 0.944339,0.23606175 0.236083,0.21922347 0.236083,0.94433835 V 25.277906 q 0,0.725121 -0.236083,0.961203 -0.219224,0.219224 -0.944339,0.219224 z"/>
    <path style="fill:#ffffff" d="M 1.3827847,25.969305 H 18.448339 q 0.590213,0 0.74198,-0.151739 0.151765,-0.151738 0.151765,-0.741979 V 1.3827919 q 0,-0.62392858 -0.151765,-0.75884355 -0.151765,-0.13490179 -0.74198,-0.13490179 H 1.3827847 q -0.60707735,0 -0.75884418,0.13490179 Q 0.4890322,0.75885008 0.4890322,1.3827919 V 25.075586 q 0,0.590187 0.13490832,0.741979 0.15176611,0.151738 0.75884418,0.15174 z"/>
    <path style="fill:#ff0000" d="m 2.0404493,3.8447913 q -0.5396203,0 -0.8600231,-0.3541253 -0.30353898,-0.3709634 -0.30353898,-0.8937519 0,-0.5565107 0.30353898,-0.9106096 0.3204033,-0.3709634 0.8600231,-0.3709634 0.9106123,0 1.045518,0.8600231 H 2.5632047 q -0.033743,-0.404705 -0.522762,-0.404705 -0.6576646,0 -0.6576646,0.8262944 0,0.7925723 0.6576646,0.7925723 0.522762,0 0.5564846,-0.5227685 h 0.522762 Q 3.0185099,3.8448239 2.0404447,3.8448239 Z"/>
    <path d="M 3.9459904,22.66412 V 3.8110626 H 15.901996 V 22.66412 Z"/>
    <path style="fill:#ffffff" d="M 15.412963,12.445022 V 4.2832383 h -1.972994 l 0.06745,0.2866414 q 0.320401,0.2023855 0.320401,0.5396073 0,0.3878668 -0.269812,0.8094301 -0.252948,0.404705 -0.809434,0.404705 -0.48903,0 -0.48903,-0.3878669 0,-0.2698033 0.219224,-0.3035455 0.20236,-0.067418 0.20236,-0.2023855 L 12.343865,5.2949226 12.124641,5.4635665 v 0.2360617 l 0.06745,0.3203837 0.151764,0.2023854 0.06745,0.2023855 -0.03374,0.421609 q 0,0.1686426 0.337259,0.4047057 0.354124,0.2529671 0.354124,0.4890302 0,0.3878668 -0.657665,0.3878668 0.370989,0.3035423 0.640802,0.741979 0.286677,0.4216097 0.3204,0.7082571 h 0.101177 q 0.354124,0 0.455307,0.2023854 l 0.826296,2.006717 q 0.101177,0.202385 0.657664,0.657663 z"/>
    <path style="fill:#ffffff" d="M 4.4350227,11.230868 Q 4.5024735,10.876742 5.261319,10.117892 5.9864365,9.3927772 6.3237006,8.8868795 6.6103751,8.4315942 7.9088407,8.1617648 7.7402099,8.0437013 7.7402099,7.8413811 L 8.0268873,7.5040959 Q 8.9543607,6.5597556 8.9543607,6.053858 8.667686,5.6997327 8.2966958,5.5985727 8.8531804,5.2950275 9.0218132,4.7385496 l 0.337259,0.033939 q 0.7757078,0 1.7369098,-0.489027 H 4.4350227 Z"/>
    <path style="fill:#ffffff" d="m 12.782304,6.0538645 q 0.286671,0 0.489037,-0.3035456 0.202359,-0.3203836 0.202359,-0.6070904 0,-0.1686432 -0.303542,-0.3709634 0,-0.3878668 -0.269812,-0.421609 -0.252948,-0.033939 -0.640802,-0.033939 -0.404718,0 -0.607078,0.1686432 0.20236,0.1517398 0.421584,0.2866415 0.236083,0.1349016 0.505895,0.2023854 0.48903,0.1686439 0.48903,0.4552854 0,0.2023854 -0.252947,0.3035455 -0.23609,0.1686439 -0.23609,0.2023855 0,0.1180635 0.20236,0.1180635 z"/>
    <path style="fill:#ff0000" d="M 2.1753544,6.8127084 1.2816045,5.6660106 2.1753544,4.5361774 3.0859666,5.6660106 Z"/>
    <path style="fill:#ff0000" d="M 6.0876154,7.8076395 4.9409185,6.3574032 6.0876154,4.907167 7.2174499,6.3574032 Z"/>
    <path style="fill:#ffffff" d="m 10.8599,7.9425412 q 0.337259,0 0.472172,-0.4047057 l -0.404718,0.033939 -0.387854,-0.06742 -0.03374,-0.067486 0.03374,-0.1180609 0.48903,0.033939 0.404719,-0.06742 0.219224,-0.8262948 h -0.03374 q -0.151765,0 -0.151765,-0.1349017 v -0.033939 l -0.03374,0.1011601 v 0.067484 l -0.03374,0.033939 q -0.101177,0 -0.101177,-0.2023854 0,-0.2023202 0.354124,-0.2023202 h 0.06745 L 11.753623,5.936262 11.500676,5.9023233 11.19714,5.936262 q 0,0.657664 0.134906,1.1804259 l -0.370989,0.067421 -0.286677,-0.033939 0.06745,-0.2023854 0.151765,0.033939 h 0.168629 l -0.06745,-0.55651 V 5.8012843 l 0.404719,-0.1011601 0.354124,0.033939 0.03374,-0.2698033 q -0.52276,-0.1686432 -0.758844,-0.1686432 -0.556483,0 -1.2478762,0.3709634 v 0.2023854 l 0.067453,0.9780669 -0.033743,0.6576636 q 0.3878542,0.4384485 1.0455192,0.4384485 z"/>
    <path style="fill:#000000" d="M 9.9492873,6.1213154 9.8143811,5.9864137 Q 10.134782,5.7671901 10.370864,5.7671901 l 0.303536,0.033939 -0.06745,0.2192236 -0.236089,-0.033939 q -0.20236,0 -0.4215838,0.1349017 z"/>
    <path style="fill:#ffffff" d="m 8.8194532,8.0774494 q 0.5396184,0 0.607078,-0.3878669 0.084318,-0.4047056 0.084318,-0.8431587 L 9.4433955,5.9020854 9.2916289,6.0201488 Q 9.1904499,6.9813516 8.0943423,7.8751037 8.2967017,8.0774892 8.8194597,8.0774892 Z"/>
    <path style="fill:#000000" d="m 10.134783,6.5597621 q -0.1854944,0 -0.1854944,-0.1011594 L 9.9155457,6.323701 q 0.1686293,-0.1686432 0.4890303,-0.1686432 0.337259,0 0.337259,0.2023854 0,0.2023848 -0.101176,0.2023848 L 10.606919,6.525889 V 6.458471 l -0.03374,-0.1011601 v 0.033939 q 0,0.1349016 -0.134906,0.1349016 -0.134907,0 -0.134907,-0.1349016 l 0.03374,-0.067418 -0.06745,0.067418 q 0,0.1686432 -0.134906,0.1686432 z"/>
    <path style="fill:#ffffff" d="m 12.259546,7.8413615 q 0.387853,0 0.387853,-0.1686426 L 12.579948,7.4703328 Q 12.34386,7.2511092 12.158366,7.1499491 12.057186,7.0487897 12.057186,6.8801458 V 6.3911189 l -0.03374,-0.067419 Q 11.922265,7.0825443 11.618726,7.6727574 11.888539,7.8414 12.259527,7.8414 Z"/>
    <path style="fill:#000000" d="m 10.741858,7.7739436 -0.06745,-0.06742 0.06745,-0.033939 h 0.3204 l 0.06745,0.033939 -0.06745,0.06742 z"/>
    <path style="fill:#ffffff" d="m 10.472047,8.8025968 q 0.590213,0 1.31533,-0.7251148 L 11.466976,7.9425823 q -0.236082,0.3541239 -0.607078,0.3541239 -0.590213,0 -1.0792441,-0.3878668 -0.1011765,0.4552873 -0.8600237,0.4552873 0.8262971,0.4384485 1.5514148,0.4384485 z"/>
    <path style="fill:#ffffff" d="m 11.33207,12.259554 q 0.134906,0 0.252948,-0.202385 0,-0.961203 0.219224,-1.770633 0.219224,-0.8263011 0.843159,-1.585145 L 12.377589,8.3641058 12.023465,8.9206152 q -0.758845,0.9949253 -0.89375,3.1702828 0.06745,0.168642 0.20236,0.168642 z"/>
    <path style="fill:#ffffff" d="m 8.9206329,12.158394 q 0.1349062,0 0.2023593,-0.168643 L 9.0218125,11.06227 Q 8.988071,10.539501 8.684545,9.8987148 8.3978709,9.2578821 7.8076591,8.4316138 L 7.4029404,8.5665135 Q 8.499048,9.8818414 8.6002276,11.163441 l 0.067453,0.826301 q 0,0.168642 0.2529476,0.168642 z"/>
    <path style="fill:#ffffff" d="m 9.915562,12.293296 h 0.354124 q 0.657664,-2.5800698 1.315329,-3.6255878 -0.455307,0.3878668 -1.21415,0.3878668 -0.6913908,0 -1.2816026,-0.354124 0.52276,1.2816059 0.8262964,3.591866 z"/>
    <path style="fill:#ffffff" d="m 13.406243,10.37089 q 0.20236,0 0.20236,-0.219224 0,-0.2023852 -0.20236,-0.2023852 -0.202359,0 -0.202359,0.2023852 0,0.219224 0.202359,0.219224 z"/>
    <path style="fill:#ffffff" d="m 13.068976,10.876756 q 0.202359,0 0.202359,-0.202321 0,-0.202385 -0.202359,-0.202385 -0.219224,0 -0.219224,0.202385 0,0.202321 0.219224,0.202321 z"/>
    <path style="fill:#ffffff" d="m 12.714851,11.365782 q 0.202359,0 0.202359,-0.202385 0,-0.219224 -0.202359,-0.219224 -0.20236,0 -0.20236,0.219224 0,0.202385 0.20236,0.202385 z"/>
    <path style="fill:#ffffff" d="M 7.6727555,13.170144 Q 8.0606092,12.51248 8.3641469,12.394436 l 0.033743,-0.573348 q -0.2023606,-0.185483 -0.2023606,-0.42161 -0.5902131,0.455286 -0.978065,0.455286 l 0.1180414,0.168642 0.067453,0.269806 -0.067453,0.252967 q 0.2360891,0.101164 0.337259,0.62393 z"/>
    <path style="fill:#ffffff" d="m 12.377588,11.821087 q 0.202359,0 0.202359,-0.219224 0,-0.202385 -0.202359,-0.202385 -0.219225,0 -0.219225,0.202385 0,0.219224 0.219225,0.219224 z"/>
    <path style="fill:#ffffff" d="m 12.057184,12.360694 q 0.20236,0 0.20236,-0.202385 0,-0.202386 -0.20236,-0.202386 -0.202359,0 -0.202359,0.202386 0,0.202385 0.202359,0.202385 z"/>
    <path style="fill:#ffffff" d="m 11.719923,12.950881 q 0.20236,0 0.20236,-0.202385 0,-0.202386 -0.20236,-0.202386 -0.219224,0 -0.219224,0.202386 0,0.202385 0.219224,0.202385 z"/>
    <path style="fill:#ffffff" d="m 11.652472,15.058781 q 0.691391,-0.438448 0.961203,-0.438448 l -0.101177,-0.185482 -0.03374,-0.269805 0.03374,-0.236064 q -0.252948,-0.118058 -0.354128,-0.623924 -0.303539,0.657665 -0.691392,0.758844 l -0.03374,0.590187 q 0.219224,0.1349 0.219224,0.404706 z"/>
    <path style="fill:#ffffff" d="m 8.1280624,13.928975 q 0.2023593,0 0.2023593,-0.219225 0,-0.202385 -0.2023593,-0.202385 -0.2192243,0 -0.2192243,0.202385 0,0.219225 0.2192243,0.219225 z"/>
    <path style="fill:#ffffff" d="m 4.4350227,22.17508 h 1.9561301 l -0.067451,-0.269806 q -0.303539,-0.219224 -0.303539,-0.556509 0,-0.387867 0.2529456,-0.792572 0.2698098,-0.42161 0.8094334,-0.42161 0.4890302,0 0.4890302,0.387867 0,0.202386 -0.2023594,0.303549 -0.2192242,0.03394 -0.2192242,0.202386 l 0.3541239,0.151738 0.2023594,-0.185481 V 20.724836 L 7.6390185,20.45503 7.5041122,20.235806 7.4366591,20.03342 7.470402,19.61181 q 0,-0.202385 -0.354124,-0.404705 -0.337259,-0.236063 -0.337259,-0.489024 0,-0.370963 0.6576649,-0.370963 Q 7.0488341,18.026737 6.76216,17.588278 6.49235,17.132992 6.4586213,16.896885 H 6.3574416 q -0.337261,0 -0.4384407,-0.219224 L 5.4636775,15.649021 5.0926872,14.687818 Q 4.9746446,14.468601 4.4350227,14.030154 Z"/>
    <path style="fill:#ffffff" d="m 7.7739351,14.502323 q 0.2192243,0 0.2192243,-0.202386 0,-0.20232 -0.2192243,-0.20232 -0.2023593,0 -0.2023593,0.20232 0,0.202386 0.2023593,0.202386 z"/>
    <path style="fill:#ffffff" d="m 8.2629686,17.790649 q 0.4553069,-0.387866 1.2141502,-0.387866 0.6913912,0 1.2647392,0.354124 -0.43844,-1.146697 -0.826296,-3.591858 H 9.578301 q -0.3541252,1.281599 -0.6745278,2.192216 -0.3035384,0.910609 -0.6407994,1.433371 z"/>
    <path style="fill:#ffffff" d="m 7.4703981,18.094195 q 0.4721718,-0.758844 0.7082544,-1.247877 0.2529476,-0.505928 0.354124,-1.062383 0.1011764,-0.556509 0.1854944,-1.416507 -0.050582,-0.168643 -0.2192243,-0.168643 -0.1686295,0 -0.2360891,0.202386 0,2.276537 -1.0792446,3.355777 z"/>
    <path style="fill:#ffffff" d="m 12.023462,18.026711 0.421582,-0.134901 q -1.079248,-0.860004 -1.281607,-3.423209 0,-0.168643 -0.236082,-0.168643 -0.219224,0 -0.219224,0.168643 l 0.151764,0.91061 q 0.06745,0.505927 0.354124,1.332192 0.286678,0.809437 0.809434,1.315328 z"/>
    <path style="fill:#ffffff" d="m 7.4703974,15.058814 q 0.2023594,0 0.2023594,-0.202385 0,-0.202386 -0.2023594,-0.202386 -0.2023593,0 -0.2023593,0.202386 0,0.202385 0.2023593,0.202385 z"/>
    <path style="fill:#ffffff" d="m 7.1162722,15.514099 q 0.2192242,0 0.2192242,-0.219224 0,-0.202385 -0.2192242,-0.202385 -0.2023594,0 -0.2023594,0.202385 0,0.219224 0.2023594,0.219224 z"/>
    <path style="fill:#ffffff" d="m 8.7520027,22.175061 h 6.6609623 v -6.947636 q 0,0.252967 -0.20236,0.42161 l -1.079244,1.146696 q -0.404719,0.539606 -0.674527,0.843159 -0.252948,0.286645 -0.590214,0.404706 -0.3204,0.118061 -0.944339,0.269806 0.16863,0.101163 0.16863,0.303542 l -0.269813,0.354124 q -0.927476,0.927474 -0.927476,1.450229 0.303543,0.303543 0.640802,0.438449 -0.505895,0.387867 -0.725118,0.860023 l -0.337259,-0.03394 q -0.7588436,0 -1.7200456,0.48903 z"/>
    <path style="fill:#ffffff" d="m 6.7790066,15.986288 q 0.2023593,0 0.2023593,-0.202385 0,-0.202386 -0.2023593,-0.202386 -0.2023593,0 -0.2023593,0.202386 0,0.202385 0.2023593,0.202385 z"/>
    <path style="fill:#ffffff" d="m 6.4248815,16.509057 q 0.2192236,0 0.2192236,-0.202386 0,-0.202385 -0.2192236,-0.202385 -0.2023593,0 -0.2023593,0.202385 0,0.202386 0.2023593,0.202386 z"/>
    <path style="fill:#ffffff" d="m 10.050469,18.549506 q 0.151766,-0.455285 0.876886,-0.455285 -0.84316,-0.438447 -1.5682776,-0.438447 -0.5733482,0 -1.2984662,0.725121 l 0.3035357,0.1349 q 0.2023594,-0.354124 0.6239365,-0.354124 0.5902131,0 1.0623816,0.387867 z"/>
    <path style="fill:#ffffff" d="M 10.404594,20.556227 10.5395,20.45507 q 0.101182,-0.97807 1.214153,-1.871815 -0.219224,-0.202386 -0.725118,-0.202386 -0.556483,0 -0.623936,0.387867 -0.06745,0.370963 -0.06745,0.843159 z"/>
    <path style="fill:#ffffff" d="m 8.8194532,21.180156 q 0.5396184,0 1.2310138,-0.387867 v -0.202386 l -0.067453,-0.978066 0.033743,-0.640769 q -0.3372593,-0.455287 -1.0286554,-0.455287 -0.3204006,0 -0.4890301,0.421609 l 0.4215835,-0.05091 0.3709889,0.08432 0.033743,0.101157 -0.033743,0.06748 -0.4721718,-0.03394 -0.4215836,0.06742 -0.2023593,0.826301 h 0.033743 q 0.1349063,0 0.1349063,0.1349 v 0.03394 l 0.033743,-0.101156 v -0.06742 l 0.033743,-0.03394 q 0.1011764,0 0.1011764,0.202385 0,0.219224 -0.3372655,0.219224 h -0.067453 l -0.033743,0.1349 0.2698124,0.03394 0.2698125,-0.03394 q 0,-0.320381 -0.033743,-0.607091 -0.033743,-0.303542 -0.1011764,-0.573348 l 0.4215836,-0.06749 0.2360826,0.03394 -0.067453,0.202385 -0.1349062,-0.03394 H 8.785724 l 0.067453,0.522767 v 0.657663 l -0.3878537,0.101157 -0.3709889,-0.03394 -0.033743,0.269806 q 0.438442,0.185481 0.758844,0.185481 z"/>
    <path style="fill:#ffffff" d="m 7.8076617,20.134631 q 0.1011829,-0.792566 0.4215836,-1.349056 -0.2023594,-0.168643 -0.6576649,-0.168643 -0.3878538,0 -0.3878538,0.168643 l 0.1180413,0.219224 0.3372656,0.303542 q 0.1348997,0.101164 0.1348997,0.269806 v 0.48903 z"/>
    <path style="fill:#ff0000" d="m 13.76037,21.551139 -1.146697,-1.45023 1.146697,-1.450236 1.129834,1.450236 z"/>
    <path style="fill:#000000" d="m 8.7857266,18.785575 -0.067453,-0.06742 0.067453,-0.03394 h 0.3035358 l 0.067453,0.03394 -0.067453,0.06742 z"/>
    <path style="fill:#ff0000" d="m 17.655768,21.938992 -0.893749,-1.146697 0.893749,-1.129833 0.89375,1.129833 z"/>
    <path style="fill:#000000" d="m 9.4433915,20.303268 q -0.3541239,0 -0.3541239,-0.202386 0,-0.202385 0.1011764,-0.202385 l 0.033743,0.03394 v 0.06749 l 0.033743,0.101157 v -0.03394 q 0,-0.134899 0.1517647,-0.134899 0.1349062,0 0.1349062,0.134899 l -0.033743,0.06742 0.067453,-0.06742 q 0,-0.168642 0.1349063,-0.168642 l 0.2023593,0.236063 q -0.2360826,0.168643 -0.4721718,0.168643 z"/>
    <path style="fill:#000000" d="m 9.4771331,20.691135 -0.3204006,-0.03394 0.067453,-0.202386 0.2529475,0.03394 q 0.2698125,0 0.4047187,-0.1349 l 0.1349063,0.1349 q -0.3035358,0.202385 -0.539625,0.202385 z"/>
    <path style="fill:#ffffff" d="m 7.5715921,22.141371 q 0.4215836,0 0.6239364,-0.168642 -0.4553069,-0.354124 -0.8937488,-0.522767 -0.52276,-0.168642 -0.52276,-0.421609 0,-0.168643 0.2360826,-0.337286 0.2529475,-0.134899 0.2529475,-0.168642 0,-0.101164 -0.2192242,-0.101164 -0.2360826,0 -0.4721718,0.303549 -0.2192236,0.303543 -0.2192236,0.590187 0,0.168643 0.3204026,0.370963 0,0.354124 0.2529476,0.404706 0.2529475,0.05091 0.6408013,0.05091 z"/>
    <path style="fill:#ff0000" d="m 17.790689,25.143023 q -0.893749,0 -1.028655,-0.860023 h 0.505898 q 0.08432,0.42161 0.522753,0.42161 0.657665,0 0.657665,-0.843159 0,-0.792566 -0.657665,-0.792566 -0.48903,0 -0.556483,0.522767 H 16.7283 q 0.101183,-0.961203 1.062382,-0.961203 0.556483,0 0.860024,0.370963 0.3204,0.354124 0.3204,0.860024 0,0.556509 -0.3204,0.92748 -0.303536,0.354123 -0.860024,0.354123 z"/>
</svg>