<svg xmlns="http://www.w3.org/2000/svg" width="74.952217" height="100" viewBox="0 0 19.831107 26.458333">
    <path d="m 1.1804253,26.458332 q -0.72511732,0 -0.96120187,-0.219224 Q 0,26.003047 0,25.277907 V 1.1803999 Q 0,0.45528514 0.21922343,0.23606171 0.45531124,0 1.1804253,0 H 18.650693 q 0.725117,0 0.944339,0.23606171 0.236089,0.21922343 0.236089,0.94433819 V 25.277907 q 0,0.725114 -0.236089,0.961202 -0.219224,0.219224 -0.944339,0.219224 z"/>
    <path style="fill:#ffffff" d="M 1.3827844,25.969305 H 18.448335 q 0.590213,0 0.741981,-0.151738 0.151764,-0.151739 0.151764,-0.741979 V 1.3827981 q 0,-0.62392862 -0.151764,-0.75884335 Q 19.03855,0.48905301 18.448335,0.48905301 H 1.3827838 q -0.60707748,0 -0.75884341,0.13490174 Q 0.48903213,0.75885642 0.48903213,1.3827981 V 25.075586 q 0,0.590188 0.13490826,0.74198 0.15176606,0.151738 0.75884401,0.151739 z"/>
    <path style="fill:#ff0000" d="m 1.9729974,3.8447969 q -0.7588434,0 -0.7588434,-0.7251147 V 2.9004587 h 0.4553049 v 0.1011602 q 0,0.4216084 0.3035384,0.4216084 0.2866742,0 0.2866742,-0.4216084 V 1.4164811 h 0.5058977 v 1.6188663 q 0,0.8094299 -0.7925701,0.8094299 z"/>
    <path d="M 3.9459908,22.664122 V 3.8110682 H 15.901993 V 22.664116 Z"/>
    <path style="fill:#ffffff" d="M 15.41296,9.5276904 V 4.2832373 h -0.961202 q 0.438442,0.6576638 0.438442,1.4165072 0,0.6239287 -0.236089,1.0792465 v 0.4721914 q 0.370989,0.1854814 0.370989,0.2867035 0,0.2023855 -0.168629,0.3035424 l 0.134906,0.2866447 q 0,0.2023855 -0.20236,0.3035423 0.16863,0.1011634 0.16863,0.269806 0,0.2529671 -0.505895,0.4216097 z"/>
    <path style="fill:#ffffff" d="M 12.748575,8.4653079 Q 12.950935,7.6727361 13.40624,7.5715564 L 13.827823,7.3523321 V 6.7789845 Q 13.574877,6.4923427 13.574877,5.699738 q 0,-0.6576639 0.421584,-1.4165072 h -1.146706 l -0.691391,1.2141481 v 0.3035449 l 0.219224,0.3541253 0.337266,0.7588436 -0.303536,0.2360631 0.03374,0.2023854 -0.06745,0.2192243 0.03374,0.1011634 -0.03374,0.1348997 0.134906,0.354124 -0.03374,0.1348997 -0.03374,0.067486 z"/>
    <path style="fill:#ffffff" d="M 8.3978724,5.1769824 Q 9.0555368,4.8396953 10.13478,4.8396953 q 1.231013,0 1.787499,0.3372871 L 12.445035,4.2832373 H 7.4366697 Z"/>
    <path style="fill:#ffffff" d="M 4.4350216,9.4602327 Q 5.6323086,8.5327591 7.2174481,8.3303997 V 8.1955 q 0,-0.28671 0.1854944,-0.4384485 Q 7.6053019,7.605313 7.7402016,7.605313 v 0.033939 h 0.067453 L 7.908831,7.673191 7.993143,7.5382913 7.908831,7.1841673 q 0,-0.2360631 0.2866774,-0.5565094 0.2360827,-0.3709635 0.2360827,-0.6408321 0,-0.2866415 -0.1011764,-0.3878669 L 6.9476375,4.2832373 H 4.4350216 Z"/>
    <path style="fill:#ff0000" d="M 2.1753539,6.812713 1.2816049,5.6660158 2.1753539,4.5361829 3.0859666,5.6660158 Z"/>
    <path style="fill:#ffffff" d="m 14.29999,6.7787756 h 0.06745 q 0.219224,-0.4216091 0.219224,-1.0792464 0,-0.6913926 -0.286677,-1.129833 z"/>
    <path style="fill:#ffffff" d="m 14.131359,6.7787756 h 0.03374 V 4.5696962 q -0.269813,0.4384466 -0.269813,1.129833 0,0.2360617 0.06745,0.5059303 0.06745,0.2529652 0.168629,0.573349 z"/>
    <path style="fill:#ff0000" d="M 6.0876166,7.8074289 4.9409194,6.357193 6.0876166,4.9069571 7.21745,6.357193 Z"/>
    <path style="fill:#ffffff" d="M 7.9425675,8.4650926 8.2966915,8.29645 8.5327806,8.1278074 q 0.101183,0.2698059 0.2866774,0.2698059 0.1349063,0 0.6576644,-0.5227665 0,0.033939 0.1349062,0.2023854 0.1349063,0.1517385 0.3372656,0.1517385 0.2866778,0 0.5396188,-0.3541239 0.252947,-0.3709628 0.252947,-0.62393 0,-0.2360631 -0.236089,-0.2360631 L 10.337142,7.1497521 10.01674,7.0148505 Q 10.370864,6.0199256 10.370864,5.6320717 L 10.30341,5.1767863 h -0.168629 q -0.6576645,0 -1.4165079,0.2866415 l 0.1011765,0.4721889 q 0,0.2866414 -0.2866774,0.6576704 -0.2698125,0.3878668 -0.2698125,0.590187 L 8.3304128,7.5038552 8.3978659,7.638755 7.9931472,8.0097178 7.8751059,7.9757791 H 7.7739229 L 7.74018,7.9418404 q -0.1686295,0 -0.1686295,0.2529672 0,0.2698059 0.3709889,0.2698059 z"/>
    <path style="fill:#ffffff" d="m 10.893627,8.4990299 q 0.101176,0 0.404719,-0.067486 0.3204,-0.06742 0.590213,-0.1517385 0.269812,-0.084325 0.269812,-0.1180609 0,-0.3878669 -0.168629,-0.4552874 V 7.5378148 l 0.101176,-0.2192243 -0.657664,0.3203811 -0.06745,-0.067486 Q 11.618751,7.1499411 12.057195,7.1161982 L 12.023455,7.0150349 12.090905,6.9475489 12.31013,6.7789063 11.821099,5.9357411 V 5.4635528 Q 11.585007,5.3961349 11.298336,5.3286511 11.028524,5.2612332 10.6744,5.2105876 l 0.03374,0.4216084 -0.20236,1.0286532 q 0.590214,0.084324 0.590214,0.590187 0,0.4890238 -0.52276,1.011789 0.202359,0.2360631 0.3204,0.2360631 z"/>
    <path style="fill:#000000" d="m 11.753649,6.5934894 q -0.387854,0 -1.011791,-0.3372865 l 0.3204,-0.2360618 Q 11.5007,5.7334996 11.787376,5.7334996 l -0.03374,0.2529652 h -0.101177 l 0.03374,0.1686433 -0.06745,0.2360617 h 0.134906 z"/>
    <path style="fill:#ffffff" d="M 11.399525,6.2899444 V 6.0538826 l -0.23609,0.1349017 z"/>
    <path style="fill:#ffffff" d="m 14.097635,7.2511472 0.269813,-0.033939 V 7.0485659 h -0.269813 z"/>
    <path style="fill:#ffffff" d="m 14.063893,7.9088109 q 0.16863,0 0.269813,-0.1686426 l 0.151765,0.033939 q 0.269812,0 0.269812,-0.2360631 l -0.387854,-0.067486 q -0.168629,0 -0.354124,0.084325 -0.185494,0.084325 -0.438442,0.2529671 z"/>
    <path style="fill:#ffffff" d="m 13.962714,8.9205999 0.03374,-0.1180609 h 0.489036 q 0.20236,0 0.20236,-0.1011634 0,-0.1686426 -0.16863,-0.1686426 L 14.266276,8.5666717 13.895287,8.532733 13.861544,8.3640904 Q 13.64232,7.9424807 13.541143,7.8413238 q -0.337259,0 -0.505895,0.7251214 z"/>
    <path style="fill:#ffffff" d="m 14.165073,8.2966712 q 0.556483,0 0.556483,-0.1686426 l -0.101177,-0.1854814 -0.06745,0.033939 -0.101176,-0.033939 -0.286677,0.1348998 -0.06745,0.1517385 z"/>
    <path style="fill:#ffffff" d="m 9.7806432,9.3927756 q 1.4839598,0 2.3102568,-0.7251148 l -0.101177,-0.067421 q -0.623936,0.2529671 -1.214149,0.2529671 -0.16863,0 -0.505895,-0.3541239 L 9.9492779,8.5665039 9.6120123,8.4990835 9.4771061,8.4315977 Q 9.1567054,8.73514 8.8194417,8.73514 L 8.5664942,8.7012013 8.4315879,8.6672627 q -0.2698125,0.1348997 -0.4890367,0.1348997 -0.2023594,0 -0.4721719,-0.1686426 l -0.2529476,0.033939 q 1.450235,0.7251148 2.5632062,0.7251148 z"/>
    <path style="fill:#ffffff" d="M 4.4350105,10.084168 H 5.2613068 L 6.880174,8.8531552 6.7789943,8.7688339 Q 5.1601279,9.2916025 4.4350105,9.9155311 Z"/>
    <path style="fill:#ffffff" d="m 14.485473,10.084168 h 0.927476 V 9.9155246 Q 14.957644,9.6794628 14.249389,9.4096595 13.541135,9.1229521 12.546207,8.802569 Z"/>
    <path style="fill:#ffffff" d="m 12.816017,10.084168 h 1.349056 L 12.377574,8.9206064 12.0909,9.1566682 Z"/>
    <path style="fill:#ffffff" d="M 5.5985709,10.084168 H 6.7115412 L 7.4366586,9.1904163 7.0488048,8.9880308 Z"/>
    <path style="fill:#ffffff" d="M 6.9476264,10.084168 H 7.7739229 L 8.1280482,9.4602392 7.6052855,9.2578544 Z"/>
    <path style="fill:#ffffff" d="m 11.753636,10.084168 h 0.826308 L 11.922279,9.2578805 11.433246,9.4939416 Z"/>
    <path style="fill:#ffffff" d="M 8.0268705,10.084168 H 8.7519873 L 8.853167,9.6794628 8.330405,9.527723 Z"/>
    <path style="fill:#ffffff" d="m 10.809298,10.084168 h 0.69139 L 11.230875,9.5782401 10.674392,9.6794034 Z"/>
    <path style="fill:#ffffff" d="M 8.954346,10.084168 H 9.6794635 V 9.7468807 H 9.3590602 L 9.0555244,9.712942 Z"/>
    <path style="fill:#ffffff" d="M 9.8818215,10.084168 H 10.606939 L 10.505763,9.713205 9.8818261,9.7471437 Z"/>
    <path style="fill:#ffffff" d="M 4.4350105,10.87674 4.7385489,10.438291 H 4.4350105 Z"/>
    <path style="fill:#ffffff" d="m 7.7739229,10.87674 0.354124,-0.438449 H 7.4029438 Z"/>
    <path style="fill:#ffffff" d="M 5.2613068,10.910678 5.5985743,10.438486 H 4.8397385 Z"/>
    <path style="fill:#ffffff" d="M 6.1213297,10.910678 6.4585972,10.438486 H 5.6997617 Z"/>
    <path style="fill:#ffffff" d="m 11.230877,10.944615 0.387854,-0.505928 h -0.809422 z"/>
    <path style="fill:#ffffff" d="M 8.6002188,10.877131 8.9543427,10.438683 H 8.2292396 Z"/>
    <path style="fill:#ffffff" d="M 15.412949,10.877131 V 10.438685 H 15.025095 Z"/>
    <path style="fill:#ffffff" d="m 6.9476264,10.877131 0.354124,-0.438448 H 6.5766473 Z"/>
    <path style="fill:#ffffff" d="m 12.0909,10.877131 0.354124,-0.438448 h -0.725103 z"/>
    <path style="fill:#ffffff" d="m 13.760356,10.877131 0.337259,-0.438448 h -0.725101 z"/>
    <path style="fill:#ffffff" d="m 14.586653,10.877131 0.337259,-0.438448 H 14.19881 Z"/>
    <path style="fill:#ffffff" d="m 10.370854,10.911069 0.337259,-0.472191 H 9.949272 Z"/>
    <path style="fill:#ffffff" d="M 9.4771048,10.945007 9.8480937,10.439079 H 9.0555368 Z"/>
    <path style="fill:#ffffff" d="m 12.917197,10.877523 0.354125,-0.438447 h -0.725104 z"/>
    <path style="fill:#ffffff" d="M 9.9492747,11.434034 H 10.708118 L 10.370864,10.9779 Z"/>
    <path style="fill:#ffffff" d="m 10.809298,11.434034 h 0.809433 l -0.387854,-0.455286 z"/>
    <path style="fill:#ffffff" d="M 5.6997504,11.434034 H 6.4585938 L 6.1213262,10.978746 Z"/>
    <path style="fill:#ffffff" d="M 9.0555257,11.434034 H 9.848095 L 9.4771054,10.978748 Z"/>
    <path style="fill:#ffffff" d="M 4.8397274,11.434034 H 5.598582 L 5.2613146,10.978748 Z"/>
    <path style="fill:#ffffff" d="M 6.5766362,11.434034 H 7.3017537 L 6.9476284,11.029329 Z"/>
    <path style="fill:#ffffff" d="M 13.372503,11.434034 H 14.09762 L 13.760359,11.029329 Z"/>
    <path style="fill:#ffffff" d="M 7.4029327,11.434034 H 8.1280502 L 7.7739249,11.029329 Z"/>
    <path style="fill:#ffffff" d="m 15.025096,11.434034 h 0.387853 v -0.404706 z"/>
    <path style="fill:#ffffff" d="m 11.71991,11.434034 h 0.725117 l -0.354125,-0.404705 z"/>
    <path style="fill:#ffffff" d="m 12.546207,11.434034 h 0.725117 l -0.354125,-0.404705 z"/>
    <path style="fill:#ffffff" d="m 14.198799,11.434034 h 0.725118 l -0.337261,-0.404705 z"/>
    <path style="fill:#ffffff" d="M 8.2292286,11.434034 H 8.954346 L 8.6002207,11.029329 Z"/>
    <path style="fill:#ffffff" d="M 4.4350105,11.434034 H 4.7385489 L 4.4350105,11.063071 Z"/>
    <path style="fill:#ffffff" d="m 14.232526,14.688631 h 1.180434 v -2.901275 h -1.21415 q 0.48903,0.1349 0.809433,0.539606 0.337266,0.387866 0.337266,0.910615 0,0.505928 -0.320401,0.893752 -0.303536,0.370963 -0.79257,0.556509 z"/>
    <path style="fill:#ffffff" d="M 4.4350105,14.688631 H 5.6322976 Q 5.1938572,14.503149 4.8397274,14.13212 4.5024601,13.744253 4.5024601,13.238368 q 0,-0.522766 0.3204027,-0.910615 0.3372675,-0.404706 0.7757071,-0.539606 H 4.4350216 Z"/>
    <path style="fill:#ffffff" d="m 12.546207,12.547002 q 0.23608,-0.55651 0.961201,-0.758843 h -1.972982 q 0.657665,0.168643 1.011792,0.758843 z"/>
    <path style="fill:#ffffff" d="m 7.3017537,12.547002 q 0.3035384,-0.55651 0.9612021,-0.758843 H 6.2899731 q 0.6576644,0.134902 1.0117917,0.758843 z"/>
    <path style="fill:#ffffff" d="m 9.9155481,12.547002 q 0.2529459,-0.55651 0.9780659,-0.758843 H 8.9206312 q 0.6913902,0.168643 0.994928,0.758843 z"/>
    <path style="fill:#ffffff" d="m 5.986424,14.368227 q 0.4384407,0 0.7757073,-0.303542 0.354124,-0.320381 0.354124,-0.826294 0,-0.522767 -0.3709889,-0.826294 -0.3541253,-0.320381 -0.7588443,-0.320381 -0.4890335,0 -0.8262962,0.337285 -0.3204033,0.320381 -0.3204033,0.809436 0,0.438449 0.3204033,0.792572 0.3372676,0.337285 0.8262962,0.337285 z"/>
    <path style="fill:#ffffff" d="m 13.861535,14.368227 q 0.472172,0 0.79257,-0.337285 0.337261,-0.354126 0.337261,-0.792574 0,-0.48903 -0.337259,-0.809436 -0.3204,-0.337285 -0.79257,-0.337285 -0.455307,0 -0.809432,0.320381 -0.337266,0.303543 -0.337266,0.826294 0,0.505928 0.354124,0.826295 0.370989,0.303542 0.79257,0.303542 z"/>
    <path style="fill:#ffffff" d="m 8.6002188,14.368227 q 0.4890302,0 0.8094335,-0.337285 0.3372656,-0.354124 0.3372656,-0.792572 0,-0.522766 -0.3709889,-0.826293 -0.354124,-0.320382 -0.775707,-0.320382 -0.438442,0 -0.7925699,0.337286 -0.3372591,0.320381 -0.3372591,0.809436 0,0.505928 0.3372591,0.826294 0.354124,0.303543 0.7925699,0.303543 z"/>
    <path style="fill:#ffffff" d="m 11.230877,14.368227 q 0.48903,0 0.809434,-0.337285 0.337259,-0.354124 0.337259,-0.792572 0,-0.522766 -0.337259,-0.826293 -0.320401,-0.320382 -0.809434,-0.320382 -0.48903,0 -0.826296,0.337286 -0.320401,0.320381 -0.320401,0.809436 0,0.505928 0.354124,0.826294 0.370989,0.303543 0.79257,0.303543 z"/>
    <path style="fill:#ffffff" d="M 6.3236881,14.688611 H 8.2966817 Q 7.6390173,14.536871 7.3017537,13.929768 7.0150796,14.503116 6.3236881,14.688611 Z"/>
    <path style="fill:#ffffff" d="m 11.585004,14.688611 h 1.956131 q -0.691391,-0.185482 -0.994928,-0.758843 -0.286675,0.573348 -0.961203,0.758843 z"/>
    <path style="fill:#ffffff" d="M 8.954346,14.688611 H 10.92734 Q 10.269675,14.503129 9.9155481,13.929768 9.6457356,14.503116 8.954346,14.688611 Z"/>
    <path style="fill:#ffffff" d="m 13.760356,15.481177 0.337259,-0.455288 h -0.725101 z"/>
    <path style="fill:#ffffff" d="m 14.586653,15.481177 0.337259,-0.455288 H 14.19881 Z"/>
    <path style="fill:#ffffff" d="m 10.370854,15.515114 0.337259,-0.48903 H 9.949272 Z"/>
    <path style="fill:#ffffff" d="m 12.917197,15.481177 0.354125,-0.455286 h -0.725104 z"/>
    <path style="fill:#ffffff" d="m 12.0909,15.481177 0.354124,-0.455288 h -0.725103 z"/>
    <path style="fill:#ffffff" d="m 11.230877,15.54866 0.387854,-0.522767 h -0.809422 z"/>
    <path style="fill:#ffffff" d="M 15.412949,15.481177 V 15.025891 H 15.025095 Z"/>
    <path style="fill:#ffffff" d="M 9.4771048,15.54866 9.8480937,15.025893 H 9.0555368 Z"/>
    <path style="fill:#ffffff" d="M 8.6002188,15.481177 8.9543427,15.025889 H 8.2292396 Z"/>
    <path style="fill:#ffffff" d="M 4.4350105,15.481177 4.7385489,15.025889 H 4.4350105 Z"/>
    <path style="fill:#ffffff" d="m 7.7739229,15.481177 0.354124,-0.455288 H 7.4029438 Z"/>
    <path style="fill:#ffffff" d="m 6.9476264,15.481177 0.354124,-0.455288 H 6.5766473 Z"/>
    <path style="fill:#ffffff" d="m 5.2613068,15.515114 0.3372675,-0.48903 H 4.8397385 Z"/>
    <path style="fill:#ffffff" d="m 6.1213297,15.515114 0.3372675,-0.48903 H 5.6997617 Z"/>
    <path style="fill:#ffffff" d="M 5.6997537,16.037882 H 6.458597 L 6.1213297,15.582598 Z"/>
    <path style="fill:#ffffff" d="M 9.055529,16.037882 H 9.8480982 L 9.4771087,15.582598 Z"/>
    <path style="fill:#ffffff" d="M 4.8397307,16.037882 H 5.598582 L 5.2613146,15.582598 Z"/>
    <path style="fill:#ffffff" d="M 9.9492779,16.037882 H 10.708121 L 10.37086,15.582598 Z"/>
    <path style="fill:#ffffff" d="m 10.809301,16.037882 h 0.809433 L 11.23088,15.582598 Z"/>
    <path style="fill:#ffffff" d="M 11.719913,16.037882 H 12.44503 L 12.090905,15.616274 Z"/>
    <path style="fill:#ffffff" d="M 8.2292318,16.037882 H 8.9543493 L 8.600224,15.616274 Z"/>
    <path style="fill:#ffffff" d="M 14.198802,16.037882 H 14.92392 L 14.586661,15.616273 Z"/>
    <path style="fill:#ffffff" d="M 7.402936,16.037882 H 8.1280534 L 7.7739281,15.616274 Z"/>
    <path style="fill:#ffffff" d="M 6.5766395,16.037882 H 7.3017569 L 6.9476317,15.616274 Z"/>
    <path style="fill:#ffffff" d="m 12.54621,16.037882 h 0.725117 l -0.354125,-0.421608 z"/>
    <path style="fill:#ffffff" d="m 15.025099,16.037882 h 0.387854 v -0.421609 z"/>
    <path style="fill:#ffffff" d="m 13.372506,16.037882 h 0.725117 l -0.337261,-0.421608 z"/>
    <path style="fill:#ffffff" d="M 4.4350138,16.037882 H 4.7385522 L 4.4350138,15.650016 Z"/>
    <path style="fill:#ffffff" d="M 7.3017569,17.656749 5.3624896,16.375144 h -0.927468 v 0.168642 q 0.4384407,0.252967 1.1635604,0.505863 0.7251172,0.252967 1.7031828,0.607091 z"/>
    <path style="fill:#ffffff" d="M 7.9088344,17.201464 8.3978679,16.965402 8.0943288,16.375215 H 7.2680382 Z"/>
    <path style="fill:#ffffff" d="M 8.6002246,16.897919 9.156708,16.796755 9.0218017,16.375145 H 8.3304193 Z"/>
    <path style="fill:#ffffff" d="M 7.4703911,17.555582 7.7402009,17.302617 7.0150841,16.375144 H 5.6660348 Z"/>
    <path style="fill:#ffffff" d="M 9.3253421,16.76301 9.9492786,16.7121 V 16.374817 H 9.2241683 Z"/>
    <path style="fill:#ffffff" d="m 10.775577,16.76301 0.118041,-0.387866 h -0.725111 v 0.337285 h 0.337266 z"/>
    <path style="fill:#ffffff" d="m 11.500694,16.931654 0.320401,-0.55651 h -0.725112 l -0.101176,0.42161 z"/>
    <path style="fill:#ffffff" d="m 12.225811,17.201458 0.657665,-0.826295 h -0.826291 l -0.337266,0.62393 z"/>
    <path style="fill:#ffffff" d="m 12.782295,17.488164 1.450235,-1.112968 h -1.096101 l -0.725117,0.893751 z"/>
    <path style="fill:#ffffff" d="m 13.06897,17.690549 q 1.618866,-0.522768 2.343983,-1.146697 v -0.168643 h -0.826289 l -1.63573,1.247877 z"/>
    <path style="fill:#ffffff" d="m 4.4350151,22.176159 h 0.9612018 q -0.455305,-0.657664 -0.455305,-1.416507 0,-0.62393 0.2529457,-1.062383 V 19.208246 Q 4.8060037,19.107089 4.8060037,18.93844 q 0,-0.252967 0.1686302,-0.320381 L 4.8397381,18.347143 q 0,-0.219224 0.2023594,-0.320381 -0.1686302,-0.101163 -0.1686302,-0.269806 0,-0.269806 0.522762,-0.42161 L 4.4350275,16.930642 Z"/>
    <path style="fill:#ffffff" d="m 12.883474,22.176159 h 2.529479 v -5.177002 q -0.657664,0.489027 -1.349055,0.758843 -0.691391,0.269804 -1.450235,0.370964 v 0.151738 q 0,0.236063 -0.202359,0.404706 -0.185495,0.168643 -0.320401,0.168643 l -0.06745,-0.03394 -0.101176,-0.03394 -0.06745,0.151739 0.06745,0.337285 q 0,0.168643 -0.23609,0.556509 -0.286677,0.303543 -0.286677,0.657665 0,0.269806 0.101176,0.370963 z"/>
    <path style="fill:#ffffff" d="m 10.370865,18.02674 q 0.30354,-0.303545 0.657665,-0.303545 l 0.236083,0.03394 0.134906,0.03394 q 0.286678,-0.134899 0.489031,-0.134899 0.202359,0 0.489036,0.168642 l 0.23609,-0.03394 q -1.45024,-0.725339 -2.563211,-0.725339 -1.4165079,0 -2.3102575,0.725114 l 0.1011764,0.06742 q 0.2866774,-0.101156 0.5902132,-0.168642 0.3204006,-0.06742 0.623943,-0.06742 0.1011764,0 0.52276,0.337286 l 0.3035358,-0.06742 0.3541241,0.06742 z"/>
    <path style="fill:#ffffff" d="m 6.2899731,18.616927 q 0.3878538,0 0.522762,-0.725115 L 5.8852593,17.554527 5.8515164,17.65569 5.3624829,17.621752 q -0.2023593,0.03394 -0.2023593,0.134899 0,0.168643 0.1686301,0.168643 l 0.2698099,-0.06749 0.3541253,0.06749 v 0.202385 q 0.067451,0.219225 0.3372676,0.489024 z"/>
    <path style="fill:#ffffff" d="m 9.1567158,21.247589 -0.033743,-0.42161 0.2023594,-1.028653 Q 8.751984,19.729905 8.751984,19.207139 q 0,-0.489024 0.5059017,-0.994925 -0.2360892,-0.252967 -0.3035358,-0.252967 -0.1011764,0 -0.4215836,0.06749 -0.3035358,0.06742 -0.5902132,0.168642 -0.2698125,0.08432 -0.2698125,0.118061 0,0.404706 0.1686296,0.438449 v 0.185481 l -0.1011765,0.202386 0.657665,-0.320381 0.067453,0.06749 Q 8.2629525,19.24098 7.7739216,19.342144 l 0.033743,0.101156 -0.1011764,0.06749 -0.1686296,0.185482 q 0.067453,0.134899 0.1854945,0.337285 0.1180413,0.202385 0.3035358,0.489023 v 0.472192 q 0.2360892,0.08432 0.5058951,0.151738 0.2866774,0.06749 0.6239365,0.101164 z"/>
    <path style="fill:#ffffff" d="M 5.8515302,22.175062 H 6.9813634 L 7.672755,20.960914 V 20.657372 L 7.4703956,20.303248 7.1162716,19.544404 7.4366723,19.308341 7.4029293,19.072278 7.4703823,18.886797 7.4366393,18.78564 7.4703823,18.65074 7.335476,18.313455 7.369219,18.161717 7.402962,18.094227 7.0825613,17.99307 q -0.2023652,0.792561 -0.6576715,0.893741 l -0.4047181,0.219224 v 0.590187 q 0.2360879,0.269806 0.2360879,1.062383 0,0.62393 -0.4047181,1.416507 z"/>
    <path style="fill:#ffffff" d="m 9.544569,21.281317 h 0.1686295 q 0.6576645,0 1.4165075,-0.286638 L 11.02853,20.522488 q 0,-0.286645 0.269812,-0.657664 0.286678,-0.455287 0.286678,-0.590187 l -0.08432,-0.303542 -0.06745,-0.151739 0.421583,-0.370963 0.101177,0.03394 0.134906,0.03394 q 0.168629,0 0.168629,-0.236063 0,-0.286704 -0.370989,-0.286704 l -0.590213,0.354124 q -0.101176,-0.286645 -0.269812,-0.286645 -0.134906,0 -0.657665,0.522767 0,-0.03394 -0.151765,-0.185481 -0.134906,-0.151739 -0.3372654,-0.151739 -0.2360892,0 -0.5227601,0.370963 -0.2698125,0.354124 -0.2698125,0.590187 0,0.236063 0.2360827,0.236063 l 0.1854945,-0.1349 0.3035357,0.1349 Q 9.6794687,19.96651 9.5782923,20.32063 9.4771159,20.657915 9.4771159,20.826493 Z"/>
    <path style="fill:#ffffff" d="m 5.2275918,18.515754 0.067451,-0.03394 0.1011797,0.03394 0.2698099,-0.1349 0.1011797,-0.1349 -0.1011797,-0.08432 q -0.5396198,0 -0.5396198,0.185481 z"/>
    <path style="fill:#ffffff" d="m 5.463673,19.004781 q 0.4215824,0 0.7925702,-0.354124 L 5.7672097,18.5495 q -0.2360879,0 -0.2698099,0.168643 l -0.1349082,-0.03394 q -0.2698099,0 -0.2698099,0.252967 z"/>
    <path style="fill:#ff0000" d="m 13.760364,21.551127 -1.146698,-1.450235 1.146698,-1.450237 1.129834,1.450237 z"/>
    <path style="fill:#ffffff" d="M 5.463673,19.409499 H 5.7334829 V 19.207113 L 5.463673,19.241052 Z"/>
    <path style="fill:#ff0000" d="m 17.655761,21.938981 -0.893749,-1.146697 0.893749,-1.129833 0.893749,1.129833 z"/>
    <path style="fill:#ffffff" d="m 5.6660315,21.938981 q 0.2866741,-0.489024 0.2866741,-1.180426 0,-0.556509 -0.2529456,-1.062382 H 5.666017 Z"/>
    <path style="fill:#ffffff" d="m 5.5311232,21.938981 v -2.242808 h -0.067451 q -0.2023594,0.404706 -0.2023594,1.062382 0,0.691393 0.2698104,1.180426 z"/>
    <path style="fill:#000000" d="m 8.0606023,20.724827 0.033743,-0.236063 h 0.1011829 l -0.033743,-0.185482 0.067453,-0.236063 H 8.0943321 v -0.202383 q 0.3372591,0 0.9949286,0.337286 L 8.785725,20.488766 q -0.354124,0.236063 -0.7251123,0.236063 z"/>
    <path style="fill:#ffffff" d="M 8.4315918,20.421281 8.667681,20.269478 8.4315918,20.168314 Z"/>
    <path style="fill:#ffffff" d="m 7.4029438,22.175082 h 5.0083682 l -0.978065,-0.893745 q -0.758844,0.337285 -1.7200459,0.337285 -1.1804237,0 -1.8043615,-0.337285 z"/>
    <path style="fill:#ff0000" d="m 17.065553,25.041825 v -1.618866 q 0,-0.792572 0.79257,-0.792572 0.758844,0 0.758844,0.725121 v 0.202385 h -0.438442 v -0.101157 q 0,-0.421609 -0.320401,-0.421609 -0.269812,0 -0.269812,0.421609 v 1.585138 z"/>
</svg>