<svg xmlns="http://www.w3.org/2000/svg" width="74.952217" height="100" viewBox="0 0 19.831107 26.458333">
    <path d="m 1.1804256,26.458332 q -0.72511751,0 -0.96120212,-0.219224 Q 0,26.003047 0,25.277906 V 1.1804001 Q 0,0.45527872 0.21922348,0.23606177 0.45531135,0 1.1804256,0 H 18.650697 q 0.725118,0 0.94434,0.23606177 0.236089,0.21922348 0.236089,0.94433833 V 25.277906 q 0,0.725121 -0.236089,0.961203 -0.219225,0.219224 -0.94434,0.219224 z"/>
    <path style="fill:#ffffff" d="M 1.3827848,25.969305 H 18.44834 q 0.590213,0 0.74198,-0.151738 0.151765,-0.151739 0.151765,-0.741986 V 1.3827919 q 0,-0.62392876 -0.151765,-0.75884352 Q 19.038554,0.4890466 18.44834,0.4890466 H 1.3827841 q -0.60707759,0 -0.75884356,0.13490178 -0.1349083,0.1349017 -0.1349083,0.75884352 V 25.07558 q 0,0.590187 0.1349083,0.741985 0.1517661,0.151739 0.75884426,0.15174 z"/>
    <path style="fill:#ff0000" d="M 1.2141523,3.8447848 V 1.4164814 H 1.7369144 V 2.4282773 L 2.6643906,1.4164814 H 3.3220519 L 2.3945759,2.3945485 3.3895048,3.8447848 H 2.7318401 L 2.0067226,2.731816 1.7369126,3.0353612 v 0.8094366 z"/>
    <path d="M 3.9459898,22.664115 V 3.8110561 H 15.901997 V 22.664115 Z"/>
    <path style="fill:#ffffff" d="M 15.412964,10.151621 V 4.2832253 h -1.905541 l -0.691391,1.3153345 q 0.79257,0.2023856 0.79257,0.8937454 0,0.2529652 -0.03374,0.4721882 -0.03374,0.2192244 -0.101177,0.387867 l -0.101183,0.4890304 0.03374,0.2360631 q 0.320401,0.2192243 0.320401,0.4890303 l -0.118041,0.4216099 0.185494,0.1011634 V 5.4636581 l 0.691391,-1.0117893 0.725118,0.9443383 V 10.01672 Z"/>
    <path style="fill:#ffffff" d="m 8.1617892,5.0420688 q 0.4721719,-0.4721889 0.9612016,-0.4721889 0.5902134,0 0.8937502,0.303545 0.185495,-0.3372872 0.590214,-0.3372872 0.48903,0 0.657664,0.3709635 0.20236,-0.303545 0.691391,-0.303545 0.421584,0 0.758844,0.3372872 L 13.068979,4.2831796 H 7.7064828 Z"/>
    <path style="fill:#ffffff" d="M 4.4350227,9.2915982 Q 4.9071921,9.0555351 5.3962248,8.8868925 5.8852584,8.701411 6.3911536,8.6676681 6.4586048,8.0774809 7.0150889,8.0774809 q 0.3204008,0 0.4553071,0.1517386 Q 7.5715724,7.1162512 8.0943326,5.6660146 L 7.26804,4.2832253 H 4.4350227 Z"/>
    <path style="fill:#ff0000" d="M 2.1753544,6.8127082 1.2816052,5.6660107 2.1753544,4.5361775 3.0859673,5.6660107 Z"/>
    <path style="fill:#ffffff" d="m 11.129712,5.3287432 q -0.20236,-0.5227686 -0.522761,-0.5227686 -0.337265,0 -0.556483,0.4890271 h 0.758844 z"/>
    <path style="fill:#ffffff" d="m 13.996455,12.445016 0.48903,-0.08432 0.505896,0.08432 V 5.4973803 L 14.485489,4.8397097 13.996455,5.5311024 Z"/>
    <path style="fill:#ffffff" d="m 12.411315,5.4973803 0.134907,-0.2866416 q -0.23609,-0.3372872 -0.590214,-0.3372872 -0.370989,0 -0.691391,0.4552855 0.387854,0.033939 0.657665,0.067484 0.269813,0.033939 0.489033,0.1011593 z"/>
    <path style="fill:#ffffff" d="M 8.4653263,5.4973803 9.9155616,5.328737 Q 9.7132022,4.8734515 9.190444,4.8734515 q -0.4384422,0 -0.8600226,0.4216085 z"/>
    <path style="fill:#ff0000" d="M 6.0876162,7.8076331 4.9409186,6.3574034 6.0876162,4.9071671 7.2174498,6.3574034 Z"/>
    <path style="fill:#ffffff" d="m 11.365796,8.7013849 q 0.286678,0 0.522754,-0.050908 0.236089,-0.050908 0.421584,-0.084325 L 12.343874,8.1277098 11.618756,7.807326 h -0.185495 l -0.370989,0.067486 -0.421583,0.1011569 h -0.20236 l -0.06745,-0.033939 V 7.8071306 h 0.269813 l 0.387854,-0.2023856 0.236089,0.033939 0.06745,-0.1686426 0.101176,-0.033939 0.286678,0.067486 q 0.101176,0 0.101176,-0.1518038 0,-0.3035424 -0.168629,-0.4721916 -0.185495,-0.2866448 -0.185495,-0.6239288 0,-0.2698034 0.590214,-0.2698034 l 0.455307,0.1011601 V 5.9015386 Q 11.652492,5.6991531 10.505794,5.6991531 H 9.9830337 Q 9.8481274,6.3568236 9.7975392,6.8627155 9.7469575,7.3517393 9.7469575,7.7058738 v 0.5227668 q 1.0286555,0.4721915 1.6188665,0.4721915 z"/>
    <path style="fill:#ffffff" d="m 7.993157,9.190412 h 0.5733484 q 0.5902133,0 0.7082547,-0.2023855 0.1348997,-0.2192244 0.1348997,-1.2816057 0,-1.112969 0.2023594,-1.9729919 -0.5564835,0 -1.2816024,0.2023855 L 7.8751143,7.6727249 7.7739346,8.3641173 V 8.6001804 L 7.4703922,8.6676662 Q 7.4366493,8.3978601 7.0825383,8.3978601 q -0.3372591,0 -0.3372591,0.3709629 0,0.4216099 1.2478758,0.4216099 z"/>
    <path style="fill:#ffffff" d="m 13.06898,9.0892519 q 0.370989,0 0.370989,-0.4890304 l -0.269813,-0.3035424 -0.03374,-0.5901872 0.06745,-0.4216098 q 0.134899,-0.3035424 0.134899,-0.7925724 0,-0.4047051 -0.48903,-0.6239288 l 0.06745,1.0117915 Q 12.782278,7.6390159 12.73169,8.1111846 12.68111,8.5664721 12.68111,8.7351147 l -0.134907,0.06742 q 0.16863,0.2867101 0.52276,0.2867101 z"/>
    <path style="fill:#000000" d="M 11.230891,6.3911386 11.028531,6.2562369 10.674407,6.1550767 q -0.370989,0 -0.657664,0.1686433 L 9.9829997,6.2225599 10.016743,6.1213998 q 0.118041,-0.2192237 0.657664,-0.2192237 0.421584,0 0.657665,0.2192237 l 0.03374,0.067418 -0.101177,0.2023855 z"/>
    <path style="fill:#ffffff" d="M 12.377588,7.9762829 12.579947,6.8801724 12.546207,6.3236615 12.0909,6.2225014 11.821087,6.2899854 v 0.067484 l 0.269813,-0.067484 0.286677,0.067484 0.134906,0.2023855 -0.168629,-0.033939 q 0,0.1349017 -0.151765,0.1349017 -0.134906,0 -0.134906,-0.1349017 l -0.20236,0.033939 0.134907,0.3203812 0.202359,0.5227667 q 0,0.1686426 -0.134906,0.3035424 z"/>
    <path style="fill:#000000" d="m 10.606953,6.6609357 q -0.134907,0 -0.134907,-0.1349018 H 10.37087 l -0.16863,0.033939 0.134907,-0.2023848 0.303536,-0.067484 0.3204,0.067484 -0.03374,0.2023848 -0.185494,-0.033939 q 0,0.1349018 -0.134906,0.1349018 z"/>
    <path style="fill:#000000" d="M 11.062258,8.195487 V 8.1280665 L 11.53443,8.0100056 12.02346,8.1280665 V 8.195487 H 11.854831 L 11.53443,8.1615483 11.230894,8.195487 Z"/>
    <path style="fill:#000000" d="m 11.500698,8.3641303 -0.303536,-0.067486 v -0.06742 l 0.303536,0.033939 0.320401,-0.033939 v 0.06742 z"/>
    <path style="fill:#ffffff" d="m 9.9492882,10.151621 q 1.3490558,0 2.7992898,-0.8263008 l -0.337259,-0.2023855 -0.151764,-0.1686426 -0.101177,0.033939 0.101177,0.4721915 -0.23609,0.067421 -0.168629,-0.5058626 -0.06745,0.033939 0.03374,0.5565096 -0.202359,0.033939 -0.151765,-0.5901872 h -0.03374 l -0.03374,0.6913924 h -0.20236 L 11.129703,9.0561695 H 11.09596 L 10.859871,9.781291 10.640647,9.7473524 10.775553,9.022238 10.7081,8.9882993 10.337111,9.7471428 10.134751,9.6797223 10.337111,8.9208788 10.269658,8.853393 9.7806273,9.6459658 9.5782679,9.5785452 9.8480804,8.7016577 9.8143375,8.667719 9.7131611,8.6002333 Q 9.6794182,9.123 9.4096252,9.3253483 9.1566776,9.5277338 8.4652859,9.5277338 h -0.792529 q 1.1129709,0.6239302 2.2765313,0.6239302 z"/>
    <path style="fill:#ffffff" d="m 7.3017659,13.541121 v -0.62393 Q 5.63231,12.327004 5.63231,10.775562 5.63231,9.9492673 5.9864354,9.359054 5.9189842,9.089248 5.5985815,9.089248 L 5.3962221,9.156669 q -0.3878539,0.6913923 -0.3878539,1.618866 0,2.074172 2.2933945,2.765565 z"/>
    <path style="fill:#000000" d="m 5.5648572,9.7131741 q -0.2023594,0 -0.2023594,-0.2192243 0,-0.2023855 0.2023594,-0.2023855 0.2023594,0 0.2023594,0.2023855 0,0.2192243 -0.2023594,0.2192243 z"/>
    <path style="fill:#ffffff" d="M 12.090914,10.303361 12.647397,10.11788 12.849757,9.746917 12.22582,9.9829802 Z"/>
    <path style="fill:#ffffff" d="M 7.7402087,10.303361 7.6053024,9.9829802 6.9813658,9.746917 7.1837252,10.11788 Z"/>
    <path style="fill:#000000" d="m 5.3962248,10.252455 q -0.2023594,0 -0.2023594,-0.202386 0,-0.2023854 0.2023594,-0.2023854 0.2023594,0 0.2023594,0.2023854 0,0.202386 -0.2023594,0.202386 z"/>
    <path style="fill:#ffffff" d="m 11.821103,10.97757 0.522754,-0.1349 0.16863,-0.438449 -0.522761,0.1349 z"/>
    <path style="fill:#ffffff" d="M 8.0268836,10.97757 7.8413891,10.539121 7.3354938,10.404221 7.5041234,10.84267 Z"/>
    <path style="fill:#000000" d="m 5.328772,10.87641 q -0.2023595,0 -0.2023595,-0.202386 0,-0.202386 0.2023595,-0.202386 0.2023594,0 0.2023594,0.202386 0,0.202386 -0.2023594,0.202386 z"/>
    <path style="fill:#000000" d="m 5.3962228,11.466597 q -0.2023594,0 -0.2023594,-0.202386 0,-0.202385 0.2023594,-0.202385 0.2023594,0 0.2023594,0.202385 0,0.202386 -0.2023594,0.202386 z"/>
    <path style="fill:#ffffff" d="M 8.1955138,11.63524 8.0943373,11.230534 7.605307,11.129371 7.7064834,11.500334 Z"/>
    <path style="fill:#ffffff" d="m 11.652469,11.63524 0.472172,-0.1349 0.101177,-0.370963 -0.472172,0.101164 z"/>
    <path style="fill:#000000" d="m 5.5648553,12.056849 q -0.2023595,0 -0.2023595,-0.202385 0,-0.219225 0.2023595,-0.219225 0.2023594,0 0.2023594,0.219225 0,0.202385 -0.2023594,0.202385 z"/>
    <path style="fill:#ffffff" d="m 11.534427,12.326653 0.455307,-0.101164 0.06745,-0.438448 -0.438442,0.101156 z"/>
    <path style="fill:#ffffff" d="m 8.2966928,12.326653 -0.067453,-0.438449 -0.455307,-0.101157 0.067453,0.438449 z"/>
    <path style="fill:#000000" d="m 5.8515297,12.579618 q -0.2192237,0 -0.2192237,-0.219224 0,-0.202386 0.2192237,-0.202386 0.2023594,0 0.2023594,0.202386 0,0.219224 -0.2023594,0.219224 z"/>
    <path style="fill:#ffffff" d="m 8.3641453,13.085548 -0.033743,-0.438448 -0.455307,-0.101157 0.033743,0.202385 v 0.236064 z"/>
    <path style="fill:#ffffff" d="m 11.466974,13.085548 0.455307,-0.101163 v -0.236063 l 0.03374,-0.202386 -0.455307,0.101157 z"/>
    <path style="fill:#000000" d="m 6.3236988,12.950647 q -0.2023594,0 -0.2023594,-0.202386 0,-0.202385 0.2023594,-0.202385 0.2192237,0 0.2192237,0.202385 0,0.202386 -0.2192237,0.202386 z"/>
    <path style="fill:#ffffff" d="m 14.519212,13.16987 q 0.725118,0 0.725118,-0.286644 0,-0.269806 -0.725118,-0.269806 -0.725117,0 -0.725117,0.269806 0,0.286644 0.725117,0.286644 z"/>
    <path style="fill:#000000" d="m 6.8464576,13.27103 q -0.2023594,0 -0.2023594,-0.219224 0,-0.202386 0.2023594,-0.202386 0.2023594,0 0.2023594,0.202386 0,0.219224 -0.2023594,0.219224 z"/>
    <path style="fill:#ffffff" d="m 14.232538,17.368787 0.219225,-0.06749 q 0.370989,-0.691392 0.370989,-1.618866 0,-2.107901 -2.276532,-2.765564 v 0.62393 q 1.652593,0.556509 1.652593,2.141629 0,0.826294 -0.337259,1.416507 0.101183,0.269806 0.370989,0.269806 z"/>
    <path style="fill:#000000" d="m 12.984664,13.608578 q -0.20236,0 -0.20236,-0.202385 0,-0.202386 0.20236,-0.202386 0.219224,0 0.219224,0.202386 0,0.202385 -0.219224,0.202385 z"/>
    <path style="fill:#ffffff" d="m 5.328772,13.84464 q 0.7251175,0 0.7251175,-0.269806 0,-0.269806 -0.7251175,-0.269806 -0.7251175,0 -0.7251175,0.269806 0,0.269806 0.7251175,0.269806 z"/>
    <path style="fill:#ffffff" d="m 7.875115,13.928962 0.455307,-0.118061 0.033743,-0.438449 -0.455307,0.101157 v 0.202386 z"/>
    <path style="fill:#ffffff" d="m 11.956008,13.928962 -0.03374,-0.252967 v -0.202386 l -0.455307,-0.101157 0.03374,0.438449 z"/>
    <path style="fill:#000000" d="m 13.507423,13.928962 q -0.20236,0 -0.20236,-0.219224 0,-0.202386 0.20236,-0.202386 0.219224,0 0.219224,0.202386 0,0.219224 -0.219224,0.219224 z"/>
    <path style="fill:#000000" d="m 13.996456,14.299925 q -0.202359,0 -0.202359,-0.202385 0,-0.202386 0.202359,-0.202386 0.20236,0 0.20236,0.202386 0,0.202385 -0.20236,0.202385 z"/>
    <path style="fill:#ffffff" d="m 5.3625,21.618558 0.4890336,-0.691393 v -6.89705 L 5.3625,14.097535 4.8397378,14.030115 v 6.930772 z"/>
    <path style="fill:#ffffff" d="m 12.057189,14.687779 -0.06745,-0.455287 -0.455307,-0.101157 0.08432,0.438449 z"/>
    <path style="fill:#ffffff" d="m 7.7739372,14.687779 0.4553071,-0.118061 0.067453,-0.438448 -0.455307,0.101157 z"/>
    <path style="fill:#000000" d="m 14.266267,14.822681 q -0.202359,0 -0.202359,-0.202385 0,-0.219225 0.202359,-0.219225 0.219225,0 0.219225,0.219225 0,0.202385 -0.219225,0.202385 z"/>
    <path style="fill:#ffffff" d="m 12.225821,15.34545 -0.101177,-0.387867 -0.472172,-0.1349 0.101177,0.404706 z"/>
    <path style="fill:#ffffff" d="m 7.605305,15.34545 0.4890304,-0.118061 0.101183,-0.404706 -0.4890369,0.1349 z"/>
    <path style="fill:#000000" d="m 14.451763,15.412933 q -0.219224,0 -0.219224,-0.219224 0,-0.202386 0.219224,-0.202386 0.20236,0 0.20236,0.202386 0,0.219224 -0.20236,0.219224 z"/>
    <path style="fill:#ffffff" d="m 12.512495,16.070597 -0.16863,-0.455287 -0.522753,-0.1349 0.168629,0.438449 z"/>
    <path style="fill:#ffffff" d="M 7.3354938,16.070597 7.8413891,15.918859 8.0268836,15.48041 7.5041234,15.61531 Z"/>
    <path style="fill:#000000" d="m 14.519216,15.986275 q -0.219225,0 -0.219225,-0.202385 0,-0.202386 0.219225,-0.202386 0.202359,0 0.202359,0.202386 0,0.202385 -0.202359,0.202385 z"/>
    <path style="fill:#ffffff" d="M 6.9813665,16.71139 7.6053031,16.475327 7.7402094,16.171785 7.1837259,16.340428 Z"/>
    <path style="fill:#ffffff" d="M 12.849759,16.71139 12.6474,16.340428 12.090916,16.171785 12.225823,16.475327 Z"/>
    <path style="fill:#000000" d="m 14.451763,16.61023 q -0.219224,0 -0.219224,-0.202385 0,-0.202386 0.219224,-0.202386 0.20236,0 0.20236,0.202386 0,0.202385 -0.20236,0.202385 z"/>
    <path style="fill:#ffffff" d="m 4.4350227,22.175081 h 1.8886781 l 0.6913916,-1.315328 q -0.7925705,-0.202385 -0.7925705,-0.893752 0,-0.590187 0.1349017,-0.860023 l 0.067451,-0.556509 V 18.380826 Q 6.1213363,18.161602 6.1213363,17.891796 L 6.222516,17.48709 6.0538857,17.369029 v 3.625587 L 5.3624942,22.006405 4.6373766,21.078931 V 16.441554 L 4.4350172,16.306655 Z"/>
    <path style="fill:#ffffff" d="m 10.134783,17.858101 q 0.06745,-0.522769 0.303539,-0.725115 Q 10.67441,16.9306 11.399524,16.9306 h 0.758844 q -1.062382,-0.623928 -2.2765323,-0.623928 -1.3490556,0 -2.7992908,0.826301 0.3878539,0.202385 0.4890303,0.387867 l 0.1011764,-0.03394 -0.1011764,-0.489024 0.2360827,-0.06742 0.1854945,0.505863 0.067453,-0.03394 -0.033743,-0.539606 0.2023594,-0.03394 0.1349063,0.573348 h 0.033743 l 0.033743,-0.691392 h 0.2023594 l 0.084318,0.691392 h 0.033743 l 0.2360892,-0.725122 0.2023594,0.03394 -0.1348997,0.725115 0.067453,0.05091 0.3878539,-0.775708 0.2023594,0.08432 -0.2023594,0.758844 0.067453,0.06749 0.4721727,-0.792566 0.219224,0.06742 -0.2866779,0.860023 0.033743,0.03394 z"/>
    <path style="fill:#000000" d="m 14.266266,17.166708 q -0.202359,0 -0.202359,-0.202386 0,-0.202385 0.202359,-0.202385 0.219224,0 0.219224,0.202385 0,0.202386 -0.219224,0.202386 z"/>
    <path style="fill:#ffffff" d="m 12.579947,22.175081 h 2.833017 v -5.008373 q -0.927476,0.455287 -1.972994,0.62393 -0.06745,0.590187 -0.623943,0.590187 -0.269813,0 -0.438442,-0.134899 -0.118042,1.096104 -0.623937,2.54634 z"/>
    <path style="fill:#ffffff" d="m 10.235962,20.724845 q 0.539619,0 1.26474,-0.202386 l 0.455307,-1.73691 0.101176,-0.691386 V 17.8581 l 0.320401,-0.06742 q 0.101177,0.269806 0.370989,0.269806 0.354124,0 0.354124,-0.370963 0,-0.42161 -1.247876,-0.42161 h -0.590214 q -0.590213,0 -0.691391,0.168643 -0.03374,0.118061 -0.08432,0.42161 -0.05058,0.303542 -0.05058,0.893752 0,1.07924 -0.20236,1.972992 z"/>
    <path style="fill:#ffffff" d="m 6.9813651,20.589936 -0.06745,-1.011789 q 0.1011765,-0.792572 0.1686296,-1.247877 0.067453,-0.472191 0.067453,-0.607091 l 0.1517647,-0.06742 q -0.1854945,-0.286704 -0.5227537,-0.286704 -0.3878539,0 -0.3878539,0.489024 l 0.2866742,0.303542 0.067453,0.590187 -0.1011765,0.421545 q -0.1517659,0.269806 -0.1517659,0.792573 0,0.42161 0.4890329,0.62393 z"/>
    <path style="fill:#ffffff" d="m 9.3253496,20.75858 h 0.5227602 q 0.1011764,-0.691393 0.1686292,-1.163562 0.06745,-0.48903 0.06745,-0.843159 v -0.505928 q -1.0286553,-0.489023 -1.618868,-0.489023 -0.2698125,0 -0.5227536,0.03394 -0.2360893,0.03394 -0.4047188,0.101164 l -0.033743,0.455287 0.725117,0.303543 h 0.1686295 l 0.3878539,-0.06749 0.4047189,-0.101157 0.2192243,0.03394 h 0.067453 v 0.134899 H 9.190429 L 8.81944,18.85342 8.5664923,18.81948 l -0.067453,0.185482 -0.1011764,0.03394 -0.2698126,-0.06749 q -0.1011764,0 -0.1011764,0.134899 0,0.202386 0.1686295,0.472185 0.1686296,0.219225 0.1686296,0.62393 0,0.28671 -0.5902133,0.28671 L 7.3354775,20.387985 v 0.168642 q 0.8937492,0.202386 1.9898571,0.202386 z"/>
    <path style="fill:#000000" d="m 8.0268836,18.245961 v -0.08432 l 0.3035358,-0.06749 0.3035359,0.06749 v 0.08432 l -0.3035359,-0.03394 z"/>
    <path style="fill:#000000" d="M 8.2966935,18.448346 7.8076599,18.347187 v -0.06742 h 0.1854945 l 0.3035358,0.03394 0.2698126,-0.03394 h 0.2192243 v 0.06742 z"/>
    <path style="fill:#ffffff" d="m 7.7402087,20.235844 0.2866775,-0.06749 v -0.06749 l -0.2866775,0.03394 -0.2698125,-0.03394 -0.1349063,-0.202385 0.1686296,0.03394 q 0,-0.1349 0.1349062,-0.1349 0.1349063,0 0.1349063,0.1349 l 0.2192243,-0.03394 -0.354124,-0.826301 q 0,-0.219225 0.1349062,-0.320381 l -0.3035423,-0.269807 -0.2023595,1.096111 0.033743,0.55651 z"/>
    <path style="fill:#ff0000" d="m 13.76037,21.551172 -1.146697,-1.450236 1.146697,-1.45023 1.129835,1.45023 z"/>
    <path style="fill:#ff0000" d="m 17.655769,21.939039 -0.89375,-1.146698 0.89375,-1.129833 0.893749,1.129833 z"/>
    <path style="fill:#000000" d="m 9.190444,20.168406 -0.3035359,-0.06749 0.033743,-0.202385 0.1686296,0.03394 q 0,-0.134899 0.1349063,-0.134899 0.1349062,0 0.1349062,0.134899 h 0.1517647 l 0.1349063,-0.03394 -0.1349063,0.202385 z"/>
    <path style="fill:#000000" d="m 9.1567024,20.556273 q -0.370989,0 -0.6576652,-0.202386 l -0.033743,-0.08432 0.1011764,-0.202386 h 0.033743 l 0.2192243,0.1349 0.3372657,0.101163 q 0.4215837,0 0.6576645,-0.168642 l 0.033743,0.101163 -0.033743,0.118061 q -0.1011764,0.202386 -0.6576645,0.202386 z"/>
    <path style="fill:#ffffff" d="m 10.640663,21.584926 q 0.455307,0 0.860023,-0.404705 L 11.36578,20.960996 9.9155453,21.146478 q 0.2866777,0.438448 0.7251177,0.438448 z"/>
    <path style="fill:#ffffff" d="m 7.8750993,21.584926 q 0.3541241,0 0.6913911,-0.438448 -0.6913911,0 -1.1298345,-0.185482 l -0.1349063,0.28671 q 0.3372657,0.337286 0.5733484,0.337286 z"/>
    <path style="fill:#ffffff" d="m 9.2241549,21.652345 q 0.3541241,0 0.5564835,-0.472192 H 9.055539 l -0.3372657,-0.03394 q 0.2023594,0.505862 0.5058953,0.505862 z"/>
    <path style="fill:#ffffff" d="m 6.7789914,22.175114 h 5.3456336 l -0.438427,-0.758877 q -0.489031,0.489024 -0.978066,0.489024 -0.573349,0 -0.8937494,-0.320381 -0.1011765,0.354124 -0.5902134,0.354124 -0.4384421,0 -0.6576645,-0.387867 -0.2023594,0.320381 -0.691391,0.320381 -0.4047189,0 -0.7588436,-0.354124 z"/>
    <path style="fill:#ff0000" d="m 16.509056,25.041858 0.944339,-0.961203 -1.011792,-1.450236 h 0.657665 l 0.725118,1.096104 0.286674,-0.303545 v -0.792572 h 0.505895 v 2.411438 h -0.505882 v -0.994951 l -0.94434,0.994932 z"/>
</svg>