<svg xmlns="http://www.w3.org/2000/svg" width="74.952217" height="100" viewBox="0 0 19.831107 26.458333">
    <path d="m 1.1804256,26.458332 q -0.72511751,0 -0.96120212,-0.219224 Q 0,26.003047 0,25.277906 V 1.1804001 Q 0,0.45527872 0.21922348,0.23606177 0.45531135,0 1.1804256,0 H 18.650697 q 0.725118,0 0.94434,0.23606177 0.236089,0.21922348 0.236089,0.94433833 V 25.277906 q 0,0.725121 -0.236089,0.961203 -0.219225,0.219224 -0.94434,0.219224 z"/>
    <path style="fill:#ffffff" d="M 1.3827848,25.969305 H 18.44834 q 0.590213,0 0.74198,-0.151738 0.151765,-0.151739 0.151765,-0.741986 V 1.3827919 q 0,-0.62392876 -0.151765,-0.75884352 Q 19.038554,0.4890466 18.44834,0.4890466 H 1.3827841 q -0.60707759,0 -0.75884356,0.13490178 -0.1349083,0.1349017 -0.1349083,0.75884352 V 25.07558 q 0,0.590187 0.1349083,0.741985 0.1517661,0.151739 0.75884426,0.15174 z"/>
    <path style="fill:#ff0000" d="M 3.0522412,4.0134218 2.6981158,3.693038 q -0.1686302,0.1517399 -0.5902133,0.1517399 -1.16356053,0 -1.16356053,-1.2478771 0,-0.5227687 0.30353843,-0.8768875 0.3204034,-0.3709635 0.8600232,-0.3709635 0.5564848,0 0.8600232,0.3709635 0.3204027,0.3541254 0.3204027,0.8768875 0,0.5901872 -0.3035385,0.8937518 L 3.2883295,3.760456 Z"/>
    <path style="fill:#ffffff" d="M 2.1079022,3.4232348 2.3271259,3.3892961 2.1079022,3.1869106 2.3608479,2.900269 2.6306578,3.1532343 Q 2.765566,2.8665927 2.765566,2.596724 q 0,-0.7925723 -0.6576647,-0.7925723 -0.6576646,0 -0.6576646,0.7925723 0,0.8262945 0.6576646,0.8262945 z"/>
    <path d="M 3.9459905,22.664147 V 3.8110561 H 15.901997 V 22.664115 Z"/>
    <path style="fill:#ffffff" d="M 7.5378519,8.3304279 7.7064815,8.2630074 Q 8.7857278,7.352328 9.4096657,6.5091695 10.050465,5.6660107 10.573226,4.2832253 h -0.37099 Q 9.3590768,6.3911256 7.6053044,8.195487 Z"/>
    <path style="fill:#ffffff" d="m 4.4350234,10.843047 h 0.6070774 q 0.118044,-0.202386 0.4553051,-0.404706 L 5.3624974,10.117958 Q 4.5362023,10.016733 4.5362023,9.2241471 q 0,-0.3710282 0.2529457,-0.6239301 0.2529456,-0.2698061 0.6407996,-0.2698061 0.3878539,0 0.6407995,0.2698061 0.2529457,0.2529672 0.2529457,0.6239301 0,0.3035489 -0.2023594,0.5733484 Q 5.918974,10.050463 5.6322998,10.117877 l 0.067451,0.185481 Q 6.5429106,9.5276535 8.2292299,6.7452315 L 7.8751058,6.4585893 q 0,-0.6913927 -0.691391,-1.2816058 Q 7.3692093,4.9071801 7.3692093,4.6373766 L 7.335467,4.2832514 H 4.4350227 Z"/>
    <path style="fill:#ffffff" d="M 7.7064834,5.3287759 7.875113,5.2612921 8.0943373,5.3287759 V 5.1095522 q 0,-0.4721889 0.4384422,-0.826301 H 7.6390303 l 0.033743,0.3203838 q 0,0.3372872 -0.1349063,0.5059305 z"/>
    <path style="fill:#ffffff" d="M 8.3641473,6.5260338 Q 9.3590762,4.8734384 9.5782979,4.2832253 H 9.0555357 Q 8.364144,4.569867 8.364144,5.362472 L 8.397887,5.7671771 Q 8.1617977,5.5311152 7.8751267,5.5311152 8.1618042,6.0201423 8.1618042,6.3236875 Z"/>
    <path style="fill:#ffffff" d="m 12.343862,7.9088128 q 0.404719,0 0.741981,-0.7757078 0.354124,-0.7757016 0.354124,-1.5682739 l -0.337266,0.067419 -0.354124,-0.033939 0.354124,0.657664 q 0,0.1349017 -0.320401,0.3372865 l -0.269812,0.118061 -0.06745,-0.2192231 q 0.404719,-0.1686432 0.404719,-0.2360618 -0.404719,-0.826301 -0.404719,-1.0455179 0,-0.5733491 0.623943,-0.5733491 l 0.337259,0.1011601 v -0.16864 L 13.3725,4.2830491 h -2.209058 q -0.16863,0.6576639 -0.455307,1.1972905 -0.269813,0.5396069 -0.573349,0.9780671 0.539619,0.6913864 1.096108,1.0455183 0.556484,0.3372852 1.112972,0.4047057 z"/>
    <path style="fill:#ffffff" d="m 15.126289,12.883457 h 0.286678 V 4.2832253 h -1.686323 l 0.03374,0.4216085 q 0.573349,0.9612027 0.573349,1.4839584 v 0.5901872 l 0.03374,1.5514157 -0.101182,0.06742 v 0.3372852 q 0,0.4890304 0.05058,1.0286542 0.05058,0.5396065 0.20236,1.1129685 l 0.134906,-0.303543 0.101176,-0.101164 q -0.236082,-0.320381 -0.236082,-0.354124 0,-0.06742 0.303542,-0.370962 -0.269807,-0.2866378 -0.269807,-0.758843 l 0.269813,-1.8043613 q 0,-0.3035424 -0.16863,-0.4721916 Q 14.48552,6.5260527 14.48552,6.391151 q 0,-0.2360619 0.269812,-0.2360619 l -0.03374,-0.1686432 0.03374,-0.3203838 0.03374,-0.1011602 -0.134899,-0.4552855 0.101176,-0.4047051 0.101183,-0.2866416 0.236089,0.6913927 -0.134906,0.4552855 0.03374,0.1011602 0.03374,0.3203831 -0.03374,0.1686433 q 0.286677,0 0.286677,0.2360618 0,0.1686433 -0.185494,0.3203832 -0.16863,0.2360631 -0.16863,0.4721915 l 0.286678,1.8043613 q 0,0.5901873 -0.320401,0.7588436 0.354124,0.3035421 0.354124,0.3709631 0,0.185481 -0.134906,0.269806 -0.118042,0.08432 -0.151765,0.08432 0.354124,0.303549 0.354124,0.725122 z"/>
    <path style="fill:#ff0000" d="M 2.1753544,6.8127082 1.2816052,5.6660107 2.1753544,4.5361775 3.0859673,5.6660107 Z"/>
    <path style="fill:#000000" d="m 11.197165,5.0083467 -0.101177,-0.067484 q 0,-0.2698034 0.860023,-0.2698034 0.134906,0 0.134906,0.2023855 z"/>
    <path style="fill:#ffffff" d="M 12.681126,5.210732 Q 12.984662,5.0083464 13.43997,5.0083464 L 13.068981,4.8734447 q -0.387854,0 -0.387855,0.3372873 z"/>
    <path style="fill:#ff0000" d="M 6.0876162,7.8076592 4.9409186,6.3574295 6.0876162,4.9071932 7.2174498,6.3574295 Z"/>
    <path style="fill:#000000" d="m 11.618745,5.7334876 q -0.252948,0 -0.556484,-0.2360618 l -0.03374,-0.067484 q 0.303536,-0.3541254 0.994928,-0.3541254 l 0.168629,0.4216086 q -0.404722,0.236062 -0.573351,0.236062 z"/>
    <path style="fill:#ffffff" d="M 13.102706,5.4974259 13.439971,5.3962658 V 5.1770421 l -0.03374,-0.033939 h -0.16863 l 0.03374,0.1180635 q 0,0.1011601 -0.134906,0.1011601 -0.151765,0 -0.151765,-0.1011601 V 5.210259 l -0.269813,0.1517398 q 0.134907,0.1349017 0.387854,0.1349017 z"/>
    <path style="fill:#ffffff" d="m 11.618745,5.5648442 q 0.438442,0 0.438442,-0.2360619 L 11.92228,5.2107188 h -0.168629 l 0.03374,0.1180635 q 0,0.1011602 -0.134907,0.1011602 -0.151764,0 -0.151764,-0.1011602 v -0.033939 l -0.26981,0.1349018 q 0.134906,0.1349017 0.387854,0.1349017 z"/>
    <path style="fill:#000000" d="m 11.719924,6.0538712 -0.06745,-0.033939 0.06745,-0.084322 0.472172,-0.2360618 0.06745,0.033939 q 0,0.3203838 -0.539618,0.3203838 z"/>
    <path style="fill:#ffffff" d="M 13.06898,8.0099991 Q 13.574876,7.9088357 13.794098,7.7739359 V 6.2225212 h -0.118041 q -0.06745,0.5227691 -0.20236,0.978067 -0.134906,0.4384486 -0.404718,0.8094304 z"/>
    <path style="fill:#000000" d="M 12.158367,6.6272137 Q 11.956008,6.5260535 11.956008,6.3574102 h 0.06745 l 0.101176,-0.033939 v 0.1011607 l 0.101177,0.1686433 z"/>
    <path style="fill:#ffffff" d="M 11.956008,8.2966667 H 12.22582 V 8.2627281 Q 10.994804,8.2287894 9.8818331,6.7450422 L 9.2916198,7.3521335 q 1.4165082,0.9443374 2.6643852,0.9443374 z"/>
    <path style="fill:#000000" d="m 12.023458,7.1499693 -0.202359,-0.1011634 0.03374,-0.1011634 0.06745,0.033939 0.101176,0.033939 0.320401,-0.2023856 0.134906,0.1011634 0.101177,-0.067486 0.134906,0.1011634 0.101176,0.033939 h 0.03374 v 0.1011634 h -0.168629 l -0.03374,-0.033939 -0.16863,0.067486 -0.168629,-0.067486 z"/>
    <path style="fill:#000000" d="M 12.411313,7.3523541 12.192088,7.3184155 12.057182,7.2844768 V 7.1833134 l 0.354124,0.033939 0.20236,-0.1011569 h 0.134906 q 0,0.2360631 -0.337259,0.2360631 z"/>
    <path style="fill:#ffffff" d="m 11.888556,9.2241471 q 1.483961,0 1.939267,-0.6239301 V 8.1617683 q -0.758843,0.5396055 -1.871815,0.5396055 -1.06238,0 -2.9341956,-0.9274738 l -0.455307,0.4552875 q 1.6357286,0.9949576 3.3220506,0.9949596 z"/>
    <path style="fill:#ffffff" d="M 7.9088415,11.129688 8.5327769,8.8531509 7.8751124,8.397866 7.672753,8.5327677 6.3911497,10.185357 q 1.1129711,0.06748 1.5176879,0.944344 z"/>
    <path style="fill:#ffffff" d="m 5.4299515,9.6794521 q 0.4215825,0 0.4215825,-0.4552874 0,-0.4216099 -0.4215825,-0.4216099 -0.4553051,0 -0.4553051,0.4216099 0,0.4552874 0.4553051,0.4552874 z"/>
    <path style="fill:#ffffff" d="M 7.875115,12.883457 H 9.2916237 L 9.7132061,9.3590488 8.9543619,9.0555038 Z"/>
    <path style="fill:#ffffff" d="m 13.406243,12.883457 h 1.079245 l -0.118044,-0.927474 q -0.37099,-1.146698 -0.53962,-2.7655645 -0.320403,0.2698034 -0.876886,0.4216086 z"/>
    <path style="fill:#ffffff" d="M 9.7132035,12.883457 H 11.230891 L 11.16344,9.7131741 q -0.269812,0 -0.539618,-0.06742 -0.252948,-0.067421 -0.489031,-0.1517385 z"/>
    <path style="fill:#ffffff" d="m 11.652471,12.883457 h 1.332193 l -0.404719,-3.1702829 -0.354124,0.033939 h -0.640802 z"/>
    <path style="fill:#ffffff" d="m 6.3237008,12.158342 0.2192237,-0.03394 -0.2192237,-0.236064 0.067451,-0.06748 0.3204027,0.202385 0.1011764,-0.202385 q 0,-0.252968 -0.2698125,-0.455288 l 0.067453,-0.06742 q 0.4047188,0.134899 0.6576652,0.370963 0.1349062,0.252967 0.2698125,0.252967 0.2023594,0 0.2023594,-0.252967 l -0.033743,-0.06749 Q 7.6727231,11.264339 7.2848822,10.96079 6.9138932,10.640408 6.357407,10.640408 q -0.3372676,0 -0.6407995,0.236064 -0.2866742,0.219224 -0.2866742,0.455287 0,0.590187 0.3372611,0.590187 l 0.1854945,-0.03394 q 0.1011797,0.269806 0.3709896,0.269806 z"/>
    <path style="fill:#ffffff" d="M 4.7048341,12.883457 H 5.0420949 V 11.09596 H 4.7048338 Z"/>
    <path style="fill:#ffffff" d="m 5.8178049,12.883457 h 1.6188666 l 0.1349063,-0.590188 q -0.1011764,0 -0.5227602,-0.337285 0,0.691392 -0.7251175,0.691392 H 6.0876122 Z"/>
    <path style="fill:#ffffff" d="M 8.6676851,13.406225 H 9.0892688 V 13.052101 H 8.6676851 Z"/>
    <path style="fill:#ffffff" d="m 12.12464,13.406225 h 0.421584 V 13.052101 H 12.12464 Z"/>
    <path style="fill:#ffffff" d="M 5.8852577,13.406225 H 6.2899758 V 13.052101 H 5.8852577 Z"/>
    <path style="fill:#ffffff" d="m 11.433249,13.406225 h 0.421584 v -0.354124 h -0.421584 z"/>
    <path style="fill:#ffffff" d="M 5.1938669,13.406225 H 5.5985831 V 13.052101 H 5.193865 Z"/>
    <path style="fill:#ffffff" d="M 4.4687495,13.406225 H 4.90719 V 13.052101 H 4.4687492 Z"/>
    <path style="fill:#ffffff" d="M 7.3017666,13.406225 H 7.7064854 V 13.052101 H 7.3017666 Z"/>
    <path style="fill:#ffffff" d="m 10.741858,13.406225 h 0.421584 v -0.354124 h -0.421584 z"/>
    <path style="fill:#ffffff" d="m 14.923931,13.406225 h 0.421583 V 13.052101 H 14.92393 Z"/>
    <path style="fill:#ffffff" d="m 10.050467,13.406225 h 0.421584 v -0.354124 h -0.421584 z"/>
    <path style="fill:#ffffff" d="M 6.5766489,13.406225 H 6.9813678 V 13.052101 H 6.5766489 Z"/>
    <path style="fill:#ffffff" d="m 12.849758,13.406225 h 0.421584 v -0.354124 h -0.421584 z"/>
    <path style="fill:#ffffff" d="m 13.541149,13.406225 h 0.421584 v -0.354124 h -0.421584 z"/>
    <path style="fill:#ffffff" d="M 9.3590762,13.406225 H 9.7806593 V 13.052101 H 9.3590755 Z"/>
    <path style="fill:#ffffff" d="M 7.993157,13.406225 H 8.3978758 V 13.052101 H 7.993157 Z"/>
    <path style="fill:#ffffff" d="m 14.23254,13.406225 h 0.421584 V 13.052101 H 14.23254 Z"/>
    <path style="fill:#ffffff" d="M 6.0201634,17.267894 Q 6.3237021,16.998091 6.8801867,16.863189 L 6.4248797,13.57485 h -1.062381 l 0.1011797,0.927473 q 0.2023594,0.590188 0.3541254,1.281606 0.1686302,0.691387 0.2023594,1.483959 z"/>
    <path style="fill:#ffffff" d="m 14.789025,15.379217 h 0.337266 v -1.804361 h -0.337266 z"/>
    <path style="fill:#ffffff" d="M 4.4350227,22.175087 H 6.1213423 L 6.0875994,21.753478 Q 5.4973874,20.792276 5.4973874,20.26952 v -1.29847 l -0.033743,-0.843159 0.1011797,-0.06742 v -0.337285 q 0,-0.489024 -0.067451,-1.028653 -0.067451,-0.55651 -0.1686303,-1.112969 L 5.1938411,15.885106 5.0926614,15.98627 q 0.2360814,0.252967 0.2360814,0.354124 0,0.06749 -0.3204027,0.370963 0.2866742,0.286644 0.2866742,0.775707 l -0.2866735,1.787499 q 0,0.269806 0.1854945,0.455287 0.1686303,0.168643 0.1686303,0.337285 0,0.236064 -0.26981,0.236064 l 0.033743,0.185481 -0.084315,0.404706 0.1517725,0.455287 -0.1011797,0.404706 -0.118044,0.286704 Q 4.7385601,21.584868 4.7385601,21.34878 l 0.1349083,-0.455287 -0.067451,-0.404706 0.033743,-0.185481 q -0.26981,0 -0.26981,-0.236063 0,-0.101157 0.1686303,-0.337286 0.1686302,-0.185481 0.1686302,-0.455287 L 4.6374001,17.487177 q 0,-0.489031 0.26981,-0.775708 -0.3035385,-0.303549 -0.3035385,-0.370963 0,-0.168643 0.118044,-0.252967 0.118044,-0.101164 0.151766,-0.101164 -0.337261,-0.4047 -0.337261,-0.725117 L 4.7048508,13.574941 H 4.4350409 Z"/>
    <path style="fill:#ffffff" d="m 9.7132035,16.964356 0.4215755,-3.3895 H 8.600232 l 0.067453,3.18714 z"/>
    <path style="fill:#ffffff" d="M 7.26804,16.76197 7.6053057,16.71106 H 8.2629689 L 8.1955157,13.57485 H 6.8464595 Z"/>
    <path style="fill:#ffffff" d="m 12.782305,14.502304 q 0,-0.691393 0.725118,-0.691393 h 0.252947 l 0.269813,-0.236063 h -1.618871 l -0.151765,0.590188 q 0.219225,0 0.522761,0.337285 z"/>
    <path style="fill:#ffffff" d="m 10.893628,17.402796 1.06238,-3.827946 H 10.5395 l -0.404719,3.524407 z"/>
    <path style="fill:#ffffff" d="m 13.473696,15.817652 q 0.387854,0 0.657665,-0.219225 0.269812,-0.219224 0.269812,-0.472191 0,-0.590187 -0.337266,-0.590187 l -0.168629,0.03394 q -0.101177,-0.269806 -0.387854,-0.269806 l -0.20236,0.03394 0.20236,0.236063 -0.06745,0.08432 -0.303543,-0.219225 -0.101176,0.219225 q 0,0.236063 0.269812,0.438448 l -0.06745,0.06742 q -0.252947,-0.101157 -0.404718,-0.185482 -0.151772,-0.08432 -0.219225,-0.219224 -0.134906,-0.219224 -0.303536,-0.219224 -0.185494,0 -0.185494,0.252967 v 0.06749 q 0.06745,0.337285 0.421584,0.65767 0.370989,0.303549 0.927475,0.303549 z"/>
    <path style="fill:#ffffff" d="m 11.956008,18.06046 0.20236,-0.1349 1.281603,-1.652589 q -1.028656,-0.03394 -1.517689,-0.927487 l -0.623943,2.276531 z"/>
    <path style="fill:#ffffff" d="m 12.512492,22.175081 h 2.90047 v -6.559789 h -0.623943 q -0.1349,0.236063 -0.455307,0.42161 l 0.151765,0.303543 q 0.826297,0.03394 0.826297,0.893751 0,0.387867 -0.269812,0.640769 -0.252948,0.252967 -0.640802,0.252967 -0.337266,0 -0.623937,-0.252967 -0.269812,-0.252967 -0.269812,-0.640769 0,-0.303542 0.219224,-0.573348 0.236083,-0.28671 0.472172,-0.320381 l -0.06744,-0.168645 q -0.826296,0.758844 -2.512616,3.558131 l 0.337259,0.269806 q 0,0.691386 0.691391,1.281599 -0.16863,0.236063 -0.16863,0.556509 z"/>
    <path style="fill:#ffffff" d="m 14.40117,17.655742 q 0.455308,0 0.455308,-0.42161 0,-0.438449 -0.455308,-0.438449 -0.404718,0 -0.404718,0.438449 0,0.42161 0.404718,0.42161 z"/>
    <path style="fill:#ffffff" d="m 10.80931,18.684395 0.455307,-0.438449 q -1.6188686,-1.011787 -3.3220522,-1.011787 -1.4502348,0 -1.9224041,0.62393 v 0.455288 q 0.6913906,-0.556514 1.8549517,-0.556514 1.0792443,0 2.9341966,0.927473 z"/>
    <path style="fill:#ffffff" d="M 9.2578958,22.175081 H 9.6457497 Q 10.472046,20.06718 12.225818,18.279683 l 0.08432,-0.151803 v -0.03394 l -0.185494,0.118061 q -1.062385,0.860025 -1.720049,1.720048 -0.6576655,0.860024 -1.1466978,2.242809 z"/>
    <path style="fill:#ffffff" d="M 9.9492869,19.729914 10.5395,19.105983 Q 9.1567181,18.161639 7.875115,18.161639 H 7.6053024 v 0.05091 q 1.2816031,0.101156 2.3439845,1.517687 z"/>
    <path style="fill:#ffffff" d="M 5.9864353,20.303262 H 6.087615 q 0.1349082,-0.994925 0.6239353,-1.787497 -0.5227621,0.101163 -0.7251166,0.236063 z"/>
    <path style="fill:#ffffff" d="m 6.4586045,22.175081 h 2.2090786 q 0.387854,-1.315328 1.0455185,-2.175351 -1.0792444,-1.382785 -2.2090789,-1.450237 -0.3878539,0 -0.7588435,0.775708 -0.3541254,0.775702 -0.3541254,1.568274 l 0.3541254,-0.06749 0.3372591,0.03394 -0.3372591,-0.657671 q 0,-0.337285 0.5902133,-0.438449 l 0.067453,0.202386 q -0.4215837,0.101157 -0.4215837,0.236063 0.4215837,0.826301 0.4215837,1.045519 0,0.590187 -0.6239366,0.590187 L 6.4248823,21.7199 v 0.185481 z"/>
    <path style="fill:#ff0000" d="m 13.760368,21.551152 -1.146697,-1.450236 1.146697,-1.45023 1.129835,1.45023 z"/>
    <path style="fill:#000000" d="m 7.0825449,19.34206 q 0,-0.236064 0.354124,-0.236064 l 0.2023594,0.03394 0.1349063,0.03394 v 0.101163 l -0.3372591,-0.03394 -0.2192244,0.101163 z"/>
    <path style="fill:#000000" d="m 7.5041279,19.662443 q -0.1349062,0 -0.1349062,-0.118061 l -0.1011765,0.06749 -0.1517646,-0.101157 -0.1011765,-0.03394 h -0.033743 v -0.101157 l 0.1011765,0.03394 H 7.183714 l 0.1854945,-0.06749 0.1686296,0.06749 0.2698125,-0.101157 0.2192244,0.101157 -0.033743,0.101163 -0.084318,-0.03394 H 7.841361 l -0.033743,-0.03394 z"/>
    <path style="fill:#ff0000" d="m 17.655772,21.938973 -0.89375,-1.146697 0.89375,-1.129833 0.893749,1.129833 z"/>
    <path style="fill:#000000" d="m 7.7064828,20.134632 v -0.06742 l -0.1011765,-0.202385 0.067453,-0.03394 q 0.2023594,0.202385 0.2023594,0.269806 h -0.067453 z"/>
    <path style="fill:#ffffff" d="m 10.269689,22.175081 h 0.505895 q 0.691394,-0.202386 0.691394,-1.062382 l -0.03374,-0.42161 q 0.320401,0.236063 0.522754,0.236063 -0.269813,-0.438448 -0.269813,-0.792572 l -0.219218,-0.202386 q -0.994911,1.652674 -1.197269,2.242887 z"/>
    <path style="fill:#000000" d="m 7.6390303,20.758574 -0.033743,-0.06749 q 0,-0.269806 0.5227602,-0.269806 l 0.1011764,0.03394 -0.1011764,0.06742 z"/>
    <path style="fill:#000000" d="M 7.8076605,21.382502 7.6390303,20.960893 q 0.3541241,-0.236063 0.5902133,-0.236063 0.3035424,0 0.5564835,0.236063 l 0.033743,0.06749 -0.2192243,0.185481 q -0.3035359,0.168643 -0.6070783,0.168643 z"/>
    <path style="fill:#ffffff" d="m 7.9088402,21.247601 h 0.1854945 l -0.033743,-0.101157 q 0,-0.118061 0.1349063,-0.118061 0.1349063,0 0.1349063,0.118061 v 0.03394 l 0.2698127,-0.15174 q -0.1686296,-0.1349 -0.370989,-0.1349 -0.4553071,0 -0.4553071,0.252967 z"/>
    <path style="fill:#ffffff" d="M 6.4248784,21.315084 H 6.6103729 L 6.57663,21.213927 q 0,-0.101157 0.1349063,-0.101157 0.1349063,0 0.1349063,0.101157 v 0.03394 l 0.2698125,-0.1349 Q 6.9476386,20.960894 6.7452792,20.960894 l -0.3541254,0.118061 v 0.202386 z"/>
    <path style="fill:#ffffff" d="m 11.298342,22.175107 h 0.89375 l -0.03374,-0.303542 q 0,-0.354124 0.151765,-0.522767 l -0.185494,-0.202386 -0.16863,0.03394 -0.202359,-0.03394 v 0.202386 q 0,0.522767 -0.455307,0.826301 z"/>
    <path style="fill:#ffffff" d="m 6.7790057,21.58492 q 0.370989,0 0.370989,-0.337285 -0.3035358,0.202385 -0.7588437,0.202385 0,0.1349 0.3878547,0.1349 z"/>
    <path style="fill:#000000" d="m 7.8751137,21.804143 q -0.1349063,0 -0.1349063,-0.219224 l 0.8937498,-0.1349 0.1180414,0.06749 q 0,0.286638 -0.8768849,0.286638 z"/>
    <path style="fill:#ff0000" d="m 17.723221,25.109328 q -0.556484,0 -0.876886,-0.354124 -0.303543,-0.370963 -0.303543,-0.893753 0,-0.539605 0.320401,-0.893752 l -0.320401,-0.269806 0.252948,-0.252967 0.337266,0.320381 q 0.134906,-0.06749 0.286677,-0.101163 0.16863,-0.03394 0.303542,-0.03394 0.556484,0 0.860023,0.354124 0.320401,0.337286 0.320401,0.876887 0,0.522767 -0.320401,0.893753 -0.303542,0.354124 -0.860023,0.354124 z"/>
    <path style="fill:#ffffff" d="m 17.723221,24.670881 q 0.657664,0 0.657664,-0.809437 0,-0.826294 -0.657664,-0.826294 l -0.20236,0.03394 0.20236,0.219224 -0.236089,0.269806 -0.286678,-0.236063 q -0.134906,0.168642 -0.134906,0.539605 0,0.809437 0.657664,0.809437 z"/>
</svg>