<svg xmlns="http://www.w3.org/2000/svg" width="74.952217" height="100" viewBox="0 0 19.831107 26.458333">
    <path d="m 1.1804256,26.458333 q -0.72511749,0 -0.96120209,-0.219224 Q 0,26.003047 0,25.277906 V 1.1804001 Q 0,0.45527874 0.21922351,0.23606175 0.45531137,0 1.1804256,0 H 18.650696 q 0.725121,0 0.944338,0.23606175 0.236062,0.21922351 0.236062,0.94433835 V 25.277906 q 0,0.725115 -0.236062,0.961203 -0.219224,0.219224 -0.944338,0.219224 z"/>
    <path style="fill:#ffffff" d="M 1.3827848,25.969306 H 18.448336 q 0.590187,0 0.741986,-0.15174 0.15174,-0.15174 0.15174,-0.74198 V 1.3827985 q 0,-0.62392881 -0.15174,-0.75885015 Q 19.038517,0.4890466 18.448336,0.4890466 H 1.3827841 q -0.60707747,0 -0.75884358,0.13490175 Q 0.48903224,0.75885011 0.48903224,1.3827985 V 25.075586 q 0,0.590187 0.13490828,0.74198 0.15176611,0.15174 0.75884428,0.15174 z"/>
    <path style="fill:#ff0000" d="m 2.7655669,3.8447914 q -0.7588436,0 -0.7588436,-1.2478771 0,-1.2141485 0.7588436,-1.2141485 0.7588442,0 0.7588442,1.2141485 0,1.2478771 -0.7588442,1.2478771 z"/>
    <path style="fill:#ff0000" d="M 1.2816058,3.7604696 V 2.2427825 H 0.87688751 V 1.9054954 q 0.37098959,0 0.47216919,-0.489027 h 0.387854 v 2.3439882 z"/>
    <path style="fill:#ffffff" d="m 2.7655669,3.4569244 q 0.2866744,0 0.2866744,-0.8600232 0,-0.7925723 -0.2866744,-0.7925723 -0.26981,0 -0.26981,0.7925723 0,0.8600232 0.26981,0.8600232 z"/>
    <path style="fill:#ff0000" d="M 13.895277,6.4922987 13.439972,5.7334551 q -0.26981,-0.4721888 -0.556484,-0.7419792 -0.26981,-0.286707 -0.438441,-0.539607 -0.320403,-0.4047053 -0.320403,-0.7925658 0,-0.8937519 0.860023,-0.8937519 0.590213,0 0.876886,0.6913927 h 0.06745 q 0.26981,-0.6913927 0.860023,-0.6913927 0.860023,0 0.860023,0.8937519 0,0.4216088 -0.79257,1.4165076 -0.370989,0.4552852 -0.623935,0.8262944 -0.236088,0.3541253 -0.337267,0.5901871 z"/>
    <path style="fill:#ff0000" d="M 5.9527112,6.4922987 5.4974064,5.7334551 Q 5.2275964,5.2612663 4.940922,4.9914759 4.6711119,4.7047689 4.5024815,4.4518689 4.1820784,4.0471636 4.1820784,3.6593031 q 0,-0.8937519 0.8600225,-0.8937519 0.5902131,0 0.8768862,0.6913927 h 0.067451 q 0.3035387,-0.6913927 0.8600231,-0.6913927 0.8600232,0 0.8600232,0.8937519 0,0.4216088 -0.7925703,1.4165076 Q 6.5429244,5.5310959 6.2899787,5.9021051 6.0538908,6.2562304 5.9527112,6.4922987 Z"/>
    <path style="fill:#ff0000" d="M 2.1753551,6.9813257 Q 2.0741755,6.7452639 1.9392672,6.5091369 1.8043589,6.2561717 1.5682776,6.0875282 1.1129728,5.7334029 1.1129728,5.2612337 q 0,-0.5565105 0.5227622,-0.5565105 0.2360813,0 0.5396201,0.4047052 0.2866744,-0.4047052 0.5564844,-0.4047052 0.5227622,0 0.5227622,0.5565105 0,0.4047053 -0.4215826,0.8262945 Q 2.3945786,6.5259752 2.1753544,6.98128 Z"/>
    <path style="fill:#ff0000" d="M 9.9155622,9.359036 9.4771217,8.6001924 Q 9.0555456,8.1280037 8.785731,7.8076202 8.5327853,7.4703331 8.397877,7.2511096 8.1617891,6.8464044 8.1617891,6.5259947 q 0,-0.8937518 0.8600232,-0.8937518 0.5902131,0 0.8600232,0.6913927 h 0.067451 Q 10.235961,5.6322429 10.80931,5.6322429 q 0.876886,0 0.876886,0.8937518 0,0.4552853 -0.792571,1.4165076 -0.84316,1.0117893 -0.9780654,1.4165076 z"/>
    <path style="fill:#ff0000" d="m 13.895277,12.22578 -0.455305,-0.758844 q -0.26981,-0.489027 -0.556484,-0.758843 -0.26981,-0.269804 -0.438441,-0.522769 -0.320403,-0.4047053 -0.320403,-0.7925658 0,-0.8937519 0.860023,-0.8937519 0.590213,0 0.876886,0.6913927 h 0.06745 q 0.26981,-0.6913927 0.860023,-0.6913927 0.860023,0 0.860023,0.8937519 0,0.4216088 -0.79257,1.4165078 -0.370989,0.455285 -0.623935,0.826294 -0.236088,0.354125 -0.337267,0.590187 z"/>
    <path style="fill:#ff0000" d="M 5.9527112,12.22578 5.4974064,11.466936 Q 5.2275964,10.977909 4.940922,10.708093 4.6711119,10.438289 4.5024815,10.185324 4.1820784,9.7806187 4.1820784,9.3927582 q 0,-0.8937519 0.8600225,-0.8937519 0.5902131,0 0.8768862,0.6913927 h 0.067451 q 0.3035387,-0.6913927 0.8600231,-0.6913927 0.8600232,0 0.8600232,0.8937519 0,0.4216088 -0.7925703,1.4165078 -0.3709896,0.455285 -0.6239353,0.826294 -0.2360879,0.354125 -0.3372675,0.590187 z"/>
    <path style="fill:#ff0000" d="m 5.0420983,17.959268 q -0.8600225,0 -0.8600225,-0.893752 0,-0.489027 0.7588436,-1.450237 0.3878539,-0.489027 0.6407996,-0.826294 0.2698101,-0.354125 0.3709896,-0.556511 0.067451,0.202386 0.3204031,0.556511 0.2698101,0.337287 0.6407997,0.826294 0.7925703,0.994932 0.7925703,1.450237 0,0.893752 -0.8600232,0.893752 -0.5564844,0 -0.8600231,-0.691393 H 5.9189844 Q 5.63231,17.959268 5.0420983,17.959268 Z"/>
    <path style="fill:#ff0000" d="m 12.984664,17.959268 q -0.860023,0 -0.860023,-0.893752 0,-0.489027 0.758844,-1.450237 0.387854,-0.489027 0.6408,-0.826294 0.26981,-0.354125 0.370989,-0.556511 0.06745,0.202386 0.320403,0.556511 0.26981,0.337287 0.6408,0.826294 0.792573,0.994932 0.792573,1.450237 0,0.893752 -0.860026,0.893752 -0.590213,0 -0.860023,-0.691393 h -0.06745 q -0.286674,0.691393 -0.876886,0.691393 z"/>
    <path style="fill:#ff0000" d="m 9.021813,20.826011 q -0.8600232,0 -0.8600232,-0.893751 0,-0.455286 0.7925703,-1.450237 0.3709896,-0.489027 0.6070775,-0.843158 0.2529457,-0.370964 0.3541253,-0.539607 0.067451,0.168643 0.3204031,0.522768 0.26981,0.337287 0.657665,0.826301 0.79257,0.994925 0.79257,1.483959 0,0.893752 -0.876886,0.893752 -0.573349,0 -0.8600234,-0.691393 h -0.067451 q -0.26981,0.691393 -0.8600232,0.691393 z"/>
    <path style="fill:#ff0000" d="m 17.099286,21.753486 q -0.522769,0 -0.522769,-0.539608 0,-0.55651 0.421609,-0.860023 0.236062,-0.185481 0.387867,-0.404705 0.168644,-0.219223 0.269804,-0.472189 0.10116,0.252966 0.269803,0.455286 0.185482,0.202385 0.387867,0.421608 0.404706,0.404706 0.404706,0.860023 0,0.539608 -0.505931,0.539608 -0.286642,0 -0.556511,-0.404706 -0.236061,0.404706 -0.55651,0.404706 z"/>
    <path style="fill:#ff0000" d="m 5.0420983,23.692755 q -0.8600225,0 -0.8600225,-0.893752 0,-0.489027 0.7588436,-1.450236 0.3878539,-0.489027 0.6407996,-0.826294 0.2698101,-0.354126 0.3709896,-0.556511 0.067451,0.202385 0.3204031,0.556511 0.2698101,0.337287 0.6407997,0.826294 0.7925703,0.994932 0.7925703,1.450236 0,0.893752 -0.8600232,0.893752 -0.5564844,0 -0.8600231,-0.691392 H 5.9189844 Q 5.63231,23.692755 5.0420983,23.692755 Z"/>
    <path style="fill:#ff0000" d="m 12.984664,23.692755 q -0.860023,0 -0.860023,-0.893752 0,-0.489027 0.758844,-1.450236 0.387854,-0.489027 0.6408,-0.826294 0.26981,-0.354126 0.370989,-0.556511 0.06745,0.202385 0.320403,0.556511 0.26981,0.337287 0.6408,0.826294 0.792573,0.994932 0.792573,1.450236 0,0.893752 -0.860026,0.893752 -0.590213,0 -0.860023,-0.691392 h -0.06745 q -0.286674,0.691392 -0.876886,0.691392 z"/>
    <path style="fill:#ff0000" d="m 17.065558,25.075547 q -0.758844,0 -0.758844,-1.214148 0,-1.231013 0.758844,-1.231013 0.758843,0 0.758843,1.231013 0,1.214148 -0.758843,1.214148 z"/>
    <path style="fill:#ff0000" d="m 18.111075,25.04161 v -2.343982 h 0.438448 v 1.517687 h 0.421608 v 0.337287 q -0.421608,0 -0.489027,0.489027 z"/>
    <path style="fill:#ffffff" d="m 17.065558,24.670646 q 0.286641,0 0.286641,-0.80943 0,-0.860023 -0.286641,-0.860023 -0.269804,0 -0.269804,0.860023 0,0.80943 0.269804,0.80943 z"/>
</svg>