<svg xmlns="http://www.w3.org/2000/svg" width="74.952217" height="100" viewBox="0 0 19.831107 26.458333">
    <path d="m 1.1804253,26.458333 q -0.72511731,0 -0.96120184,-0.219224 Q 0,26.003048 0,25.277907 V 1.1803999 Q 0,0.45528515 0.21922346,0.2360617 0.45531126,0 1.1804253,0 H 18.650693 q 0.725117,0 0.944339,0.2360617 0.236088,0.21922345 0.236088,0.9443382 V 25.277907 q 0,0.725114 -0.236088,0.961202 -0.219224,0.219224 -0.944339,0.219224 z"/>
    <path style="fill:#ffffff" d="M 1.3827844,25.969306 H 18.448336 q 0.590213,0 0.74198,-0.15174 0.151766,-0.15174 0.151766,-0.741979 V 1.3827981 q 0,-0.6239286 -0.151766,-0.75884337 Q 19.03855,0.489053 18.448336,0.489053 H 1.3827838 q -0.60707736,0 -0.75884343,0.13490173 Q 0.48903212,0.75885645 0.48903212,1.3827981 V 25.075587 q 0,0.590187 0.13490825,0.741979 0.15176607,0.15174 0.75884403,0.15174 z"/>
    <path style="fill:#ff0000" d="m 1.214152,3.7604752 q 0,-0.5058651 0.6239352,-0.9612025 0.6239351,-0.4890269 0.6239351,-0.6576638 0,-0.3709634 -0.3541251,-0.3709634 -0.3709896,0 -0.3709896,0.5396069 H 1.2816029 v -0.10116 q 0,-0.860023 0.8262962,-0.860023 0.8431599,0 0.8431599,0.7588434 0,0.2866417 -0.151766,0.4552852 Q 2.6643847,2.7318414 2.1753578,3.0353866 L 1.8380905,3.3557701 h 1.1129711 v 0.4047051 z"/>
    <path style="fill:#ff0000" d="M 9.9155591,6.4923167 9.4771187,5.7334733 Q 9.0555427,5.2612846 8.7857282,4.9409012 8.5327825,4.6036142 8.3978743,4.3843908 8.1617865,3.9796856 8.1617865,3.6592696 q 0,-0.8937452 0.8600229,-0.8937452 0.590213,0 0.860023,0.6913926 h 0.067451 q 0.2866746,-0.6913926 0.8600226,-0.6913926 0.876886,0 0.876886,0.8937452 0,0.4552851 -0.79257,1.4165137 -0.84316,1.011789 -0.9780654,1.4165073 z"/>
    <path style="fill:#ff0000" d="M 2.1753539,6.9813436 Q 2.0741743,6.7452819 1.9392661,6.5091549 1.8043578,6.2561897 1.5682766,6.0875462 1.1129718,5.7334211 1.1129718,5.261252 q 0,-0.5565104 0.5227622,-0.5565104 0.2360878,0 0.5396199,0.4047052 0.2866743,-0.4047052 0.5564843,-0.4047052 0.5227621,0 0.5227621,0.5565104 0,0.4047051 -0.4215826,0.8262942 -0.4384404,0.4384469 -0.6576645,0.8937517 z"/>
    <path style="fill:#ff0000" d="m 17.099279,21.7535 q -0.522755,0 -0.522755,-0.539607 0,-0.556511 0.421582,-0.860023 0.236088,-0.185482 0.387854,-0.404705 0.168631,-0.219224 0.26981,-0.472189 0.10118,0.252965 0.26981,0.455285 0.185495,0.202385 0.387854,0.421609 0.404718,0.404705 0.404718,0.860023 0,0.539607 -0.505897,0.539607 -0.286675,0 -0.556485,-0.404705 -0.236088,0.404705 -0.556484,0.404705 z"/>
    <path style="fill:#ff0000" d="m 9.0218101,23.692763 q -0.860023,0 -0.860023,-0.893746 0,-0.455285 0.7925702,-1.450235 0.3709895,-0.489027 0.6070773,-0.843159 0.2529456,-0.370963 0.3541252,-0.539607 0.067451,0.168644 0.3204032,0.522769 0.26981,0.337287 0.657664,0.826294 0.79257,0.994931 0.79257,1.483965 0,0.893745 -0.876886,0.893745 -0.573348,0 -0.8600225,-0.691386 h -0.067451 q -0.26981,0.691386 -0.8600229,0.691386 z"/>
    <path style="fill:#ff0000" d="m 17.723218,25.109276 q -0.826297,0 -0.826297,-0.75885 0,-0.455285 0.79257,-0.961196 l 0.303539,-0.286641 h -1.096109 v -0.404705 h 1.720046 q 0,0.438447 -0.623935,0.927473 -0.607078,0.455286 -0.607078,0.691393 0,0.387867 0.337268,0.387867 0.387854,0 0.387854,-0.556511 h 0.43844 v 0.10116 q 0,0.860023 -0.826296,0.860023 z"/>
</svg>