<svg xmlns="http://www.w3.org/2000/svg" width="74.952217" height="100" viewBox="0 0 19.831107 26.458333">
    <path d="m 1.1804256,26.458333 q -0.72511684,0 -0.96120209,-0.219224 Q 0,26.003047 0,25.277906 V 1.1804001 Q 0,0.45528526 0.21922351,0.23606175 0.45531137,0 1.1804256,0 H 18.6507 Q 19.375815,0 19.595039,0.23606175 19.8311,0.45528526 19.8311,1.1804001 V 25.277906 q 0,0.725122 -0.236061,0.961203 -0.219224,0.219224 -0.944339,0.219224 z"/>
    <path style="fill:#ffffff" d="M 1.3827861,25.969306 H 18.448341 q 0.590187,0 0.741979,-0.15174 0.15174,-0.15174 0.15174,-0.74198 V 1.3827919 q 0,-0.62392874 -0.15174,-0.75884355 Q 19.03858,0.4890466 18.448341,0.4890466 H 1.3827861 q -0.60707752,0 -0.7588495,0.13490175 Q 0.48902832,0.75885011 0.48902832,1.3827919 V 25.075586 q 0,0.590187 0.13490828,0.74198 0.15176611,0.15174 0.7588495,0.15174 z"/>
    <path style="fill:#ff0000" d="m 2.1416296,3.8447914 q -0.8937551,0 -0.8937551,-0.8768875 h 0.4890336 q 0,0.489027 0.3709635,0.489027 0.4216087,0 0.4216087,-0.3709635 0,-0.3541253 -0.5565105,-0.3541253 v -0.337287 h 0.10116 q 0.387867,0 0.387867,-0.2866418 0,-0.3035452 -0.3203835,-0.3035452 -0.3709635,0 -0.3709635,0.4047052 H 1.3153384 q 0.067457,-0.8262944 0.8263043,-0.8262944 0.2866417,0 0.5227688,0.1854817 0.2360617,0.1686435 0.2360617,0.4721888 0,0.3035453 -0.3035452,0.489027 0.4216087,0.10116 0.4216087,0.5565106 0,0.7588435 -0.8768875,0.7588435 z"/>
    <path style="fill:#ff0000" d="M 9.9155603,6.4923117 9.4771132,5.7334682 Q 9.0555045,5.2612794 8.7857205,4.9409024 8.5327553,4.6036154 8.3978535,4.3843919 8.1617918,3.9796866 8.1617918,3.659277 q 0,-0.8937519 0.8600231,-0.8937519 0.590187,0 0.8600232,0.6913927 h 0.067418 q 0.2866419,-0.6913927 0.8600229,-0.6913927 0.876888,0 0.876888,0.8937519 0,0.4552853 -0.792572,1.4165076 -0.843159,1.0117958 -0.9780676,1.4165076 z"/>
    <path style="fill:#ff0000" d="M 2.1753518,6.9813388 Q 2.0741918,6.745277 1.9392901,6.50915 1.8043883,6.2561847 1.5683266,6.0876065 1.1130217,5.7334812 1.1130217,5.2613055 q 0,-0.5565105 0.5227557,-0.5565105 0.2360618,0 0.539607,0.4047052 Q 2.4620262,4.704795 2.731895,4.704795 q 0.5227687,0 0.5227687,0.5565105 0,0.4047052 -0.4216087,0.826301 -0.438447,0.438447 -0.6576706,0.8937453 z"/>
    <path style="fill:#ff0000" d="M 9.9155603,15.159988 9.4771132,14.401144 Q 9.0555045,13.928955 8.7857205,13.608578 8.5327553,13.271291 8.3978535,13.052068 8.1617918,12.647363 8.1617918,12.326946 q 0,-0.893745 0.8600231,-0.893745 0.590187,0 0.8600232,0.691386 h 0.067418 q 0.2866419,-0.691386 0.8600229,-0.691386 0.876888,0 0.876888,0.893745 0,0.455286 -0.792572,1.416508 -0.843159,1.011796 -0.9780676,1.416508 z"/>
    <path style="fill:#ff0000" d="m 17.099284,21.753499 q -0.522769,0 -0.522769,-0.539607 0,-0.556511 0.421609,-0.860024 0.236062,-0.185481 0.387867,-0.404705 0.168644,-0.219223 0.269804,-0.472189 0.10116,0.252966 0.269803,0.455286 0.185482,0.202385 0.387867,0.421608 0.404706,0.404706 0.404706,0.860024 0,0.539607 -0.505931,0.539607 -0.286642,0 -0.55651,-0.404706 -0.236062,0.404706 -0.556511,0.404706 z"/>
    <path style="fill:#ff0000" d="m 9.0218149,23.692768 q -0.8600231,0 -0.8600231,-0.893751 0,-0.455286 0.7925657,-1.45023 0.3709635,-0.489027 0.6070905,-0.843166 0.2529653,-0.370963 0.3541253,-0.539607 0.067483,0.168644 0.3203837,0.522769 0.269803,0.337287 0.657664,0.826295 0.792572,0.994931 0.792572,1.483958 0,0.893752 -0.876887,0.893752 -0.573349,0 -0.8600236,-0.691393 H 9.8818642 Q 9.6120607,23.692788 9.021841,23.692788 Z"/>
    <path style="fill:#ff0000" d="m 17.689497,25.075554 q -0.236061,0 -0.50593,-0.168644 -0.252965,-0.168643 -0.252965,-0.489027 0,-0.337287 0.303545,-0.489027 -0.404705,-0.10116 -0.404705,-0.539607 0,-0.758843 0.860023,-0.758843 0.893745,0 0.893745,0.860023 h -0.472189 q 0,-0.489027 -0.387867,-0.489027 -0.421608,0 -0.421608,0.387867 0,0.337287 0.55651,0.337287 v 0.354125 h -0.10116 q -0.370963,0 -0.370963,0.269804 0,0.320383 0.303545,0.320383 0.387867,0 0.387867,-0.421609 h 0.438447 q -0.10116,0.826301 -0.826295,0.826295 z"/>
</svg>