<svg xmlns="http://www.w3.org/2000/svg" width="74.952217" height="100" viewBox="0 0 19.831107 26.458333">
    <path d="m 1.1804256,26.458333 q -0.72511749,0 -0.96120209,-0.219224 Q 0,26.003047 0,25.277906 V 1.1804001 Q 0,0.45527874 0.21922351,0.23606175 0.45531137,0 1.1804256,0 H 18.650698 q 0.725117,0 0.944339,0.23606175 0.236087,0.21922351 0.236087,0.94433835 V 25.277906 q 0,0.725115 -0.236087,0.961203 -0.219224,0.219224 -0.944339,0.219224 z"/>
    <path style="fill:#ffffff" d="M 1.3827848,25.969306 H 18.44834 q 0.590213,0 0.741981,-0.15174 0.151766,-0.15174 0.151766,-0.74198 V 1.3827985 q 0,-0.62392881 -0.151766,-0.75885015 Q 19.038555,0.4890466 18.44834,0.4890466 H 1.3827841 q -0.60707747,0 -0.75884358,0.13490175 Q 0.48903224,0.75885011 0.48903224,1.3827985 V 25.075586 q 0,0.590187 0.13490828,0.74198 0.15176611,0.15174 0.75884428,0.15174 z"/>
    <path style="fill:#ff0000" d="M 2.0067201,3.7604761 V 3.2208691 H 1.0455206 V 2.7992604 L 2.0404488,1.4164749 h 0.4215826 v 1.4165076 h 0.3035388 v 0.387867 H 2.4620314 v 0.5396071 z"/>
    <path style="fill:#ffffff" d="M 1.3827841,2.8329891 H 2.0067194 V 2.0066946 Z"/>
    <path style="fill:#ff0000" d="M 13.895276,6.4923052 13.439971,5.7334616 q -0.26981,-0.4721887 -0.556484,-0.7419792 -0.26981,-0.286707 -0.438441,-0.539607 -0.320403,-0.4047053 -0.320403,-0.7925658 0,-0.8937518 0.860024,-0.8937518 0.590213,0 0.876886,0.6913927 h 0.06745 q 0.26981,-0.6913927 0.860023,-0.6913927 0.860023,0 0.860023,0.8937518 0,0.4216088 -0.79257,1.4165076 -0.37099,0.4552853 -0.623936,0.8262945 -0.236088,0.3541252 -0.337267,0.590187 z"/>
    <path style="fill:#ff0000" d="M 5.9527106,6.4923052 5.4974057,5.7334616 Q 5.2275957,5.2612729 4.9409213,4.9914824 4.6711113,4.7047754 4.5024808,4.4518754 4.1820777,4.0471701 4.1820777,3.6593096 q 0,-0.8937518 0.8600225,-0.8937518 0.5902132,0 0.8768863,0.6913927 h 0.067451 q 0.3035388,-0.6913927 0.8600232,-0.6913927 0.8600232,0 0.8600232,0.8937518 0,0.4216088 -0.7925704,1.4165076 Q 6.5429237,5.5311025 6.289978,5.9021117 6.0538902,6.2562369 5.9527106,6.4923052 Z"/>
    <path style="fill:#ff0000" d="M 2.1753544,6.9813322 Q 2.0741748,6.7452705 1.9392666,6.5091435 1.8043583,6.2561782 1.568277,6.0875347 1.1129721,5.7334094 1.1129721,5.2612402 q 0,-0.5565105 0.5227623,-0.5565105 0.2360878,0 0.53962,0.4047053 0.2866744,-0.4047053 0.5564844,-0.4047053 0.5227623,0 0.5227623,0.5565105 0,0.4047053 -0.4215827,0.8262945 -0.4384405,0.438447 -0.6576646,0.8937518 z"/>
    <path style="fill:#ff0000" d="m 17.099284,21.753492 q -0.522763,0 -0.522763,-0.539607 0,-0.556511 0.421583,-0.860023 0.236088,-0.185482 0.387854,-0.404705 0.16863,-0.219224 0.26981,-0.472189 0.10118,0.252965 0.26981,0.455285 0.185495,0.202385 0.387854,0.421609 0.404718,0.404705 0.404718,0.860023 0,0.539607 -0.505898,0.539607 -0.286674,0 -0.556484,-0.404705 -0.236088,0.404705 -0.556484,0.404705 z"/>
    <path style="fill:#ff0000" d="m 12.984664,23.692762 q -0.860023,0 -0.860023,-0.893752 0,-0.489027 0.758843,-1.450236 0.387854,-0.489027 0.6408,-0.826295 0.26981,-0.354125 0.37099,-0.55651 0.06745,0.202385 0.320403,0.55651 0.26981,0.337287 0.640799,0.826295 0.792571,0.994931 0.792571,1.450236 0,0.893752 -0.860023,0.893752 -0.590214,0 -0.860024,-0.691393 h -0.06745 q -0.286674,0.691393 -0.876885,0.691393 z"/>
    <path style="fill:#ff0000" d="m 5.0420976,23.692762 q -0.8600225,0 -0.8600225,-0.893752 0,-0.489027 0.7588436,-1.450236 0.387854,-0.489027 0.6407997,-0.826295 0.26981,-0.354125 0.3709896,-0.55651 0.067451,0.202385 0.3204031,0.55651 0.26981,0.337287 0.6407996,0.826295 0.7925703,0.994931 0.7925703,1.450236 0,0.893752 -0.8600231,0.893752 -0.5564844,0 -0.8600232,-0.691393 h -0.067451 q -0.2866743,0.691393 -0.8768861,0.691393 z"/>
    <path style="fill:#ff0000" d="m 17.385958,25.041812 v -1.416508 h -0.320403 v -0.370963 h 0.320403 V 22.69783 h 0.43844 v 0.556511 h 0.978066 v 0.404705 l -1.011789,1.382773 z"/>
    <path style="fill:#ffffff" d="m 17.824398,24.451625 0.623936,-0.826301 h -0.623936 z"/>
</svg>