<svg xmlns="http://www.w3.org/2000/svg" width="74.952217" height="100" viewBox="0 0 19.831107 26.458333">
    <path d="m 1.1804256,26.458333 q -0.72511749,0 -0.96120209,-0.219224 Q 0,26.003047 0,25.277906 V 1.1804001 Q 0,0.45527874 0.21922351,0.23606175 0.45531137,0 1.1804256,0 H 18.650698 q 0.725117,0 0.944339,0.23606175 0.236081,0.21922351 0.236081,0.94433835 V 25.277906 q 0,0.725122 -0.236081,0.961203 -0.219224,0.219224 -0.944339,0.219224 z"/>
    <path style="fill:#ffffff" d="M 1.3827848,25.969306 H 18.44834 q 0.590213,0 0.74198,-0.15174 0.151766,-0.15174 0.151766,-0.741986 V 1.3827919 q 0,-0.62392874 -0.151766,-0.75884355 Q 19.038554,0.4890466 18.44834,0.4890466 H 1.3827848 q -0.60707752,0 -0.75884428,0.13490175 Q 0.48903224,0.75885011 0.48903224,1.3827919 V 25.07558 q 0,0.590187 0.13490828,0.741986 0.15176611,0.15174 0.75884428,0.15174 z"/>
    <path style="fill:#ff0000" d="m 2.0404494,3.8447914 q -0.8600232,0 -0.8600232,-0.7251149 h 0.4890336 q 0,0.337287 0.3709896,0.337287 0.387854,0 0.387854,-0.4552852 0,-0.4384471 -0.387854,-0.4384471 -0.2023592,0 -0.3709896,0.2023853 H 1.2478771 L 1.5008228,1.4502885 H 2.7992891 V 1.8718973 H 1.838087 L 1.7369074,2.394666 q 0.2360879,-0.1854817 0.4384405,-0.1854817 0.7251175,0 0.7251175,0.7925723 0,0.8431588 -0.8600225,0.8431588 z"/>
    <path style="fill:#ff0000" d="M 13.895277,6.4923117 13.439972,5.7334682 Q 13.170162,5.2612794 12.883488,4.9914889 12.613678,4.7048472 12.445047,4.4518819 12.124644,4.0471766 12.124644,3.6593096 q 0,-0.8937518 0.860022,-0.8937518 0.590213,0 0.876886,0.6913927 h 0.06745 q 0.26981,-0.6913927 0.860023,-0.6913927 0.860023,0 0.860023,0.8937518 0,0.4215435 -0.79257,1.4165076 -0.37099,0.4552853 -0.623935,0.8262945 -0.236082,0.3541252 -0.337268,0.590187 z"/>
    <path style="fill:#ff0000" d="M 5.9527106,6.4923117 5.4974057,5.7334682 Q 5.2275957,5.2612794 4.9409213,4.9914889 4.6711113,4.7048472 4.5024808,4.4518819 4.1820777,4.0471766 4.1820777,3.6593096 q 0,-0.8937518 0.8600232,-0.8937518 0.5902131,0 0.8768862,0.6913927 h 0.067451 q 0.3035387,-0.6913927 0.8600231,-0.6913927 0.8600226,0 0.8600226,0.8937518 0,0.4215435 -0.7925697,1.4165076 -0.3709896,0.4552853 -0.6239418,0.8262945 -0.2360814,0.3541252 -0.337261,0.590187 z"/>
    <path style="fill:#ff0000" d="M 2.1753544,6.9813388 Q 2.0741748,6.745277 1.9392731,6.50915 1.8043648,6.2561847 1.5682835,6.0875412 1.1129786,5.7334159 1.1129786,5.2612467 q 0,-0.5565105 0.5227623,-0.5565105 0.2360813,0 0.5396201,0.4047053 0.2866743,-0.4047053 0.5564844,-0.4047053 0.5227622,0 0.5227622,0.5565105 0,0.4047053 -0.4215826,0.8262945 -0.4384405,0.438447 -0.6576647,0.8937519 z"/>
    <path style="fill:#ff0000" d="M 9.9155622,15.159988 9.4771217,14.401144 Q 9.055539,13.928955 8.7857303,13.608578 8.5327846,13.271291 8.3978764,13.052068 8.1617885,12.647363 8.1617885,12.326953 q 0,-0.893752 0.8600232,-0.893752 0.5902131,0 0.8600225,0.691393 h 0.067451 q 0.2866738,-0.691393 0.8600228,-0.691393 0.876886,0 0.876886,0.893752 0,0.455285 -0.79257,1.416508 -0.843159,1.011795 -0.9780649,1.416507 z"/>
    <path style="fill:#ff0000" d="m 17.099284,21.753499 q -0.522762,0 -0.522762,-0.539607 0,-0.556511 0.421583,-0.860024 0.236081,-0.185481 0.387854,-0.404705 0.16863,-0.219223 0.26981,-0.472189 0.101179,0.252966 0.26981,0.455286 0.185495,0.202385 0.387854,0.421608 0.404718,0.404706 0.404718,0.860024 0,0.539607 -0.505898,0.539607 -0.286674,0 -0.556484,-0.404706 -0.236088,0.404706 -0.556485,0.404706 z"/>
    <path style="fill:#ff0000" d="m 12.984664,23.692768 q -0.860023,0 -0.860023,-0.893751 0,-0.489027 0.758844,-1.450237 0.387854,-0.489027 0.6408,-0.826294 0.26981,-0.354125 0.370989,-0.556511 0.06745,0.202386 0.320403,0.556511 0.26981,0.337287 0.6408,0.826294 0.79257,0.994932 0.79257,1.450237 0,0.893751 -0.860023,0.893751 -0.590213,0 -0.860023,-0.691392 h -0.06745 q -0.286674,0.691392 -0.876886,0.691392 z"/>
    <path style="fill:#ff0000" d="m 5.0420983,23.692768 q -0.8600232,0 -0.8600232,-0.893751 0,-0.489027 0.7588436,-1.450237 0.387854,-0.489027 0.6407997,-0.826294 0.26981,-0.354125 0.3709896,-0.556511 0.067451,0.202386 0.3204031,0.556511 0.26981,0.337287 0.6407996,0.826294 0.7925697,0.994932 0.7925697,1.450237 0,0.893751 -0.8600225,0.893751 -0.5564844,0 -0.8600232,-0.691392 h -0.067451 q -0.2866743,0.691392 -0.8768854,0.691392 z"/>
    <path style="fill:#ff0000" d="m 17.031831,25.008096 v -0.421608 h 0.961203 l 0.118043,-0.505866 q -0.151766,0.168644 -0.455304,0.168644 -0.725118,0 -0.725118,-0.792572 0,-0.826295 0.860023,-0.826295 0.860023,0 0.860023,0.725115 h -0.472169 q 0,-0.354125 -0.387854,-0.354125 -0.370989,0 -0.370989,0.455285 0,0.438447 0.370989,0.438447 0.252946,0 0.387854,-0.202385 h 0.404719 l -0.23609,1.315328 z"/>
</svg>