<svg xmlns="http://www.w3.org/2000/svg" width="74.952217" height="100" viewBox="0 0 19.831107 26.458333">
    <path d="m 1.1804252,26.458329 q -0.72511727,0 -0.96120178,-0.219223 Q 0,26.003044 0,25.277904 V 1.1804062 Q 0,0.4552851 0.21922342,0.23606166 0.4553112,0 1.1804252,0 H 18.650691 Q 19.375808,0 19.595029,0.23606166 19.83111,0.4552851 19.83111,1.1804062 V 25.277904 q 0,0.725114 -0.236081,0.961202 -0.219223,0.219223 -0.944338,0.219223 z"/>
    <path style="fill:#ffffff" d="M 1.3827842,25.969302 H 18.448333 q 0.590212,0 0.74198,-0.151805 0.151766,-0.15174 0.151766,-0.741978 V 1.3827327 q 0,-0.62392857 -0.151766,-0.75884332 -0.151766,-0.13490171 -0.74198,-0.13490171 H 1.3827842 q -0.60707721,0 -0.75884391,0.13490171 Q 0.48903205,0.75879108 0.48903205,1.3827327 V 25.075519 q 0,0.590186 0.13490824,0.741978 0.15176604,0.151805 0.75884391,0.151805 z"/>
    <path style="fill:#ff0000" d="m 2.0741747,3.8447964 q -0.8937489,0 -0.8937489,-1.2141544 0,-1.2478767 0.9274757,-1.2478767 0.6576644,0 0.7588433,0.6576638 H 2.4283044 Q 2.3608536,1.7706257 2.1079015,1.7706257 q -0.4384404,0 -0.4384404,0.5733485 v 0.1180635 q 0.2023591,-0.2529652 0.5058977,-0.2529652 0.320403,0 0.522762,0.2360617 Q 2.90048,2.6643576 2.90048,2.9679028 2.90048,3.84479 2.0741838,3.84479 Z"/>
    <path style="fill:#ffffff" d="m 2.0741747,3.4569296 q 0.3541251,0 0.3541251,-0.4552852 0,-0.4384468 -0.3541251,-0.4384468 -0.3709895,0 -0.3709895,0.4384468 0,0.4552852 0.3709895,0.4552852 z"/>
    <path style="fill:#ff0000" d="M 13.895272,6.4923028 13.439967,5.7334595 Q 13.170157,5.2612708 12.883483,4.9914805 12.613673,4.7048389 12.445043,4.4518737 12.12464,4.0471685 12.12464,3.6593083 q 0,-0.8937516 0.860021,-0.8937516 0.590213,0 0.876886,0.6913925 h 0.06745 q 0.26981,-0.6913925 0.860022,-0.6913925 0.860023,0 0.860023,0.8937516 0,0.4216085 -0.792569,1.416507 -0.37099,0.455285 -0.623936,0.8262941 -0.236081,0.3541252 -0.337267,0.5901869 z"/>
    <path style="fill:#ff0000" d="M 5.9527083,6.4923028 5.4974037,5.7334595 Q 5.2275937,5.2612708 4.9409194,4.9914805 4.6711096,4.7048389 4.5024792,4.4518737 4.1820761,4.0471685 4.1820761,3.6593083 q 0,-0.8937516 0.8600229,-0.8937516 0.5902129,0 0.8768859,0.6913925 h 0.067451 q 0.3035386,-0.6913925 0.8600229,-0.6913925 0.8600221,0 0.8600221,0.8937516 0,0.4216085 -0.7925693,1.416507 Q 6.5429219,5.5311003 6.2899698,5.9021094 6.0538886,6.2562346 5.952709,6.4922963 Z"/>
    <path style="fill:#ff0000" d="M 2.1753536,6.9813296 Q 2.0741741,6.7452679 1.9392724,6.509141 1.8043641,6.2561758 1.5682829,6.0875324 1.1129782,5.7334072 1.1129782,5.2612383 q 0,-0.5565104 0.5227621,-0.5565104 0.2360812,0 0.5396198,0.4047051 0.2866743,-0.4047051 0.5564843,-0.4047051 0.522762,0 0.522762,0.5565104 0,0.404705 -0.4215825,0.8262941 -0.4384403,0.4384469 -0.6576644,0.8937515 z"/>
    <path style="fill:#ff0000" d="M 5.9527083,15.092525 5.4974037,14.333681 Q 5.2275937,13.844654 4.9409194,13.574838 4.6711096,13.305034 4.5024792,13.05207 4.1820761,12.647364 4.1820761,12.259497 q 0,-0.893744 0.8600229,-0.893744 0.5902129,0 0.8768859,0.691385 h 0.067451 q 0.3035386,-0.691385 0.8600229,-0.691385 0.8600221,0 0.8600221,0.893744 0,0.421609 -0.7925693,1.416508 -0.3709895,0.455285 -0.6239416,0.8263 -0.2360812,0.354125 -0.3372608,0.590187 z"/>
    <path style="fill:#ff0000" d="m 13.895272,15.092525 -0.455305,-0.758844 q -0.26981,-0.489027 -0.556484,-0.758843 -0.26981,-0.269804 -0.43844,-0.522768 -0.320403,-0.404706 -0.320403,-0.792573 0,-0.893744 0.860021,-0.893744 0.590213,0 0.876886,0.691385 h 0.06745 q 0.26981,-0.691385 0.860022,-0.691385 0.860023,0 0.860023,0.893744 0,0.421609 -0.792569,1.416508 -0.37099,0.455285 -0.623936,0.8263 -0.236081,0.354125 -0.337267,0.590187 z"/>
    <path style="fill:#ff0000" d="m 17.099278,21.753484 q -0.522762,0 -0.522762,-0.539607 0,-0.55651 0.421582,-0.860023 0.236081,-0.185482 0.387854,-0.404705 0.16863,-0.219223 0.26981,-0.472188 0.101179,0.252965 0.26981,0.455285 0.185495,0.202385 0.387854,0.421543 0.404718,0.404705 0.404718,0.860023 0,0.539606 -0.505897,0.539606 -0.286675,0 -0.556485,-0.404705 -0.236088,0.404705 -0.556484,0.404705 z"/>
    <path style="fill:#ff0000" d="m 12.984659,23.692747 q -0.860023,0 -0.860023,-0.893746 0,-0.489027 0.758844,-1.450236 0.387854,-0.489026 0.640799,-0.826293 0.269811,-0.354126 0.37099,-0.556511 0.06745,0.202385 0.320403,0.556511 0.26981,0.337287 0.6408,0.826293 0.792569,0.994932 0.792569,1.450236 0,0.893746 -0.860023,0.893746 -0.590212,0 -0.860022,-0.691387 h -0.06745 q -0.286674,0.691387 -0.876886,0.691387 z"/>
    <path style="fill:#ff0000" d="m 5.0420964,23.692747 q -0.8600229,0 -0.8600229,-0.893746 0,-0.489027 0.7588433,-1.450236 0.3878539,-0.489026 0.6407995,-0.826293 0.2698098,-0.354126 0.3709894,-0.556511 0.067451,0.202385 0.320403,0.556511 0.2698099,0.337287 0.6407994,0.826293 0.7925694,0.994932 0.7925694,1.450236 0,0.893746 -0.8600222,0.893746 -0.5564842,0 -0.8600229,-0.691387 h -0.067451 q -0.2866742,0.691387 -0.876885,0.691387 z"/>
    <path style="fill:#ff0000" d="m 17.723216,25.075532 q -0.657665,0 -0.758844,-0.657665 h 0.455305 q 0.101179,0.286707 0.303539,0.286707 0.455304,0 0.455304,-0.590187 v -0.10116 q -0.219223,0.236063 -0.522762,0.236063 -0.303539,0 -0.522762,-0.219224 -0.202359,-0.236062 -0.202359,-0.539606 0,-0.860024 0.826296,-0.860024 0.893749,0 0.893749,1.197284 0,1.247877 -0.927475,1.247877 z"/>
    <path style="fill:#ffffff" d="m 17.756944,23.895105 q 0.387854,0 0.387854,-0.438447 0,-0.455284 -0.387854,-0.455284 -0.337261,0 -0.337261,0.455284 0,0.438447 0.337261,0.438447 z"/>
</svg>