<svg xmlns="http://www.w3.org/2000/svg" width="74.952217" height="100" viewBox="0 0 19.831107 26.458333">
    <path d="m 1.1804235,26.458333 q -0.72511733,0 -0.961202,-0.219224 Q 0,26.003048 0,25.277907 V 1.1804064 Q 0,0.45528515 0.2192215,0.2360617 0.45530604,0 1.1804235,0 H 18.650691 q 0.725117,0 0.944339,0.2360617 0.236088,0.21922345 0.236088,0.9443447 V 25.277907 q 0,0.725114 -0.236088,0.961202 -0.219224,0.219224 -0.944339,0.219224 z"/>
    <path style="fill:#ffffff" d="M 1.3827819,25.969306 H 18.448333 q 0.590213,0 0.741981,-0.151805 0.151766,-0.15174 0.151766,-0.741979 V 1.3827329 q 0,-0.62392866 -0.151766,-0.75884344 Q 19.038547,0.48898774 18.448333,0.48898774 H 1.3827818 q -0.60707471,0 -0.75884365,0.13490172 Q 0.48903251,0.75879118 0.48903251,1.3827329 V 25.075522 q 0,0.590186 0.13490564,0.741979 0.15176868,0.151805 0.75884375,0.151805 z"/>
    <path style="fill:#ff0000" d="M 1.7369091,3.7604752 Q 1.838088,2.664371 2.5294791,1.8717989 H 1.4165082 V 1.4165138 H 3.0185115 V 1.8381224 Q 2.2596678,2.4957406 2.2596678,3.7604752 Z"/>
    <path style="fill:#ff0000" d="M 13.895271,6.4923167 13.439966,5.7334733 Q 13.170156,5.2612846 12.883482,4.9914942 12.613672,4.7048525 12.445041,4.4518873 12.124638,4.0471822 12.124638,3.6593218 q 0,-0.8937517 0.860023,-0.8937517 0.590213,0 0.876886,0.6913926 h 0.06745 q 0.26981,-0.6913926 0.860023,-0.6913926 0.860023,0 0.860023,0.8937517 0,0.4216086 -0.79257,1.4165072 -0.37099,0.4552852 -0.623935,0.8262943 -0.236088,0.3541251 -0.337267,0.5901868 z"/>
    <path style="fill:#ff0000" d="M 5.9527071,6.4923167 5.4974024,5.7334733 Q 5.2275924,5.2612846 4.9409181,4.9914942 4.6711068,4.7048525 4.5024751,4.4518873 4.1820747,4.0471822 4.1820747,3.6593218 q 0,-0.8937517 0.8600229,-0.8937517 0.590213,0 0.876886,0.6913926 h 0.067451 q 0.3035387,-0.6913926 0.860023,-0.6913926 0.860023,0 0.860023,0.8937517 0,0.4216086 -0.7925702,1.4165072 Q 6.5429208,5.5311142 6.2899752,5.9021233 6.0538874,6.2562484 5.9527143,6.4923101 Z"/>
    <path style="fill:#ff0000" d="M 2.1753521,6.9813436 Q 2.0741732,6.7452819 1.9392675,6.5091549 1.8043619,6.2561897 1.5682773,6.0875462 1.1129713,5.7334211 1.1129713,5.261252 q 0,-0.5565104 0.5227589,-0.5565104 0.2360845,0 0.5396219,0.4047052 0.2866743,-0.4047052 0.5564856,-0.4047052 0.5227588,0 0.5227588,0.5565104 0,0.4047051 -0.4215799,0.8262942 -0.438443,0.4384469 -0.6576645,0.8937517 z"/>
    <path style="fill:#ff0000" d="M 9.9155572,10.775561 9.4771168,10.016717 Q 9.1567138,9.4602068 8.8363173,9.1735585 8.5327786,8.8869169 8.3978769,8.6676281 8.1617891,8.262923 8.1617891,7.9425134 q 0,-0.8937516 0.860023,-0.8937516 0.5902129,0 0.8600229,0.6913925 h 0.067451 q 0.286674,-0.6913925 0.860023,-0.6913925 0.876886,0 0.876886,0.8937516 0,0.4552852 -0.79257,1.4165073 -0.84316,1.0117893 -0.9780659,1.4165073 z"/>
    <path style="fill:#ff0000" d="M 5.9527071,15.092546 5.4974024,14.333703 Q 5.2275924,13.844676 4.9409181,13.574859 4.6711068,13.305056 4.5024751,13.052091 4.1820747,12.647386 4.1820747,12.259519 q 0,-0.893745 0.8600223,-0.893745 0.590213,0 0.876886,0.691386 h 0.067451 q 0.3035387,-0.691386 0.8600231,-0.691386 0.8600229,0 0.8600229,0.893745 0,0.421608 -0.7925701,1.416507 -0.3709896,0.455285 -0.6239352,0.826301 -0.2360878,0.354125 -0.3372608,0.590187 z"/>
    <path style="fill:#ff0000" d="m 13.895271,15.092546 -0.455305,-0.758843 q -0.26981,-0.489027 -0.556484,-0.758844 -0.26981,-0.269803 -0.438441,-0.522768 -0.320403,-0.404705 -0.320403,-0.792572 0,-0.893745 0.860023,-0.893745 0.590213,0 0.876886,0.691386 h 0.06745 q 0.26981,-0.691386 0.860023,-0.691386 0.860023,0 0.860023,0.893745 0,0.421608 -0.79257,1.416507 -0.37099,0.455285 -0.623935,0.826301 -0.236088,0.354125 -0.337267,0.590187 z"/>
    <path style="fill:#ff0000" d="m 17.099277,21.753506 q -0.522762,0 -0.522762,-0.539607 0,-0.55651 0.421583,-0.860023 0.236081,-0.185481 0.387854,-0.404705 0.16863,-0.219223 0.26981,-0.472188 0.101179,0.252965 0.26981,0.455285 0.185494,0.202385 0.387854,0.421543 0.404718,0.404705 0.404718,0.860023 0,0.539607 -0.505898,0.539607 -0.286674,0 -0.556484,-0.404705 -0.236088,0.404705 -0.556485,0.404705 z"/>
    <path style="fill:#ff0000" d="m 12.984658,23.692769 q -0.860022,0 -0.860022,-0.893745 0,-0.489027 0.758843,-1.450236 0.387854,-0.489027 0.6408,-0.826294 0.26981,-0.354125 0.370989,-0.556511 0.06745,0.202386 0.320403,0.556511 0.26981,0.337287 0.6408,0.826294 0.79257,0.994931 0.79257,1.450236 0,0.893745 -0.860023,0.893745 -0.590213,0 -0.860023,-0.691386 h -0.06745 q -0.286674,0.691386 -0.876886,0.691386 z"/>
    <path style="fill:#ff0000" d="m 5.0420944,23.692769 q -0.8600226,0 -0.8600226,-0.893745 0,-0.489027 0.7588437,-1.450236 0.3878538,-0.489027 0.6407995,-0.826294 0.2698099,-0.354125 0.3709895,-0.556511 0.067451,0.202386 0.320403,0.556511 0.26981,0.337287 0.6407995,0.826294 0.7925701,0.994931 0.7925701,1.450236 0,0.893745 -0.8600229,0.893745 -0.5564843,0 -0.8600232,-0.691386 H 5.91898 q -0.2866743,0.691386 -0.8768856,0.691386 z"/>
    <path style="fill:#ff0000" d="m 16.829466,25.041825 v -0.421543 q 0.758844,-0.60709 0.758844,-1.922405 h 0.522756 q -0.118044,1.096104 -0.809433,1.888676 h 1.11297 v 0.455286 z"/>
</svg>