<svg xmlns="http://www.w3.org/2000/svg" width="74.952217" height="100" viewBox="0 0 19.831107 26.458333">
    <path d="m 1.1804255,26.458329 q -0.72511746,0 -0.96120202,-0.219223 Q 0,26.003044 0,25.277904 V 1.1804 Q 0,0.45527868 0.21922348,0.23606172 0.45531131,0 1.1804255,0 H 18.650695 q 0.725118,0 0.944339,0.23606172 0.236081,0.21922349 0.236081,0.94433828 v 24.097504 q 0,0.725113 -0.236081,0.961202 -0.219223,0.219223 -0.944339,0.219223 z"/>
    <path style="fill:#ffffff" d="M 1.3827846,25.969302 H 18.448337 q 0.590213,0 0.741981,-0.151739 0.151766,-0.151741 0.151766,-0.741979 V 1.3827983 q 0,-0.62392872 -0.151766,-0.7588435 Q 19.038545,0.48905306 18.448337,0.48905306 H 1.3827846 q -0.60707742,0 -0.75884416,0.13490174 Q 0.48903217,0.75885653 0.48903217,1.3827983 V 25.075584 q 0,0.590186 0.13490827,0.741979 0.15176608,0.151739 0.75884416,0.151739 z"/>
    <path style="fill:#ff0000" d="m 2.1416281,3.8447909 q -0.8937492,0 -0.8937492,-0.7251213 0,-0.489027 0.4553048,-0.5901869 -0.3541252,-0.10116 -0.3541252,-0.4890271 0,-0.3035451 0.2698099,-0.4721886 0.2866745,-0.1854818 0.5227557,-0.1854818 0.8094333,0 0.8094333,0.6239287 0,0.337287 -0.3541252,0.5227688 0.4553047,0.1011599 0.4553047,0.5901869 0,0.7251213 -0.9106088,0.7251213 z"/>
    <path style="fill:#ffffff" d="m 2.1416281,2.3945548 q 0.3541251,0 0.3541251,-0.3203834 0,-0.3035453 -0.3541251,-0.3035453 -0.3372609,0 -0.3372609,0.3035453 0,0.3203834 0.3372609,0.3203834 z"/>
    <path style="fill:#ffffff" d="m 2.1416281,3.456937 q 0.4215826,0 0.4215826,-0.3709635 0,-0.3878669 -0.4215826,-0.3878669 -0.4047183,0 -0.4047183,0.3878669 0,0.3709635 0.4047183,0.3709635 z"/>
    <path style="fill:#ff0000" d="M 13.895275,6.4923044 13.439969,5.7334609 Q 13.17016,5.2612721 12.883485,4.9914817 12.613676,4.70484 12.445045,4.4518748 12.124642,4.0471695 12.124642,3.6593092 q 0,-0.8937518 0.860023,-0.8937518 0.590213,0 0.876886,0.6913926 h 0.06745 q 0.26981,-0.6913926 0.860023,-0.6913926 0.860023,0 0.860023,0.8937518 0,0.4216086 -0.79257,1.4165073 -0.37099,0.4552852 -0.623935,0.8262943 -0.236081,0.3541253 -0.337261,0.590187 z"/>
    <path style="fill:#ff0000" d="M 5.9527098,6.4923044 5.497405,5.7334609 Q 5.227595,5.2612721 4.9409207,4.9914817 4.6711106,4.70484 4.5024802,4.4518748 4.1820772,4.0471695 4.1820772,3.6593092 q 0,-0.8937518 0.8600231,-0.8937518 0.590213,0 0.876886,0.6913926 h 0.067451 Q 6.289976,2.7655574 6.8464604,2.7655574 q 0.860023,0 0.860023,0.8937518 0,0.4216086 -0.7925702,1.4165073 Q 6.5429235,5.5311017 6.2899713,5.9021108 6.0538901,6.2562361 5.9527104,6.4922978 Z"/>
    <path style="fill:#ff0000" d="M 2.1753541,6.9813313 Q 2.0741746,6.7452695 1.9392663,6.5091426 1.804358,6.2561774 1.5682768,6.0875339 1.1129719,5.7334086 1.1129719,5.2612395 q 0,-0.5565105 0.5227622,-0.5565105 0.2360878,0 0.53962,0.4047053 0.2866744,-0.4047053 0.5564844,-0.4047053 0.5227621,0 0.5227621,0.5565105 0,0.4047052 -0.4215826,0.8262944 -0.4384404,0.4384469 -0.6576645,0.8937517 z"/>
    <path style="fill:#ff0000" d="M 9.9155602,10.775549 9.4771198,10.016705 Q 9.1567168,9.4601947 8.8363202,9.1735465 8.5327815,8.8869048 8.3978798,8.667616 8.1617985,8.2629109 8.1617985,7.9425013 q 0,-0.8937518 0.8600231,-0.8937518 0.590213,0 0.860023,0.6913926 h 0.067451 Q 10.23597,7.0487495 10.809317,7.0487495 q 0.876887,0 0.876887,0.8937518 0,0.4552852 -0.79257,1.4165074 -0.84316,1.0117883 -0.9780653,1.4165073 z"/>
    <path style="fill:#ff0000" d="M 5.9527098,15.092535 5.497405,14.333691 Q 5.227595,13.844664 4.9409207,13.574848 4.6711106,13.305044 4.5024802,13.052079 q -0.320403,-0.404705 -0.320403,-0.792572 0,-0.893745 0.8600231,-0.893745 0.590213,0 0.876886,0.691392 h 0.067451 q 0.3035387,-0.691392 0.8600231,-0.691392 0.860023,0 0.860023,0.893745 0,0.421609 -0.7925702,1.416514 -0.3709896,0.455285 -0.6239418,0.826294 -0.2360812,0.354126 -0.3372609,0.590187 z"/>
    <path style="fill:#ff0000" d="m 13.895275,15.092535 -0.455306,-0.758844 q -0.269809,-0.489027 -0.556484,-0.758843 -0.269809,-0.269804 -0.43844,-0.522769 -0.320403,-0.404705 -0.320403,-0.792572 0,-0.893745 0.860023,-0.893745 0.590213,0 0.876886,0.691392 h 0.06745 q 0.26981,-0.691392 0.860023,-0.691392 0.860023,0 0.860023,0.893745 0,0.421609 -0.79257,1.416514 -0.37099,0.455285 -0.623935,0.826294 -0.236081,0.354126 -0.337261,0.590187 z"/>
    <path style="fill:#ff0000" d="m 9.0218111,19.409514 q -0.8600231,0 -0.8600231,-0.893752 0,-0.455285 0.7925702,-1.450235 0.7588435,-0.994926 0.961202,-1.382779 0.067451,0.168643 0.3204028,0.522769 0.269811,0.337287 0.657665,0.826293 0.79257,0.994932 0.79257,1.483965 0,0.893752 -0.876886,0.893752 -0.573349,0 -0.8600224,-0.691393 h -0.067451 q -0.2698099,0.691393 -0.860023,0.691393 z"/>
    <path style="fill:#ff0000" d="m 17.099281,21.753496 q -0.522762,0 -0.522762,-0.539607 0,-0.556511 0.421583,-0.860023 0.236087,-0.185482 0.387854,-0.404706 0.16863,-0.219223 0.269809,-0.472188 0.10118,0.252965 0.269811,0.455285 0.185495,0.202385 0.387854,0.421609 0.404718,0.404705 0.404718,0.860023 0,0.539607 -0.505898,0.539607 -0.286674,0 -0.556485,-0.404706 -0.236081,0.404706 -0.556484,0.404706 z"/>
    <path style="fill:#ff0000" d="m 5.042097,23.692766 q -0.8600231,0 -0.8600231,-0.893753 0,-0.489027 0.7588441,-1.450236 0.387854,-0.489026 0.6407996,-0.826294 0.26981,-0.354125 0.3709896,-0.556511 0.067451,0.202386 0.320403,0.556511 0.26981,0.337287 0.6407996,0.826294 0.7925702,0.994932 0.7925702,1.450236 0,0.893753 -0.860023,0.893753 -0.5564844,0 -0.8600231,-0.691393 H 5.9189831 Q 5.6323087,23.692766 5.042097,23.692766 Z"/>
    <path style="fill:#ff0000" d="m 12.984662,23.692766 q -0.860023,0 -0.860023,-0.893753 0,-0.489027 0.758844,-1.450236 0.387854,-0.489026 0.640799,-0.826294 0.26981,-0.354125 0.37099,-0.556511 0.06745,0.202386 0.320403,0.556511 0.26981,0.337287 0.6408,0.826294 0.792569,0.994932 0.792569,1.450236 0,0.893753 -0.860023,0.893753 -0.590212,0 -0.860022,-0.691393 h -0.06745 q -0.286673,0.691393 -0.876885,0.691393 z"/>
    <path style="fill:#ff0000" d="m 17.689493,25.075544 q -0.79257,0 -0.79257,-0.623928 0,-0.370964 0.337267,-0.522769 -0.43844,-0.10116 -0.43844,-0.573349 0,-0.725115 0.893749,-0.725115 0.893749,0 0.893749,0.725115 0,0.472189 -0.43844,0.573349 0.337267,0.118063 0.337267,0.489026 0,0.320383 -0.269809,0.489027 -0.252947,0.168644 -0.522763,0.168644 z"/>
    <path style="fill:#ffffff" d="m 17.689493,23.760216 q 0.421583,0 0.421583,-0.370963 0,-0.387867 -0.421583,-0.387867 -0.421582,0 -0.421582,0.387867 0,0.370963 0.421582,0.370963 z"/>
    <path style="fill:#ffffff" d="m 17.689493,24.704554 q 0.354125,0 0.354125,-0.320383 0,-0.303546 -0.354125,-0.303546 -0.337261,0 -0.337261,0.303546 0,0.320383 0.337261,0.320383 z"/>
</svg>