<svg xmlns="http://www.w3.org/2000/svg" width="74.952217" height="100" viewBox="0 0 19.831107 26.458333">
    <path d="m 1.1804253,26.458333 q -0.72511731,0 -0.96120184,-0.219224 Q 0,26.003048 0,25.277907 V 1.1803999 Q 0,0.45528515 0.21922346,0.2360617 0.45531126,0 1.1804253,0 H 18.650693 q 0.725117,0 0.944339,0.2360617 0.236088,0.21922345 0.236088,0.9443382 V 25.277907 q 0,0.725114 -0.236088,0.961202 -0.219224,0.219224 -0.944339,0.219224 z"/>
    <path style="fill:#f9f9f9" d="M 1.3827844,25.969306 H 18.448336 q 0.590213,0 0.74198,-0.15174 0.151766,-0.15174 0.151766,-0.741979 V 1.3827981 q 0,-0.6239286 -0.151766,-0.75884337 Q 19.03855,0.489053 18.448336,0.489053 H 1.3827838 q -0.60707736,0 -0.75884343,0.13490173 Q 0.48903212,0.75885645 0.48903212,1.3827981 V 25.075587 q 0,0.590187 0.13490825,0.741979 0.15176607,0.15174 0.75884403,0.15174 z"/>
    <path style="fill:#ff0000" d="m 2.0067196,3.844797 q -0.6576645,0 -0.7588441,-0.6576639 h 0.4553047 q 0.1011796,0.2698035 0.3035387,0.2698035 0.4553047,0 0.4553047,-0.5901869 v -0.10116 q -0.2360812,0.2360617 -0.5227621,0.2360617 -0.3035386,0 -0.5227621,-0.2192234 -0.2023591,-0.2192235 -0.2023591,-0.5396069 0,-0.860023 0.8262962,-0.860023 0.9106127,0 0.9106127,1.2141481 0,1.2478769 -0.9443388,1.2478769 z"/>
    <path style="fill:#ffffff" d="m 2.0404613,2.6643775 q 0.3878539,0 0.3878539,-0.4552851 0,-0.4047052 -0.3878539,-0.4047052 -0.3372608,0 -0.3372608,0.4047052 0,0.4552851 0.3372608,0.4552851 z"/>
    <path style="fill:#ff0000" d="M 13.895286,6.4923232 13.439981,5.7334798 Q 13.170171,5.2612911 12.883497,4.9914942 12.613687,4.7048525 12.445056,4.4518873 12.124653,4.0471822 12.124653,3.6593153 q 0,-0.8937452 0.860023,-0.8937452 0.590213,0 0.876886,0.691386 h 0.06745 q 0.26981,-0.691386 0.860023,-0.691386 0.860023,0 0.860023,0.8937452 0,0.4216086 -0.792571,1.4165072 -0.370989,0.4552851 -0.623935,0.8263008 -0.236088,0.3541251 -0.337267,0.5901868 z"/>
    <path style="fill:#ff0000" d="M 5.9527222,6.4923232 5.4974174,5.7334798 Q 5.2276075,5.2612911 4.9409332,4.9914942 4.6711232,4.7048525 4.5024928,4.4518873 4.1820898,4.0471822 4.1820898,3.6593153 q 0,-0.8937452 0.8600223,-0.8937452 0.5902129,0 0.8768866,0.691386 h 0.067451 q 0.3035386,-0.691386 0.8600229,-0.691386 0.860023,0 0.860023,0.8937452 0,0.4216086 -0.7925702,1.4165072 Q 6.5429358,5.5311076 6.2899902,5.9021233 6.0539024,6.2562484 5.9527228,6.4923101 Z"/>
    <path style="fill:#ff0000" d="M 2.1753669,6.9813501 Q 2.0741874,6.7452884 1.9392791,6.5091614 1.8043709,6.2561962 1.5682896,6.087618 1.1129849,5.7334929 1.1129849,5.2613238 q 0,-0.5565104 0.5227621,-0.5565104 0.2360878,0 0.5396199,0.4047051 0.2866744,-0.4047051 0.5564843,-0.4047051 0.5227621,0 0.5227621,0.5565104 0,0.4047051 -0.4215825,0.8262942 -0.4384404,0.4384469 -0.6576645,0.8937451 z"/>
    <path style="fill:#ff0000" d="m 13.895273,12.225796 -0.455306,-0.758843 q -0.26981,-0.489027 -0.556485,-0.758843 -0.269809,-0.269804 -0.43844,-0.522769 -0.320403,-0.4047051 -0.320403,-0.7925721 0,-0.8937451 0.860023,-0.8937451 0.590213,0 0.876886,0.691386 h 0.06745 q 0.26981,-0.691386 0.860022,-0.691386 0.860023,0 0.860023,0.8937451 0,0.4216087 -0.79257,1.4165071 -0.37099,0.455285 -0.623935,0.826301 -0.236088,0.354125 -0.337267,0.590187 z"/>
    <path style="fill:#ff0000" d="M 5.9527091,12.225796 5.4974044,11.466953 Q 5.2275944,10.977926 4.9409201,10.70811 4.6711101,10.438306 4.5024797,10.185341 4.1820767,9.7806359 4.1820767,9.3927689 q 0,-0.8937451 0.8600223,-0.8937451 0.590213,0 0.8768867,0.691386 h 0.067451 q 0.3035387,-0.691386 0.860023,-0.691386 0.8600229,0 0.8600229,0.8937451 0,0.4216087 -0.7925701,1.4165071 Q 6.542923,11.264561 6.2899773,11.635577 6.0538895,11.989702 5.95271,12.225764 Z"/>
    <path style="fill:#ff0000" d="M 9.9155591,15.159997 9.4771187,14.401154 Q 9.0555427,13.928965 8.7857282,13.608582 8.5327825,13.271295 8.3978743,13.052071 8.1617865,12.647366 8.1617865,12.32695 q 0,-0.893745 0.8600229,-0.893745 0.590213,0 0.860023,0.691392 h 0.067451 q 0.2866746,-0.691392 0.8600226,-0.691392 0.876886,0 0.876886,0.893745 0,0.455285 -0.79257,1.416514 -0.84316,1.011789 -0.9780654,1.416507 z"/>
    <path style="fill:#ff0000" d="m 12.984661,17.959283 q -0.860023,0 -0.860023,-0.893745 0,-0.489027 0.758843,-1.450236 0.387854,-0.489027 0.6408,-0.826295 0.26981,-0.354125 0.370989,-0.55651 0.06745,0.202385 0.320403,0.55651 0.26981,0.337287 0.6408,0.826295 0.79257,0.994931 0.79257,1.450236 0,0.893745 -0.860023,0.893745 -0.590213,0 -0.860022,-0.691386 h -0.06745 q -0.286675,0.691386 -0.876886,0.691386 z"/>
    <path style="fill:#ff0000" d="m 5.0420964,17.959283 q -0.8600223,0 -0.8600223,-0.893745 0,-0.489027 0.7588434,-1.450236 0.3878539,-0.489027 0.6407995,-0.826295 0.26981,-0.354125 0.3709895,-0.55651 0.067451,0.202385 0.320403,0.55651 0.26981,0.337287 0.6407995,0.826295 0.7925702,0.994931 0.7925702,1.450236 0,0.893745 -0.860023,0.893745 -0.5564843,0 -0.8600229,-0.691386 H 5.9189823 Q 5.632308,17.959283 5.0420964,17.959283 Z"/>
    <path style="fill:#ff0000" d="m 17.099279,21.753506 q -0.522755,0 -0.522755,-0.539607 0,-0.55651 0.421582,-0.860023 0.236088,-0.185481 0.387854,-0.404705 0.168631,-0.219223 0.26981,-0.472188 0.10118,0.252965 0.26981,0.455285 0.185495,0.202385 0.387854,0.421608 0.404718,0.404706 0.404718,0.860023 0,0.539607 -0.505897,0.539607 -0.286675,0 -0.556485,-0.404705 -0.236088,0.404705 -0.556491,0.404705 z"/>
    <path style="fill:#ff0000" d="m 12.984661,23.692769 q -0.860023,0 -0.860023,-0.893745 0,-0.489027 0.758843,-1.450236 0.387854,-0.489027 0.6408,-0.826301 0.26981,-0.354125 0.370989,-0.55651 0.06745,0.202385 0.320403,0.55651 0.26981,0.337287 0.6408,0.826301 0.79257,0.994925 0.79257,1.450236 0,0.893745 -0.860023,0.893745 -0.590213,0 -0.860022,-0.691392 h -0.06745 q -0.286675,0.691392 -0.876886,0.691392 z"/>
    <path style="fill:#ff0000" d="m 5.0420964,23.692769 q -0.8600223,0 -0.8600223,-0.893745 0,-0.489027 0.7588434,-1.450236 0.3878539,-0.489027 0.6407995,-0.826301 0.26981,-0.354125 0.3709895,-0.55651 0.067451,0.202385 0.320403,0.55651 0.26981,0.337287 0.6407995,0.826301 0.7925702,0.994925 0.7925702,1.450236 0,0.893745 -0.860023,0.893745 -0.5564843,0 -0.8600229,-0.691392 H 5.9189823 Q 5.632308,23.692769 5.0420964,23.692769 Z"/>
    <path style="fill:#ff0000" d="m 17.790671,25.075554 q -0.89375,0 -0.89375,-1.214154 0,-1.231013 0.927476,-1.231013 0.657664,0 0.758843,0.657664 H 18.1448 q -0.06745,-0.286707 -0.320403,-0.286707 -0.438441,0 -0.438441,0.590187 v 0.10116 q 0.236082,-0.236062 0.505898,-0.236062 0.320403,0 0.522762,0.219224 0.202359,0.219223 0.202359,0.539606 0,0.860023 -0.826296,0.860023 z"/>
    <path style="fill:#ffffff" d="m 17.790671,24.670849 q 0.354125,0 0.354125,-0.421609 0,-0.455285 -0.354125,-0.455285 -0.37099,0 -0.37099,0.455285 0,0.421609 0.37099,0.421609 z"/>
</svg>