<svg xmlns="http://www.w3.org/2000/svg" width="74.952217" height="100" viewBox="0 0 19.831107 26.458333">
    <path d="m 1.1804253,26.458333 q -0.72511731,0 -0.96120184,-0.219224 Q 0,26.003048 0,25.277907 V 1.1803999 Q 0,0.45528515 0.21922346,0.2360617 0.45530473,0 1.1804253,0 H 18.650693 q 0.725117,0 0.944339,0.2360617 0.236081,0.21922345 0.236081,0.9443382 V 25.277907 q 0,0.725114 -0.236081,0.961202 -0.219224,0.219224 -0.944339,0.219224 z"/>
    <path style="fill:#ffffff" d="M 1.3827844,25.969306 H 18.448335 q 0.590213,0 0.741981,-0.15174 0.151766,-0.15174 0.151766,-0.741979 V 1.3827981 q 0,-0.6239286 -0.151766,-0.75884337 Q 19.03855,0.489053 18.448335,0.489053 H 1.3827844 q -0.60707731,0 -0.75884338,0.13490173 Q 0.48903277,0.75885645 0.48903277,1.3827981 V 25.075587 q 0,0.590187 0.13490825,0.741979 0.15176607,0.15174 0.75884338,0.15174 z"/>
    <path style="fill:#ff0000" d="m 1.0117949,3.7604818 0.893749,-2.411432 h 0.5564843 l 0.893749,2.411432 H 2.799293 L 2.6306625,3.2208749 H 1.7369135 L 1.5345544,3.7604818 Z"/>
    <path style="fill:#ffffff" d="M 1.8718178,2.8330079 H 2.495753 L 2.17535,1.9392563 Z"/>
    <path style="fill:#ff0000" d="M 2.1753565,6.9813501 Q 2.0741769,6.7452884 1.9392752,6.5091614 1.804367,6.2561962 1.5682857,6.087618 1.112981,5.7334929 1.112981,5.2613238 q 0,-0.5565104 0.5227621,-0.5565104 0.2360878,0 0.5396199,0.4047051 0.2866743,-0.4047051 0.5564843,-0.4047051 0.5227556,0 0.5227556,0.5565104 0,0.4047051 -0.4215826,0.8262942 Q 2.39458,6.5260649 2.1753559,6.9813631 Z"/>
    <path style="fill:#ff0000" d="M 9.9155617,16.239243 Q 9.7806535,15.91886 9.3927996,15.412949 9.0218101,14.890181 8.4315978,14.165072 7.2174477,12.681114 7.2174477,11.922271 q 0,-0.657664 0.3541252,-1.011796 0.3709895,-0.370963 0.9612018,-0.370963 0.590213,0 0.9274758,0.404705 0.3541252,0.387867 0.4215825,0.657664 h 0.067451 q 0.067451,-0.269804 0.421576,-0.657664 0.370989,-0.404705 0.927476,-0.404705 0.590213,0 0.944339,0.370963 0.370989,0.354125 0.370989,1.011796 0,0.758843 -1.214149,2.242801 -1.129835,1.349057 -1.4839616,2.074171 z"/>
    <path style="fill:#ff0000" d="m 17.099282,21.753513 q -0.522762,0 -0.522762,-0.539607 0,-0.55651 0.421582,-0.860023 0.236088,-0.185482 0.387854,-0.404705 0.168631,-0.219224 0.26981,-0.472189 0.10118,0.252965 0.26981,0.455285 0.185495,0.202386 0.387854,0.421609 0.404718,0.404705 0.404718,0.860023 0,0.539607 -0.505897,0.539607 -0.286675,0 -0.556485,-0.404705 -0.236087,0.404705 -0.556484,0.404705 z"/>
    <path style="fill:#ff0000" d="m 17.385956,25.109283 -0.910612,-2.411432 h 0.522762 l 0.202359,0.55651 h 0.910613 l 0.16863,-0.55651 h 0.556484 l -0.910612,2.411432 z"/>
    <path style="fill:#ffffff" d="m 17.655766,24.519096 0.303539,-0.893752 h -0.607077 z"/>
</svg>