<svg xmlns="http://www.w3.org/2000/svg" width="74.952217" height="100" viewBox="0 0 19.831107 26.458333">
    <path d="m 1.1804252,26.458329 q -0.72511727,0 -0.96120178,-0.219223 Q 0,26.003044 0,25.277904 V 1.1804062 Q 0,0.4552851 0.21922342,0.23606166 0.4553112,0 1.1804252,0 H 18.650691 Q 19.375808,0 19.595029,0.23606166 19.83111,0.4552851 19.83111,1.1804062 V 25.277904 q 0,0.725114 -0.236081,0.961202 -0.219223,0.219223 -0.944338,0.219223 z"/>
    <path style="fill:#ffffff" d="M 1.3827842,25.969302 H 18.448333 q 0.590212,0 0.741981,-0.151805 0.151765,-0.15174 0.151765,-0.741978 V 1.3827327 q 0,-0.62392857 -0.151765,-0.75884332 Q 19.038541,0.48898767 18.448333,0.48898767 H 1.3827842 q -0.60707721,0 -0.75884391,0.13490171 Q 0.48903205,0.75879108 0.48903205,1.3827327 V 25.075519 q 0,0.590186 0.13490824,0.741978 0.15176604,0.151805 0.75884391,0.151805 z"/>
    <path style="fill:#ff0000" d="m 2.0404486,3.8447964 q -0.5396198,0 -0.8600228,-0.3541251 -0.30353862,-0.3709634 -0.30353862,-0.893745 0,-0.5565103 0.30353862,-0.9106158 0.320403,-0.3709635 0.8600228,-0.3709635 0.910612,0 1.0455176,0.8600229 H 2.5632068 Q 2.529465,1.7706648 2.0404447,1.7706648 q -0.6576644,0 -0.6576644,0.8263007 0,0.7925655 0.6576644,0.7925655 0.5227621,0 0.5564842,-0.5227687 H 3.1196845 Q 3.0185049,3.8448291 2.0404401,3.8448291 Z"/>
    <path d="M 3.9459891,22.664113 V 3.8110677 H 15.901991 V 22.664113 Z"/>
    <path style="fill:#ffffff" d="M 15.412959,12.445018 V 4.2832368 h -1.972994 l 0.06745,0.2866416 q 0.320403,0.2023852 0.320403,0.5396068 0,0.3878669 -0.269811,0.8094364 -0.252945,0.404705 -0.809432,0.404705 -0.489034,0 -0.489034,-0.3878668 0,-0.2698034 0.219224,-0.3035452 0.202359,-0.067483 0.202359,-0.2023852 L 12.343858,5.2949277 12.124634,5.4635712 v 0.2360617 l 0.06745,0.3203834 0.151765,0.2023851 0.06745,0.2023852 -0.03374,0.4215434 q 0,0.1686434 0.337268,0.4047051 0.354125,0.2529652 0.354125,0.4890269 0,0.3878668 -0.657664,0.3878668 0.370989,0.3035452 0.640799,0.7419789 0.286674,0.4216087 0.320403,0.7082503 h 0.101179 q 0.354125,0 0.455305,0.2023852 l 0.826297,2.0067198 q 0.101179,0.202386 0.657664,0.657664 z"/>
    <path style="fill:#ffffff" d="M 4.4350211,11.23087 Q 4.502472,10.876745 5.2613171,10.117902 5.9864344,9.3927807 6.3236984,8.8868895 6.6103727,8.4316045 7.9088385,8.1617685 7.7402081,8.043705 7.7402081,7.8413851 L 8.0268824,7.5040981 Q 8.954356,6.5597667 8.954356,6.053869 8.6676818,5.6997438 8.2966917,5.5985838 8.8531759,5.2950387 9.0218089,4.738561 l 0.3372608,0.033938 q 0.7757073,0 1.7369083,-0.4890269 H 4.4350211 Z"/>
    <path style="fill:#ffffff" d="m 12.7823,6.053869 q 0.286674,0 0.489034,-0.3035452 0.202359,-0.3203833 0.202359,-0.6070903 0,-0.1686435 -0.303539,-0.3709634 0,-0.3878668 -0.26981,-0.4216086 -0.252946,-0.033938 -0.6408,-0.033938 -0.404718,0 -0.607077,0.1686435 0.202359,0.1517399 0.421582,0.2866415 0.236082,0.1349018 0.505898,0.2023852 0.489034,0.1686435 0.489034,0.4552852 0,0.2023851 -0.252946,0.3035451 -0.236088,0.1686434 -0.236088,0.2023852 0,0.1180635 0.202359,0.1180635 z"/>
    <path style="fill:#ff0000" d="M 2.1753536,6.9813492 Q 2.0741741,6.7452875 1.9392659,6.5091605 1.8043576,6.2561954 1.5682764,6.087552 1.1129716,5.7334268 1.1129716,5.2612578 q 0,-0.5565103 0.5227621,-0.5565103 0.2360878,0 0.5396199,0.4047051 0.2866743,-0.4047051 0.5564842,-0.4047051 0.522762,0 0.522762,0.5565103 0,0.4047051 -0.4215825,0.8262942 Q 2.394577,6.5259988 2.1753529,6.9813034 Z"/>
    <path style="fill:#ff0000" d="M 6.087614,7.9425516 5.6997601,7.3523647 Q 5.3624993,6.8464344 5.1095472,6.5766571 4.873466,6.2900154 4.8060086,6.1550484 4.7048291,5.8684069 4.7048291,5.6997634 q 0,-0.7251146 0.6576644,-0.7251146 0.5227621,0 0.7251172,0.5565104 0.2023591,-0.5565104 0.7251166,-0.5565104 0.6576644,0 0.6576644,0.7251146 0,0.4216086 -0.6239351,1.214148 -0.5902129,0.6913925 -0.7588433,1.0286597 z"/>
    <path style="fill:#ffffff" d="m 10.859897,7.9425516 q 0.337267,0 0.472168,-0.4047052 l -0.404717,0.033937 -0.387854,-0.067483 -0.03374,-0.067418 0.03374,-0.1180635 0.489032,0.033938 0.404719,-0.067418 0.219223,-0.8263008 h -0.03374 q -0.151766,0 -0.151766,-0.1349017 v -0.033938 l -0.03374,0.1011599 v 0.067484 l -0.03374,0.033938 q -0.101179,0 -0.101179,-0.2023853 0,-0.2023851 0.354124,-0.2023851 h 0.06745 L 11.753617,5.93627 11.500672,5.902332 11.197133,5.93627 q 0,0.6576637 0.134908,1.1804193 l -0.370989,0.067483 -0.286675,-0.033938 0.06745,-0.2023852 0.151772,0.033937 H 11.06223 L 10.994778,6.4252762 V 5.8013475 l 0.404719,-0.1011599 0.354125,0.033938 0.03374,-0.2698033 q -0.52276,-0.168644 -0.758842,-0.168644 -0.556485,0 -1.2478763,0.3709634 v 0.2023851 l 0.067451,0.9780668 -0.033742,0.6576637 Q 10.202207,7.9432042 10.85987,7.9432042 Z"/>
    <path style="fill:#000000" d="M 9.9492846,6.1213263 9.8143763,5.9864246 Q 10.134779,5.7672012 10.37086,5.7672012 l 0.303539,0.033938 -0.06745,0.2192233 -0.236089,-0.033937 q -0.202359,0 -0.4215754,0.1349008 z"/>
    <path style="fill:#ffffff" d="m 8.8194505,8.0774533 q 0.5396199,0 0.6070772,-0.3878669 0.084315,-0.4047051 0.084315,-0.8431585 L 9.4433921,5.9020899 9.291626,6.0201534 Q 9.1904465,6.9813557 8.0943391,7.8751007 8.2966982,8.0774859 8.8194564,8.0774859 Z"/>
    <path style="fill:#000000" d="m 10.134779,6.5597667 q -0.1854944,0 -0.1854944,-0.10116 L 9.9155428,6.323705 q 0.1686312,-0.1686435 0.4890342,-0.1686435 0.33726,0 0.33726,0.2023852 0,0.2023852 -0.101179,0.2023852 l -0.03374,-0.033937 v -0.067418 l -0.03374,-0.10116 v 0.033938 q 0,0.1349018 -0.134908,0.1349018 -0.134908,0 -0.134908,-0.1349018 l 0.03374,-0.067418 -0.06745,0.067418 q 0,0.1686435 -0.134908,0.1686435 z"/>
    <path style="fill:#ffffff" d="m 12.259541,7.841372 q 0.387854,0 0.387854,-0.1686435 L 12.579944,7.4704087 Q 12.343856,7.2511852 12.158361,7.1500252 12.057182,7.0488653 12.057182,6.8802218 V 6.391195 l -0.03374,-0.067418 q -0.101179,0.7588433 -0.404718,1.3490497 0.26981,0.1686434 0.640799,0.1686434 z"/>
    <path style="fill:#ffffff" d="m 10.741854,7.7738885 -0.06745,-0.067418 0.06745,-0.033938 h 0.320403 l 0.06745,0.033938 -0.06745,0.067418 z"/>
    <path style="fill:#ffffff" d="m 10.472044,8.8025483 q 0.590213,0 1.315329,-0.7251212 L 11.46697,7.9425254 q -0.236082,0.3541252 -0.607077,0.3541252 -0.590214,0 -1.0792447,-0.3878669 -0.1011796,0.4552851 -0.8600229,0.4552851 0.8262968,0.4384468 1.5514136,0.4384468 z"/>
    <path style="fill:#ffffff" d="m 11.332066,12.259497 q 0.134909,0 0.252947,-0.202385 0,-0.961196 0.219223,-1.770632 0.219223,-0.8262941 0.84316,-1.5851374 L 12.377585,8.3640557 12.023461,8.920566 q -0.758843,0.9949311 -0.89375,3.170282 0.06745,0.168643 0.202359,0.168643 z"/>
    <path style="fill:#ffffff" d="m 8.92063,12.158337 q 0.1349082,0 0.202359,-0.168643 L 9.0218096,11.06222 Q 8.9880678,10.539452 8.6845488,9.8986588 8.3978745,9.2578921 7.8076629,8.4315587 L 7.4029447,8.5664605 Q 8.499052,9.881788 8.600231,11.163394 l 0.067451,0.826294 q 0,0.168643 0.2529456,0.168643 z"/>
    <path style="fill:#ffffff" d="m 9.9155584,12.29324 h 0.3541246 q 0.657665,-2.5800693 1.31533,-3.6255869 -0.455306,0.3878668 -1.214151,0.3878668 -0.69139,0 -1.2816016,-0.354125 0.5227621,1.2815987 0.8262961,3.5918581 z"/>
    <path style="fill:#ffffff" d="m 13.406239,10.370834 q 0.202359,0 0.202359,-0.219223 0,-0.2023852 -0.202359,-0.2023852 -0.202359,0 -0.202359,0.2023852 0,0.219223 0.202359,0.219223 z"/>
    <path style="fill:#ffffff" d="m 13.068972,10.876765 q 0.202359,0 0.202359,-0.202386 0,-0.202385 -0.202359,-0.202385 -0.219224,0 -0.219224,0.202385 0,0.202386 0.219224,0.202386 z"/>
    <path style="fill:#ffffff" d="m 12.714846,11.365792 q 0.202359,0 0.202359,-0.202385 0,-0.219224 -0.202359,-0.219224 -0.202358,0 -0.202358,0.219224 0,0.202385 0.202358,0.202385 z"/>
    <path style="fill:#ffffff" d="m 7.6727534,13.17014 q 0.3878538,-0.657664 0.691391,-0.775709 l 0.033742,-0.573348 Q 8.1955271,11.635601 8.1955271,11.399475 7.6053142,11.854759 7.2174624,11.854759 l 0.1180439,0.168644 0.067451,0.269804 -0.067451,0.252965 q 0.2360877,0.10116 0.3372608,0.623928 z"/>
    <path style="fill:#ffffff" d="m 12.377583,11.821083 q 0.20236,0 0.20236,-0.219223 0,-0.202385 -0.20236,-0.202385 -0.219223,0 -0.219223,0.202385 0,0.219223 0.219223,0.219223 z"/>
    <path style="fill:#ffffff" d="m 12.057181,12.36069 q 0.202359,0 0.202359,-0.202385 0,-0.202386 -0.202359,-0.202386 -0.20236,0 -0.20236,0.202386 0,0.202385 0.20236,0.202385 z"/>
    <path style="fill:#ffffff" d="m 11.719913,12.950877 q 0.20236,0 0.20236,-0.202385 0,-0.202386 -0.20236,-0.202386 -0.219223,0 -0.219223,0.202386 0,0.202385 0.219223,0.202385 z"/>
    <path style="fill:#ffffff" d="m 11.652462,15.058777 q 0.691391,-0.438447 0.961203,-0.438447 l -0.10118,-0.185482 -0.03374,-0.269804 0.03374,-0.236061 q -0.252946,-0.118064 -0.354126,-0.623929 -0.303538,0.657664 -0.69139,0.758843 l -0.03374,0.590187 q 0.219224,0.134902 0.219224,0.404706 z"/>
    <path style="fill:#ffffff" d="m 8.128056,13.928943 q 0.2023591,0 0.2023591,-0.219223 0,-0.202385 -0.2023591,-0.202385 -0.2192234,0 -0.2192234,0.202385 0,0.219223 0.2192234,0.219223 z"/>
    <path style="fill:#ffffff" d="M 4.4350211,22.175079 H 6.3911513 L 6.3236984,21.90527 q -0.3035386,-0.219223 -0.3035386,-0.556511 0,-0.387866 0.2529456,-0.792572 0.26981,-0.421608 0.8094331,-0.421608 0.4890333,0 0.4890333,0.387867 0,0.202384 -0.2023591,0.303544 -0.2192233,0.03394 -0.2192233,0.202385 l 0.3541251,0.151741 0.202359,-0.185482 V 20.72483 L 7.6390227,20.455027 7.5041145,20.235804 7.4366637,20.033419 7.4704054,19.61181 q 0,-0.202385 -0.3541252,-0.404705 -0.3372673,-0.236062 -0.3372673,-0.489027 0,-0.370963 0.6576644,-0.370963 Q 7.0488235,18.026731 6.7621499,17.588265 6.49234,17.132979 6.4586113,16.896879 H 6.3574317 q -0.3372608,0 -0.4384403,-0.219224 L 5.4636867,15.649002 5.0926972,14.6878 Q 4.9746533,14.468576 4.4350328,14.030136 Z"/>
    <path style="fill:#ffffff" d="m 7.7739329,14.502331 q 0.2192234,0 0.2192234,-0.202384 0,-0.202386 -0.2192234,-0.202386 -0.2023591,0 -0.2023591,0.202386 0,0.202384 0.2023591,0.202384 z"/>
    <path style="fill:#ffffff" d="m 8.2629663,17.79065 q 0.4553046,-0.387867 1.2141499,-0.387867 0.6913908,0 1.2647388,0.354125 -0.43844,-1.146697 -0.8262959,-3.591864 H 9.5782918 Q 9.2241667,15.446649 8.9037644,16.357259 8.6002257,17.267875 8.262965,17.790631 Z"/>
    <path style="fill:#ffffff" d="m 7.4703962,18.094195 q 0.4721691,-0.758843 0.7082542,-1.247876 0.2529456,-0.505865 0.3541251,-1.062382 0.1011796,-0.556511 0.1854948,-1.416508 -0.05058,-0.168642 -0.2192235,-0.168642 -0.1686304,0 -0.2360877,0.202384 0,2.27653 -1.0792436,3.355776 z"/>
    <path style="fill:#ffffff" d="m 12.023458,18.026712 0.421583,-0.134902 q -1.079245,-0.860023 -1.281603,-3.423227 0,-0.168643 -0.236081,-0.168643 -0.219224,0 -0.219224,0.168643 l 0.151766,0.910616 q 0.06745,0.505865 0.354125,1.332191 0.286675,0.80943 0.809433,1.315328 z"/>
    <path style="fill:#ffffff" d="m 7.4703949,15.058816 q 0.2023591,0 0.2023591,-0.202386 0,-0.202385 -0.2023591,-0.202385 -0.202359,0 -0.202359,0.202385 0,0.202386 0.202359,0.202386 z"/>
    <path style="fill:#ffffff" d="m 7.1162698,15.5141 q 0.2192234,0 0.2192234,-0.219223 0,-0.202385 -0.2192234,-0.202385 -0.2023591,0 -0.2023591,0.202385 0,0.219223 0.2023591,0.219223 z"/>
    <path style="fill:#ffffff" d="m 8.7519989,22.17506 h 6.6609601 v -6.947634 q 0,0.252966 -0.202359,0.421609 l -1.079244,1.146697 q -0.404718,0.539607 -0.674527,0.843158 -0.252946,0.286642 -0.590213,0.404706 -0.320403,0.118063 -0.944339,0.269803 0.168631,0.10116 0.168631,0.303545 l -0.26981,0.354125 q -0.927476,0.927474 -0.927476,1.450236 0.303539,0.303545 0.6408,0.438447 -0.505897,0.387866 -0.725118,0.860023 l -0.33726,-0.03394 q -0.758844,0 -1.7200457,0.489027 z"/>
    <path style="fill:#ffffff" d="m 6.7790044,15.986289 q 0.2023591,0 0.2023591,-0.202385 0,-0.202385 -0.2023591,-0.202385 -0.2023591,0 -0.2023591,0.202385 0,0.202385 0.2023591,0.202385 z"/>
    <path style="fill:#ffffff" d="m 6.4248793,16.509057 q 0.2192234,0 0.2192234,-0.202384 0,-0.202385 -0.2192234,-0.202385 -0.202359,0 -0.202359,0.202385 0,0.202384 0.202359,0.202384 z"/>
    <path style="fill:#ffffff" d="m 10.050465,18.5495 q 0.151767,-0.455286 0.876887,-0.455286 -0.84316,-0.438446 -1.5682777,-0.438446 -0.5733487,0 -1.2984651,0.725114 l 0.3035385,0.134902 q 0.2023592,-0.354125 0.6239352,-0.354125 0.5902129,0 1.0623811,0.387867 z"/>
    <path style="fill:#ffffff" d="m 10.404591,20.55622 0.134908,-0.10116 q 0.101179,-0.97806 1.214149,-1.871812 -0.219224,-0.202385 -0.725118,-0.202385 -0.556484,0 -0.623934,0.387867 -0.06745,0.370963 -0.06745,0.843158 z"/>
    <path style="fill:#ffffff" d="m 8.8194505,21.180149 q 0.5396199,0 1.2310125,-0.387868 v -0.202385 l -0.06745,-0.978066 0.033741,-0.640767 q -0.3372605,-0.455286 -1.0286543,-0.455286 -0.3204029,0 -0.4890333,0.421544 l 0.4215825,-0.05091 0.3709895,0.08432 0.033742,0.10116 -0.033742,0.06748 -0.472169,-0.03394 -0.4215826,0.06742 -0.202359,0.826293 h 0.033742 q 0.1349083,0 0.1349083,0.134903 v 0.03394 l 0.033742,-0.10116 v -0.06742 l 0.033742,-0.03394 q 0.1011794,0 0.1011794,0.202386 0,0.219223 -0.3372607,0.219223 h -0.067451 l -0.033742,0.134901 0.26981,0.03394 0.2698099,-0.03394 q 0,-0.320383 -0.033742,-0.607089 Q 8.5665238,19.611353 8.499086,19.34155 l 0.4215825,-0.06748 0.2360878,0.03394 -0.067451,0.202386 -0.1349083,-0.03394 H 8.7857668 l 0.067451,0.522769 v 0.657664 l -0.3878538,0.10116 -0.3709895,-0.03394 -0.033742,0.269802 q 0.4384404,0.185482 0.7588433,0.185482 z"/>
    <path style="fill:#ff0000" d="m 13.035249,21.483694 q -0.657666,0 -0.657666,-0.725121 0,-0.202386 0.168631,-0.489028 0.16863,-0.303545 0.43844,-0.657663 0.286675,-0.370964 0.489034,-0.640767 0.202359,-0.286642 0.286674,-0.455285 l 0.37099,0.590187 q 0.354124,0.505865 0.590212,0.7757 0.236082,0.252966 0.26981,0.387868 0.134908,0.286707 0.134908,0.489027 0,0.725121 -0.640799,0.725121 -0.522762,0 -0.725117,-0.556511 -0.219224,0.556511 -0.725117,0.556511 z"/>
    <path style="fill:#ffffff" d="M 7.807659,20.134637 Q 7.9088385,19.342065 8.2292415,18.785581 8.0268824,18.616937 7.571577,18.616937 q -0.3878537,0 -0.3878537,0.168644 l 0.1180439,0.219223 0.3372673,0.303546 q 0.1349081,0.10116 0.1349081,0.269804 v 0.489026 z"/>
    <path style="fill:#ffffff" d="m 8.7857243,18.785581 -0.067451,-0.06742 0.067451,-0.03394 H 9.089263 l 0.067451,0.03394 -0.067451,0.06742 z"/>
    <path style="fill:#ff0000" d="m 17.099277,21.753503 q -0.522762,0 -0.522762,-0.539606 0,-0.556511 0.421583,-0.860023 0.236087,-0.185482 0.387854,-0.404705 0.168629,-0.219224 0.269809,-0.472189 0.10118,0.252965 0.26981,0.455285 0.185495,0.202386 0.387855,0.421544 0.404717,0.404705 0.404717,0.860022 0,0.539607 -0.505897,0.539607 -0.286675,0 -0.556485,-0.404705 -0.236081,0.404705 -0.556484,0.404705 z"/>
    <path style="fill:#000000" d="m 9.4433888,20.303267 q -0.3541252,0 -0.3541252,-0.202384 0,-0.202385 0.1011796,-0.202385 l 0.033742,0.03394 v 0.06742 l 0.033742,0.10116 v -0.03394 q 0,-0.134901 0.151766,-0.134901 0.1349083,0 0.1349083,0.134901 l -0.033742,0.06748 0.067451,-0.06748 q 0,-0.168643 0.1349083,-0.168643 l 0.2023591,0.236062 q -0.2360878,0.168644 -0.4721691,0.168644 z"/>
    <path style="fill:#000000" d="m 9.4771306,20.691134 -0.3204031,-0.03394 0.067451,-0.202385 0.2529456,0.03394 q 0.2698099,0 0.4047182,-0.134901 l 0.1349087,0.134901 q -0.3035391,0.202385 -0.5396204,0.202385 z"/>
    <path style="fill:#ffffff" d="m 7.5715901,22.14137 q 0.4215825,0 0.6239351,-0.168643 -0.4553047,-0.354125 -0.8937489,-0.522769 -0.5227621,-0.168643 -0.5227621,-0.421609 0,-0.168643 0.2360878,-0.337286 0.2529455,-0.134902 0.2529455,-0.168643 0,-0.10116 -0.2192233,-0.10116 -0.2360878,0 -0.4721691,0.303544 -0.2192234,0.303545 -0.2192234,0.590187 0,0.168644 0.320403,0.370964 0,0.354125 0.2529456,0.404704 0.2529456,0.05091 0.6407994,0.05091 z"/>
    <path style="fill:#ff0000" d="m 17.790684,25.143015 q -0.89375,0 -1.028655,-0.860023 h 0.505898 q 0.08431,0.421608 0.522762,0.421608 0.657664,0 0.657664,-0.843158 0,-0.792571 -0.657664,-0.792571 -0.489034,0 -0.556485,0.522767 h -0.505898 q 0.10118,-0.961202 1.062382,-0.961202 0.556484,0 0.860022,0.370964 0.320403,0.354124 0.320403,0.860022 0,0.55651 -0.320403,0.927474 -0.303538,0.354125 -0.860022,0.354125 z"/>
</svg>