<svg xmlns="http://www.w3.org/2000/svg" width="74.952217" height="100" viewBox="0 0 19.831107 26.458333">
    <path d="m 1.1804261,26.458329 q -0.7251174,0 -0.96120262,-0.219223 Q 0,26.003044 0,25.277904 V 1.1804 Q 0,0.45527868 0.21922348,0.23606172 0.45531131,0 1.1804261,0 H 18.650694 q 0.725121,0 0.944338,0.23606172 0.236062,0.21922349 0.236062,0.94433828 v 24.097504 q 0,0.72512 -0.236062,0.961202 -0.219223,0.219223 -0.944338,0.219223 z"/>
    <path style="fill:#f9f9f9" d="M 1.3827852,25.969302 H 18.448335 q 0.590186,0 0.741985,-0.151739 0.15174,-0.151741 0.15174,-0.741986 V 1.3827918 q 0,-0.62392874 -0.15174,-0.75884353 Q 19.03858,0.48904653 18.448335,0.48904653 H 1.3827839 q -0.60707738,0 -0.75884346,0.13490174 Q 0.48903217,0.75885001 0.48903217,1.3827918 V 25.075577 q 0,0.590186 0.13490827,0.741986 0.15176608,0.151739 0.75884476,0.151739 z"/>
    <path style="fill:#ff0000" d="m 1.9729983,3.8447909 q -0.7588435,0 -0.7588435,-0.7251148 V 2.9004526 h 0.4553048 v 0.10116 q 0,0.4215434 0.3035387,0.4215434 0.2866743,0 0.2866743,-0.4215434 V 1.4164683 h 0.5058979 v 1.6188664 q 0,0.8094366 -0.7925703,0.8094366 z"/>
    <path d="M 3.9459926,22.664119 V 3.8110621 H 15.901994 V 22.664119 Z"/>
    <path style="fill:#ffffff" d="M 15.412961,9.5276782 V 4.2832247 h -0.961203 q 0.438447,0.657664 0.438447,1.4165074 0,0.6239288 -0.236062,1.0792466 v 0.4721887 q 0.370963,0.1854817 0.370963,0.2866417 0,0.2023853 -0.168643,0.3035452 l 0.134902,0.286707 q 0,0.2023853 -0.202385,0.3035453 0.168643,0.10116 0.168643,0.2698034 0,0.2529652 -0.50593,0.4216087 z"/>
    <path style="fill:#ffffff" d="M 12.748577,8.4652961 Q 12.950962,7.6727304 13.40624,7.5715509 L 13.827849,7.3523274 V 6.7789787 Q 13.574884,6.492337 13.574884,5.6997321 q 0,-0.6576639 0.421609,-1.4165074 h -1.146698 l -0.691393,1.2141548 v 0.3035453 l 0.219224,0.3541252 0.337287,0.7588434 -0.303545,0.2360618 0.03394,0.2023853 -0.06748,0.2192235 0.03394,0.1011599 -0.03394,0.1349017 0.134901,0.3541253 -0.03394,0.1349017 -0.03394,0.067483 z"/>
    <path style="fill:#ffffff" d="m 8.3978746,5.1769765 q 0.6576639,-0.337287 1.7369104,-0.337287 1.231013,0 1.787497,0.337287 L 12.445051,4.2832247 H 7.4366707 Z"/>
    <path style="fill:#ffffff" d="M 4.4350222,9.4602274 Q 5.6323094,8.5327535 7.2174492,8.3303944 V 8.1954926 q 0,-0.2866417 0.1854947,-0.438447 0.2023592,-0.1518051 0.3372674,-0.1518051 v 0.033937 h 0.067451 l 0.1011795,0.033938 0.084315,-0.1349016 -0.084315,-0.3541253 q 0,-0.2360617 0.2866744,-0.5565104 0.2360813,-0.3709635 0.2360813,-0.6408323 0,-0.2866416 -0.10116,-0.3878669 L 6.9476385,4.2832247 H 4.4350222 Z"/>
    <path style="fill:#ffffff" d="m 14.299991,6.7789787 h 0.06748 q 0.219224,-0.4216087 0.219224,-1.0792466 0,-0.691386 -0.286642,-1.129833 z"/>
    <path style="fill:#ffffff" d="m 14.131349,6.7789787 h 0.03394 V 4.5698991 q -0.269804,0.438447 -0.269804,1.129833 0,0.2360618 0.06742,0.5059305 0.06748,0.2529653 0.168644,0.5733487 z"/>
    <path style="fill:#ff0000" d="M 2.1753411,6.9813639 Q 2.0741615,6.7453022 1.9392533,6.5091752 1.804345,6.25621 1.5682637,6.0875665 1.1129589,5.7334413 1.1129589,5.2612721 q 0,-0.5565104 0.5227622,-0.5565104 0.2360878,0 0.53962,0.4047052 0.2866743,-0.4047052 0.5564843,-0.4047052 0.5227623,0 0.5227623,0.5565104 0,0.4047053 -0.4215827,0.8262944 -0.4384404,0.438447 -0.6576646,0.8937517 z"/>
    <path style="fill:#ff0000" d="M 6.0876024,7.9425666 5.7334771,7.3523796 Q 5.4299385,6.8127727 5.1432641,6.5598074 4.8734541,6.2900039 4.8060032,6.1551022 4.7048237,5.8684605 4.7048237,5.699817 q 0,-0.7251148 0.6576645,-0.7251148 0.5227623,0 0.7251175,0.5565105 0.2023591,-0.5565105 0.7251174,-0.5565105 0.6576645,0 0.6576645,0.7251148 0,0.4216088 -0.6239352,1.2141548 -0.590213,0.6913861 -0.7588435,1.0286535 z"/>
    <path style="fill:#ffffff" d="M 7.9425535,8.4653352 8.2966787,8.2966917 8.5327404,8.1280482 q 0.10116,0.2698035 0.2866418,0.2698035 0.1349017,0 0.6576639,-0.5227686 0,0.033937 0.1349017,0.2023851 0.1349018,0.15174 0.3372869,0.15174 0.2866413,0 0.5396063,-0.3541251 0.252966,-0.3709635 0.252966,-0.6239288 0,-0.2360616 -0.236061,-0.2360616 L 10.337102,7.1499943 10.016718,7.0150927 q 0.354125,-0.9949314 0.354125,-1.3827853 l -0.06742,-0.4552852 h -0.168644 q -0.6576707,0 -1.4165142,0.2866417 l 0.10116,0.4721887 q 0,0.2866417 -0.2866417,0.657664 Q 8.2629827,6.9813835 8.2629827,7.1837035 L 8.3304009,7.504087 8.3978843,7.6389886 7.9931792,8.0099521 7.8751353,7.9760146 H 7.7739557 L 7.7402139,7.942077 q -0.1686304,0 -0.1686304,0.2529653 0,0.2698034 0.3709895,0.2698034 z"/>
    <path style="fill:#ffffff" d="m 10.893615,8.4992728 q 0.10116,0 0.404706,-0.067483 0.320383,-0.067418 0.590187,-0.15174 0.269803,-0.084322 0.269803,-0.1180635 0,-0.3878669 -0.168643,-0.4552852 v -0.168644 l 0.10116,-0.2192235 -0.657665,0.3203835 -0.06742,-0.067418 q 0.252968,-0.421609 0.691388,-0.4552855 L 12.023194,7.0153537 12.090612,6.9478702 12.309836,6.7792267 11.820808,5.936068 V 5.4638793 Q 11.584747,5.3964611 11.298041,5.3289776 11.028237,5.2614941 10.674112,5.2109141 l 0.03394,0.4215434 -0.202385,1.0286535 q 0.590186,0.084322 0.590186,0.5901869 0,0.489027 -0.522769,1.0117957 0.202386,0.2360617 0.320384,0.2360617 z"/>
    <path style="fill:#000000" d="m 11.753638,6.5937319 q -0.387866,0 -1.011795,-0.3372869 l 0.320383,-0.2360618 q 0.438447,-0.2866417 0.725115,-0.2866417 l -0.03394,0.2529652 h -0.10116 l 0.03394,0.1686435 -0.06748,0.2360618 h 0.134902 z"/>
    <path style="fill:#ffffff" d="M 11.399513,6.2901867 V 6.054125 l -0.236061,0.1349017 z"/>
    <path style="fill:#ffffff" d="M 14.097627,7.2513893 14.36743,7.2174518 V 7.0488083 h -0.269803 z"/>
    <path style="fill:#ffffff" d="m 14.063689,7.9090532 q 0.168643,0 0.269803,-0.1686435 l 0.151741,0.033938 q 0.269803,0 0.269803,-0.2360617 L 14.367169,7.470803 q -0.168644,0 -0.354126,0.084322 -0.185482,0.084322 -0.438446,0.2529653 z"/>
    <path style="fill:#ffffff" d="m 13.962529,8.9208489 0.03394,-0.1180635 h 0.489026 q 0.202385,0 0.202385,-0.10116 0,-0.1686435 -0.168642,-0.1686435 l -0.252966,0.033938 -0.370963,-0.033938 -0.03394,-0.1686434 q -0.219223,-0.4216088 -0.320383,-0.5227688 -0.337288,0 -0.505931,0.7251148 z"/>
    <path style="fill:#ffffff" d="m 14.164914,8.2969202 q 0.556511,0 0.556511,-0.1686435 l -0.10116,-0.1854817 -0.06748,0.033937 -0.10116,-0.033937 -0.286642,0.1349017 -0.06742,0.15174 z"/>
    <path style="fill:#ffffff" d="m 9.7804836,9.393031 q 1.4839644,0 2.3102594,-0.7251212 l -0.10116,-0.067483 q -0.623929,0.2529652 -1.214149,0.2529652 -0.168643,0 -0.50593,-0.3541252 L 9.9491205,8.5666845 9.6118336,8.4992663 9.4769319,8.4317828 Q 9.1565484,8.735328 8.8192679,8.735328 L 8.5663027,8.7013905 8.431401,8.6674529 q -0.2698101,0.1349018 -0.4890335,0.1349018 -0.2023592,0 -0.4721691,-0.1686435 L 7.2172527,8.6676487 Q 8.6674888,9.39277 9.7804575,9.39277 Z"/>
    <path style="fill:#ffffff" d="M 4.4348525,10.084417 H 5.2611494 L 6.8800159,8.8534045 6.7788364,8.7690827 Q 5.1599698,9.2918515 4.4348525,9.9157802 Z"/>
    <path style="fill:#ffffff" d="m 14.485318,10.084417 h 0.927473 V 9.9157736 Q 14.957506,9.6797119 14.249229,9.4099085 13.540979,9.1232667 12.546047,8.8028181 Z"/>
    <path style="fill:#ffffff" d="m 12.815858,10.084417 h 1.349056 L 12.377418,8.920862 12.090776,9.1569236 Z"/>
    <path style="fill:#ffffff" d="M 5.5984129,10.084417 H 6.7113842 L 7.436501,9.1906719 7.048647,8.9882866 Z"/>
    <path style="fill:#ffffff" d="M 6.9474688,10.084417 H 7.7737651 L 8.1278904,9.4604885 7.6051281,9.2581032 Z"/>
    <path style="fill:#ffffff" d="m 11.753482,10.084417 h 0.826294 L 11.922112,9.2581228 11.433086,9.4941845 Z"/>
    <path style="fill:#ffffff" d="M 8.0267134,10.084417 H 8.7518301 L 8.8529901,9.6797119 8.3302214,9.5279067 Z"/>
    <path style="fill:#ffffff" d="m 10.809137,10.084417 h 0.691392 L 11.230727,9.578552 10.674215,9.6797119 Z"/>
    <path style="fill:#ffffff" d="M 8.9541892,10.084417 H 9.6793041 V 9.7471301 H 9.3589205 L 9.0553753,9.7131926 Z"/>
    <path style="fill:#ffffff" d="M 9.8816632,10.084417 H 10.606785 L 10.505625,9.7134536 9.8816957,9.7473912 Z"/>
    <path style="fill:#ffffff" d="m 4.7383899,10.87699 h 0.1686305 l 0.2192234,-0.202386 0.2023591,-0.10116 q 0.1686304,0 0.1686304,0.168643 0,0.134903 -0.1011795,0.134903 h 0.1686304 l 0.2023592,-0.202386 0.2192235,-0.10116 q 0.1686304,0 0.1686304,0.168643 0,0.134903 -0.1011796,0.134903 h 0.1686304 l 0.2023591,-0.202386 0.2192235,-0.10116 q 0.1686305,0 0.1686305,0.168643 0,0.134903 -0.1011795,0.134903 h 0.1686304 l 0.2023591,-0.202386 0.2192234,-0.10116 q 0.1686305,0 0.1686305,0.168643 0,0.134903 -0.1011795,0.134903 H 7.537676 l 0.2023591,-0.202386 0.2023591,-0.10116 q 0.1854948,0 0.1854948,0.168643 0,0.134903 -0.1011796,0.134903 h 0.1686305 l 0.2023591,-0.202386 0.2023852,-0.10116 q 0.1854818,0 0.1854818,0.168643 0,0.134903 -0.1180635,0.134903 h 0.1854817 l 0.2023853,-0.202386 0.2023852,-0.10116 q 0.1854817,0 0.1854817,0.168643 0,0.134903 -0.1180635,0.134903 h 0.1854818 l 0.2023852,-0.202386 0.2023853,-0.10116 q 0.1686438,0 0.1686438,0.168643 0,0.134903 -0.1011604,0.134903 h 0.1854824 l 0.202384,-0.202386 0.202386,-0.10116 q 0.168643,0 0.168643,0.168643 0,0.134903 -0.10116,0.134903 h 0.168643 l 0.219225,-0.202386 0.202384,-0.10116 q 0.168644,0 0.168644,0.168643 0,0.134903 -0.10116,0.134903 h 0.168644 l 0.219223,-0.202386 0.202386,-0.10116 q 0.168643,0 0.168643,0.168643 0,0.134903 -0.10116,0.134903 h 0.168644 l 0.219223,-0.202386 0.202385,-0.10116 q 0.168643,0 0.168643,0.168643 0,0.134903 -0.10116,0.134903 h 0.168644 l 0.202385,-0.202386 0.219224,-0.10116 q 0.168643,0 0.168643,0.168643 0,0.134903 -0.10116,0.134903 h 0.168644 l 0.202385,-0.202386 0.219223,-0.10116 q 0.168643,0 0.168643,0.168643 0,0.134903 -0.10116,0.134903 h 0.168644 l 0.202386,-0.202386 0.219223,-0.10116 q 0.168644,0 0.168644,0.168643 0,0.134903 -0.10116,0.134903 h 0.168643 l 0.202385,-0.202386 0.219224,-0.10116 q 0.168644,0 0.168644,0.168643 0,0.134903 -0.10116,0.134903 h 0.168642 V 10.438543 H 4.4350222 v 0.269803 l 0.2360813,-0.134902 q 0.1686305,0 0.1686305,0.168643 0,0.134903 -0.1011796,0.134903 z"/>
    <path style="fill:#ffffff" d="M 4.4348512,11.4335 H 15.412791 v -0.489027 h -0.168643 l 0.10116,0.15174 q 0,0.168643 -0.168644,0.168643 L 14.95744,11.129954 14.755055,10.944473 h -0.168643 l 0.10116,0.15174 q 0,0.168643 -0.168644,0.168643 L 14.299705,11.129954 14.09732,10.944473 h -0.168644 l 0.10116,0.15174 q 0,0.168643 -0.168643,0.168643 L 13.641969,11.129954 13.439584,10.944473 H 13.27094 l 0.10116,0.15174 q 0,0.168643 -0.168643,0.168643 l -0.219223,-0.134902 -0.202386,-0.185481 h -0.168644 l 0.10116,0.15174 q 0,0.168643 -0.168642,0.168643 l -0.202386,-0.134902 -0.219223,-0.185481 h -0.168644 l 0.10116,0.15174 q 0,0.168643 -0.168643,0.168643 l -0.202385,-0.134902 -0.219224,-0.185481 h -0.168644 l 0.10116,0.15174 q 0,0.168643 -0.168644,0.168643 l -0.202384,-0.134902 -0.219224,-0.185481 h -0.168643 l 0.10116,0.15174 q 0,0.168643 -0.168644,0.168643 L 10.370128,11.129954 10.167744,10.944473 H 9.9822618 l 0.1011602,0.15174 q 0,0.168643 -0.1686437,0.168643 L 9.7123932,11.129954 9.5100079,10.944473 H 9.3245261 l 0.1180636,0.15174 q 0,0.168643 -0.1854818,0.168643 L 9.0547226,11.129954 8.8523375,10.944473 H 8.6668557 l 0.1180635,0.15174 q 0,0.168643 -0.1854817,0.168643 L 8.3970522,11.129954 8.1946931,10.944473 H 8.0260627 l 0.1011796,0.15174 q 0,0.168643 -0.1854948,0.168643 L 7.7393883,11.129954 7.5370292,10.944473 H 7.3683988 l 0.1011795,0.15174 q 0,0.168643 -0.1686304,0.168643 L 7.0817245,11.129954 6.8793652,10.944473 H 6.7107348 l 0.1011796,0.15174 q 0,0.168643 -0.1686304,0.168643 L 6.4240605,11.129954 6.2217014,10.944473 H 6.0530709 l 0.1011796,0.15174 q 0,0.168643 -0.1686304,0.168643 L 5.7663966,11.129954 5.5640375,10.944473 H 5.3954071 l 0.1011795,0.15174 q 0,0.168643 -0.1686305,0.168643 L 5.125597,11.129954 4.9063735,10.944473 H 4.7377431 l 0.1011796,0.15174 q 0,0.168643 -0.1686305,0.168643 L 4.434211,11.129954 Z"/>
    <path style="fill:#ffffff" d="m 7.3015946,12.546475 q 0.3035388,-0.556511 0.961202,-0.758844 H 6.2899739 q 0.6576646,0.134903 1.0117918,0.758844 z"/>
    <path style="fill:#ffffff" d="M 9.9153918,12.546475 Q 10.168358,11.989964 10.893458,11.787631 H 8.9204606 q 0.6913925,0.168644 0.9949312,0.758844 z"/>
    <path style="fill:#ffffff" d="M 4.4348512,14.688097 H 5.6321383 Q 5.193698,14.502615 4.8395681,14.131587 4.5023073,13.74372 4.5023073,13.237835 q 0,-0.522769 0.320403,-0.91061 0.3372608,-0.404704 0.7757065,-0.539607 H 4.4350222 Z"/>
    <path style="fill:#ffffff" d="m 12.546047,12.546475 q 0.236062,-0.556511 0.961203,-0.758844 h -1.972991 q 0.657664,0.168644 1.011788,0.758844 z"/>
    <path style="fill:#ffffff" d="m 14.232371,14.688097 h 1.18042 v -2.900466 h -1.214148 q 0.489026,0.134903 0.809429,0.539607 0.337288,0.387867 0.337288,0.91061 0,0.505931 -0.320383,0.893752 -0.303546,0.370963 -0.792566,0.55651 z"/>
    <path style="fill:#ffffff" d="m 11.23072,14.367714 q 0.489026,0 0.809436,-0.337287 0.337287,-0.354126 0.337287,-0.792573 0,-0.522768 -0.337287,-0.826294 -0.320384,-0.320383 -0.809436,-0.320383 -0.489027,0 -0.826295,0.337286 -0.320383,0.320384 -0.320383,0.809431 0,0.50593 0.354125,0.826301 0.370964,0.303545 0.792573,0.303545 z"/>
    <path style="fill:#ffffff" d="m 8.600064,14.367714 q 0.489027,0 0.80943,-0.337287 0.337287,-0.354126 0.337287,-0.792573 0,-0.522768 -0.3709635,-0.826294 -0.3541251,-0.320383 -0.7757078,-0.320383 -0.438447,0 -0.7925734,0.337286 -0.3372674,0.320384 -0.3372674,0.809431 0,0.50593 0.3372674,0.826301 0.3541251,0.303545 0.7925734,0.303545 z"/>
    <path style="fill:#ffffff" d="m 5.9862656,14.367714 q 0.4384403,0 0.7757064,-0.303545 0.3541253,-0.320384 0.3541253,-0.826301 0,-0.522769 -0.3709896,-0.826295 -0.3541252,-0.320383 -0.7588434,-0.320383 -0.4890336,0 -0.826297,0.337286 -0.3204031,0.320384 -0.3204031,0.809431 0,0.438447 0.3204031,0.792571 0.3372673,0.337288 0.826297,0.337288 z"/>
    <path style="fill:#ffffff" d="m 13.861376,14.367714 q 0.472188,0 0.792571,-0.337287 0.337287,-0.354126 0.337287,-0.792573 0,-0.489027 -0.337287,-0.80943 -0.320383,-0.337287 -0.792571,-0.337287 -0.455286,0 -0.809431,0.320384 -0.337286,0.303545 -0.337286,0.826294 0,0.505931 0.354124,0.826301 0.370964,0.303546 0.792567,0.303546 z"/>
    <path style="fill:#ffffff" d="M 8.9541892,14.688097 H 10.927181 Q 10.269518,14.502615 9.9153918,13.929254 9.6455883,14.502602 8.9541892,14.688097 Z"/>
    <path style="fill:#ffffff" d="M 6.323529,14.688097 H 8.2965254 Q 7.6388581,14.536357 7.3015946,13.929254 7.0149203,14.502602 6.323529,14.688097 Z"/>
    <path style="fill:#ffffff" d="m 11.584845,14.688097 h 1.956134 q -0.691393,-0.185482 -0.994932,-0.758843 -0.286642,0.573348 -0.961202,0.758843 z"/>
    <path style="fill:#ffffff" d="M 4.4348512,15.514398 H 4.6034816 L 4.502302,15.379496 q 0,-0.185481 0.1686305,-0.185481 l 0.2360879,0.10116 0.1854947,0.219223 H 5.2611455 L 5.159966,15.379496 q 0,-0.185481 0.1686305,-0.185481 l 0.2360877,0.10116 0.1686305,0.219223 H 5.9188094 L 5.8176299,15.379496 q 0,-0.185481 0.1686304,-0.185481 l 0.2360878,0.10116 0.1686305,0.219223 H 6.5764734 L 6.4584295,15.379496 q 0,-0.185481 0.1854947,-0.185481 l 0.2360879,0.10116 0.1686304,0.219223 H 7.217273 L 7.1160934,15.379496 q 0,-0.185481 0.1854948,-0.185481 l 0.2360878,0.10116 0.1686304,0.219223 H 7.8749369 L 7.7737573,15.379496 q 0,-0.185481 0.1686304,-0.185481 l 0.2529456,0.10116 0.1686305,0.219223 h 0.1686435 l -0.10116,-0.134902 q 0,-0.185481 0.1686435,-0.185481 l 0.2529652,0.10116 0.1686435,0.219223 H 9.190343 l -0.10116,-0.134902 q 0,-0.185481 0.1686435,-0.185481 l 0.2529652,0.10116 0.1686435,0.219223 h 0.1686435 l -0.10116,-0.134902 q 0,-0.185481 0.1686434,-0.185481 l 0.2529649,0.10116 0.168644,0.219223 h 0.168643 l -0.10116,-0.134902 q 0,-0.185481 0.168644,-0.185481 l 0.236061,0.10116 0.185482,0.219223 h 0.168644 l -0.10116,-0.134902 q 0,-0.185481 0.168643,-0.185481 l 0.236062,0.10116 0.185481,0.219223 h 0.168644 l -0.10116,-0.134902 q 0,-0.185481 0.168644,-0.185481 l 0.236062,0.10116 0.185482,0.219223 h 0.168643 l -0.10116,-0.134902 q 0,-0.185481 0.168643,-0.185481 l 0.236062,0.10116 0.168644,0.219223 h 0.185481 l -0.10116,-0.134902 q 0,-0.185481 0.168644,-0.185481 l 0.236061,0.10116 0.168644,0.219223 h 0.185482 l -0.118064,-0.134902 q 0,-0.185481 0.185482,-0.185481 l 0.236062,0.10116 0.168643,0.219223 h 0.185482 l -0.118064,-0.134902 q 0,-0.185481 0.185482,-0.185481 l 0.236062,0.10116 0.168643,0.219223 h 0.168644 l -0.10116,-0.134902 q 0,-0.185481 0.185482,-0.185481 l 0.236061,0.15174 V 15.025371 H 4.4350222 Z"/>
    <path style="fill:#ffffff" d="M 4.4348512,16.037167 H 15.412791 v -0.286642 l -0.236062,0.134902 q -0.185482,0 -0.185482,-0.168644 l 0.06742,-0.134902 h -0.134902 l -0.168644,0.168644 -0.236061,0.134902 q -0.185482,0 -0.185482,-0.168644 l 0.06742,-0.134902 h -0.134903 l -0.168643,0.168644 -0.236061,0.134902 q -0.185482,0 -0.185482,-0.168644 l 0.08432,-0.134902 h -0.151741 l -0.168643,0.168644 -0.236062,0.134902 q -0.168643,0 -0.168643,-0.168644 l 0.06748,-0.134902 h -0.15174 l -0.168643,0.168644 -0.236062,0.134902 q -0.168644,0 -0.168644,-0.168644 l 0.06748,-0.134902 H 12.31011 l -0.185482,0.168644 -0.236062,0.134902 q -0.168644,0 -0.168644,-0.168644 l 0.06742,-0.134902 h -0.134903 l -0.185481,0.168644 -0.236062,0.134902 q -0.168643,0 -0.168643,-0.168644 l 0.06742,-0.134902 H 10.99477 l -0.185482,0.168644 -0.236061,0.134902 q -0.168643,0 -0.168643,-0.168644 l 0.06742,-0.134902 h -0.134901 l -0.168644,0.168644 -0.2529648,0.134902 q -0.1686434,0 -0.1686434,-0.168644 l 0.067418,-0.134902 H 9.6793693 l -0.1686435,0.168644 -0.2529653,0.134902 q -0.1686435,0 -0.1686435,-0.168644 L 9.1566,15.581881 H 9.0216988 l -0.1686434,0.168644 -0.2529653,0.134902 q -0.1686435,0 -0.1686435,-0.168644 l 0.067484,-0.134902 H 8.3640284 l -0.1686305,0.168644 -0.2529456,0.134902 q -0.1686304,0 -0.1686304,-0.168644 l 0.067451,-0.134902 H 7.706482 l -0.1686305,0.168644 -0.2360878,0.134902 q -0.1854948,0 -0.1854948,-0.168644 l 0.067451,-0.134902 H 7.0488115 l -0.1686304,0.168644 -0.2360878,0.134902 q -0.1854948,0 -0.1854948,-0.168644 l 0.084315,-0.134902 H 6.3911475 L 6.222517,15.750525 5.9864291,15.885427 q -0.1686304,0 -0.1686304,-0.168644 l 0.067451,-0.134902 h -0.151766 l -0.1686305,0.168644 -0.2360878,0.134902 q -0.1686304,0 -0.1686304,-0.168644 L 5.227586,15.581881 H 5.0926776 L 4.9071828,15.750525 4.671095,15.885427 q -0.1686304,0 -0.1686304,-0.168644 l 0.067451,-0.134902 H 4.4350071 Z"/>
    <path style="fill:#ffffff" d="m 12.782135,17.487403 1.450236,-1.112969 h -1.09611 l -0.725115,0.893745 z"/>
    <path style="fill:#ffffff" d="m 9.3251788,16.762281 0.6239287,-0.05091 V 16.374088 H 9.2239927 Z"/>
    <path style="fill:#ffffff" d="M 8.600064,16.897184 9.1565745,16.796024 9.0216728,16.374415 H 8.3302801 Z"/>
    <path style="fill:#ffffff" d="M 7.9086695,17.200729 8.3977029,16.964666 8.0941643,16.37448 H 7.268039 Z"/>
    <path style="fill:#ffffff" d="M 7.470229,17.554854 7.740039,17.301889 7.0149216,16.374415 H 5.6660355 Z"/>
    <path style="fill:#ffffff" d="M 7.3015986,17.656014 5.362331,16.374415 H 4.4350222 v 0.168643 q 0.4384404,0.252966 1.1635604,0.505865 0.7251174,0.252966 1.7031831,0.607091 z"/>
    <path style="fill:#ffffff" d="m 10.775415,16.762262 0.118063,-0.387867 h -0.72512 v 0.337287 h 0.337286 z"/>
    <path style="fill:#ffffff" d="m 11.500529,16.930905 0.320384,-0.55651 h -0.725122 l -0.10116,0.421609 z"/>
    <path style="fill:#ffffff" d="m 12.225651,17.200709 0.657664,-0.826294 h -0.8263 l -0.337288,0.623929 z"/>
    <path style="fill:#ffffff" d="m 13.06881,17.689736 q 1.618866,-0.522769 2.343981,-1.146698 v -0.168643 h -0.826295 l -1.63573,1.247871 z"/>
    <path style="fill:#ffffff" d="m 4.4348551,22.175346 h 0.961202 q -0.4553048,-0.657665 -0.4553048,-1.416508 0,-0.623929 0.2529457,-1.062382 V 19.20743 q -0.387854,-0.10116 -0.387854,-0.269804 0,-0.252965 0.1686305,-0.320384 L 4.8395662,18.347439 q 0,-0.219224 0.2023591,-0.320384 -0.1686304,-0.10116 -0.1686304,-0.269803 0,-0.269804 0.5227622,-0.421609 l -0.961202,-0.404705 z"/>
    <path style="fill:#ffffff" d="m 12.883315,22.175346 h 2.529476 v -5.177002 q -0.657664,0.489026 -1.349056,0.758843 -0.691387,0.269803 -1.45023,0.370963 v 0.151806 q 0,0.236061 -0.202385,0.404705 -0.185482,0.168643 -0.320384,0.168643 l -0.06742,-0.03394 -0.10116,-0.03394 -0.06742,0.151806 0.06742,0.337286 q 0,0.168643 -0.236062,0.556511 -0.286642,0.303545 -0.286642,0.657663 0,0.269804 0.10116,0.370964 z"/>
    <path style="fill:#ffffff" d="m 10.370697,18.026996 q 0.303544,-0.303544 0.657664,-0.303544 l 0.236061,0.03394 0.134902,0.03394 q 0.286642,-0.134902 0.489027,-0.134902 0.202385,0 0.489027,0.168643 l 0.236062,-0.03394 q -1.450237,-0.725122 -2.563211,-0.725122 -1.416508,0 -2.3102526,0.725122 l 0.1011795,0.06742 q 0.2866744,-0.10116 0.5902065,-0.168643 0.3203835,-0.06748 0.6239288,-0.06748 0.10116,0 0.5227686,0.337287 l 0.3035453,-0.06742 0.3541249,0.06742 z"/>
    <path style="fill:#ffffff" d="m 6.2898068,18.617184 q 0.3878539,0 0.5227622,-0.725115 l -0.9274759,-0.337287 -0.033742,0.10116 -0.4890335,-0.03394 q -0.2023591,0.03394 -0.2023591,0.134902 0,0.168644 0.1686305,0.168644 l 0.2698099,-0.06748 0.3541253,0.06748 v 0.202385 q 0.067451,0.219223 0.3372608,0.489026 z"/>
    <path style="fill:#ffffff" d="M 9.1565484,21.247839 9.1226104,20.826231 9.3249957,19.797577 Q 8.751647,19.730097 8.751647,19.207391 q 0,-0.489028 0.5059304,-0.994932 -0.2360617,-0.252965 -0.3035452,-0.252965 -0.10116,0 -0.4216087,0.06748 -0.3035322,0.06748 -0.5902065,0.168644 -0.2698101,0.08432 -0.2698101,0.118063 0,0.404705 0.1686305,0.438447 v 0.185482 l -0.1011795,0.202385 0.6576704,-0.320383 0.067418,0.06748 q -0.2023852,0.354125 -0.6913952,0.455285 l 0.033742,0.10116 -0.1011795,0.06748 -0.1686304,0.185482 q 0.067451,0.134902 0.1854947,0.337287 0.118044,0.202386 0.3035387,0.489027 v 0.472189 q 0.2360814,0.08432 0.5058913,0.15174 0.2866418,0.06748 0.6239287,0.10116 z"/>
    <path style="fill:#ffffff" d="m 5.8515308,22.175078 h 1.1298337 l 0.6913914,-1.214154 v -0.303546 l -0.2023591,-0.354125 -0.3541253,-0.758844 0.3204031,-0.236061 -0.033742,-0.236062 0.067451,-0.185482 -0.033742,-0.10116 0.033742,-0.134901 -0.1349083,-0.337288 0.033742,-0.151739 0.033742,-0.06748 -0.320403,-0.10116 Q 6.8801968,18.785638 6.4248914,18.886818 L 6.020173,19.106041 v 0.590187 q 0.2360879,0.269803 0.2360879,1.062382 0,0.623929 -0.4047183,1.416507 z"/>
    <path style="fill:#ffffff" d="m 9.5445719,21.281327 h 0.1686436 q 0.6576635,0 1.4165065,-0.286707 l -0.10116,-0.472189 q 0,-0.286642 0.269804,-0.657664 0.286642,-0.455285 0.286642,-0.590187 l -0.08432,-0.303545 -0.06742,-0.151741 0.421609,-0.370962 0.10116,0.03394 0.134902,0.03394 q 0.168643,0 0.168643,-0.236062 0,-0.286707 -0.370963,-0.286707 l -0.590187,0.354125 q -0.10116,-0.286642 -0.269804,-0.286642 -0.134902,0 -0.657664,0.522769 0,-0.03394 -0.151739,-0.185481 -0.134903,-0.151741 -0.3372877,-0.151741 -0.2360618,0 -0.5227688,0.370964 -0.2698034,0.354125 -0.2698034,0.590186 0,0.236063 0.2360617,0.236063 l 0.1854817,-0.134903 0.3035453,0.134903 Q 9.679552,19.96645 9.578392,20.320568 q -0.10116,0.337287 -0.10116,0.505865 z"/>
    <path style="fill:#ffffff" d="m 5.2275924,18.515762 0.067451,-0.03394 0.1011795,0.03394 0.26981,-0.134901 0.1011796,-0.134902 -0.1011796,-0.08432 q -0.5396199,0 -0.5396199,0.185482 z"/>
    <path style="fill:#ff0000" d="m 13.035251,21.483686 q -0.657665,0 -0.657665,-0.725115 0,-0.202385 0.168644,-0.489027 0.168643,-0.303546 0.438447,-0.657664 0.286642,-0.370964 0.489028,-0.640832 0.202385,-0.286707 0.28664,-0.455286 l 0.370964,0.590187 q 0.236062,0.337287 0.522769,0.691394 0.303545,0.337286 0.337287,0.472188 0.134901,0.286707 0.134901,0.489027 0,0.725115 -0.640766,0.725115 -0.522769,0 -0.725115,-0.556511 -0.219224,0.556511 -0.725122,0.556511 z"/>
    <path style="fill:#ffffff" d="m 5.463677,19.004796 q 0.4215826,0 0.7925702,-0.354125 l -0.4890335,-0.10116 q -0.2360878,0 -0.26981,0.168643 l -0.1349083,-0.03394 q -0.2698099,0 -0.2698099,0.252966 z"/>
    <path style="fill:#ffffff" d="M 5.463677,19.409501 H 5.7334869 V 19.207116 L 5.463677,19.241054 Z"/>
    <path style="fill:#ff0000" d="m 17.099285,21.753482 q -0.522769,0 -0.522769,-0.539606 0,-0.556511 0.421609,-0.860023 0.236061,-0.185482 0.387867,-0.404706 0.168643,-0.219223 0.269803,-0.472188 0.10116,0.252965 0.269804,0.455285 0.185482,0.202385 0.387866,0.421609 0.404705,0.404705 0.404705,0.860023 0,0.539606 -0.505929,0.539606 -0.286642,0 -0.556512,-0.404705 -0.236061,0.404705 -0.55651,0.404705 z"/>
    <path style="fill:#ffffff" d="m 5.6660355,21.938964 q 0.2866743,-0.489027 0.2866743,-1.180419 0,-0.55651 -0.2529457,-1.062382 h -0.033742 z"/>
    <path style="fill:#ffffff" d="m 5.5311272,21.938964 v -2.242801 h -0.067451 q -0.2023592,0.404705 -0.2023592,1.062382 0,0.691386 0.2698102,1.180419 z"/>
    <path style="fill:#000000" d="m 8.0606066,20.724816 0.033742,-0.236062 H 8.1955278 L 8.1617861,20.303272 8.229237,20.067211 H 8.0943352 v -0.202386 q 0.3372609,0 0.994932,0.337287 L 8.7857219,20.48882 Q 8.4315968,20.724881 8.060602,20.724881 Z"/>
    <path style="fill:#ffffff" d="m 8.4315968,20.421271 0.2360617,-0.15174 -0.2360617,-0.10116 z"/>
    <path style="fill:#ffffff" d="m 7.4029426,22.175045 h 5.0083734 l -0.978068,-0.893751 q -0.758843,0.337287 -1.7200456,0.337287 -1.1804261,0 -1.8043639,-0.337287 z"/>
    <path style="fill:#ff0000" d="m 17.065556,25.041789 v -1.618866 q 0,-0.792572 0.792572,-0.792572 0.758843,0 0.758843,0.725114 v 0.202385 h -0.438447 v -0.10116 q 0,-0.421543 -0.320383,-0.421543 -0.269803,0 -0.269803,0.421543 v 1.585145 z"/>
</svg>