<svg xmlns="http://www.w3.org/2000/svg" width="74.952217" height="100" viewBox="0 0 19.831107 26.458333">
    <path d="m 1.1804252,26.458329 q -0.72511727,0 -0.96120178,-0.219223 Q 0,26.003044 0,25.277904 V 1.1804062 Q 0,0.4552851 0.21922342,0.23606166 0.45530467,0 1.1804252,0 H 18.650691 q 0.725117,0 0.944338,0.23606166 0.236088,0.21922344 0.236088,0.94434454 V 25.277904 q 0,0.725114 -0.236088,0.961202 -0.219223,0.219223 -0.944338,0.219223 z"/>
    <path style="fill:#f9f9f9" d="M 1.3827842,25.969302 H 18.448333 q 0.590212,0 0.74198,-0.151805 0.151766,-0.15174 0.151766,-0.741978 V 1.3827327 q 0,-0.62392857 -0.151766,-0.75884332 -0.151766,-0.13490171 -0.74198,-0.13490171 H 1.3827842 q -0.60707721,0 -0.75884391,0.13490171 Q 0.48903205,0.75879108 0.48903205,1.3827327 V 25.075519 q 0,0.590186 0.13490824,0.741978 0.15176604,0.151805 0.75884391,0.151805 z"/>
    <path style="fill:#ff0000" d="M 1.2141538,3.8447964 V 1.4164939 h 0.522762 V 2.4282828 L 2.6643856,1.4164939 H 3.3220501 L 2.3945751,2.3945607 3.3895029,3.8447964 H 2.7318385 L 2.0067212,2.7318215 1.7369114,3.0353667 v 0.8094362 z"/>
    <path d="M 3.945991,22.664113 V 3.8110677 H 15.901993 V 22.664113 Z"/>
    <path style="fill:#ffffff" d="M 15.41296,10.151624 V 4.2832368 h -1.90554 l -0.691391,1.3153275 q 0.79257,0.2023851 0.79257,0.8937515 0,0.2529652 -0.03374,0.4721886 -0.03374,0.2192235 -0.10118,0.3878668 L 13.3725,7.8413981 13.40624,8.0774597 q 0.320403,0.2192235 0.320403,0.4890269 l -0.118044,0.4216086 0.185495,0.1011599 v -3.625586 l 0.691391,-1.0117954 0.725117,0.944338 v 4.6205173 z"/>
    <path style="fill:#ffffff" d="m 8.161786,5.0420801 q 0.4721691,-0.4721886 0.9612017,-0.4721886 0.590213,0 0.8937493,0.3035451 0.185495,-0.3372868 0.590212,-0.3372868 0.489034,0 0.657665,0.3709633 0.202359,-0.3035452 0.691391,-0.3035452 0.421582,0 0.758843,0.3372869 L 13.068974,4.2831911 H 7.7064794 Z"/>
    <path style="fill:#ffffff" d="M 4.4350211,9.2916012 Q 4.9071901,9.0555395 5.3962228,8.8868961 5.8852562,8.7014144 6.3911507,8.6676726 q 0.067451,-0.5901867 0.623935,-0.5901867 0.3204029,0 0.4553047,0.1517399 0.1011794,-1.1129749 0.623935,-2.5632107 L 7.2680365,4.2832368 H 4.4350211 Z"/>
    <path style="fill:#ff0000" d="M 2.1753536,6.9813492 Q 2.0741741,6.7452875 1.9392659,6.5091605 1.8043576,6.2561954 1.5682764,6.087552 1.1129716,5.7334268 1.1129716,5.2612578 q 0,-0.5565103 0.5227621,-0.5565103 0.2360812,0 0.5396199,0.4047051 0.2866743,-0.4047051 0.5564842,-0.4047051 0.522762,0 0.522762,0.5565103 0,0.4047051 -0.4215825,0.8262942 Q 2.394577,6.5259988 2.1753529,6.9813034 Z"/>
    <path style="fill:#ffffff" d="m 11.129707,5.3287543 q -0.202358,-0.5227685 -0.522761,-0.5227685 -0.337261,0 -0.556485,0.4890268 h 0.758843 z"/>
    <path style="fill:#ffffff" d="m 13.99645,12.445018 0.489033,-0.08432 0.505898,0.08432 V 5.4973847 L 14.485483,4.839721 13.99645,5.5311134 Z"/>
    <path style="fill:#ffffff" d="M 8.4653234,5.4973847 9.9155578,5.3287413 Q 9.7131987,4.8734562 9.1904406,4.8734562 q -0.4384404,0 -0.8600229,0.4215433 z"/>
    <path style="fill:#ffffff" d="M 12.41131,5.4973847 12.546218,5.2106778 Q 12.310137,4.873391 11.956005,4.873391 q -0.370989,0 -0.691391,0.455285 0.387853,0.033938 0.657664,0.067418 0.269811,0.033938 0.489034,0.10116 z"/>
    <path style="fill:#ff0000" d="M 6.0876133,7.9425516 5.7334882,7.3523647 Q 5.4299495,6.8127579 5.1432752,6.5597927 4.8734654,6.2899894 4.8060145,6.1550877 4.704835,5.868446 4.704835,5.6998025 q 0,-0.7251145 0.6576643,-0.7251145 0.5227621,0 0.7251173,0.5565103 0.2023591,-0.5565103 0.7251171,-0.5565103 0.6576645,0 0.6576645,0.7251145 0,0.4890269 -0.623935,1.214148 -0.5902129,0.6913925 -0.758844,1.0286598 z"/>
    <path style="fill:#ffffff" d="m 11.365793,8.7013949 q 0.286673,0 0.522762,-0.050906 0.236087,-0.050906 0.421582,-0.084322 L 12.343877,8.12772 11.618759,7.8073367 h -0.185495 l -0.370989,0.067483 -0.421582,0.10116 h -0.202359 l -0.06745,-0.033938 V 7.8071408 h 0.269791 l 0.387853,-0.2023852 0.236082,0.033938 0.06745,-0.1686434 0.101179,-0.033938 0.286675,0.067418 q 0.101179,0 0.101179,-0.15174 0,-0.3035451 -0.168631,-0.4721886 -0.185493,-0.2866416 -0.185493,-0.6239285 0,-0.2698034 0.590212,-0.2698034 l 0.455305,0.10116 V 5.9015482 Q 11.652463,5.6991629 10.505767,5.6991629 H 9.9830047 Q 9.8480965,6.3568268 9.79751,6.8627244 9.74693,7.3517513 9.74693,7.7058829 v 0.5227686 q 1.028654,0.4721886 1.618866,0.4721886 z"/>
    <path style="fill:#ffffff" d="m 7.9931537,9.1904217 h 0.5733486 q 0.5902129,0 0.7082542,-0.2023853 0.1349082,-0.2192233 0.1349082,-1.2816053 0,-1.1129684 0.2023591,-1.9729912 -0.5564843,0 -1.2816028,0.2023852 L 7.8751098,7.6727351 7.7739303,8.3641275 V 8.6001891 L 7.4703917,8.6676726 Q 7.4366499,8.3978693 7.0825378,8.3978693 q -0.3372673,0 -0.3372673,0.3709633 0,0.4216087 1.247876,0.4216087 z"/>
    <path style="fill:#ffffff" d="m 13.068974,9.0892617 q 0.370989,0 0.370989,-0.4890268 l -0.269809,-0.3035452 -0.03374,-0.5901868 0.06745,-0.4216086 q 0.134908,-0.3035451 0.134908,-0.792572 0,-0.4047051 -0.489033,-0.6239285 l 0.06745,1.0117954 q -0.134908,0.7588433 -0.185494,1.2310123 -0.05058,0.4552851 -0.05058,0.6239286 l -0.134908,0.067484 q 0.16863,0.2866415 0.522762,0.2866415 z"/>
    <path style="fill:#000000" d="M 11.230886,6.3911494 11.028527,6.2562476 10.674402,6.1550877 q -0.370989,0 -0.657664,0.1686434 l -0.033742,-0.1011599 0.033742,-0.10116 q 0.118044,-0.2192235 0.657664,-0.2192235 0.421583,0 0.657664,0.2192235 l 0.03374,0.067418 -0.10118,0.2023852 z"/>
    <path style="fill:#ffffff" d="m 12.377583,7.9762868 0.20236,-1.0961041 -0.03374,-0.5565103 -0.455304,-0.10116 -0.269811,0.067483 v 0.067418 l 0.269811,-0.067418 0.286673,0.067418 0.134909,0.2023852 -0.16863,-0.033938 q 0,0.1349017 -0.151766,0.1349017 -0.134909,0 -0.134909,-0.1349017 l -0.202359,0.033938 0.134909,0.3203834 0.202359,0.5227685 q 0,0.1686435 -0.134909,0.3035452 z"/>
    <path style="fill:#000000" d="m 10.606949,6.6609462 q -0.134909,0 -0.134909,-0.1349017 h -0.10118 l -0.16863,0.033937 0.134908,-0.2023851 0.303539,-0.067418 0.320403,0.067418 -0.03374,0.2023851 -0.185495,-0.033937 q 0,0.1349017 -0.134908,0.1349017 z"/>
    <path style="fill:#000000" d="m 11.062253,8.1954972 v -0.067418 l 0.472169,-0.1180635 0.489033,0.1180635 v 0.067418 h -0.16863 l -0.320403,-0.033938 -0.303539,0.033938 z"/>
    <path style="fill:#000000" d="m 11.500693,8.3641406 -0.303538,-0.067418 v -0.067483 l 0.303538,0.033938 0.320403,-0.033938 v 0.067483 z"/>
    <path style="fill:#ffffff" d="m 9.9492793,10.151637 q 1.3490557,0 2.7992897,-0.826294 l -0.337267,-0.2023852 -0.151766,-0.1686435 -0.10118,0.033938 0.10118,0.4721886 -0.236081,0.067418 -0.168631,-0.5059303 -0.06745,0.033938 0.03374,0.5565103 -0.202359,0.033938 -0.151766,-0.5901868 h -0.03374 l -0.03374,0.6913924 h -0.20236 l -0.06745,-0.6913924 h -0.03374 L 10.859874,9.7812416 10.64065,9.747304 10.775558,9.0221829 10.708107,8.9882453 10.337118,9.7470886 10.134759,9.6796051 10.337118,8.9207618 10.269667,8.8533436 9.7806339,9.6459156 9.5782748,9.5784321 9.8480847,8.7015514 9.814343,8.6676139 9.7131635,8.6001304 Q 9.6794217,9.122899 9.4096248,9.325245 9.1566793,9.5276303 8.4652862,9.5276303 H 7.6727534 q 1.1129703,0.6239277 2.2765305,0.6239277 z"/>
    <path style="fill:#ffffff" d="M 7.3017632,13.541129 V 12.9172 q -1.6694558,-0.590186 -1.6694558,-2.141621 0,-0.8262944 0.354125,-1.4165073 Q 5.9189816,9.0892682 5.5985786,9.0892682 l -0.2023591,0.067418 q -0.3878537,0.6913925 -0.3878537,1.6188658 0,2.074172 2.2933942,2.765563 z"/>
    <path style="fill:#000000" d="m 5.5648545,9.7131838 q -0.2023591,0 -0.2023591,-0.2192235 0,-0.2023852 0.2023591,-0.2023852 0.2023591,0 0.2023591,0.2023852 0,0.2192235 -0.2023591,0.2192235 z"/>
    <path style="fill:#ffffff" d="M 7.7402061,10.303371 7.605298,9.9829871 6.9813628,9.7469255 7.183722,10.117889 Z"/>
    <path style="fill:#ffffff" d="m 12.09091,10.303371 0.556484,-0.185482 0.202359,-0.3709635 -0.623935,0.2360616 z"/>
    <path style="fill:#000000" d="m 5.3962228,10.252465 q -0.2023591,0 -0.2023591,-0.202386 0,-0.2023852 0.2023591,-0.2023852 0.2023591,0 0.2023591,0.2023852 0,0.202386 -0.2023591,0.202386 z"/>
    <path style="fill:#ffffff" d="M 8.0268805,10.977586 7.8413857,10.539138 7.335488,10.404237 7.5041184,10.842683 Z"/>
    <path style="fill:#ffffff" d="m 11.821098,10.977586 0.522762,-0.134903 0.168631,-0.438446 -0.522762,0.134901 z"/>
    <path style="fill:#000000" d="m 5.32877,10.876426 q -0.202359,0 -0.202359,-0.202386 0,-0.202385 0.202359,-0.202385 0.2023591,0 0.2023591,0.202385 0,0.202386 -0.2023591,0.202386 z"/>
    <path style="fill:#000000" d="m 5.3962208,11.466612 q -0.202359,0 -0.202359,-0.202385 0,-0.202386 0.202359,-0.202386 0.2023591,0 0.2023591,0.202386 0,0.202385 -0.2023591,0.202385 z"/>
    <path style="fill:#ffffff" d="M 8.1955102,11.635256 8.0943306,11.230551 7.6052973,11.129391 7.7064768,11.500353 Z"/>
    <path style="fill:#ffffff" d="m 11.652464,11.635256 0.47217,-0.134903 0.101179,-0.370962 -0.472169,0.10116 z"/>
    <path style="fill:#000000" d="m 5.5648525,12.056799 q -0.202359,0 -0.202359,-0.202385 0,-0.219224 0.202359,-0.219224 0.2023591,0 0.2023591,0.219224 0,0.202385 -0.2023591,0.202385 z"/>
    <path style="fill:#ffffff" d="M 8.2966897,12.326602 8.2292387,11.888155 7.773934,11.786995 7.841385,12.225442 Z"/>
    <path style="fill:#ffffff" d="m 11.534422,12.326602 0.455305,-0.10116 0.06745,-0.438447 -0.43844,0.10116 z"/>
    <path style="fill:#000000" d="m 5.8515268,12.579568 q -0.2192234,0 -0.2192234,-0.219224 0,-0.202385 0.2192234,-0.202385 0.2023592,0 0.2023592,0.202385 0,0.219224 -0.2023592,0.219224 z"/>
    <path style="fill:#000000" d="m 6.3236958,12.950531 q -0.202359,0 -0.202359,-0.202386 0,-0.202384 0.202359,-0.202384 0.2192235,0 0.2192235,0.202384 0,0.202386 -0.2192235,0.202386 z"/>
    <path style="fill:#ffffff" d="m 8.3641426,13.085433 -0.033742,-0.438448 -0.4553047,-0.10116 0.033742,0.202386 v 0.236062 z"/>
    <path style="fill:#ffffff" d="m 11.46697,13.085433 0.455304,-0.10116 v -0.236062 l 0.03374,-0.202386 -0.455304,0.10116 z"/>
    <path style="fill:#ffffff" d="m 14.519207,13.169754 q 0.725116,0 0.725116,-0.286641 0,-0.269804 -0.725116,-0.269804 -0.725117,0 -0.725117,0.269804 0,0.286641 0.725117,0.286641 z"/>
    <path style="fill:#000000" d="m 6.8464553,13.270914 q -0.202359,0 -0.202359,-0.219223 0,-0.202386 0.202359,-0.202386 0.2023591,0 0.2023591,0.202386 0,0.219223 -0.2023591,0.219223 z"/>
    <path style="fill:#ffffff" d="m 14.232533,17.368669 0.219223,-0.06748 q 0.370989,-0.691386 0.370989,-1.618867 0,-2.107892 -2.27653,-2.765563 v 0.623929 q 1.652593,0.55651 1.652593,2.141621 0,0.826301 -0.337261,1.416515 0.101179,0.269802 0.370989,0.269802 z"/>
    <path style="fill:#000000" d="m 12.984658,13.60858 q -0.202359,0 -0.202359,-0.202386 0,-0.202385 0.202359,-0.202385 0.219224,0 0.219224,0.202385 0,0.202386 -0.219224,0.202386 z"/>
    <path style="fill:#ffffff" d="m 5.32877,13.844641 q 0.7251173,0 0.7251173,-0.269803 0,-0.269804 -0.7251173,-0.269804 -0.7251172,0 -0.7251172,0.269804 0,0.269803 0.7251172,0.269803 z"/>
    <path style="fill:#ffffff" d="m 7.8751118,13.928963 0.4553046,-0.118063 0.033742,-0.438447 -0.4553047,0.10116 v 0.20232 z"/>
    <path style="fill:#ffffff" d="m 11.956004,13.928963 -0.03374,-0.252965 v -0.20232 l -0.455304,-0.10116 0.03374,0.438447 z"/>
    <path style="fill:#000000" d="m 13.507417,13.928963 q -0.202359,0 -0.202359,-0.219223 0,-0.202386 0.202359,-0.202386 0.219224,0 0.219224,0.202386 0,0.219223 -0.219224,0.219223 z"/>
    <path style="fill:#000000" d="m 13.996451,14.299927 q -0.202359,0 -0.202359,-0.202385 0,-0.202386 0.202359,-0.202386 0.202359,0 0.202359,0.202386 0,0.202385 -0.202359,0.202385 z"/>
    <path style="fill:#ffffff" d="m 5.3624967,21.61855 0.4890334,-0.691393 v -6.89704 l -0.4890334,0.06742 -0.522762,-0.06742 v 6.930769 z"/>
    <path style="fill:#ffffff" d="m 12.057183,14.68778 -0.06745,-0.455285 -0.455305,-0.10116 0.08432,0.438447 z"/>
    <path style="fill:#ffffff" d="M 7.7739329,14.68778 8.2292376,14.569717 8.2966884,14.13127 7.8413837,14.23243 Z"/>
    <path style="fill:#000000" d="m 14.266262,14.822682 q -0.20236,0 -0.20236,-0.202385 0,-0.219223 0.20236,-0.219223 0.219223,0 0.219223,0.219223 0,0.202385 -0.219223,0.202385 z"/>
    <path style="fill:#ffffff" d="M 7.6053012,15.34545 8.0943346,15.227387 8.195514,14.822682 7.7064807,14.957584 Z"/>
    <path style="fill:#ffffff" d="m 12.225816,15.34545 -0.10118,-0.387866 -0.472169,-0.134902 0.101179,0.404705 z"/>
    <path style="fill:#000000" d="m 14.451757,15.412869 q -0.219224,0 -0.219224,-0.219224 0,-0.202385 0.219224,-0.202385 0.202359,0 0.202359,0.202385 0,0.219224 -0.202359,0.219224 z"/>
    <path style="fill:#ffffff" d="M 7.33549,16.070532 7.8413877,15.918793 8.0268824,15.480346 7.5041203,15.615247 Z"/>
    <path style="fill:#ffffff" d="m 12.51249,16.070532 -0.16863,-0.455285 -0.522762,-0.134901 0.16863,0.438447 z"/>
    <path style="fill:#000000" d="m 14.51921,15.986211 q -0.219225,0 -0.219225,-0.202385 0,-0.202385 0.219225,-0.202385 0.202358,0 0.202358,0.202385 0,0.202385 -0.202358,0.202385 z"/>
    <path style="fill:#ffffff" d="m 12.849754,16.711331 -0.20236,-0.370962 -0.556483,-0.168644 0.134907,0.303545 z"/>
    <path style="fill:#ffffff" d="M 6.9813635,16.711331 7.6052986,16.47527 7.7402068,16.171725 7.1837226,16.340369 Z"/>
    <path style="fill:#000000" d="m 14.451757,16.610172 q -0.219224,0 -0.219224,-0.202385 0,-0.202385 0.219224,-0.202385 0.202359,0 0.202359,0.202385 0,0.202385 -0.202359,0.202385 z"/>
    <path style="fill:#ffffff" d="M 4.4350211,22.175079 H 6.3236978 L 7.015089,20.859752 q -0.79257,-0.202385 -0.79257,-0.893745 0,-0.590186 0.1349081,-0.860023 l 0.067451,-0.55651 V 18.38083 Q 6.1213394,18.161607 6.1213394,17.891804 L 6.222519,17.487099 6.0538886,17.369035 v 3.625586 L 5.3624974,22.00641 4.6373801,21.078936 v -4.637381 l -0.202359,-0.134902 z"/>
    <path style="fill:#ffffff" d="m 10.134779,17.858107 q 0.06745,-0.522768 0.303539,-0.725121 0.236088,-0.202385 0.961202,-0.202385 h 0.758843 q -1.062381,-0.623928 -2.2765306,-0.623928 -1.349055,0 -2.7992893,0.826293 0.3878538,0.202386 0.4890333,0.387868 l 0.1011796,-0.03394 -0.1011796,-0.489027 0.2360878,-0.06748 0.1854947,0.50593 0.067451,-0.03394 -0.033742,-0.539608 0.202359,-0.03394 0.1349083,0.573349 h 0.033742 l 0.033742,-0.691387 h 0.202359 l 0.084315,0.691387 h 0.033742 l 0.2360877,-0.725115 0.2023591,0.03394 -0.1349083,0.725114 0.067451,0.05091 0.3878539,-0.775708 0.2023591,0.08432 -0.2023591,0.758843 0.067451,0.06742 0.4721694,-0.792572 0.219223,0.06748 -0.2866743,0.860023 0.033742,0.03394 z"/>
    <path style="fill:#000000" d="m 14.266261,17.166715 q -0.202359,0 -0.202359,-0.202385 0,-0.202385 0.202359,-0.202385 0.219223,0 0.219223,0.202385 0,0.202385 -0.219223,0.202385 z"/>
    <path style="fill:#ffffff" d="m 12.579941,22.175079 h 2.833017 v -5.008364 q -0.927476,0.455285 -1.972994,0.623929 -0.06745,0.590186 -0.623935,0.590186 -0.26981,0 -0.43844,-0.134901 -0.118044,1.096103 -0.623935,2.546339 z"/>
    <path style="fill:#ffffff" d="m 10.235958,20.72485 q 0.53962,0 1.26474,-0.202385 l 0.455304,-1.73691 0.10118,-0.691392 v -0.236062 l 0.320403,-0.06748 q 0.101179,0.269803 0.37099,0.269803 0.354124,0 0.354124,-0.371029 0,-0.421543 -1.247876,-0.421543 H 11.26461 q -0.590213,0 -0.691391,0.168643 -0.03374,0.118063 -0.08432,0.421609 -0.05058,0.303545 -0.05058,0.893745 0,1.079246 -0.20236,1.972997 z"/>
    <path style="fill:#ffffff" d="M 6.9813628,20.589948 6.913912,19.57816 q 0.1011796,-0.792572 0.1686304,-1.247877 0.067451,-0.472189 0.067451,-0.60709 l 0.1517661,-0.06748 q -0.1854948,-0.286641 -0.5227621,-0.286641 -0.3878537,0 -0.3878537,0.489026 l 0.2866742,0.303545 0.067451,0.590188 -0.1011794,0.421608 q -0.1517661,0.269803 -0.1517661,0.792572 0,0.421608 0.4890334,0.623928 z"/>
    <path style="fill:#ffffff" d="m 9.3253463,20.758573 h 0.522762 q 0.1011795,-0.691393 0.1686307,-1.163562 0.06745,-0.489027 0.06745,-0.843158 V 18.245987 Q 9.055535,17.75696 8.4653234,17.75696 q -0.2698099,0 -0.522762,0.03394 -0.2360879,0.03394 -0.4047183,0.10116 l -0.033742,0.455286 0.7251172,0.303544 H 8.397849 l 0.3878539,-0.06742 0.4047181,-0.10116 0.2192235,0.03394 h 0.067451 v 0.134901 H 9.190421 l -0.3709895,0.202386 -0.2529455,-0.03394 -0.067451,0.185482 -0.1011795,0.03394 -0.26981,-0.06742 q -0.1011795,0 -0.1011795,0.134901 0,0.20232 0.1686304,0.47219 0.1686304,0.219223 0.1686304,0.623928 0,0.286641 -0.5902129,0.286641 l -0.4384404,-0.10116 v 0.168644 q 0.8937653,0.201831 1.9898727,0.201831 z"/>
    <path style="fill:#000000" d="m 8.0268805,18.245961 v -0.08432 l 0.3035385,-0.06742 0.3035387,0.06742 v 0.08432 L 8.330419,18.212024 Z"/>
    <path style="fill:#000000" d="M 8.2966904,18.448347 7.807657,18.347187 v -0.06748 h 0.1854947 l 0.3035387,0.03394 0.2698099,-0.03394 h 0.2192234 v 0.06748 z"/>
    <path style="fill:#ffffff" d="M 7.7402061,20.23585 8.0268805,20.16837 V 20.10095 L 7.7402061,20.13489 7.4703962,20.10095 7.335488,19.898566 l 0.1686304,0.03394 q 0,-0.134903 0.1349082,-0.134903 0.1349018,0 0.1349018,0.134903 l 0.2192233,-0.03394 -0.3541251,-0.826294 q 0,-0.219224 0.1349018,-0.320384 l -0.3035387,-0.269803 -0.2023591,1.09611 0.033742,0.556511 z"/>
    <path style="fill:#ff0000" d="m 13.035249,21.483727 q -0.657666,0 -0.657666,-0.725122 0,-0.202385 0.168631,-0.489027 0.16863,-0.303545 0.43844,-0.657663 0.286675,-0.370964 0.489034,-0.640767 0.202359,-0.286642 0.286674,-0.455286 l 0.37099,0.590187 q 0.354124,0.505866 0.590212,0.775701 0.236089,0.252966 0.26981,0.387867 0.134902,0.286708 0.134902,0.489028 0,0.72512 -0.6408,0.72512 -0.522762,0 -0.725117,-0.55651 -0.219223,0.55651 -0.725116,0.55651 z"/>
    <path style="fill:#ff0000" d="m 17.099277,21.753529 q -0.522762,0 -0.522762,-0.539606 0,-0.55651 0.421583,-0.860023 0.236081,-0.185482 0.387854,-0.404705 0.168629,-0.219224 0.269809,-0.472188 0.10118,0.252964 0.26981,0.455284 0.185495,0.202386 0.387855,0.421544 0.404717,0.404705 0.404717,0.860022 0,0.539607 -0.505897,0.539607 -0.286675,0 -0.556485,-0.404705 -0.236087,0.404705 -0.556484,0.404705 z"/>
    <path style="fill:#000000" d="m 9.1904406,20.168385 -0.3035386,-0.06742 0.033742,-0.202384 0.1686304,0.03394 q 0,-0.134902 0.1349083,-0.134902 0.1349081,0 0.1349081,0.134902 h 0.1517661 l 0.1349083,-0.03394 -0.1349083,0.202384 z"/>
    <path style="fill:#000000" d="m 9.1566989,20.556253 q -0.3709895,0 -0.6576644,-0.202386 l -0.033742,-0.08432 0.1011795,-0.202385 h 0.033742 l 0.2192234,0.134902 0.3372608,0.10116 q 0.4215825,0 0.6576644,-0.168643 l 0.033742,0.10116 -0.033742,0.118063 q -0.1011795,0.202385 -0.6576644,0.202385 z"/>
    <path style="fill:#ffffff" d="m 7.8751118,21.584873 q 0.3541251,0 0.6913905,-0.438447 -0.6913905,0 -1.1298334,-0.185481 l -0.1349083,0.286706 q 0.3372673,0.337287 0.5733486,0.337287 z"/>
    <path style="fill:#ffffff" d="m 10.640675,21.584873 q 0.455305,0 0.860023,-0.404705 L 11.36579,20.960945 9.9155552,21.146426 q 0.2866748,0.438447 0.7251198,0.438447 z"/>
    <path style="fill:#ffffff" d="m 9.2241667,21.652356 q 0.3541251,0 0.5564842,-0.472188 H 9.055535 l -0.3372608,-0.03394 q 0.2023591,0.505929 0.5058977,0.505929 z"/>
    <path style="fill:#ffffff" d="m 6.7790044,22.175125 h 5.3456316 l -0.438441,-0.758889 q -0.489033,0.489027 -0.978065,0.489027 -0.573348,0 -0.8937491,-0.320383 -0.1011796,0.354125 -0.5902129,0.354125 -0.4384404,0 -0.6576644,-0.387867 -0.2023592,0.320383 -0.6913905,0.320383 -0.4047182,0 -0.758844,-0.354125 z"/>
    <path style="fill:#ff0000" d="m 16.509064,25.041868 0.944339,-0.961203 -1.011791,-1.450229 h 0.657665 l 0.725117,1.096105 0.286674,-0.303546 v -0.792566 h 0.505897 v 2.411432 h -0.505897 v -0.994924 l -0.944338,0.994924 z"/>
</svg>