<svg xmlns="http://www.w3.org/2000/svg" width="74.952217" height="100" viewBox="0 0 19.831107 26.458333">
    <path d="m 1.1804252,26.458329 q -0.72511727,0 -0.96120178,-0.219223 Q 0,26.003044 0,25.277904 V 1.1804062 Q 0,0.4552851 0.21922342,0.23606166 0.4553112,0 1.1804252,0 H 18.650689 q 0.725121,0 0.944338,0.23606166 0.236061,0.21922344 0.236061,0.94434454 V 25.277904 q 0,0.725114 -0.236061,0.961202 -0.219223,0.219223 -0.944338,0.219223 z"/>
    <path style="fill:#ffffff" d="M 1.3827842,25.969302 H 18.44833 q 0.590186,0 0.741985,-0.151805 0.15174,-0.15174 0.15174,-0.741978 V 1.3827327 q 0,-0.62392857 -0.15174,-0.75884332 Q 19.038509,0.48898767 18.44833,0.48898767 H 1.3827836 q -0.60707727,0 -0.75884331,0.13490171 Q 0.48903205,0.75879108 0.48903205,1.3827327 V 25.075519 q 0,0.590186 0.13490824,0.741978 0.15176604,0.151805 0.75884391,0.151805 z"/>
    <path style="fill:#ff0000" d="M 3.0522401,4.0134268 2.698115,3.6930435 q -0.1686304,0.1517399 -0.5902129,0.1517399 -1.16356016,0 -1.16356016,-1.2478767 0,-0.5227685 0.30353866,-0.8768872 0.3204029,-0.3709633 0.8600228,-0.3709633 0.5564842,0 0.8600228,0.3709633 0.320403,0.3541252 0.320403,0.8768872 0,0.5901869 -0.3035386,0.893745 l 0.3035386,0.2698035 z"/>
    <path style="fill:#ffffff" d="M 2.1079015,3.42324 2.3271248,3.3893025 2.1079015,3.1869173 2.3608471,2.9002757 2.6306569,3.1532408 q 0.1349083,-0.2866416 0.1349083,-0.5565103 0,-0.792572 -0.6576644,-0.792572 -0.6576645,0 -0.6576645,0.792572 0,0.8262941 0.6576645,0.8262941 z"/>
    <path d="M 3.9459891,22.664139 V 3.8110939 H 15.90199 V 22.664139 Z"/>
    <path style="fill:#ffffff" d="M 7.537849,8.3304315 7.7064794,8.262948 Q 8.7857243,7.3523387 9.4096621,6.5091802 10.050461,5.6660151 10.573222,4.2832368 H 10.202233 Q 9.3590736,6.3911363 7.6053019,8.1954972 Z"/>
    <path style="fill:#ffffff" d="M 4.4350217,10.843043 H 5.042099 Q 5.1601429,10.640658 5.4974037,10.438338 L 5.3624954,10.117954 q -0.8262967,-0.10116 -0.8262967,-0.8937515 0,-0.3709633 0.2529456,-0.6239285 0.2529456,-0.2698034 0.6407994,-0.2698034 0.3878538,0 0.6407994,0.2698034 0.2529455,0.2529652 0.2529455,0.6239285 0,0.3035452 -0.202359,0.5733486 -0.2023591,0.2529649 -0.4890334,0.3203839 l 0.067451,0.185482 Q 6.5429069,9.5277086 8.2292258,6.745281 L 7.8751007,6.4586393 q 0,-0.6913924 -0.6913905,-1.2815988 Q 7.3692049,4.9072371 7.3692049,4.6374337 L 7.3354632,4.2833086 H 4.4350211 Z"/>
    <path style="fill:#ffffff" d="M 7.7064807,5.3287805 7.8751111,5.261297 8.0943346,5.3287805 V 5.109557 q 0,-0.4721885 0.4384402,-0.8262941 H 7.6390273 l 0.033742,0.3203833 q 0,0.337287 -0.1349082,0.5058652 z"/>
    <path style="fill:#ffffff" d="M 8.3641451,6.526064 Q 9.359073,4.8734497 9.5782945,4.2832368 H 9.0555356 Q 8.3641444,4.569911 8.3641444,5.362483 l 0.033742,0.4047052 Q 8.1617984,5.5311265 7.8751242,5.5311265 8.1617984,6.0201534 8.1617984,6.3236984 Z"/>
    <path style="fill:#ffffff" d="m 12.343858,7.9088489 q 0.404719,0 0.741981,-0.7757076 0.354124,-0.7757076 0.354124,-1.5682731 l -0.33726,0.067483 -0.354125,-0.033938 0.354125,0.6576637 q 0,0.1349017 -0.320403,0.3372869 L 12.51249,6.7114283 12.445039,6.4922048 Q 12.849758,6.3235614 12.849758,6.2561432 12.445039,5.429849 12.445039,5.2106256 q 0,-0.5733485 0.623935,-0.5733485 L 13.406235,4.738437 V 4.5697936 l -0.03374,-0.2866417 h -2.20906 q -0.168631,0.6576638 -0.455305,1.1972837 -0.26981,0.5396067 -0.573348,0.9780666 0.539619,0.6913925 1.096107,1.0455177 0.556484,0.3372868 1.112971,0.404705 z"/>
    <path style="fill:#ffffff" d="m 15.126284,12.883491 h 0.286675 V 4.2832629 h -1.68632 l 0.03374,0.4216086 q 0.573349,0.9611958 0.573349,1.4839579 v 0.5901868 l 0.03374,1.5514153 -0.101179,0.067418 v 0.3372869 q 0,0.4890268 0.05058,1.0286597 0.05058,0.5396079 0.202359,1.1129689 l 0.134902,-0.303546 0.101179,-0.10116 q -0.236087,-0.320383 -0.236087,-0.354124 0,-0.06742 0.303538,-0.370964 -0.26981,-0.2866417 -0.26981,-0.7588433 l 0.26981,-1.8043609 q 0,-0.3035452 -0.16863,-0.4721887 -0.168631,-0.1854816 -0.168631,-0.3203833 0,-0.2360617 0.26981,-0.2360617 l -0.03374,-0.1686434 0.03374,-0.3203834 0.03374,-0.1011599 -0.134908,-0.4552852 0.101179,-0.404705 0.10118,-0.2866417 0.236087,0.6913859 -0.134907,0.4552851 0.03374,0.1011599 0.03374,0.3203835 -0.03374,0.1686434 q 0.286675,0 0.286675,0.2360616 0,0.1686435 -0.185495,0.3203835 -0.168631,0.2360616 -0.168631,0.4721885 l 0.286674,1.8043609 q 0,0.5901868 -0.320396,0.7588433 0.354125,0.3035449 0.354125,0.3709639 0,0.185482 -0.134902,0.269803 -0.118043,0.08432 -0.151765,0.08432 0.354124,0.303545 0.354124,0.725114 z"/>
    <path style="fill:#000000" d="m 11.197161,5.0083774 -0.101179,-0.067418 q 0,-0.2698033 0.860022,-0.2698033 0.134909,0 0.134909,0.2023852 z"/>
    <path style="fill:#ff0000" d="M 2.1753542,6.9813752 Q 2.0741747,6.7453136 1.9392665,6.5091867 1.8043583,6.2562215 1.5682771,6.087578 1.1129723,5.733453 1.1129723,5.2612839 q 0,-0.5565103 0.5227621,-0.5565103 0.2360812,0 0.5396198,0.4047051 0.2866743,-0.4047051 0.5564843,-0.4047051 0.522762,0 0.522762,0.5565103 0,0.4047052 -0.4215825,0.8262941 -0.4384403,0.4384469 -0.6576644,0.8937516 z"/>
    <path style="fill:#ffffff" d="M 12.681122,5.2107366 Q 12.98466,5.0083514 13.439965,5.0083514 L 13.068976,4.8734497 q -0.387854,0 -0.387854,0.3372869 z"/>
    <path style="fill:#000000" d="m 11.618741,5.7335051 q -0.252945,0 -0.556484,-0.2360616 L 11.028516,5.42996 q 0.303537,-0.3541251 0.994927,-0.3541251 l 0.168631,0.4216086 q -0.404719,0.2360616 -0.573349,0.2360616 z"/>
    <path style="fill:#ff0000" d="M 5.9189823,7.807676 Q 5.8515314,7.6390325 5.6660367,7.4029708 5.4974063,7.1500056 5.2275963,6.8127841 4.6711121,6.1551202 4.6711121,5.7672665 q 0,-0.6576638 0.5902129,-0.6576638 0.4384404,0 0.6576645,0.5227686 0.202359,-0.5227686 0.6576643,-0.5227686 0.5733486,0 0.5733486,0.6576638 0,0.4890268 -0.5396199,1.0792462 Q 6.3237083,7.1500578 6.1550779,7.403023 5.9864475,7.6390847 5.9189901,7.8077282 Z"/>
    <path style="fill:#ffffff" d="m 13.102701,5.4974174 0.337261,-0.10116 V 5.177034 L 13.406222,5.143096 H 13.23759 l 0.03374,0.1180635 q 0,0.10116 -0.134909,0.10116 -0.151772,0 -0.151772,-0.10116 v -0.050906 l -0.26981,0.1518052 q 0.134909,0.1349018 0.387854,0.1349018 z"/>
    <path style="fill:#ffffff" d="m 11.618741,5.5649009 q 0.43844,0 0.43844,-0.2360617 L 11.922273,5.2107757 h -0.168631 l 0.03374,0.1180635 q 0,0.10116 -0.134909,0.10116 -0.151766,0 -0.151766,-0.10116 V 5.2949017 L 11.2309,5.4298034 q 0.134909,0.1349017 0.387854,0.1349017 z"/>
    <path style="fill:#000000" d="m 11.719921,6.0539277 -0.06745,-0.033938 0.06745,-0.084322 0.472169,-0.2360617 0.06745,0.033938 q 0,0.3203834 -0.539619,0.3203837 z"/>
    <path style="fill:#ffffff" d="m 13.068976,8.0100611 q 0.505898,-0.10116 0.725118,-0.2360616 V 6.2225907 H 13.67605 Q 13.6086,6.7453593 13.473691,7.2006509 13.338782,7.6390978 13.068972,8.0100872 Z"/>
    <path style="fill:#000000" d="m 12.158362,6.6272175 q -0.202359,-0.10116 -0.202359,-0.2698034 h 0.06745 l 0.10118,-0.033937 V 6.424637 l 0.101179,0.1686434 z"/>
    <path style="fill:#ffffff" d="m 11.956003,8.2966766 h 0.26981 V 8.2627391 Q 10.994802,8.2292258 9.8818317,6.7452614 L 9.2916188,7.3523517 q 1.4165072,0.944338 2.6643832,0.944338 z"/>
    <path style="fill:#000000" d="m 12.023454,7.1499796 -0.202359,-0.10116 0.03374,-0.10116 0.06745,0.033938 0.101179,0.033937 0.320403,-0.2023852 0.134908,0.10116 0.10118,-0.067483 0.134908,0.10116 0.101179,0.033937 h 0.03374 v 0.10116 h -0.168631 l -0.03374,-0.033938 -0.16863,0.067418 -0.16863,-0.067418 z"/>
    <path style="fill:#000000" d="m 12.411308,7.3523647 -0.219223,-0.033937 -0.134909,-0.033938 v -0.10116 l 0.354126,0.033938 0.202359,-0.10116 h 0.134908 q 0,0.2360616 -0.337261,0.2360616 z"/>
    <path style="fill:#ffffff" d="m 11.888546,9.2241765 q 1.483961,0 1.939267,-0.6239285 V 8.1618011 q -0.758843,0.5396067 -1.871815,0.5396067 -1.06238,0 -2.9341943,-0.9274801 L 8.566499,8.2292128 q 1.635729,0.9949245 3.322048,0.9949245 z"/>
    <path style="fill:#ffffff" d="M 7.9088332,11.129716 8.5327684,8.853187 7.8751039,8.3979019 7.6727449,8.5328036 6.3911422,10.185398 q 1.1129703,0.06748 1.5176871,0.944338 z"/>
    <path style="fill:#ffffff" d="m 5.4299495,9.679455 q 0.421576,0 0.421576,-0.4552851 0,-0.4215434 -0.421576,-0.4215434 -0.4553047,0 -0.4553047,0.4215434 0,0.4552851 0.4553047,0.4552851 z"/>
    <path style="fill:#ffffff" d="M 7.8751118,12.883465 H 9.2916201 L 9.7132026,9.3590586 8.9543587,9.0555134 Z"/>
    <path style="fill:#ffffff" d="m 13.406238,12.883465 h 1.079244 L 14.367439,11.955991 Q 13.99645,10.809294 13.827819,9.1904282 13.507416,9.4602316 12.950933,9.6120368 Z"/>
    <path style="fill:#ffffff" d="m 9.7132,12.883465 h 1.517686 l -0.06745,-3.1702812 q -0.26981,0 -0.53962,-0.067483 -0.252946,-0.067483 -0.489033,-0.15174 z"/>
    <path style="fill:#ffffff" d="m 11.652466,12.883465 h 1.332192 L 12.57994,9.7131838 12.225815,9.7471213 h -0.640799 z"/>
    <path style="fill:#ffffff" d="m 6.3236984,12.158344 0.2192235,-0.03394 -0.2192235,-0.236061 0.067451,-0.06742 0.3204029,0.202386 0.1011795,-0.202386 q 0,-0.252964 -0.2698099,-0.455284 l 0.067451,-0.06748 q 0.4047182,0.134902 0.6576645,0.371029 0.1349081,0.252965 0.2698099,0.252965 0.202359,0 0.202359,-0.252965 l -0.033742,-0.06748 Q 7.6727226,11.264416 7.284882,10.960936 6.9138924,10.640553 6.3574063,10.640553 q -0.3372608,0 -0.6407994,0.236061 -0.2866743,0.219224 -0.2866743,0.455286 0,0.590186 0.3372608,0.590186 l 0.1854947,-0.03394 q 0.1011796,0.269804 0.3709894,0.269804 z"/>
    <path style="fill:#ffffff" d="M 4.7048324,12.883465 H 5.0420958 V 11.095968 H 4.704835 Z"/>
    <path style="fill:#ffffff" d="M 5.8178027,12.883465 H 7.4366689 L 7.571577,12.293278 q -0.1011794,0 -0.522762,-0.337287 0,0.691386 -0.7251172,0.691386 H 6.0876101 Z"/>
    <path style="fill:#ffffff" d="m 10.741855,13.406234 h 0.421576 v -0.354125 h -0.421576 z"/>
    <path style="fill:#ffffff" d="M 5.1938644,13.406234 H 5.5985825 V 13.052109 H 5.1938644 Z"/>
    <path style="fill:#ffffff" d="m 10.050463,13.406234 h 0.421583 v -0.354125 h -0.421583 z"/>
    <path style="fill:#ffffff" d="m 12.124636,13.406234 h 0.421583 v -0.354125 h -0.421583 z"/>
    <path style="fill:#ffffff" d="m 11.433245,13.406234 h 0.421582 v -0.354125 h -0.421582 z"/>
    <path style="fill:#ffffff" d="M 9.359073,13.406234 H 9.7806489 V 13.052109 H 9.359073 Z"/>
    <path style="fill:#ffffff" d="m 12.849754,13.406234 h 0.421582 v -0.354125 h -0.421582 z"/>
    <path style="fill:#ffffff" d="M 8.6676818,13.406234 H 9.0892643 V 13.052109 H 8.6676818 Z"/>
    <path style="fill:#ffffff" d="M 7.9931543,13.406234 H 8.3978726 V 13.052109 H 7.9931543 Z"/>
    <path style="fill:#ffffff" d="m 13.541144,13.406234 h 0.421582 v -0.354125 h -0.421582 z"/>
    <path style="fill:#ffffff" d="M 7.3017632,13.406234 H 7.7064814 V 13.052109 H 7.3017632 Z"/>
    <path style="fill:#ffffff" d="m 14.232535,13.406234 h 0.421576 v -0.354125 h -0.421576 z"/>
    <path style="fill:#ffffff" d="m 14.923925,13.406234 h 0.421583 v -0.354125 h -0.421583 z"/>
    <path style="fill:#ffffff" d="M 4.4687478,13.406234 H 4.9071882 V 13.052109 H 4.4687478 Z"/>
    <path style="fill:#ffffff" d="M 6.576646,13.406234 H 6.9813641 V 13.052109 H 6.576646 Z"/>
    <path style="fill:#ffffff" d="M 5.8852556,13.406234 H 6.2899737 V 13.052109 H 5.8852556 Z"/>
    <path style="fill:#ffffff" d="M 4.4350211,22.175092 H 6.12134 L 6.0875983,21.753484 Q 5.4973854,20.792281 5.4973854,20.269519 v -1.298463 l -0.033742,-0.843158 0.1011796,-0.06742 v -0.337286 q 0,-0.489028 -0.067451,-1.028654 -0.067451,-0.55651 -0.1686304,-1.112968 l -0.1349081,0.303546 -0.1011796,0.10116 q 0.2360877,0.252964 0.2360877,0.354124 0,0.06742 -0.3204029,0.370963 0.2866742,0.286642 0.2866742,0.775708 L 5.008339,19.274569 q 0,0.269803 0.1854948,0.455285 0.1686304,0.168644 0.1686304,0.337287 0,0.236061 -0.26981,0.236061 l 0.033742,0.185482 -0.084315,0.404705 0.151766,0.455285 -0.1011795,0.404705 -0.1180438,0.286707 Q 4.7385421,21.584802 4.7385421,21.348693 l 0.1349082,-0.455284 -0.067451,-0.404706 0.033742,-0.185481 q -0.2698099,0 -0.2698099,-0.236062 0,-0.10116 0.1686304,-0.337287 0.1686304,-0.185482 0.1686304,-0.455284 l -0.26981,-1.787497 q 0,-0.489027 0.26981,-0.775708 -0.3035387,-0.303545 -0.3035387,-0.370963 0,-0.168644 0.1180439,-0.252966 0.1180439,-0.10116 0.1517661,-0.10116 Q 4.5362026,15.581591 4.5362026,15.261181 L 4.704833,13.574864 h -0.26981 z"/>
    <path style="fill:#ffffff" d="m 14.78902,15.379232 h 0.337267 V 13.574858 H 14.78902 Z"/>
    <path style="fill:#ffffff" d="m 12.7823,14.502331 q 0,-0.691392 0.725118,-0.691392 h 0.252945 l 0.26981,-0.236061 h -1.618865 l -0.151767,0.590186 q 0.219223,0 0.522762,0.337286 z"/>
    <path style="fill:#ffffff" d="M 7.2680372,16.761997 7.605298,16.711091 H 8.2629656 L 8.1955128,13.574858 H 6.8464573 Z"/>
    <path style="fill:#ffffff" d="M 6.0201611,17.267928 Q 6.3236998,16.998124 6.880184,16.863222 L 6.4248774,13.574858 H 5.3624967 l 0.1011796,0.927473 q 0.2023591,0.590187 0.3541251,1.281599 0.1686304,0.691392 0.2023591,1.483965 z"/>
    <path style="fill:#ffffff" d="m 9.7132,16.964382 0.421576,-3.389498 H 8.600229 l 0.067451,3.187139 z"/>
    <path style="fill:#ffffff" d="m 10.893623,17.402829 1.062381,-3.827938 h -1.416508 l -0.404718,3.524406 z"/>
    <path style="fill:#ffffff" d="m 13.473691,15.817659 q 0.387854,0 0.657665,-0.219223 0.269809,-0.219224 0.269809,-0.47219 0,-0.590186 -0.337261,-0.590186 L 13.895275,14.57 q -0.10118,-0.269804 -0.387855,-0.269804 l -0.202359,0.03394 0.202359,0.236062 -0.06745,0.08432 -0.303539,-0.219224 -0.101178,0.219224 q 0,0.236062 0.269809,0.438446 l -0.06745,0.06742 q -0.252945,-0.10116 -0.404717,-0.185482 -0.151767,-0.08432 -0.219224,-0.219223 -0.134902,-0.219224 -0.303538,-0.219224 -0.185495,0 -0.185495,0.252966 v 0.06742 q 0.06745,0.337286 0.421582,0.657663 0.370989,0.303546 0.927476,0.303546 z"/>
    <path style="fill:#ffffff" d="m 11.956004,18.060466 0.202359,-0.134901 1.281602,-1.652595 q -1.028653,-0.03394 -1.517687,-0.927474 l -0.623941,2.27653 z"/>
    <path style="fill:#ffffff" d="m 12.512488,22.175079 h 2.900468 V 15.6153 h -0.623935 q -0.134908,0.236061 -0.455304,0.421608 l 0.151765,0.303546 q 0.826295,0.03394 0.826295,0.893744 0,0.387867 -0.26981,0.640832 -0.252946,0.252966 -0.6408,0.252966 -0.337261,0 -0.623934,-0.252966 -0.269811,-0.252965 -0.269811,-0.640832 0,-0.303545 0.219224,-0.573348 0.236081,-0.286642 0.472169,-0.320383 l -0.06746,-0.168683 q -0.826297,0.758843 -2.512616,3.558135 L 11.956,19.999723 q 0,0.691392 0.691392,1.281605 -0.168631,0.236062 -0.168631,0.55651 z"/>
    <path style="fill:#ffffff" d="m 14.401165,17.655748 q 0.455305,0 0.455305,-0.421609 0,-0.438446 -0.455305,-0.438446 -0.404717,0 -0.404717,0.438446 0,0.421609 0.404717,0.421609 z"/>
    <path style="fill:#ffffff" d="m 10.809306,18.684401 0.455305,-0.438446 q -1.6188664,-1.011796 -3.322049,-1.011796 -1.4502345,0 -1.9224035,0.623929 v 0.455285 q 0.6913905,-0.556511 1.8549507,-0.556511 1.0792442,0 2.9341948,0.927474 z"/>
    <path style="fill:#ffffff" d="M 9.2578921,22.175079 H 9.6457459 Q 10.472042,20.06718 12.225814,18.279683 l 0.08432,-0.151739 v -0.03394 l -0.185495,0.118064 q -1.062381,0.860022 -1.720045,1.720045 -0.6576648,0.860023 -1.1466976,2.242801 z"/>
    <path style="fill:#ffffff" d="M 9.9492833,19.729919 10.539496,19.105991 Q 9.1567146,18.161639 7.8751118,18.161639 H 7.6053019 v 0.05091 q 1.281602,0.10116 2.3439833,1.517686 z"/>
    <path style="fill:#ffffff" d="m 5.9864331,20.303267 h 0.1011796 q 0.1349082,-0.99493 0.623935,-1.787496 -0.5227621,0.10116 -0.7251172,0.236062 z"/>
    <path style="fill:#ffffff" d="M 6.4586021,22.175079 H 8.6676818 Q 9.0555356,20.859752 9.7132,19.99973 8.6339557,18.61695 7.5041217,18.549494 q -0.3878539,0 -0.7588433,0.775707 -0.3541251,0.775707 -0.3541251,1.56828 L 6.7452784,20.826062 7.0825391,20.86 6.7452784,20.202336 q 0,-0.337287 0.5902129,-0.438447 l 0.067451,0.202386 q -0.4215824,0.10116 -0.4215824,0.236061 0.4215824,0.826294 0.4215824,1.045518 0,0.590187 -0.6239351,0.590187 L 6.424882,21.719978 v 0.18548 z"/>
    <path style="fill:#ff0000" d="m 13.271331,21.348785 q -0.590213,0 -0.590213,-0.657664 0,-0.202385 0.151766,-0.438446 0.151766,-0.252965 0.404718,-0.590187 0.556484,-0.657664 0.69139,-1.011795 0.06745,0.168643 0.252946,0.421608 0.185495,0.236062 0.438441,0.590187 0.556484,0.640832 0.556484,1.028653 0,0.657664 -0.590214,0.657664 -0.455304,0 -0.657664,-0.522769 -0.20236,0.522769 -0.657665,0.522769 z"/>
    <path style="fill:#000000" d="m 7.0825418,19.342065 q 0,-0.236061 0.3541251,-0.236061 l 0.2023591,0.03394 0.1349082,0.03394 v 0.10116 L 7.4366735,19.241101 7.21745,19.342261 Z"/>
    <path style="fill:#000000" d="m 7.5041243,19.662448 q -0.1349083,0 -0.1349083,-0.118063 l -0.1011795,0.06742 -0.1517661,-0.10116 -0.1011795,-0.03394 h -0.033742 v -0.10116 l 0.1011795,0.03394 H 7.183708 l 0.1854946,-0.06742 0.1686304,0.06742 0.26981,-0.10116 0.2192235,0.10116 -0.033742,0.101159 -0.084315,-0.03394 h -0.067451 l -0.033742,-0.03394 z"/>
    <path style="fill:#ff0000" d="m 17.09928,21.753484 q -0.522769,0 -0.522769,-0.539607 0,-0.55651 0.421609,-0.860023 0.236061,-0.185482 0.387867,-0.404705 0.168643,-0.219223 0.269803,-0.472188 0.10116,0.252965 0.269804,0.455285 0.185482,0.202385 0.387866,0.421543 0.404705,0.404705 0.404705,0.860023 0,0.539606 -0.505929,0.539606 -0.286642,0 -0.556512,-0.404705 -0.236061,0.404705 -0.55651,0.404705 z"/>
    <path style="fill:#000000" d="m 7.7064801,20.134637 v -0.06748 l -0.1011795,-0.202386 0.067451,-0.03394 q 0.2023591,0.202385 0.2023591,0.269804 h -0.067451 z"/>
    <path style="fill:#ffffff" d="m 10.269685,22.175079 h 0.505898 q 0.691391,-0.202385 0.691391,-1.062382 l -0.03374,-0.421608 q 0.320403,0.236061 0.522762,0.236061 -0.26981,-0.438447 -0.26981,-0.792565 L 11.466961,19.9322 q -0.994918,1.652673 -1.197276,2.242879 z"/>
    <path style="fill:#000000" d="m 7.6390273,20.758573 -0.033742,-0.06742 q 0,-0.269804 0.522762,-0.269804 l 0.1011796,0.03394 -0.1011796,0.06748 z"/>
    <path style="fill:#000000" d="M 7.8076577,21.382501 7.6390273,20.960893 q 0.3541251,-0.236063 0.5902129,-0.236063 0.3035386,0 0.5564841,0.236063 l 0.033742,0.06748 -0.2192234,0.185482 q -0.3035386,0.168644 -0.6070773,0.168644 z"/>
    <path style="fill:#ffffff" d="m 7.9088372,21.247599 h 0.1854947 l -0.033742,-0.10116 q 0,-0.118064 0.1349083,-0.118064 0.1349081,0 0.1349081,0.118064 v 0.03394 l 0.26981,-0.151739 q -0.1686304,-0.134902 -0.3709895,-0.134902 -0.4553046,0 -0.4553046,0.252965 z"/>
    <path style="fill:#ffffff" d="m 6.4248761,21.315017 h 0.1854946 l -0.033742,-0.10116 q 0,-0.10116 0.1349083,-0.10116 0.1349082,0 0.1349082,0.10116 v 0.03394 L 7.1162554,21.112893 Q 6.947625,20.961153 6.7452659,20.961153 l -0.354125,0.118063 v 0.202386 z"/>
    <path style="fill:#ffffff" d="m 11.298338,22.17504 h 0.89375 l -0.03374,-0.303545 q 0,-0.354125 0.151766,-0.522769 l -0.185495,-0.202384 -0.16863,0.03394 -0.20236,-0.03394 v 0.202384 q 0,0.522769 -0.455304,0.826294 z"/>
    <path style="fill:#ffffff" d="m 6.7790031,21.584854 q 0.3709895,0 0.3709895,-0.337288 -0.3035386,0.202385 -0.7588432,0.202385 0,0.134903 0.3878537,0.134903 z"/>
    <path style="fill:#000000" d="m 7.8751105,21.804077 q -0.1349083,0 -0.1349083,-0.219223 l 0.8937496,-0.134903 0.1180439,0.06748 q 0,0.286642 -0.8768852,0.286642 z"/>
    <path style="fill:#ff0000" d="m 17.723215,25.109267 q -0.55651,0 -0.876887,-0.354125 -0.303545,-0.370964 -0.303545,-0.893746 0,-0.539606 0.320383,-0.893751 l -0.320383,-0.269804 0.252965,-0.252964 0.337286,0.320383 q 0.134903,-0.06742 0.286642,-0.10116 0.168644,-0.03394 0.303545,-0.03394 0.556511,0 0.860023,0.354125 0.320383,0.337287 0.320383,0.876887 0,0.522769 -0.320383,0.893746 -0.303545,0.354124 -0.860023,0.354124 z"/>
    <path style="fill:#ffffff" d="m 17.723215,24.67082 q 0.657663,0 0.657663,-0.80943 0,-0.826301 -0.657663,-0.826301 l -0.202385,0.03394 0.202385,0.219224 -0.236062,0.269804 -0.286707,-0.236062 q -0.134901,0.168643 -0.134901,0.539607 0,0.809429 0.657663,0.809429 z"/>
</svg>